ISO-10303-21;
HEADER;
/* Generated by software containing ST-Developer
 * from STEP Tools, Inc. (www.steptools.com) 
 */

FILE_DESCRIPTION(
/* description */ (''),
/* implementation_level */ '2;1');

FILE_NAME(
/* name */ 'mocowanie chwytaka.step',
/* time_stamp */ '2026-03-04T15:15:49+01:00',
/* author */ (''),
/* organization */ (''),
/* preprocessor_version */ 'ST-DEVELOPER v20.1',
/* originating_system */ 'Autodesk Translation Framework v14.24.0.0',
/* authorisation */ '');

FILE_SCHEMA (('AUTOMOTIVE_DESIGN { 1 0 10303 214 3 1 1 }'));
ENDSEC;

DATA;
#10=MECHANICAL_DESIGN_GEOMETRIC_PRESENTATION_REPRESENTATION('',(#13),#1204);
#11=SHAPE_REPRESENTATION_RELATIONSHIP('SRR','None',#1211,#12);
#12=ADVANCED_BREP_SHAPE_REPRESENTATION('',(#14),#1203);
#13=STYLED_ITEM('',(#1220),#14);
#14=MANIFOLD_SOLID_BREP('Bry\X2\0142\X0\a1',#484);
#15=FACE_BOUND('',#159,.T.);
#16=FACE_BOUND('',#160,.T.);
#17=FACE_BOUND('',#163,.T.);
#18=FACE_BOUND('',#166,.T.);
#19=FACE_BOUND('',#170,.T.);
#20=FACE_BOUND('',#171,.T.);
#21=FACE_BOUND('',#173,.T.);
#22=FACE_BOUND('',#174,.T.);
#23=FACE_BOUND('',#176,.T.);
#24=FACE_BOUND('',#177,.T.);
#25=FACE_BOUND('',#179,.T.);
#26=FACE_BOUND('',#180,.T.);
#27=FACE_BOUND('',#182,.T.);
#28=FACE_BOUND('',#183,.T.);
#29=FACE_BOUND('',#185,.T.);
#30=FACE_BOUND('',#186,.T.);
#31=FACE_BOUND('',#188,.T.);
#32=FACE_BOUND('',#189,.T.);
#33=FACE_BOUND('',#191,.T.);
#34=FACE_BOUND('',#192,.T.);
#35=FACE_BOUND('',#193,.T.);
#36=FACE_BOUND('',#194,.T.);
#37=FACE_BOUND('',#195,.T.);
#38=LINE('',#716,#63);
#39=LINE('',#788,#64);
#40=LINE('',#860,#65);
#41=LINE('',#932,#66);
#42=LINE('',#971,#67);
#43=LINE('',#1020,#68);
#44=LINE('',#1055,#69);
#45=LINE('',#1104,#70);
#46=LINE('',#1140,#71);
#47=LINE('',#1143,#72);
#48=LINE('',#1152,#73);
#49=LINE('',#1161,#74);
#50=LINE('',#1167,#75);
#51=LINE('',#1169,#76);
#52=LINE('',#1173,#77);
#53=LINE('',#1177,#78);
#54=LINE('',#1181,#79);
#55=LINE('',#1182,#80);
#56=LINE('',#1183,#81);
#57=LINE('',#1186,#82);
#58=LINE('',#1188,#83);
#59=LINE('',#1189,#84);
#60=LINE('',#1193,#85);
#61=LINE('',#1196,#86);
#62=LINE('',#1197,#87);
#63=VECTOR('',#562,1.6);
#64=VECTOR('',#565,1.6);
#65=VECTOR('',#568,1.6);
#66=VECTOR('',#571,1.6);
#67=VECTOR('',#576,1.6);
#68=VECTOR('',#579,1.6);
#69=VECTOR('',#586,1.6);
#70=VECTOR('',#589,1.6);
#71=VECTOR('',#596,10.);
#72=VECTOR('',#599,10.);
#73=VECTOR('',#608,5.);
#74=VECTOR('',#619,5.);
#75=VECTOR('',#628,2.60000000000002);
#76=VECTOR('',#631,2.60000000000002);
#77=VECTOR('',#636,3.05);
#78=VECTOR('',#641,3.05);
#79=VECTOR('',#646,4.05000000000001);
#80=VECTOR('',#647,4.05000000000001);
#81=VECTOR('',#648,4.05000000000001);
#82=VECTOR('',#651,10.);
#83=VECTOR('',#652,10.);
#84=VECTOR('',#653,10.);
#85=VECTOR('',#658,10.);
#86=VECTOR('',#661,10.);
#87=VECTOR('',#662,10.);
#88=B_SPLINE_CURVE_WITH_KNOTS('',3,(#681,#682,#683,#684,#685,#686,#687,
#688,#689,#690,#691,#692,#693,#694,#695,#696,#697,#698,#699,#700,#701,#702,
#703,#704,#705,#706,#707,#708,#709,#710,#711,#712,#713,#714),
 .UNSPECIFIED.,.T.,.F.,(4,2,2,2,2,2,2,2,2,2,2,2,2,2,2,2,4),(0.,0.0603615483394658,
0.120723096678932,0.181083732497299,0.241444368315666,0.301805004134033,
0.362165639952401,0.422527188291866,0.482888736631332,0.543250284970798,
0.603611833310264,0.663972469128631,0.724333104946998,0.784693740765366,
0.845054376583733,0.905415924923199,0.965777473262664),.UNSPECIFIED.);
#89=B_SPLINE_CURVE_WITH_KNOTS('',3,(#717,#718,#719,#720,#721,#722,#723,
#724,#725,#726,#727,#728,#729,#730,#731,#732,#733,#734,#735,#736,#737,#738,
#739,#740,#741,#742,#743,#744,#745,#746,#747,#748,#749,#750),
 .UNSPECIFIED.,.T.,.F.,(4,2,2,2,2,2,2,2,2,2,2,2,2,2,2,2,4),(0.,0.0617531404837544,
0.123506280967509,0.185049420229838,0.246592559492167,0.308135698754496,
0.369678838016825,0.43143197850058,0.493185118984334,0.554938259468088,
0.616691399951843,0.678234539214172,0.739777678476501,0.80132081773883,
0.862863957001159,0.924617097484913,0.986370237968668),.UNSPECIFIED.);
#90=B_SPLINE_CURVE_WITH_KNOTS('',3,(#753,#754,#755,#756,#757,#758,#759,
#760,#761,#762,#763,#764,#765,#766,#767,#768,#769,#770,#771,#772,#773,#774,
#775,#776,#777,#778,#779,#780,#781,#782,#783,#784,#785,#786),
 .UNSPECIFIED.,.T.,.F.,(4,2,2,2,2,2,2,2,2,2,2,2,2,2,2,2,4),(0.,0.0603615483394658,
0.120723096678932,0.181083732497299,0.241444368315666,0.301805004134033,
0.362165639952401,0.422527188291866,0.482888736631332,0.543250284970798,
0.603611833310264,0.663972469128631,0.724333104946998,0.784693740765366,
0.845054376583733,0.905415924923199,0.965777473262664),.UNSPECIFIED.);
#91=B_SPLINE_CURVE_WITH_KNOTS('',3,(#789,#790,#791,#792,#793,#794,#795,
#796,#797,#798,#799,#800,#801,#802,#803,#804,#805,#806,#807,#808,#809,#810,
#811,#812,#813,#814,#815,#816,#817,#818,#819,#820,#821,#822),
 .UNSPECIFIED.,.T.,.F.,(4,2,2,2,2,2,2,2,2,2,2,2,2,2,2,2,4),(0.,0.0617531404837544,
0.123506280967509,0.185049420229838,0.246592559492167,0.308135698754496,
0.369678838016825,0.43143197850058,0.493185118984334,0.554938259468088,
0.616691399951843,0.678234539214172,0.739777678476501,0.80132081773883,
0.862863957001159,0.924617097484913,0.986370237968668),.UNSPECIFIED.);
#92=B_SPLINE_CURVE_WITH_KNOTS('',3,(#825,#826,#827,#828,#829,#830,#831,
#832,#833,#834,#835,#836,#837,#838,#839,#840,#841,#842,#843,#844,#845,#846,
#847,#848,#849,#850,#851,#852,#853,#854,#855,#856,#857,#858),
 .UNSPECIFIED.,.T.,.F.,(4,2,2,2,2,2,2,2,2,2,2,2,2,2,2,2,4),(0.,0.0603615483394658,
0.120723096678932,0.181083732497299,0.241444368315666,0.301805004134033,
0.362165639952401,0.422527188291866,0.482888736631332,0.543250284970798,
0.603611833310264,0.663972469128631,0.724333104946998,0.784693740765366,
0.845054376583733,0.905415924923199,0.965777473262664),.UNSPECIFIED.);
#93=B_SPLINE_CURVE_WITH_KNOTS('',3,(#861,#862,#863,#864,#865,#866,#867,
#868,#869,#870,#871,#872,#873,#874,#875,#876,#877,#878,#879,#880,#881,#882,
#883,#884,#885,#886,#887,#888,#889,#890,#891,#892,#893,#894),
 .UNSPECIFIED.,.T.,.F.,(4,2,2,2,2,2,2,2,2,2,2,2,2,2,2,2,4),(0.,0.0617531404837544,
0.123506280967509,0.185049420229838,0.246592559492167,0.308135698754496,
0.369678838016825,0.43143197850058,0.493185118984334,0.554938259468088,
0.616691399951843,0.678234539214172,0.739777678476501,0.80132081773883,
0.862863957001159,0.924617097484913,0.986370237968668),.UNSPECIFIED.);
#94=B_SPLINE_CURVE_WITH_KNOTS('',3,(#897,#898,#899,#900,#901,#902,#903,
#904,#905,#906,#907,#908,#909,#910,#911,#912,#913,#914,#915,#916,#917,#918,
#919,#920,#921,#922,#923,#924,#925,#926,#927,#928,#929,#930),
 .UNSPECIFIED.,.T.,.F.,(4,2,2,2,2,2,2,2,2,2,2,2,2,2,2,2,4),(0.,0.0603615483394658,
0.120723096678932,0.181083732497299,0.241444368315666,0.301805004134033,
0.362165639952401,0.422527188291866,0.482888736631332,0.543250284970798,
0.603611833310264,0.663972469128631,0.724333104946998,0.784693740765366,
0.845054376583733,0.905415924923199,0.965777473262664),.UNSPECIFIED.);
#95=B_SPLINE_CURVE_WITH_KNOTS('',3,(#933,#934,#935,#936,#937,#938,#939,
#940,#941,#942,#943,#944,#945,#946,#947,#948,#949,#950,#951,#952,#953,#954,
#955,#956,#957,#958,#959,#960,#961,#962,#963,#964,#965,#966),
 .UNSPECIFIED.,.T.,.F.,(4,2,2,2,2,2,2,2,2,2,2,2,2,2,2,2,4),(0.,0.0617531404837544,
0.123506280967509,0.185049420229838,0.246592559492167,0.308135698754496,
0.369678838016825,0.43143197850058,0.493185118984334,0.554938259468088,
0.616691399951843,0.678234539214172,0.739777678476501,0.80132081773883,
0.862863957001159,0.924617097484913,0.986370237968668),.UNSPECIFIED.);
#96=B_SPLINE_CURVE_WITH_KNOTS('',3,(#972,#973,#974,#975,#976,#977,#978,
#979,#980,#981,#982,#983,#984,#985,#986,#987,#988,#989,#990,#991,#992,#993,
#994,#995,#996,#997,#998,#999,#1000,#1001,#1002,#1003,#1004,#1005),
 .UNSPECIFIED.,.T.,.F.,(4,2,2,2,2,2,2,2,2,2,2,2,2,2,2,2,4),(0.,0.0610276392802098,
0.12205527856042,0.183024415744358,0.243993552928297,0.304962690112235,
0.365931827296174,0.426959466576384,0.487987105856594,0.549014745136803,
0.610042384417013,0.671011521600952,0.73198065878489,0.792949795968829,
0.853918933152768,0.914946572432977,0.975974211713187),.UNSPECIFIED.);
#97=B_SPLINE_CURVE_WITH_KNOTS('',3,(#1009,#1010,#1011,#1012,#1013,#1014,
#1015,#1016,#1017,#1018),.UNSPECIFIED.,.F.,.F.,(4,2,2,2,4),(0.,0.0610276392802098,
0.12205527856042,0.183024415744358,0.243993552928297),.UNSPECIFIED.);
#98=B_SPLINE_CURVE_WITH_KNOTS('',3,(#1023,#1024,#1025,#1026,#1027,#1028,
#1029,#1030,#1031,#1032),.UNSPECIFIED.,.F.,.F.,(4,2,2,2,4),(0.73198065878489,
0.792949795968829,0.853918933152768,0.914946572432977,0.975974211713187),
 .UNSPECIFIED.);
#99=B_SPLINE_CURVE_WITH_KNOTS('',3,(#1033,#1034,#1035,#1036,#1037,#1038,
#1039,#1040,#1041,#1042,#1043,#1044,#1045,#1046,#1047,#1048,#1049,#1050),
 .UNSPECIFIED.,.F.,.F.,(4,2,2,2,2,2,2,2,4),(0.243993552928297,0.304962690112235,
0.365931827296174,0.426959466576384,0.487987105856594,0.549014745136803,
0.610042384417013,0.671011521600952,0.73198065878489),.UNSPECIFIED.);
#100=B_SPLINE_CURVE_WITH_KNOTS('',3,(#1056,#1057,#1058,#1059,#1060,#1061,
#1062,#1063,#1064,#1065,#1066,#1067,#1068,#1069,#1070,#1071,#1072,#1073,
#1074,#1075,#1076,#1077,#1078,#1079,#1080,#1081,#1082,#1083,#1084,#1085,
#1086,#1087,#1088,#1089),.UNSPECIFIED.,.T.,.F.,(4,2,2,2,2,2,2,2,2,2,2,2,
2,2,2,2,4),(0.,0.0610276392802098,0.12205527856042,0.183024415744358,0.243993552928297,
0.304962690112235,0.365931827296174,0.426959466576384,0.487987105856593,
0.549014745136803,0.610042384417013,0.671011521600952,0.73198065878489,
0.792949795968829,0.853918933152767,0.914946572432977,0.975974211713187),
 .UNSPECIFIED.);
#101=B_SPLINE_CURVE_WITH_KNOTS('',3,(#1093,#1094,#1095,#1096,#1097,#1098,
#1099,#1100,#1101,#1102),.UNSPECIFIED.,.F.,.F.,(4,2,2,2,4),(0.,0.0610276392802098,
0.12205527856042,0.183024415744358,0.243993552928297),.UNSPECIFIED.);
#102=B_SPLINE_CURVE_WITH_KNOTS('',3,(#1107,#1108,#1109,#1110,#1111,#1112,
#1113,#1114,#1115,#1116),.UNSPECIFIED.,.F.,.F.,(4,2,2,2,4),(0.73198065878489,
0.792949795968829,0.853918933152767,0.914946572432977,0.975974211713187),
 .UNSPECIFIED.);
#103=B_SPLINE_CURVE_WITH_KNOTS('',3,(#1117,#1118,#1119,#1120,#1121,#1122,
#1123,#1124,#1125,#1126,#1127,#1128,#1129,#1130,#1131,#1132,#1133,#1134),
 .UNSPECIFIED.,.F.,.F.,(4,2,2,2,2,2,2,2,4),(0.243993552928297,0.304962690112235,
0.365931827296174,0.426959466576384,0.487987105856593,0.549014745136803,
0.610042384417013,0.671011521600952,0.73198065878489),.UNSPECIFIED.);
#104=CYLINDRICAL_SURFACE('',#504,1.6);
#105=CYLINDRICAL_SURFACE('',#505,1.6);
#106=CYLINDRICAL_SURFACE('',#506,1.6);
#107=CYLINDRICAL_SURFACE('',#507,1.6);
#108=CYLINDRICAL_SURFACE('',#508,1.6);
#109=CYLINDRICAL_SURFACE('',#510,1.6);
#110=CYLINDRICAL_SURFACE('',#512,1.6);
#111=CYLINDRICAL_SURFACE('',#514,1.6);
#112=CYLINDRICAL_SURFACE('',#521,5.);
#113=CYLINDRICAL_SURFACE('',#526,5.);
#114=CYLINDRICAL_SURFACE('',#531,2.60000000000002);
#115=CYLINDRICAL_SURFACE('',#532,2.60000000000002);
#116=CYLINDRICAL_SURFACE('',#533,3.05);
#117=CYLINDRICAL_SURFACE('',#535,3.05);
#118=CYLINDRICAL_SURFACE('',#537,4.05000000000001);
#119=CYLINDRICAL_SURFACE('',#540,11.05);
#120=CYLINDRICAL_SURFACE('',#543,11.05);
#121=FACE_OUTER_BOUND('',#147,.T.);
#122=FACE_OUTER_BOUND('',#148,.T.);
#123=FACE_OUTER_BOUND('',#149,.T.);
#124=FACE_OUTER_BOUND('',#150,.T.);
#125=FACE_OUTER_BOUND('',#151,.T.);
#126=FACE_OUTER_BOUND('',#152,.T.);
#127=FACE_OUTER_BOUND('',#153,.T.);
#128=FACE_OUTER_BOUND('',#154,.T.);
#129=FACE_OUTER_BOUND('',#155,.T.);
#130=FACE_OUTER_BOUND('',#156,.T.);
#131=FACE_OUTER_BOUND('',#157,.T.);
#132=FACE_OUTER_BOUND('',#158,.T.);
#133=FACE_OUTER_BOUND('',#161,.T.);
#134=FACE_OUTER_BOUND('',#162,.T.);
#135=FACE_OUTER_BOUND('',#164,.T.);
#136=FACE_OUTER_BOUND('',#165,.T.);
#137=FACE_OUTER_BOUND('',#167,.T.);
#138=FACE_OUTER_BOUND('',#168,.T.);
#139=FACE_OUTER_BOUND('',#169,.T.);
#140=FACE_OUTER_BOUND('',#172,.T.);
#141=FACE_OUTER_BOUND('',#175,.T.);
#142=FACE_OUTER_BOUND('',#178,.T.);
#143=FACE_OUTER_BOUND('',#181,.T.);
#144=FACE_OUTER_BOUND('',#184,.T.);
#145=FACE_OUTER_BOUND('',#187,.T.);
#146=FACE_OUTER_BOUND('',#190,.T.);
#147=EDGE_LOOP('',(#323));
#148=EDGE_LOOP('',(#324));
#149=EDGE_LOOP('',(#325));
#150=EDGE_LOOP('',(#326,#327,#328,#329));
#151=EDGE_LOOP('',(#330,#331,#332,#333));
#152=EDGE_LOOP('',(#334,#335,#336,#337));
#153=EDGE_LOOP('',(#338,#339,#340,#341));
#154=EDGE_LOOP('',(#342,#343,#344,#345));
#155=EDGE_LOOP('',(#346,#347,#348,#349,#350,#351));
#156=EDGE_LOOP('',(#352,#353,#354,#355));
#157=EDGE_LOOP('',(#356,#357,#358,#359,#360,#361));
#158=EDGE_LOOP('',(#362,#363,#364,#365));
#159=EDGE_LOOP('',(#366));
#160=EDGE_LOOP('',(#367));
#161=EDGE_LOOP('',(#368,#369,#370,#371));
#162=EDGE_LOOP('',(#372));
#163=EDGE_LOOP('',(#373));
#164=EDGE_LOOP('',(#374,#375,#376,#377));
#165=EDGE_LOOP('',(#378));
#166=EDGE_LOOP('',(#379));
#167=EDGE_LOOP('',(#380,#381,#382,#383));
#168=EDGE_LOOP('',(#384,#385,#386,#387));
#169=EDGE_LOOP('',(#388,#389,#390,#391));
#170=EDGE_LOOP('',(#392));
#171=EDGE_LOOP('',(#393));
#172=EDGE_LOOP('',(#394,#395,#396,#397));
#173=EDGE_LOOP('',(#398));
#174=EDGE_LOOP('',(#399));
#175=EDGE_LOOP('',(#400,#401,#402,#403,#404,#405,#406,#407,#408,#409,#410,
#411,#412,#413));
#176=EDGE_LOOP('',(#414));
#177=EDGE_LOOP('',(#415));
#178=EDGE_LOOP('',(#416,#417,#418,#419));
#179=EDGE_LOOP('',(#420));
#180=EDGE_LOOP('',(#421));
#181=EDGE_LOOP('',(#422,#423,#424,#425));
#182=EDGE_LOOP('',(#426));
#183=EDGE_LOOP('',(#427));
#184=EDGE_LOOP('',(#428,#429,#430,#431));
#185=EDGE_LOOP('',(#432));
#186=EDGE_LOOP('',(#433));
#187=EDGE_LOOP('',(#434,#435,#436,#437));
#188=EDGE_LOOP('',(#438));
#189=EDGE_LOOP('',(#439));
#190=EDGE_LOOP('',(#440,#441,#442,#443));
#191=EDGE_LOOP('',(#444));
#192=EDGE_LOOP('',(#445));
#193=EDGE_LOOP('',(#446));
#194=EDGE_LOOP('',(#447));
#195=EDGE_LOOP('',(#448));
#196=CIRCLE('',#499,3.05);
#197=CIRCLE('',#501,4.05000000000001);
#198=CIRCLE('',#503,3.05);
#199=CIRCLE('',#509,1.6);
#200=CIRCLE('',#511,1.6);
#201=CIRCLE('',#513,1.6);
#202=CIRCLE('',#515,1.6);
#203=CIRCLE('',#517,11.05);
#204=CIRCLE('',#518,11.05);
#205=CIRCLE('',#519,2.60000000000002);
#206=CIRCLE('',#520,2.60000000000002);
#207=CIRCLE('',#522,5.);
#208=CIRCLE('',#523,5.);
#209=CIRCLE('',#525,2.60000000000002);
#210=CIRCLE('',#527,5.);
#211=CIRCLE('',#528,5.);
#212=CIRCLE('',#530,2.60000000000002);
#213=CIRCLE('',#534,3.05);
#214=CIRCLE('',#536,3.05);
#215=CIRCLE('',#538,4.05000000000001);
#216=CIRCLE('',#541,11.05);
#217=CIRCLE('',#544,11.05);
#218=VERTEX_POINT('',#671);
#219=VERTEX_POINT('',#674);
#220=VERTEX_POINT('',#677);
#221=VERTEX_POINT('',#680);
#222=VERTEX_POINT('',#715);
#223=VERTEX_POINT('',#752);
#224=VERTEX_POINT('',#787);
#225=VERTEX_POINT('',#824);
#226=VERTEX_POINT('',#859);
#227=VERTEX_POINT('',#896);
#228=VERTEX_POINT('',#931);
#229=VERTEX_POINT('',#968);
#230=VERTEX_POINT('',#970);
#231=VERTEX_POINT('',#1007);
#232=VERTEX_POINT('',#1008);
#233=VERTEX_POINT('',#1019);
#234=VERTEX_POINT('',#1022);
#235=VERTEX_POINT('',#1052);
#236=VERTEX_POINT('',#1054);
#237=VERTEX_POINT('',#1091);
#238=VERTEX_POINT('',#1092);
#239=VERTEX_POINT('',#1103);
#240=VERTEX_POINT('',#1106);
#241=VERTEX_POINT('',#1136);
#242=VERTEX_POINT('',#1137);
#243=VERTEX_POINT('',#1139);
#244=VERTEX_POINT('',#1141);
#245=VERTEX_POINT('',#1144);
#246=VERTEX_POINT('',#1146);
#247=VERTEX_POINT('',#1149);
#248=VERTEX_POINT('',#1151);
#249=VERTEX_POINT('',#1155);
#250=VERTEX_POINT('',#1158);
#251=VERTEX_POINT('',#1160);
#252=VERTEX_POINT('',#1164);
#253=VERTEX_POINT('',#1171);
#254=VERTEX_POINT('',#1175);
#255=VERTEX_POINT('',#1179);
#256=VERTEX_POINT('',#1185);
#257=VERTEX_POINT('',#1187);
#258=VERTEX_POINT('',#1191);
#259=VERTEX_POINT('',#1195);
#260=EDGE_CURVE('',#218,#218,#196,.T.);
#261=EDGE_CURVE('',#219,#219,#197,.T.);
#262=EDGE_CURVE('',#220,#220,#198,.T.);
#263=EDGE_CURVE('',#221,#221,#88,.T.);
#264=EDGE_CURVE('',#221,#222,#38,.T.);
#265=EDGE_CURVE('',#222,#222,#89,.T.);
#266=EDGE_CURVE('',#223,#223,#90,.T.);
#267=EDGE_CURVE('',#223,#224,#39,.T.);
#268=EDGE_CURVE('',#224,#224,#91,.T.);
#269=EDGE_CURVE('',#225,#225,#92,.T.);
#270=EDGE_CURVE('',#225,#226,#40,.T.);
#271=EDGE_CURVE('',#226,#226,#93,.T.);
#272=EDGE_CURVE('',#227,#227,#94,.T.);
#273=EDGE_CURVE('',#227,#228,#41,.T.);
#274=EDGE_CURVE('',#228,#228,#95,.T.);
#275=EDGE_CURVE('',#229,#229,#199,.T.);
#276=EDGE_CURVE('',#229,#230,#42,.T.);
#277=EDGE_CURVE('',#230,#230,#96,.T.);
#278=EDGE_CURVE('',#231,#232,#97,.T.);
#279=EDGE_CURVE('',#231,#233,#43,.T.);
#280=EDGE_CURVE('',#233,#233,#200,.T.);
#281=EDGE_CURVE('',#234,#231,#98,.T.);
#282=EDGE_CURVE('',#232,#234,#99,.T.);
#283=EDGE_CURVE('',#235,#235,#201,.T.);
#284=EDGE_CURVE('',#235,#236,#44,.T.);
#285=EDGE_CURVE('',#236,#236,#100,.T.);
#286=EDGE_CURVE('',#237,#238,#101,.T.);
#287=EDGE_CURVE('',#237,#239,#45,.T.);
#288=EDGE_CURVE('',#239,#239,#202,.T.);
#289=EDGE_CURVE('',#240,#237,#102,.T.);
#290=EDGE_CURVE('',#238,#240,#103,.T.);
#291=EDGE_CURVE('',#241,#242,#203,.T.);
#292=EDGE_CURVE('',#242,#243,#46,.T.);
#293=EDGE_CURVE('',#243,#244,#204,.T.);
#294=EDGE_CURVE('',#244,#241,#47,.T.);
#295=EDGE_CURVE('',#245,#245,#205,.T.);
#296=EDGE_CURVE('',#246,#246,#206,.T.);
#297=EDGE_CURVE('',#247,#247,#207,.T.);
#298=EDGE_CURVE('',#247,#248,#48,.T.);
#299=EDGE_CURVE('',#248,#248,#208,.T.);
#300=EDGE_CURVE('',#249,#249,#209,.T.);
#301=EDGE_CURVE('',#250,#250,#210,.T.);
#302=EDGE_CURVE('',#250,#251,#49,.T.);
#303=EDGE_CURVE('',#251,#251,#211,.T.);
#304=EDGE_CURVE('',#252,#252,#212,.T.);
#305=EDGE_CURVE('',#249,#245,#50,.T.);
#306=EDGE_CURVE('',#252,#246,#51,.T.);
#307=EDGE_CURVE('',#253,#253,#213,.T.);
#308=EDGE_CURVE('',#253,#218,#52,.T.);
#309=EDGE_CURVE('',#254,#254,#214,.T.);
#310=EDGE_CURVE('',#254,#220,#53,.T.);
#311=EDGE_CURVE('',#255,#255,#215,.T.);
#312=EDGE_CURVE('',#255,#232,#54,.T.);
#313=EDGE_CURVE('',#234,#238,#55,.T.);
#314=EDGE_CURVE('',#240,#219,#56,.T.);
#315=EDGE_CURVE('',#256,#242,#57,.T.);
#316=EDGE_CURVE('',#257,#256,#58,.T.);
#317=EDGE_CURVE('',#243,#257,#59,.T.);
#318=EDGE_CURVE('',#258,#257,#216,.T.);
#319=EDGE_CURVE('',#244,#258,#60,.T.);
#320=EDGE_CURVE('',#259,#258,#61,.T.);
#321=EDGE_CURVE('',#241,#259,#62,.T.);
#322=EDGE_CURVE('',#256,#259,#217,.T.);
#323=ORIENTED_EDGE('',*,*,#260,.F.);
#324=ORIENTED_EDGE('',*,*,#261,.F.);
#325=ORIENTED_EDGE('',*,*,#262,.F.);
#326=ORIENTED_EDGE('',*,*,#263,.F.);
#327=ORIENTED_EDGE('',*,*,#264,.T.);
#328=ORIENTED_EDGE('',*,*,#265,.F.);
#329=ORIENTED_EDGE('',*,*,#264,.F.);
#330=ORIENTED_EDGE('',*,*,#266,.F.);
#331=ORIENTED_EDGE('',*,*,#267,.T.);
#332=ORIENTED_EDGE('',*,*,#268,.F.);
#333=ORIENTED_EDGE('',*,*,#267,.F.);
#334=ORIENTED_EDGE('',*,*,#269,.F.);
#335=ORIENTED_EDGE('',*,*,#270,.T.);
#336=ORIENTED_EDGE('',*,*,#271,.F.);
#337=ORIENTED_EDGE('',*,*,#270,.F.);
#338=ORIENTED_EDGE('',*,*,#272,.F.);
#339=ORIENTED_EDGE('',*,*,#273,.T.);
#340=ORIENTED_EDGE('',*,*,#274,.F.);
#341=ORIENTED_EDGE('',*,*,#273,.F.);
#342=ORIENTED_EDGE('',*,*,#275,.F.);
#343=ORIENTED_EDGE('',*,*,#276,.T.);
#344=ORIENTED_EDGE('',*,*,#277,.F.);
#345=ORIENTED_EDGE('',*,*,#276,.F.);
#346=ORIENTED_EDGE('',*,*,#278,.F.);
#347=ORIENTED_EDGE('',*,*,#279,.T.);
#348=ORIENTED_EDGE('',*,*,#280,.F.);
#349=ORIENTED_EDGE('',*,*,#279,.F.);
#350=ORIENTED_EDGE('',*,*,#281,.F.);
#351=ORIENTED_EDGE('',*,*,#282,.F.);
#352=ORIENTED_EDGE('',*,*,#283,.F.);
#353=ORIENTED_EDGE('',*,*,#284,.T.);
#354=ORIENTED_EDGE('',*,*,#285,.F.);
#355=ORIENTED_EDGE('',*,*,#284,.F.);
#356=ORIENTED_EDGE('',*,*,#286,.F.);
#357=ORIENTED_EDGE('',*,*,#287,.T.);
#358=ORIENTED_EDGE('',*,*,#288,.F.);
#359=ORIENTED_EDGE('',*,*,#287,.F.);
#360=ORIENTED_EDGE('',*,*,#289,.F.);
#361=ORIENTED_EDGE('',*,*,#290,.F.);
#362=ORIENTED_EDGE('',*,*,#291,.T.);
#363=ORIENTED_EDGE('',*,*,#292,.T.);
#364=ORIENTED_EDGE('',*,*,#293,.T.);
#365=ORIENTED_EDGE('',*,*,#294,.T.);
#366=ORIENTED_EDGE('',*,*,#295,.T.);
#367=ORIENTED_EDGE('',*,*,#296,.T.);
#368=ORIENTED_EDGE('',*,*,#297,.F.);
#369=ORIENTED_EDGE('',*,*,#298,.T.);
#370=ORIENTED_EDGE('',*,*,#299,.T.);
#371=ORIENTED_EDGE('',*,*,#298,.F.);
#372=ORIENTED_EDGE('',*,*,#299,.F.);
#373=ORIENTED_EDGE('',*,*,#300,.F.);
#374=ORIENTED_EDGE('',*,*,#301,.F.);
#375=ORIENTED_EDGE('',*,*,#302,.T.);
#376=ORIENTED_EDGE('',*,*,#303,.T.);
#377=ORIENTED_EDGE('',*,*,#302,.F.);
#378=ORIENTED_EDGE('',*,*,#303,.F.);
#379=ORIENTED_EDGE('',*,*,#304,.F.);
#380=ORIENTED_EDGE('',*,*,#300,.T.);
#381=ORIENTED_EDGE('',*,*,#305,.T.);
#382=ORIENTED_EDGE('',*,*,#295,.F.);
#383=ORIENTED_EDGE('',*,*,#305,.F.);
#384=ORIENTED_EDGE('',*,*,#304,.T.);
#385=ORIENTED_EDGE('',*,*,#306,.T.);
#386=ORIENTED_EDGE('',*,*,#296,.F.);
#387=ORIENTED_EDGE('',*,*,#306,.F.);
#388=ORIENTED_EDGE('',*,*,#307,.F.);
#389=ORIENTED_EDGE('',*,*,#308,.T.);
#390=ORIENTED_EDGE('',*,*,#260,.T.);
#391=ORIENTED_EDGE('',*,*,#308,.F.);
#392=ORIENTED_EDGE('',*,*,#271,.T.);
#393=ORIENTED_EDGE('',*,*,#274,.T.);
#394=ORIENTED_EDGE('',*,*,#309,.F.);
#395=ORIENTED_EDGE('',*,*,#310,.T.);
#396=ORIENTED_EDGE('',*,*,#262,.T.);
#397=ORIENTED_EDGE('',*,*,#310,.F.);
#398=ORIENTED_EDGE('',*,*,#265,.T.);
#399=ORIENTED_EDGE('',*,*,#268,.T.);
#400=ORIENTED_EDGE('',*,*,#311,.F.);
#401=ORIENTED_EDGE('',*,*,#312,.T.);
#402=ORIENTED_EDGE('',*,*,#282,.T.);
#403=ORIENTED_EDGE('',*,*,#313,.T.);
#404=ORIENTED_EDGE('',*,*,#290,.T.);
#405=ORIENTED_EDGE('',*,*,#314,.T.);
#406=ORIENTED_EDGE('',*,*,#261,.T.);
#407=ORIENTED_EDGE('',*,*,#314,.F.);
#408=ORIENTED_EDGE('',*,*,#289,.T.);
#409=ORIENTED_EDGE('',*,*,#286,.T.);
#410=ORIENTED_EDGE('',*,*,#313,.F.);
#411=ORIENTED_EDGE('',*,*,#281,.T.);
#412=ORIENTED_EDGE('',*,*,#278,.T.);
#413=ORIENTED_EDGE('',*,*,#312,.F.);
#414=ORIENTED_EDGE('',*,*,#277,.T.);
#415=ORIENTED_EDGE('',*,*,#285,.T.);
#416=ORIENTED_EDGE('',*,*,#315,.F.);
#417=ORIENTED_EDGE('',*,*,#316,.F.);
#418=ORIENTED_EDGE('',*,*,#317,.F.);
#419=ORIENTED_EDGE('',*,*,#292,.F.);
#420=ORIENTED_EDGE('',*,*,#280,.T.);
#421=ORIENTED_EDGE('',*,*,#288,.T.);
#422=ORIENTED_EDGE('',*,*,#317,.T.);
#423=ORIENTED_EDGE('',*,*,#318,.F.);
#424=ORIENTED_EDGE('',*,*,#319,.F.);
#425=ORIENTED_EDGE('',*,*,#293,.F.);
#426=ORIENTED_EDGE('',*,*,#269,.T.);
#427=ORIENTED_EDGE('',*,*,#272,.T.);
#428=ORIENTED_EDGE('',*,*,#319,.T.);
#429=ORIENTED_EDGE('',*,*,#320,.F.);
#430=ORIENTED_EDGE('',*,*,#321,.F.);
#431=ORIENTED_EDGE('',*,*,#294,.F.);
#432=ORIENTED_EDGE('',*,*,#275,.T.);
#433=ORIENTED_EDGE('',*,*,#283,.T.);
#434=ORIENTED_EDGE('',*,*,#321,.T.);
#435=ORIENTED_EDGE('',*,*,#322,.F.);
#436=ORIENTED_EDGE('',*,*,#315,.T.);
#437=ORIENTED_EDGE('',*,*,#291,.F.);
#438=ORIENTED_EDGE('',*,*,#263,.T.);
#439=ORIENTED_EDGE('',*,*,#266,.T.);
#440=ORIENTED_EDGE('',*,*,#322,.T.);
#441=ORIENTED_EDGE('',*,*,#320,.T.);
#442=ORIENTED_EDGE('',*,*,#318,.T.);
#443=ORIENTED_EDGE('',*,*,#316,.T.);
#444=ORIENTED_EDGE('',*,*,#297,.T.);
#445=ORIENTED_EDGE('',*,*,#301,.T.);
#446=ORIENTED_EDGE('',*,*,#311,.T.);
#447=ORIENTED_EDGE('',*,*,#309,.T.);
#448=ORIENTED_EDGE('',*,*,#307,.T.);
#449=PLANE('',#498);
#450=PLANE('',#500);
#451=PLANE('',#502);
#452=PLANE('',#516);
#453=PLANE('',#524);
#454=PLANE('',#529);
#455=PLANE('',#539);
#456=PLANE('',#542);
#457=PLANE('',#545);
#458=ADVANCED_FACE('',(#121),#449,.F.);
#459=ADVANCED_FACE('',(#122),#450,.F.);
#460=ADVANCED_FACE('',(#123),#451,.F.);
#461=ADVANCED_FACE('',(#124),#104,.F.);
#462=ADVANCED_FACE('',(#125),#105,.F.);
#463=ADVANCED_FACE('',(#126),#106,.F.);
#464=ADVANCED_FACE('',(#127),#107,.F.);
#465=ADVANCED_FACE('',(#128),#108,.F.);
#466=ADVANCED_FACE('',(#129),#109,.F.);
#467=ADVANCED_FACE('',(#130),#110,.F.);
#468=ADVANCED_FACE('',(#131),#111,.F.);
#469=ADVANCED_FACE('',(#132,#15,#16),#452,.F.);
#470=ADVANCED_FACE('',(#133),#112,.F.);
#471=ADVANCED_FACE('',(#134,#17),#453,.T.);
#472=ADVANCED_FACE('',(#135),#113,.F.);
#473=ADVANCED_FACE('',(#136,#18),#454,.T.);
#474=ADVANCED_FACE('',(#137),#114,.F.);
#475=ADVANCED_FACE('',(#138),#115,.F.);
#476=ADVANCED_FACE('',(#139,#19,#20),#116,.F.);
#477=ADVANCED_FACE('',(#140,#21,#22),#117,.F.);
#478=ADVANCED_FACE('',(#141,#23,#24),#118,.F.);
#479=ADVANCED_FACE('',(#142,#25,#26),#455,.T.);
#480=ADVANCED_FACE('',(#143,#27,#28),#119,.T.);
#481=ADVANCED_FACE('',(#144,#29,#30),#456,.T.);
#482=ADVANCED_FACE('',(#145,#31,#32),#120,.T.);
#483=ADVANCED_FACE('',(#146,#33,#34,#35,#36,#37),#457,.T.);
#484=CLOSED_SHELL('',(#458,#459,#460,#461,#462,#463,#464,#465,#466,#467,
#468,#469,#470,#471,#472,#473,#474,#475,#476,#477,#478,#479,#480,#481,#482,
#483));
#485=DERIVED_UNIT_ELEMENT(#487,1.);
#486=DERIVED_UNIT_ELEMENT(#1206,-3.);
#487=(
MASS_UNIT()
NAMED_UNIT(*)
SI_UNIT(.KILO.,.GRAM.)
);
#488=DERIVED_UNIT((#485,#486));
#489=MEASURE_REPRESENTATION_ITEM('density measure',
POSITIVE_RATIO_MEASURE(7850.),#488);
#490=PROPERTY_DEFINITION_REPRESENTATION(#495,#492);
#491=PROPERTY_DEFINITION_REPRESENTATION(#496,#493);
#492=REPRESENTATION('material name',(#494),#1203);
#493=REPRESENTATION('density',(#489),#1203);
#494=DESCRIPTIVE_REPRESENTATION_ITEM('Stal','Stal');
#495=PROPERTY_DEFINITION('material property','material name',#1213);
#496=PROPERTY_DEFINITION('material property','density of part',#1213);
#497=AXIS2_PLACEMENT_3D('',#669,#546,#547);
#498=AXIS2_PLACEMENT_3D('',#670,#548,#549);
#499=AXIS2_PLACEMENT_3D('',#672,#550,#551);
#500=AXIS2_PLACEMENT_3D('',#673,#552,#553);
#501=AXIS2_PLACEMENT_3D('',#675,#554,#555);
#502=AXIS2_PLACEMENT_3D('',#676,#556,#557);
#503=AXIS2_PLACEMENT_3D('',#678,#558,#559);
#504=AXIS2_PLACEMENT_3D('',#679,#560,#561);
#505=AXIS2_PLACEMENT_3D('',#751,#563,#564);
#506=AXIS2_PLACEMENT_3D('',#823,#566,#567);
#507=AXIS2_PLACEMENT_3D('',#895,#569,#570);
#508=AXIS2_PLACEMENT_3D('',#967,#572,#573);
#509=AXIS2_PLACEMENT_3D('',#969,#574,#575);
#510=AXIS2_PLACEMENT_3D('',#1006,#577,#578);
#511=AXIS2_PLACEMENT_3D('',#1021,#580,#581);
#512=AXIS2_PLACEMENT_3D('',#1051,#582,#583);
#513=AXIS2_PLACEMENT_3D('',#1053,#584,#585);
#514=AXIS2_PLACEMENT_3D('',#1090,#587,#588);
#515=AXIS2_PLACEMENT_3D('',#1105,#590,#591);
#516=AXIS2_PLACEMENT_3D('',#1135,#592,#593);
#517=AXIS2_PLACEMENT_3D('',#1138,#594,#595);
#518=AXIS2_PLACEMENT_3D('',#1142,#597,#598);
#519=AXIS2_PLACEMENT_3D('',#1145,#600,#601);
#520=AXIS2_PLACEMENT_3D('',#1147,#602,#603);
#521=AXIS2_PLACEMENT_3D('',#1148,#604,#605);
#522=AXIS2_PLACEMENT_3D('',#1150,#606,#607);
#523=AXIS2_PLACEMENT_3D('',#1153,#609,#610);
#524=AXIS2_PLACEMENT_3D('',#1154,#611,#612);
#525=AXIS2_PLACEMENT_3D('',#1156,#613,#614);
#526=AXIS2_PLACEMENT_3D('',#1157,#615,#616);
#527=AXIS2_PLACEMENT_3D('',#1159,#617,#618);
#528=AXIS2_PLACEMENT_3D('',#1162,#620,#621);
#529=AXIS2_PLACEMENT_3D('',#1163,#622,#623);
#530=AXIS2_PLACEMENT_3D('',#1165,#624,#625);
#531=AXIS2_PLACEMENT_3D('',#1166,#626,#627);
#532=AXIS2_PLACEMENT_3D('',#1168,#629,#630);
#533=AXIS2_PLACEMENT_3D('',#1170,#632,#633);
#534=AXIS2_PLACEMENT_3D('',#1172,#634,#635);
#535=AXIS2_PLACEMENT_3D('',#1174,#637,#638);
#536=AXIS2_PLACEMENT_3D('',#1176,#639,#640);
#537=AXIS2_PLACEMENT_3D('',#1178,#642,#643);
#538=AXIS2_PLACEMENT_3D('',#1180,#644,#645);
#539=AXIS2_PLACEMENT_3D('',#1184,#649,#650);
#540=AXIS2_PLACEMENT_3D('',#1190,#654,#655);
#541=AXIS2_PLACEMENT_3D('',#1192,#656,#657);
#542=AXIS2_PLACEMENT_3D('',#1194,#659,#660);
#543=AXIS2_PLACEMENT_3D('',#1198,#663,#664);
#544=AXIS2_PLACEMENT_3D('',#1199,#665,#666);
#545=AXIS2_PLACEMENT_3D('',#1200,#667,#668);
#546=DIRECTION('axis',(0.,0.,1.));
#547=DIRECTION('refdir',(1.,0.,0.));
#548=DIRECTION('center_axis',(0.,2.22044604925031E-16,-1.));
#549=DIRECTION('ref_axis',(-3.10862446895044E-15,1.,2.22044604925031E-16));
#550=DIRECTION('center_axis',(0.,2.22044604925031E-16,-1.));
#551=DIRECTION('ref_axis',(3.10862446895044E-15,-1.,-2.22044604925031E-16));
#552=DIRECTION('center_axis',(0.,2.22044604925031E-16,-1.));
#553=DIRECTION('ref_axis',(-3.10862446895044E-15,1.,2.22044604925031E-16));
#554=DIRECTION('center_axis',(0.,2.22044604925031E-16,-1.));
#555=DIRECTION('ref_axis',(3.10862446895044E-15,-1.,-2.22044604925031E-16));
#556=DIRECTION('center_axis',(0.,2.22044604925031E-16,-1.));
#557=DIRECTION('ref_axis',(-3.10862446895044E-15,1.,2.22044604925031E-16));
#558=DIRECTION('center_axis',(0.,2.22044604925031E-16,-1.));
#559=DIRECTION('ref_axis',(3.10862446895044E-15,-1.,-2.22044604925031E-16));
#560=DIRECTION('center_axis',(1.,3.10862446895044E-15,6.90253292068385E-31));
#561=DIRECTION('ref_axis',(3.10862446895044E-15,-1.,-2.22044604925031E-16));
#562=DIRECTION('',(1.,3.10862446895044E-15,6.90253292068385E-31));
#563=DIRECTION('center_axis',(1.,3.10862446895044E-15,6.90253292068385E-31));
#564=DIRECTION('ref_axis',(3.10862446895044E-15,-1.,-2.22044604925031E-16));
#565=DIRECTION('',(1.,3.10862446895044E-15,6.90253292068385E-31));
#566=DIRECTION('center_axis',(-1.,-3.10862446895044E-15,-6.90253292068385E-31));
#567=DIRECTION('ref_axis',(-3.10862446895044E-15,1.,2.22044604925031E-16));
#568=DIRECTION('',(-1.,-3.10862446895044E-15,-6.90253292068385E-31));
#569=DIRECTION('center_axis',(-1.,-3.10862446895044E-15,-6.90253292068385E-31));
#570=DIRECTION('ref_axis',(-3.10862446895044E-15,1.,2.22044604925031E-16));
#571=DIRECTION('',(-1.,-3.10862446895044E-15,-6.90253292068385E-31));
#572=DIRECTION('center_axis',(-3.10862446895044E-15,1.,2.22044604925031E-16));
#573=DIRECTION('ref_axis',(1.,3.10862446895044E-15,6.90253292068385E-31));
#574=DIRECTION('center_axis',(-3.10862446895044E-15,1.,2.22044604925031E-16));
#575=DIRECTION('ref_axis',(1.,3.10862446895044E-15,6.90253292068385E-31));
#576=DIRECTION('',(-3.10862446895044E-15,1.,2.22044604925031E-16));
#577=DIRECTION('center_axis',(-3.10862446895044E-15,1.,2.22044604925031E-16));
#578=DIRECTION('ref_axis',(1.,3.10862446895044E-15,6.90253292068385E-31));
#579=DIRECTION('',(-3.10862446895044E-15,1.,2.22044604925031E-16));
#580=DIRECTION('center_axis',(3.10862446895044E-15,-1.,-2.22044604925031E-16));
#581=DIRECTION('ref_axis',(1.,3.10862446895044E-15,6.90253292068385E-31));
#582=DIRECTION('center_axis',(-3.10862446895044E-15,1.,2.22044604925031E-16));
#583=DIRECTION('ref_axis',(1.,3.10862446895044E-15,6.90253292068385E-31));
#584=DIRECTION('center_axis',(-3.10862446895044E-15,1.,2.22044604925031E-16));
#585=DIRECTION('ref_axis',(1.,3.10862446895044E-15,6.90253292068385E-31));
#586=DIRECTION('',(-3.10862446895044E-15,1.,2.22044604925031E-16));
#587=DIRECTION('center_axis',(-3.10862446895044E-15,1.,2.22044604925031E-16));
#588=DIRECTION('ref_axis',(1.,3.10862446895044E-15,6.90253292068385E-31));
#589=DIRECTION('',(-3.10862446895044E-15,1.,2.22044604925031E-16));
#590=DIRECTION('center_axis',(3.10862446895044E-15,-1.,-2.22044604925031E-16));
#591=DIRECTION('ref_axis',(1.,3.10862446895044E-15,6.90253292068385E-31));
#592=DIRECTION('center_axis',(0.,-2.22044604925031E-16,1.));
#593=DIRECTION('ref_axis',(3.10862446895044E-15,-1.,-2.22044604925031E-16));
#594=DIRECTION('center_axis',(0.,2.22044604925031E-16,-1.));
#595=DIRECTION('ref_axis',(-3.10862446895044E-15,1.,2.22044604925031E-16));
#596=DIRECTION('',(1.,3.10862446895044E-15,6.90253292068385E-31));
#597=DIRECTION('center_axis',(0.,2.22044604925031E-16,-1.));
#598=DIRECTION('ref_axis',(3.10862446895044E-15,-1.,-2.22044604925031E-16));
#599=DIRECTION('',(-1.,-3.10862446895044E-15,-6.90253292068385E-31));
#600=DIRECTION('center_axis',(0.,-2.22044604925031E-16,1.));
#601=DIRECTION('ref_axis',(3.10862446895044E-15,-1.,-2.22044604925031E-16));
#602=DIRECTION('center_axis',(0.,-2.22044604925031E-16,1.));
#603=DIRECTION('ref_axis',(3.10862446895044E-15,-1.,-2.22044604925031E-16));
#604=DIRECTION('center_axis',(0.,2.22044604925031E-16,-1.));
#605=DIRECTION('ref_axis',(3.10862446895044E-15,-1.,-2.22044604925031E-16));
#606=DIRECTION('center_axis',(0.,2.22044604925031E-16,-1.));
#607=DIRECTION('ref_axis',(3.10862446895044E-15,-1.,-2.22044604925031E-16));
#608=DIRECTION('',(0.,2.22044604925031E-16,-1.));
#609=DIRECTION('center_axis',(0.,2.22044604925031E-16,-1.));
#610=DIRECTION('ref_axis',(3.10862446895044E-15,-1.,-2.22044604925031E-16));
#611=DIRECTION('center_axis',(0.,-2.22044604925031E-16,1.));
#612=DIRECTION('ref_axis',(3.10862446895044E-15,-1.,-2.22044604925031E-16));
#613=DIRECTION('center_axis',(0.,-2.22044604925031E-16,1.));
#614=DIRECTION('ref_axis',(3.10862446895044E-15,-1.,-2.22044604925031E-16));
#615=DIRECTION('center_axis',(0.,2.22044604925031E-16,-1.));
#616=DIRECTION('ref_axis',(3.10862446895044E-15,-1.,-2.22044604925031E-16));
#617=DIRECTION('center_axis',(0.,2.22044604925031E-16,-1.));
#618=DIRECTION('ref_axis',(3.10862446895044E-15,-1.,-2.22044604925031E-16));
#619=DIRECTION('',(0.,2.22044604925031E-16,-1.));
#620=DIRECTION('center_axis',(0.,2.22044604925031E-16,-1.));
#621=DIRECTION('ref_axis',(3.10862446895044E-15,-1.,-2.22044604925031E-16));
#622=DIRECTION('center_axis',(0.,-2.22044604925031E-16,1.));
#623=DIRECTION('ref_axis',(3.10862446895044E-15,-1.,-2.22044604925031E-16));
#624=DIRECTION('center_axis',(0.,-2.22044604925031E-16,1.));
#625=DIRECTION('ref_axis',(3.10862446895044E-15,-1.,-2.22044604925031E-16));
#626=DIRECTION('center_axis',(0.,2.22044604925031E-16,-1.));
#627=DIRECTION('ref_axis',(3.10862446895044E-15,-1.,-2.22044604925031E-16));
#628=DIRECTION('',(0.,2.22044604925031E-16,-1.));
#629=DIRECTION('center_axis',(0.,2.22044604925031E-16,-1.));
#630=DIRECTION('ref_axis',(3.10862446895044E-15,-1.,-2.22044604925031E-16));
#631=DIRECTION('',(0.,2.22044604925031E-16,-1.));
#632=DIRECTION('center_axis',(0.,-2.22044604925031E-16,1.));
#633=DIRECTION('ref_axis',(3.10862446895044E-15,-1.,-2.22044604925031E-16));
#634=DIRECTION('center_axis',(0.,2.22044604925031E-16,-1.));
#635=DIRECTION('ref_axis',(3.10862446895044E-15,-1.,-2.22044604925031E-16));
#636=DIRECTION('',(0.,2.22044604925031E-16,-1.));
#637=DIRECTION('center_axis',(0.,-2.22044604925031E-16,1.));
#638=DIRECTION('ref_axis',(3.10862446895044E-15,-1.,-2.22044604925031E-16));
#639=DIRECTION('center_axis',(0.,2.22044604925031E-16,-1.));
#640=DIRECTION('ref_axis',(3.10862446895044E-15,-1.,-2.22044604925031E-16));
#641=DIRECTION('',(0.,2.22044604925031E-16,-1.));
#642=DIRECTION('center_axis',(0.,-2.22044604925031E-16,1.));
#643=DIRECTION('ref_axis',(3.10862446895044E-15,-1.,-2.22044604925031E-16));
#644=DIRECTION('center_axis',(0.,2.22044604925031E-16,-1.));
#645=DIRECTION('ref_axis',(3.10862446895044E-15,-1.,-2.22044604925031E-16));
#646=DIRECTION('',(0.,2.22044604925031E-16,-1.));
#647=DIRECTION('',(0.,2.22044604925031E-16,-1.));
#648=DIRECTION('',(0.,2.22044604925031E-16,-1.));
#649=DIRECTION('center_axis',(-3.10862446895044E-15,1.,2.22044604925031E-16));
#650=DIRECTION('ref_axis',(-1.,-3.10862446895044E-15,-6.90253292068385E-31));
#651=DIRECTION('',(0.,2.22044604925031E-16,-1.));
#652=DIRECTION('',(-1.,-3.10862446895044E-15,-6.90253292068385E-31));
#653=DIRECTION('',(0.,-2.22044604925031E-16,1.));
#654=DIRECTION('center_axis',(0.,-2.22044604925031E-16,1.));
#655=DIRECTION('ref_axis',(3.10862446895044E-15,-1.,-2.22044604925031E-16));
#656=DIRECTION('center_axis',(0.,-2.22044604925031E-16,1.));
#657=DIRECTION('ref_axis',(3.10862446895044E-15,-1.,-2.22044604925031E-16));
#658=DIRECTION('',(0.,-2.22044604925031E-16,1.));
#659=DIRECTION('center_axis',(3.10862446895044E-15,-1.,-2.22044604925031E-16));
#660=DIRECTION('ref_axis',(1.,3.10862446895044E-15,6.90253292068385E-31));
#661=DIRECTION('',(1.,3.10862446895044E-15,6.90253292068385E-31));
#662=DIRECTION('',(0.,-2.22044604925031E-16,1.));
#663=DIRECTION('center_axis',(0.,-2.22044604925031E-16,1.));
#664=DIRECTION('ref_axis',(-3.10862446895044E-15,1.,2.22044604925031E-16));
#665=DIRECTION('center_axis',(0.,-2.22044604925031E-16,1.));
#666=DIRECTION('ref_axis',(-3.10862446895044E-15,1.,2.22044604925031E-16));
#667=DIRECTION('center_axis',(0.,-2.22044604925031E-16,1.));
#668=DIRECTION('ref_axis',(3.10862446895044E-15,-1.,-2.22044604925031E-16));
#669=CARTESIAN_POINT('',(0.,0.,0.));
#670=CARTESIAN_POINT('Origin',(24.9151321144605,-349.999981994099,96.7810000000001));
#671=CARTESIAN_POINT('',(24.9151321144604,-346.949981994099,96.7810000000001));
#672=CARTESIAN_POINT('Origin',(24.9151321144605,-349.999981994099,96.7810000000001));
#673=CARTESIAN_POINT('Origin',(-0.0848678855395413,-349.999981994099,96.7810000000001));
#674=CARTESIAN_POINT('',(-0.0848678855395543,-345.949981994099,96.7810000000001));
#675=CARTESIAN_POINT('Origin',(-0.0848678855395413,-349.999981994099,96.7810000000001));
#676=CARTESIAN_POINT('Origin',(-25.0848678855395,-349.999981994099,96.7810000000001));
#677=CARTESIAN_POINT('',(-25.0848678855396,-346.949981994099,96.7810000000001));
#678=CARTESIAN_POINT('Origin',(-25.0848678855395,-349.999981994099,96.7810000000001));
#679=CARTESIAN_POINT('Origin',(-50.0848678855397,-349.999981994099,111.181));
#680=CARTESIAN_POINT('',(-36.0184171720247,-348.399981994099,111.181));
#681=CARTESIAN_POINT('Ctrl Pts',(-36.0184171720247,-348.399981994099,111.181));
#682=CARTESIAN_POINT('Ctrl Pts',(-36.0184171720247,-348.399981994099,111.382205161132));
#683=CARTESIAN_POINT('Ctrl Pts',(-36.0245448992388,-348.440250889389,111.596625392014));
#684=CARTESIAN_POINT('Ctrl Pts',(-36.0465957839292,-348.603623980273,111.990746846643));
#685=CARTESIAN_POINT('Ctrl Pts',(-36.0621915262722,-348.726712933288,112.170472638986));
#686=CARTESIAN_POINT('Ctrl Pts',(-36.0914017382524,-349.010507209954,112.454266915652));
#687=CARTESIAN_POINT('Ctrl Pts',(-36.106925832268,-349.190233929345,112.577357551169));
#688=CARTESIAN_POINT('Ctrl Pts',(-36.1288124008244,-349.584358545219,112.740731867907));
#689=CARTESIAN_POINT('Ctrl Pts',(-36.1348678855395,-349.798779874704,112.781));
#690=CARTESIAN_POINT('Ctrl Pts',(-36.1348678855395,-350.201184113494,112.781));
#691=CARTESIAN_POINT('Ctrl Pts',(-36.1288124008244,-350.415605442979,112.740731867907));
#692=CARTESIAN_POINT('Ctrl Pts',(-36.106925832268,-350.809730058852,112.577357551169));
#693=CARTESIAN_POINT('Ctrl Pts',(-36.0914017382524,-350.989456778244,112.454266915652));
#694=CARTESIAN_POINT('Ctrl Pts',(-36.0621915262722,-351.27325105491,112.170472638986));
#695=CARTESIAN_POINT('Ctrl Pts',(-36.0465957839292,-351.396340007925,111.990746846643));
#696=CARTESIAN_POINT('Ctrl Pts',(-36.0245448992388,-351.559713098809,111.596625392014));
#697=CARTESIAN_POINT('Ctrl Pts',(-36.0184171720247,-351.599981994099,111.382205161132));
#698=CARTESIAN_POINT('Ctrl Pts',(-36.0184171720247,-351.599981994099,110.979794838869));
#699=CARTESIAN_POINT('Ctrl Pts',(-36.0245448992388,-351.559713098809,110.765374607986));
#700=CARTESIAN_POINT('Ctrl Pts',(-36.0465957839292,-351.396340007925,110.371253153358));
#701=CARTESIAN_POINT('Ctrl Pts',(-36.0621915262722,-351.27325105491,110.191527361014));
#702=CARTESIAN_POINT('Ctrl Pts',(-36.0914017382524,-350.989456778244,109.907733084348));
#703=CARTESIAN_POINT('Ctrl Pts',(-36.106925832268,-350.809730058852,109.784642448831));
#704=CARTESIAN_POINT('Ctrl Pts',(-36.1288124008244,-350.415605442979,109.621268132093));
#705=CARTESIAN_POINT('Ctrl Pts',(-36.1348678855395,-350.201184113494,109.581));
#706=CARTESIAN_POINT('Ctrl Pts',(-36.1348678855395,-349.798779874704,109.581));
#707=CARTESIAN_POINT('Ctrl Pts',(-36.1288124008244,-349.584358545219,109.621268132093));
#708=CARTESIAN_POINT('Ctrl Pts',(-36.106925832268,-349.190233929345,109.784642448831));
#709=CARTESIAN_POINT('Ctrl Pts',(-36.0914017382524,-349.010507209954,109.907733084348));
#710=CARTESIAN_POINT('Ctrl Pts',(-36.0621915262722,-348.726712933288,110.191527361014));
#711=CARTESIAN_POINT('Ctrl Pts',(-36.0465957839292,-348.603623980273,110.371253153358));
#712=CARTESIAN_POINT('Ctrl Pts',(-36.0245448992388,-348.440250889389,110.765374607986));
#713=CARTESIAN_POINT('Ctrl Pts',(-36.0184171720247,-348.399981994099,110.979794838869));
#714=CARTESIAN_POINT('Ctrl Pts',(-36.0184171720247,-348.399981994099,111.181));
#715=CARTESIAN_POINT('',(-27.6815003200593,-348.399981994099,111.181));
#716=CARTESIAN_POINT('',(-50.0848678855397,-348.399981994099,111.181));
#717=CARTESIAN_POINT('Ctrl Pts',(-27.6815003200592,-348.399981994099,111.181));
#718=CARTESIAN_POINT('Ctrl Pts',(-27.6815003200592,-348.399981994099,110.975156198388));
#719=CARTESIAN_POINT('Ctrl Pts',(-27.7085828867478,-348.441959090604,110.759305490265));
#720=CARTESIAN_POINT('Ctrl Pts',(-27.7994469229162,-348.606290690961,110.366821036288));
#721=CARTESIAN_POINT('Ctrl Pts',(-27.8613189116644,-348.728537626524,110.189702667778));
#722=CARTESIAN_POINT('Ctrl Pts',(-27.9730302053307,-349.008208319952,109.91003197435));
#723=CARTESIAN_POINT('Ctrl Pts',(-28.0309485193331,-349.185481083359,109.787439266414));
#724=CARTESIAN_POINT('Ctrl Pts',(-28.112291871394,-349.578666349259,109.622822696267));
#725=CARTESIAN_POINT('Ctrl Pts',(-28.1348678855395,-349.794838196558,109.581));
#726=CARTESIAN_POINT('Ctrl Pts',(-28.1348678855395,-350.20512579164,109.581));
#727=CARTESIAN_POINT('Ctrl Pts',(-28.112291871394,-350.421297638939,109.622822696267));
#728=CARTESIAN_POINT('Ctrl Pts',(-28.0309485193331,-350.814482904839,109.787439266414));
#729=CARTESIAN_POINT('Ctrl Pts',(-27.9730302053307,-350.991755668246,109.91003197435));
#730=CARTESIAN_POINT('Ctrl Pts',(-27.8613189116644,-351.271426361674,110.189702667778));
#731=CARTESIAN_POINT('Ctrl Pts',(-27.7994469229162,-351.393673297237,110.366821036288));
#732=CARTESIAN_POINT('Ctrl Pts',(-27.7085828867478,-351.558004897594,110.759305490265));
#733=CARTESIAN_POINT('Ctrl Pts',(-27.6815003200593,-351.599981994099,110.975156198388));
#734=CARTESIAN_POINT('Ctrl Pts',(-27.6815003200593,-351.599981994099,111.386843801613));
#735=CARTESIAN_POINT('Ctrl Pts',(-27.7085828867478,-351.558004897594,111.602694509736));
#736=CARTESIAN_POINT('Ctrl Pts',(-27.7994469229162,-351.393673297237,111.995178963712));
#737=CARTESIAN_POINT('Ctrl Pts',(-27.8613189116644,-351.271426361674,112.172297332222));
#738=CARTESIAN_POINT('Ctrl Pts',(-27.9730302053307,-350.991755668246,112.45196802565));
#739=CARTESIAN_POINT('Ctrl Pts',(-28.0309485193331,-350.814482904839,112.574560733587));
#740=CARTESIAN_POINT('Ctrl Pts',(-28.112291871394,-350.421297638939,112.739177303733));
#741=CARTESIAN_POINT('Ctrl Pts',(-28.1348678855395,-350.20512579164,112.781));
#742=CARTESIAN_POINT('Ctrl Pts',(-28.1348678855395,-349.794838196558,112.781));
#743=CARTESIAN_POINT('Ctrl Pts',(-28.112291871394,-349.578666349259,112.739177303733));
#744=CARTESIAN_POINT('Ctrl Pts',(-28.0309485193331,-349.185481083359,112.574560733587));
#745=CARTESIAN_POINT('Ctrl Pts',(-27.9730302053307,-349.008208319952,112.45196802565));
#746=CARTESIAN_POINT('Ctrl Pts',(-27.8613189116644,-348.728537626524,112.172297332222));
#747=CARTESIAN_POINT('Ctrl Pts',(-27.7994469229162,-348.606290690961,111.995178963712));
#748=CARTESIAN_POINT('Ctrl Pts',(-27.7085828867478,-348.441959090604,111.602694509736));
#749=CARTESIAN_POINT('Ctrl Pts',(-27.6815003200592,-348.399981994099,111.386843801613));
#750=CARTESIAN_POINT('Ctrl Pts',(-27.6815003200592,-348.399981994099,111.181));
#751=CARTESIAN_POINT('Origin',(-50.0848678855397,-349.999981994099,102.381));
#752=CARTESIAN_POINT('',(-36.0184171720247,-348.399981994099,102.381));
#753=CARTESIAN_POINT('Ctrl Pts',(-36.0184171720247,-348.399981994099,102.381));
#754=CARTESIAN_POINT('Ctrl Pts',(-36.0184171720247,-348.399981994099,102.582205161132));
#755=CARTESIAN_POINT('Ctrl Pts',(-36.0245448992388,-348.440250889389,102.796625392014));
#756=CARTESIAN_POINT('Ctrl Pts',(-36.0465957839292,-348.603623980273,103.190746846643));
#757=CARTESIAN_POINT('Ctrl Pts',(-36.0621915262722,-348.726712933288,103.370472638986));
#758=CARTESIAN_POINT('Ctrl Pts',(-36.0914017382524,-349.010507209954,103.654266915652));
#759=CARTESIAN_POINT('Ctrl Pts',(-36.106925832268,-349.190233929345,103.777357551169));
#760=CARTESIAN_POINT('Ctrl Pts',(-36.1288124008244,-349.584358545219,103.940731867907));
#761=CARTESIAN_POINT('Ctrl Pts',(-36.1348678855395,-349.798779874704,103.981));
#762=CARTESIAN_POINT('Ctrl Pts',(-36.1348678855395,-350.201184113494,103.981));
#763=CARTESIAN_POINT('Ctrl Pts',(-36.1288124008244,-350.415605442979,103.940731867907));
#764=CARTESIAN_POINT('Ctrl Pts',(-36.106925832268,-350.809730058852,103.777357551169));
#765=CARTESIAN_POINT('Ctrl Pts',(-36.0914017382524,-350.989456778244,103.654266915652));
#766=CARTESIAN_POINT('Ctrl Pts',(-36.0621915262722,-351.27325105491,103.370472638986));
#767=CARTESIAN_POINT('Ctrl Pts',(-36.0465957839292,-351.396340007925,103.190746846643));
#768=CARTESIAN_POINT('Ctrl Pts',(-36.0245448992388,-351.559713098809,102.796625392014));
#769=CARTESIAN_POINT('Ctrl Pts',(-36.0184171720247,-351.599981994099,102.582205161132));
#770=CARTESIAN_POINT('Ctrl Pts',(-36.0184171720247,-351.599981994099,102.179794838869));
#771=CARTESIAN_POINT('Ctrl Pts',(-36.0245448992388,-351.559713098809,101.965374607986));
#772=CARTESIAN_POINT('Ctrl Pts',(-36.0465957839292,-351.396340007925,101.571253153358));
#773=CARTESIAN_POINT('Ctrl Pts',(-36.0621915262722,-351.27325105491,101.391527361014));
#774=CARTESIAN_POINT('Ctrl Pts',(-36.0914017382524,-350.989456778244,101.107733084348));
#775=CARTESIAN_POINT('Ctrl Pts',(-36.106925832268,-350.809730058852,100.984642448831));
#776=CARTESIAN_POINT('Ctrl Pts',(-36.1288124008244,-350.415605442979,100.821268132093));
#777=CARTESIAN_POINT('Ctrl Pts',(-36.1348678855395,-350.201184113494,100.781));
#778=CARTESIAN_POINT('Ctrl Pts',(-36.1348678855395,-349.798779874704,100.781));
#779=CARTESIAN_POINT('Ctrl Pts',(-36.1288124008244,-349.584358545219,100.821268132093));
#780=CARTESIAN_POINT('Ctrl Pts',(-36.106925832268,-349.190233929345,100.984642448831));
#781=CARTESIAN_POINT('Ctrl Pts',(-36.0914017382524,-349.010507209954,101.107733084348));
#782=CARTESIAN_POINT('Ctrl Pts',(-36.0621915262722,-348.726712933288,101.391527361014));
#783=CARTESIAN_POINT('Ctrl Pts',(-36.0465957839292,-348.603623980273,101.571253153358));
#784=CARTESIAN_POINT('Ctrl Pts',(-36.0245448992388,-348.440250889389,101.965374607986));
#785=CARTESIAN_POINT('Ctrl Pts',(-36.0184171720247,-348.399981994099,102.179794838869));
#786=CARTESIAN_POINT('Ctrl Pts',(-36.0184171720247,-348.399981994099,102.381));
#787=CARTESIAN_POINT('',(-27.6815003200593,-348.399981994099,102.381));
#788=CARTESIAN_POINT('',(-50.0848678855397,-348.399981994099,102.381));
#789=CARTESIAN_POINT('Ctrl Pts',(-27.6815003200592,-348.399981994099,102.381));
#790=CARTESIAN_POINT('Ctrl Pts',(-27.6815003200592,-348.399981994099,102.175156198388));
#791=CARTESIAN_POINT('Ctrl Pts',(-27.7085828867478,-348.441959090604,101.959305490265));
#792=CARTESIAN_POINT('Ctrl Pts',(-27.7994469229162,-348.606290690961,101.566821036288));
#793=CARTESIAN_POINT('Ctrl Pts',(-27.8613189116644,-348.728537626524,101.389702667778));
#794=CARTESIAN_POINT('Ctrl Pts',(-27.9730302053307,-349.008208319952,101.11003197435));
#795=CARTESIAN_POINT('Ctrl Pts',(-28.0309485193331,-349.185481083359,100.987439266414));
#796=CARTESIAN_POINT('Ctrl Pts',(-28.112291871394,-349.578666349259,100.822822696267));
#797=CARTESIAN_POINT('Ctrl Pts',(-28.1348678855395,-349.794838196558,100.781));
#798=CARTESIAN_POINT('Ctrl Pts',(-28.1348678855395,-350.20512579164,100.781));
#799=CARTESIAN_POINT('Ctrl Pts',(-28.112291871394,-350.421297638939,100.822822696267));
#800=CARTESIAN_POINT('Ctrl Pts',(-28.0309485193331,-350.814482904839,100.987439266414));
#801=CARTESIAN_POINT('Ctrl Pts',(-27.9730302053307,-350.991755668246,101.11003197435));
#802=CARTESIAN_POINT('Ctrl Pts',(-27.8613189116644,-351.271426361674,101.389702667778));
#803=CARTESIAN_POINT('Ctrl Pts',(-27.7994469229162,-351.393673297237,101.566821036288));
#804=CARTESIAN_POINT('Ctrl Pts',(-27.7085828867478,-351.558004897594,101.959305490265));
#805=CARTESIAN_POINT('Ctrl Pts',(-27.6815003200593,-351.599981994099,102.175156198388));
#806=CARTESIAN_POINT('Ctrl Pts',(-27.6815003200593,-351.599981994099,102.586843801613));
#807=CARTESIAN_POINT('Ctrl Pts',(-27.7085828867478,-351.558004897594,102.802694509736));
#808=CARTESIAN_POINT('Ctrl Pts',(-27.7994469229162,-351.393673297237,103.195178963712));
#809=CARTESIAN_POINT('Ctrl Pts',(-27.8613189116644,-351.271426361674,103.372297332222));
#810=CARTESIAN_POINT('Ctrl Pts',(-27.9730302053307,-350.991755668246,103.65196802565));
#811=CARTESIAN_POINT('Ctrl Pts',(-28.0309485193331,-350.814482904839,103.774560733587));
#812=CARTESIAN_POINT('Ctrl Pts',(-28.112291871394,-350.421297638939,103.939177303733));
#813=CARTESIAN_POINT('Ctrl Pts',(-28.1348678855395,-350.20512579164,103.981));
#814=CARTESIAN_POINT('Ctrl Pts',(-28.1348678855395,-349.794838196558,103.981));
#815=CARTESIAN_POINT('Ctrl Pts',(-28.112291871394,-349.578666349259,103.939177303733));
#816=CARTESIAN_POINT('Ctrl Pts',(-28.0309485193331,-349.185481083359,103.774560733587));
#817=CARTESIAN_POINT('Ctrl Pts',(-27.9730302053307,-349.008208319952,103.65196802565));
#818=CARTESIAN_POINT('Ctrl Pts',(-27.8613189116644,-348.728537626524,103.372297332222));
#819=CARTESIAN_POINT('Ctrl Pts',(-27.7994469229162,-348.606290690961,103.195178963712));
#820=CARTESIAN_POINT('Ctrl Pts',(-27.7085828867478,-348.441959090604,102.802694509736));
#821=CARTESIAN_POINT('Ctrl Pts',(-27.6815003200592,-348.399981994099,102.586843801613));
#822=CARTESIAN_POINT('Ctrl Pts',(-27.6815003200592,-348.399981994099,102.381));
#823=CARTESIAN_POINT('Origin',(49.9151321144606,-349.999981994099,111.181));
#824=CARTESIAN_POINT('',(35.8486814009456,-351.599981994099,111.181));
#825=CARTESIAN_POINT('Ctrl Pts',(35.8486814009456,-351.599981994099,111.181));
#826=CARTESIAN_POINT('Ctrl Pts',(35.8486814009456,-351.599981994099,111.382205161132));
#827=CARTESIAN_POINT('Ctrl Pts',(35.8548091281597,-351.559713098809,111.596625392014));
#828=CARTESIAN_POINT('Ctrl Pts',(35.8768600128501,-351.396340007925,111.990746846643));
#829=CARTESIAN_POINT('Ctrl Pts',(35.8924557551931,-351.27325105491,112.170472638986));
#830=CARTESIAN_POINT('Ctrl Pts',(35.9216659671733,-350.989456778244,112.454266915652));
#831=CARTESIAN_POINT('Ctrl Pts',(35.9371900611889,-350.809730058852,112.577357551169));
#832=CARTESIAN_POINT('Ctrl Pts',(35.9590766297453,-350.415605442979,112.740731867907));
#833=CARTESIAN_POINT('Ctrl Pts',(35.9651321144604,-350.201184113493,112.781));
#834=CARTESIAN_POINT('Ctrl Pts',(35.9651321144604,-349.798779874704,112.781));
#835=CARTESIAN_POINT('Ctrl Pts',(35.9590766297453,-349.584358545219,112.740731867907));
#836=CARTESIAN_POINT('Ctrl Pts',(35.9371900611889,-349.190233929345,112.577357551169));
#837=CARTESIAN_POINT('Ctrl Pts',(35.9216659671733,-349.010507209954,112.454266915652));
#838=CARTESIAN_POINT('Ctrl Pts',(35.8924557551931,-348.726712933288,112.170472638986));
#839=CARTESIAN_POINT('Ctrl Pts',(35.8768600128501,-348.603623980273,111.990746846643));
#840=CARTESIAN_POINT('Ctrl Pts',(35.8548091281597,-348.440250889388,111.596625392014));
#841=CARTESIAN_POINT('Ctrl Pts',(35.8486814009456,-348.399981994099,111.382205161132));
#842=CARTESIAN_POINT('Ctrl Pts',(35.8486814009456,-348.399981994099,110.979794838869));
#843=CARTESIAN_POINT('Ctrl Pts',(35.8548091281597,-348.440250889388,110.765374607986));
#844=CARTESIAN_POINT('Ctrl Pts',(35.8768600128501,-348.603623980273,110.371253153358));
#845=CARTESIAN_POINT('Ctrl Pts',(35.8924557551931,-348.726712933288,110.191527361014));
#846=CARTESIAN_POINT('Ctrl Pts',(35.9216659671733,-349.010507209954,109.907733084348));
#847=CARTESIAN_POINT('Ctrl Pts',(35.9371900611889,-349.190233929345,109.784642448831));
#848=CARTESIAN_POINT('Ctrl Pts',(35.9590766297453,-349.584358545219,109.621268132093));
#849=CARTESIAN_POINT('Ctrl Pts',(35.9651321144604,-349.798779874704,109.581));
#850=CARTESIAN_POINT('Ctrl Pts',(35.9651321144604,-350.201184113493,109.581));
#851=CARTESIAN_POINT('Ctrl Pts',(35.9590766297453,-350.415605442979,109.621268132093));
#852=CARTESIAN_POINT('Ctrl Pts',(35.9371900611889,-350.809730058852,109.784642448831));
#853=CARTESIAN_POINT('Ctrl Pts',(35.9216659671733,-350.989456778244,109.907733084348));
#854=CARTESIAN_POINT('Ctrl Pts',(35.8924557551931,-351.27325105491,110.191527361014));
#855=CARTESIAN_POINT('Ctrl Pts',(35.8768600128501,-351.396340007925,110.371253153358));
#856=CARTESIAN_POINT('Ctrl Pts',(35.8548091281597,-351.559713098809,110.765374607986));
#857=CARTESIAN_POINT('Ctrl Pts',(35.8486814009456,-351.599981994099,110.979794838869));
#858=CARTESIAN_POINT('Ctrl Pts',(35.8486814009456,-351.599981994099,111.181));
#859=CARTESIAN_POINT('',(27.5117645489802,-351.599981994099,111.181));
#860=CARTESIAN_POINT('',(49.9151321144606,-351.599981994099,111.181));
#861=CARTESIAN_POINT('Ctrl Pts',(27.5117645489803,-351.599981994099,111.181));
#862=CARTESIAN_POINT('Ctrl Pts',(27.5117645489803,-351.599981994099,110.975156198388));
#863=CARTESIAN_POINT('Ctrl Pts',(27.5388471156687,-351.558004897594,110.759305490265));
#864=CARTESIAN_POINT('Ctrl Pts',(27.6297111518371,-351.393673297237,110.366821036288));
#865=CARTESIAN_POINT('Ctrl Pts',(27.6915831405853,-351.271426361674,110.189702667778));
#866=CARTESIAN_POINT('Ctrl Pts',(27.8032944342516,-350.991755668246,109.91003197435));
#867=CARTESIAN_POINT('Ctrl Pts',(27.861212748254,-350.814482904839,109.787439266414));
#868=CARTESIAN_POINT('Ctrl Pts',(27.9425561003149,-350.421297638939,109.622822696267));
#869=CARTESIAN_POINT('Ctrl Pts',(27.9651321144605,-350.20512579164,109.581));
#870=CARTESIAN_POINT('Ctrl Pts',(27.9651321144605,-349.794838196558,109.581));
#871=CARTESIAN_POINT('Ctrl Pts',(27.9425561003149,-349.578666349259,109.622822696267));
#872=CARTESIAN_POINT('Ctrl Pts',(27.861212748254,-349.185481083359,109.787439266414));
#873=CARTESIAN_POINT('Ctrl Pts',(27.8032944342516,-349.008208319952,109.91003197435));
#874=CARTESIAN_POINT('Ctrl Pts',(27.6915831405853,-348.728537626524,110.189702667778));
#875=CARTESIAN_POINT('Ctrl Pts',(27.6297111518371,-348.606290690961,110.366821036288));
#876=CARTESIAN_POINT('Ctrl Pts',(27.5388471156687,-348.441959090604,110.759305490265));
#877=CARTESIAN_POINT('Ctrl Pts',(27.5117645489802,-348.399981994099,110.975156198388));
#878=CARTESIAN_POINT('Ctrl Pts',(27.5117645489802,-348.399981994099,111.386843801613));
#879=CARTESIAN_POINT('Ctrl Pts',(27.5388471156687,-348.441959090604,111.602694509736));
#880=CARTESIAN_POINT('Ctrl Pts',(27.6297111518371,-348.606290690961,111.995178963712));
#881=CARTESIAN_POINT('Ctrl Pts',(27.6915831405853,-348.728537626524,112.172297332222));
#882=CARTESIAN_POINT('Ctrl Pts',(27.8032944342516,-349.008208319952,112.45196802565));
#883=CARTESIAN_POINT('Ctrl Pts',(27.861212748254,-349.185481083359,112.574560733587));
#884=CARTESIAN_POINT('Ctrl Pts',(27.9425561003149,-349.578666349259,112.739177303733));
#885=CARTESIAN_POINT('Ctrl Pts',(27.9651321144605,-349.794838196558,112.781));
#886=CARTESIAN_POINT('Ctrl Pts',(27.9651321144605,-350.20512579164,112.781));
#887=CARTESIAN_POINT('Ctrl Pts',(27.9425561003149,-350.421297638939,112.739177303733));
#888=CARTESIAN_POINT('Ctrl Pts',(27.861212748254,-350.814482904839,112.574560733587));
#889=CARTESIAN_POINT('Ctrl Pts',(27.8032944342516,-350.991755668246,112.45196802565));
#890=CARTESIAN_POINT('Ctrl Pts',(27.6915831405853,-351.271426361674,112.172297332222));
#891=CARTESIAN_POINT('Ctrl Pts',(27.6297111518371,-351.393673297237,111.995178963712));
#892=CARTESIAN_POINT('Ctrl Pts',(27.5388471156687,-351.558004897594,111.602694509736));
#893=CARTESIAN_POINT('Ctrl Pts',(27.5117645489803,-351.599981994099,111.386843801613));
#894=CARTESIAN_POINT('Ctrl Pts',(27.5117645489803,-351.599981994099,111.181));
#895=CARTESIAN_POINT('Origin',(49.9151321144606,-349.999981994099,102.381));
#896=CARTESIAN_POINT('',(35.8486814009456,-351.599981994099,102.381));
#897=CARTESIAN_POINT('Ctrl Pts',(35.8486814009456,-351.599981994099,102.381));
#898=CARTESIAN_POINT('Ctrl Pts',(35.8486814009456,-351.599981994099,102.582205161132));
#899=CARTESIAN_POINT('Ctrl Pts',(35.8548091281597,-351.559713098809,102.796625392014));
#900=CARTESIAN_POINT('Ctrl Pts',(35.8768600128501,-351.396340007925,103.190746846643));
#901=CARTESIAN_POINT('Ctrl Pts',(35.8924557551931,-351.27325105491,103.370472638986));
#902=CARTESIAN_POINT('Ctrl Pts',(35.9216659671733,-350.989456778244,103.654266915652));
#903=CARTESIAN_POINT('Ctrl Pts',(35.9371900611889,-350.809730058852,103.777357551169));
#904=CARTESIAN_POINT('Ctrl Pts',(35.9590766297453,-350.415605442979,103.940731867907));
#905=CARTESIAN_POINT('Ctrl Pts',(35.9651321144604,-350.201184113493,103.981));
#906=CARTESIAN_POINT('Ctrl Pts',(35.9651321144604,-349.798779874704,103.981));
#907=CARTESIAN_POINT('Ctrl Pts',(35.9590766297453,-349.584358545219,103.940731867907));
#908=CARTESIAN_POINT('Ctrl Pts',(35.9371900611889,-349.190233929345,103.777357551169));
#909=CARTESIAN_POINT('Ctrl Pts',(35.9216659671733,-349.010507209954,103.654266915652));
#910=CARTESIAN_POINT('Ctrl Pts',(35.8924557551931,-348.726712933288,103.370472638986));
#911=CARTESIAN_POINT('Ctrl Pts',(35.8768600128501,-348.603623980273,103.190746846643));
#912=CARTESIAN_POINT('Ctrl Pts',(35.8548091281597,-348.440250889388,102.796625392014));
#913=CARTESIAN_POINT('Ctrl Pts',(35.8486814009456,-348.399981994099,102.582205161132));
#914=CARTESIAN_POINT('Ctrl Pts',(35.8486814009456,-348.399981994099,102.179794838869));
#915=CARTESIAN_POINT('Ctrl Pts',(35.8548091281597,-348.440250889388,101.965374607986));
#916=CARTESIAN_POINT('Ctrl Pts',(35.8768600128501,-348.603623980273,101.571253153358));
#917=CARTESIAN_POINT('Ctrl Pts',(35.8924557551931,-348.726712933288,101.391527361014));
#918=CARTESIAN_POINT('Ctrl Pts',(35.9216659671733,-349.010507209954,101.107733084348));
#919=CARTESIAN_POINT('Ctrl Pts',(35.9371900611889,-349.190233929345,100.984642448831));
#920=CARTESIAN_POINT('Ctrl Pts',(35.9590766297453,-349.584358545219,100.821268132093));
#921=CARTESIAN_POINT('Ctrl Pts',(35.9651321144604,-349.798779874704,100.781));
#922=CARTESIAN_POINT('Ctrl Pts',(35.9651321144604,-350.201184113493,100.781));
#923=CARTESIAN_POINT('Ctrl Pts',(35.9590766297453,-350.415605442979,100.821268132093));
#924=CARTESIAN_POINT('Ctrl Pts',(35.9371900611889,-350.809730058852,100.984642448831));
#925=CARTESIAN_POINT('Ctrl Pts',(35.9216659671733,-350.989456778244,101.107733084348));
#926=CARTESIAN_POINT('Ctrl Pts',(35.8924557551931,-351.27325105491,101.391527361014));
#927=CARTESIAN_POINT('Ctrl Pts',(35.8768600128501,-351.396340007925,101.571253153358));
#928=CARTESIAN_POINT('Ctrl Pts',(35.8548091281597,-351.559713098809,101.965374607986));
#929=CARTESIAN_POINT('Ctrl Pts',(35.8486814009456,-351.599981994099,102.179794838869));
#930=CARTESIAN_POINT('Ctrl Pts',(35.8486814009456,-351.599981994099,102.381));
#931=CARTESIAN_POINT('',(27.5117645489802,-351.599981994099,102.381));
#932=CARTESIAN_POINT('',(49.9151321144606,-351.599981994099,102.381));
#933=CARTESIAN_POINT('Ctrl Pts',(27.5117645489803,-351.599981994099,102.381));
#934=CARTESIAN_POINT('Ctrl Pts',(27.5117645489803,-351.599981994099,102.175156198388));
#935=CARTESIAN_POINT('Ctrl Pts',(27.5388471156687,-351.558004897594,101.959305490265));
#936=CARTESIAN_POINT('Ctrl Pts',(27.6297111518371,-351.393673297237,101.566821036288));
#937=CARTESIAN_POINT('Ctrl Pts',(27.6915831405853,-351.271426361674,101.389702667778));
#938=CARTESIAN_POINT('Ctrl Pts',(27.8032944342516,-350.991755668246,101.11003197435));
#939=CARTESIAN_POINT('Ctrl Pts',(27.861212748254,-350.814482904839,100.987439266414));
#940=CARTESIAN_POINT('Ctrl Pts',(27.9425561003149,-350.421297638939,100.822822696267));
#941=CARTESIAN_POINT('Ctrl Pts',(27.9651321144605,-350.20512579164,100.781));
#942=CARTESIAN_POINT('Ctrl Pts',(27.9651321144605,-349.794838196558,100.781));
#943=CARTESIAN_POINT('Ctrl Pts',(27.9425561003149,-349.578666349259,100.822822696267));
#944=CARTESIAN_POINT('Ctrl Pts',(27.861212748254,-349.185481083359,100.987439266414));
#945=CARTESIAN_POINT('Ctrl Pts',(27.8032944342516,-349.008208319952,101.11003197435));
#946=CARTESIAN_POINT('Ctrl Pts',(27.6915831405853,-348.728537626524,101.389702667778));
#947=CARTESIAN_POINT('Ctrl Pts',(27.6297111518371,-348.606290690961,101.566821036288));
#948=CARTESIAN_POINT('Ctrl Pts',(27.5388471156687,-348.441959090604,101.959305490265));
#949=CARTESIAN_POINT('Ctrl Pts',(27.5117645489802,-348.399981994099,102.175156198388));
#950=CARTESIAN_POINT('Ctrl Pts',(27.5117645489802,-348.399981994099,102.586843801613));
#951=CARTESIAN_POINT('Ctrl Pts',(27.5388471156687,-348.441959090604,102.802694509736));
#952=CARTESIAN_POINT('Ctrl Pts',(27.6297111518371,-348.606290690961,103.195178963712));
#953=CARTESIAN_POINT('Ctrl Pts',(27.6915831405853,-348.728537626524,103.372297332222));
#954=CARTESIAN_POINT('Ctrl Pts',(27.8032944342516,-349.008208319952,103.65196802565));
#955=CARTESIAN_POINT('Ctrl Pts',(27.861212748254,-349.185481083359,103.774560733587));
#956=CARTESIAN_POINT('Ctrl Pts',(27.9425561003149,-349.578666349259,103.939177303733));
#957=CARTESIAN_POINT('Ctrl Pts',(27.9651321144605,-349.794838196558,103.981));
#958=CARTESIAN_POINT('Ctrl Pts',(27.9651321144605,-350.20512579164,103.981));
#959=CARTESIAN_POINT('Ctrl Pts',(27.9425561003149,-350.421297638939,103.939177303733));
#960=CARTESIAN_POINT('Ctrl Pts',(27.861212748254,-350.814482904839,103.774560733587));
#961=CARTESIAN_POINT('Ctrl Pts',(27.8032944342516,-350.991755668246,103.65196802565));
#962=CARTESIAN_POINT('Ctrl Pts',(27.6915831405853,-351.271426361674,103.372297332222));
#963=CARTESIAN_POINT('Ctrl Pts',(27.6297111518371,-351.393673297237,103.195178963712));
#964=CARTESIAN_POINT('Ctrl Pts',(27.5388471156687,-351.558004897594,102.802694509736));
#965=CARTESIAN_POINT('Ctrl Pts',(27.5117645489803,-351.599981994099,102.586843801613));
#966=CARTESIAN_POINT('Ctrl Pts',(27.5117645489803,-351.599981994099,102.381));
#967=CARTESIAN_POINT('Origin',(-0.0848678855395235,-361.049981994099,111.181));
#968=CARTESIAN_POINT('',(-1.68486788553951,-361.049981994099,111.181));
#969=CARTESIAN_POINT('Origin',(-0.0848678855395235,-361.049981994099,111.181));
#970=CARTESIAN_POINT('',(-1.68486788553954,-353.720533028556,111.181));
#971=CARTESIAN_POINT('',(-1.68486788553952,-361.049981994099,111.181));
#972=CARTESIAN_POINT('Ctrl Pts',(-1.68486788553955,-353.720533028556,111.181));
#973=CARTESIAN_POINT('Ctrl Pts',(-1.68486788553955,-353.720533028556,110.977574535733));
#974=CARTESIAN_POINT('Ctrl Pts',(-1.64375701611654,-353.738980825496,110.762341920787));
#975=CARTESIAN_POINT('Ctrl Pts',(-1.47984211674885,-353.803177222782,110.368930148313));
#976=CARTESIAN_POINT('Ctrl Pts',(-1.35713178353345,-353.847757408851,110.190522198197));
#977=CARTESIAN_POINT('Ctrl Pts',(-1.07548074973005,-353.929699027363,109.908871164394));
#978=CARTESIAN_POINT('Ctrl Pts',(-0.897021454554956,-353.97270829888,109.786058270657));
#979=CARTESIAN_POINT('Ctrl Pts',(-0.503410258875245,-354.033215188184,109.622065039723));
#980=CARTESIAN_POINT('Ctrl Pts',(-0.288098342819332,-354.049981994099,109.581));
#981=CARTESIAN_POINT('Ctrl Pts',(0.118362571740267,-354.049981994099,109.581));
#982=CARTESIAN_POINT('Ctrl Pts',(0.333674487796163,-354.033215188184,109.622065039723));
#983=CARTESIAN_POINT('Ctrl Pts',(0.727285683475891,-353.97270829888,109.786058270657));
#984=CARTESIAN_POINT('Ctrl Pts',(0.905744978650986,-353.929699027363,109.908871164394));
#985=CARTESIAN_POINT('Ctrl Pts',(1.18739601245437,-353.847757408851,110.190522198197));
#986=CARTESIAN_POINT('Ctrl Pts',(1.31010634566977,-353.803177222782,110.368930148313));
#987=CARTESIAN_POINT('Ctrl Pts',(1.47402124503746,-353.738980825496,110.762341920787));
#988=CARTESIAN_POINT('Ctrl Pts',(1.51513211446046,-353.720533028556,110.977574535733));
#989=CARTESIAN_POINT('Ctrl Pts',(1.51513211446046,-353.720533028556,111.384425464267));
#990=CARTESIAN_POINT('Ctrl Pts',(1.47402124503746,-353.738980825496,111.599658079214));
#991=CARTESIAN_POINT('Ctrl Pts',(1.31010634566977,-353.803177222782,111.993069851687));
#992=CARTESIAN_POINT('Ctrl Pts',(1.18739601245437,-353.847757408851,112.171477801803));
#993=CARTESIAN_POINT('Ctrl Pts',(0.905744978650986,-353.929699027363,112.453128835607));
#994=CARTESIAN_POINT('Ctrl Pts',(0.727285683475891,-353.97270829888,112.575941729343));
#995=CARTESIAN_POINT('Ctrl Pts',(0.333674487796163,-354.033215188184,112.739934960277));
#996=CARTESIAN_POINT('Ctrl Pts',(0.118362571740267,-354.049981994099,112.781));
#997=CARTESIAN_POINT('Ctrl Pts',(-0.288098342819332,-354.049981994099,112.781));
#998=CARTESIAN_POINT('Ctrl Pts',(-0.503410258875245,-354.033215188184,112.739934960277));
#999=CARTESIAN_POINT('Ctrl Pts',(-0.897021454554956,-353.97270829888,112.575941729343));
#1000=CARTESIAN_POINT('Ctrl Pts',(-1.07548074973005,-353.929699027363,112.453128835607));
#1001=CARTESIAN_POINT('Ctrl Pts',(-1.35713178353345,-353.847757408851,112.171477801803));
#1002=CARTESIAN_POINT('Ctrl Pts',(-1.47984211674885,-353.803177222782,111.993069851687));
#1003=CARTESIAN_POINT('Ctrl Pts',(-1.64375701611652,-353.738980825496,111.599658079214));
#1004=CARTESIAN_POINT('Ctrl Pts',(-1.68486788553955,-353.720533028556,111.384425464267));
#1005=CARTESIAN_POINT('Ctrl Pts',(-1.68486788553955,-353.720533028556,111.181));
#1006=CARTESIAN_POINT('Origin',(-0.0848678855395235,-361.049981994099,111.181));
#1007=CARTESIAN_POINT('',(-1.68486788553956,-346.279430959642,111.181));
#1008=CARTESIAN_POINT('',(-0.0848678855395564,-345.949981994099,112.781));
#1009=CARTESIAN_POINT('Ctrl Pts',(-1.68486788553957,-346.279430959642,111.181));
#1010=CARTESIAN_POINT('Ctrl Pts',(-1.68486788553957,-346.279430959642,111.384425464267));
#1011=CARTESIAN_POINT('Ctrl Pts',(-1.64375701611656,-346.260983162702,111.599658079214));
#1012=CARTESIAN_POINT('Ctrl Pts',(-1.47984211674887,-346.196786765416,111.993069851687));
#1013=CARTESIAN_POINT('Ctrl Pts',(-1.35713178353347,-346.152206579347,112.171477801803));
#1014=CARTESIAN_POINT('Ctrl Pts',(-1.07548074973009,-346.070264960835,112.453128835607));
#1015=CARTESIAN_POINT('Ctrl Pts',(-0.897021454554991,-346.027255689318,
112.575941729343));
#1016=CARTESIAN_POINT('Ctrl Pts',(-0.503410258875263,-345.966748800014,
112.739934960277));
#1017=CARTESIAN_POINT('Ctrl Pts',(-0.288098342819349,-345.949981994099,
112.781));
#1018=CARTESIAN_POINT('Ctrl Pts',(-0.0848678855395587,-345.949981994099,
112.781));
#1019=CARTESIAN_POINT('',(-1.68486788553958,-338.949981994099,111.181));
#1020=CARTESIAN_POINT('',(-1.68486788553952,-361.049981994099,111.181));
#1021=CARTESIAN_POINT('Origin',(-0.0848678855395768,-338.949981994099,111.181));
#1022=CARTESIAN_POINT('',(-0.0848678855395566,-345.949981994099,109.581));
#1023=CARTESIAN_POINT('Ctrl Pts',(-0.084867885539559,-345.949981994099,
109.581));
#1024=CARTESIAN_POINT('Ctrl Pts',(-0.288098342819349,-345.949981994099,
109.581));
#1025=CARTESIAN_POINT('Ctrl Pts',(-0.503410258875263,-345.966748800014,
109.622065039723));
#1026=CARTESIAN_POINT('Ctrl Pts',(-0.897021454554991,-346.027255689318,
109.786058270657));
#1027=CARTESIAN_POINT('Ctrl Pts',(-1.07548074973009,-346.070264960835,109.908871164394));
#1028=CARTESIAN_POINT('Ctrl Pts',(-1.35713178353347,-346.152206579347,110.190522198197));
#1029=CARTESIAN_POINT('Ctrl Pts',(-1.47984211674887,-346.196786765416,110.368930148313));
#1030=CARTESIAN_POINT('Ctrl Pts',(-1.64375701611656,-346.260983162702,110.762341920787));
#1031=CARTESIAN_POINT('Ctrl Pts',(-1.68486788553957,-346.279430959642,110.977574535733));
#1032=CARTESIAN_POINT('Ctrl Pts',(-1.68486788553957,-346.279430959642,111.181));
#1033=CARTESIAN_POINT('Ctrl Pts',(-0.0848678855395582,-345.949981994099,
112.781));
#1034=CARTESIAN_POINT('Ctrl Pts',(0.118362571740232,-345.949981994099,112.781));
#1035=CARTESIAN_POINT('Ctrl Pts',(0.333674487796145,-345.966748800014,112.739934960277));
#1036=CARTESIAN_POINT('Ctrl Pts',(0.727285683475873,-346.027255689318,112.575941729343));
#1037=CARTESIAN_POINT('Ctrl Pts',(0.905744978650951,-346.070264960835,112.453128835607));
#1038=CARTESIAN_POINT('Ctrl Pts',(1.18739601245435,-346.152206579347,112.171477801803));
#1039=CARTESIAN_POINT('Ctrl Pts',(1.31010634566975,-346.196786765416,111.993069851687));
#1040=CARTESIAN_POINT('Ctrl Pts',(1.47402124503744,-346.260983162702,111.599658079214));
#1041=CARTESIAN_POINT('Ctrl Pts',(1.51513211446044,-346.279430959642,111.384425464267));
#1042=CARTESIAN_POINT('Ctrl Pts',(1.51513211446044,-346.279430959642,110.977574535733));
#1043=CARTESIAN_POINT('Ctrl Pts',(1.47402124503744,-346.260983162702,110.762341920787));
#1044=CARTESIAN_POINT('Ctrl Pts',(1.31010634566975,-346.196786765416,110.368930148313));
#1045=CARTESIAN_POINT('Ctrl Pts',(1.18739601245435,-346.152206579347,110.190522198197));
#1046=CARTESIAN_POINT('Ctrl Pts',(0.905744978650951,-346.070264960835,109.908871164394));
#1047=CARTESIAN_POINT('Ctrl Pts',(0.727285683475873,-346.027255689318,109.786058270657));
#1048=CARTESIAN_POINT('Ctrl Pts',(0.333674487796145,-345.966748800014,109.622065039723));
#1049=CARTESIAN_POINT('Ctrl Pts',(0.118362571740232,-345.949981994099,109.581));
#1050=CARTESIAN_POINT('Ctrl Pts',(-0.0848678855395582,-345.949981994099,
109.581));
#1051=CARTESIAN_POINT('Origin',(-0.0848678855395235,-361.049981994099,102.381));
#1052=CARTESIAN_POINT('',(-1.68486788553952,-361.049981994099,102.381));
#1053=CARTESIAN_POINT('Origin',(-0.0848678855395235,-361.049981994099,102.381));
#1054=CARTESIAN_POINT('',(-1.68486788553954,-353.720533028556,102.381));
#1055=CARTESIAN_POINT('',(-1.68486788553952,-361.049981994099,102.381));
#1056=CARTESIAN_POINT('Ctrl Pts',(-1.68486788553955,-353.720533028556,102.381));
#1057=CARTESIAN_POINT('Ctrl Pts',(-1.68486788553955,-353.720533028556,102.177574535733));
#1058=CARTESIAN_POINT('Ctrl Pts',(-1.64375701611654,-353.738980825496,101.962341920787));
#1059=CARTESIAN_POINT('Ctrl Pts',(-1.47984211674885,-353.803177222782,101.568930148313));
#1060=CARTESIAN_POINT('Ctrl Pts',(-1.35713178353345,-353.847757408851,101.390522198197));
#1061=CARTESIAN_POINT('Ctrl Pts',(-1.07548074973007,-353.929699027363,101.108871164394));
#1062=CARTESIAN_POINT('Ctrl Pts',(-0.897021454554974,-353.97270829888,100.986058270657));
#1063=CARTESIAN_POINT('Ctrl Pts',(-0.503410258875245,-354.033215188184,
100.822065039723));
#1064=CARTESIAN_POINT('Ctrl Pts',(-0.288098342819332,-354.049981994099,
100.781));
#1065=CARTESIAN_POINT('Ctrl Pts',(0.118362571740249,-354.049981994099,100.781));
#1066=CARTESIAN_POINT('Ctrl Pts',(0.333674487796163,-354.033215188184,100.822065039723));
#1067=CARTESIAN_POINT('Ctrl Pts',(0.727285683475891,-353.97270829888,100.986058270657));
#1068=CARTESIAN_POINT('Ctrl Pts',(0.905744978650986,-353.929699027363,101.108871164394));
#1069=CARTESIAN_POINT('Ctrl Pts',(1.18739601245437,-353.847757408851,101.390522198197));
#1070=CARTESIAN_POINT('Ctrl Pts',(1.31010634566977,-353.803177222782,101.568930148313));
#1071=CARTESIAN_POINT('Ctrl Pts',(1.47402124503746,-353.738980825496,101.962341920787));
#1072=CARTESIAN_POINT('Ctrl Pts',(1.51513211446046,-353.720533028556,102.177574535733));
#1073=CARTESIAN_POINT('Ctrl Pts',(1.51513211446046,-353.720533028556,102.584425464268));
#1074=CARTESIAN_POINT('Ctrl Pts',(1.47402124503746,-353.738980825496,102.799658079214));
#1075=CARTESIAN_POINT('Ctrl Pts',(1.31010634566977,-353.803177222782,103.193069851687));
#1076=CARTESIAN_POINT('Ctrl Pts',(1.18739601245437,-353.847757408851,103.371477801803));
#1077=CARTESIAN_POINT('Ctrl Pts',(0.905744978650986,-353.929699027363,103.653128835607));
#1078=CARTESIAN_POINT('Ctrl Pts',(0.727285683475891,-353.97270829888,103.775941729343));
#1079=CARTESIAN_POINT('Ctrl Pts',(0.333674487796163,-354.033215188184,103.939934960277));
#1080=CARTESIAN_POINT('Ctrl Pts',(0.118362571740249,-354.049981994099,103.981));
#1081=CARTESIAN_POINT('Ctrl Pts',(-0.288098342819332,-354.049981994099,
103.981));
#1082=CARTESIAN_POINT('Ctrl Pts',(-0.503410258875245,-354.033215188184,
103.939934960277));
#1083=CARTESIAN_POINT('Ctrl Pts',(-0.897021454554974,-353.97270829888,103.775941729343));
#1084=CARTESIAN_POINT('Ctrl Pts',(-1.07548074973007,-353.929699027363,103.653128835607));
#1085=CARTESIAN_POINT('Ctrl Pts',(-1.35713178353345,-353.847757408851,103.371477801803));
#1086=CARTESIAN_POINT('Ctrl Pts',(-1.47984211674885,-353.803177222782,103.193069851687));
#1087=CARTESIAN_POINT('Ctrl Pts',(-1.64375701611654,-353.738980825496,102.799658079214));
#1088=CARTESIAN_POINT('Ctrl Pts',(-1.68486788553955,-353.720533028556,102.584425464268));
#1089=CARTESIAN_POINT('Ctrl Pts',(-1.68486788553955,-353.720533028556,102.381));
#1090=CARTESIAN_POINT('Origin',(-0.0848678855395235,-361.049981994099,102.381));
#1091=CARTESIAN_POINT('',(-1.68486788553956,-346.279430959642,102.381));
#1092=CARTESIAN_POINT('',(-0.0848678855395602,-345.949981994099,103.981));
#1093=CARTESIAN_POINT('Ctrl Pts',(-1.68486788553957,-346.279430959642,102.381));
#1094=CARTESIAN_POINT('Ctrl Pts',(-1.68486788553957,-346.279430959642,102.584425464268));
#1095=CARTESIAN_POINT('Ctrl Pts',(-1.64375701611656,-346.260983162702,102.799658079214));
#1096=CARTESIAN_POINT('Ctrl Pts',(-1.47984211674887,-346.196786765416,103.193069851687));
#1097=CARTESIAN_POINT('Ctrl Pts',(-1.35713178353347,-346.152206579347,103.371477801803));
#1098=CARTESIAN_POINT('Ctrl Pts',(-1.07548074973009,-346.070264960835,103.653128835607));
#1099=CARTESIAN_POINT('Ctrl Pts',(-0.897021454554991,-346.027255689318,
103.775941729343));
#1100=CARTESIAN_POINT('Ctrl Pts',(-0.503410258875263,-345.966748800014,
103.939934960277));
#1101=CARTESIAN_POINT('Ctrl Pts',(-0.288098342819368,-345.949981994099,
103.981));
#1102=CARTESIAN_POINT('Ctrl Pts',(-0.0848678855395683,-345.949981994099,
103.981));
#1103=CARTESIAN_POINT('',(-1.6848678855396,-338.949981994099,102.381));
#1104=CARTESIAN_POINT('',(-1.68486788553952,-361.049981994099,102.381));
#1105=CARTESIAN_POINT('Origin',(-0.0848678855395946,-338.949981994099,102.381));
#1106=CARTESIAN_POINT('',(-0.0848678855395617,-345.949981994099,100.781));
#1107=CARTESIAN_POINT('Ctrl Pts',(-0.0848678855395691,-345.949981994099,
100.781));
#1108=CARTESIAN_POINT('Ctrl Pts',(-0.288098342819368,-345.949981994099,
100.781));
#1109=CARTESIAN_POINT('Ctrl Pts',(-0.503410258875263,-345.966748800014,
100.822065039723));
#1110=CARTESIAN_POINT('Ctrl Pts',(-0.897021454554991,-346.027255689318,
100.986058270657));
#1111=CARTESIAN_POINT('Ctrl Pts',(-1.07548074973009,-346.070264960835,101.108871164394));
#1112=CARTESIAN_POINT('Ctrl Pts',(-1.35713178353347,-346.152206579347,101.390522198197));
#1113=CARTESIAN_POINT('Ctrl Pts',(-1.47984211674887,-346.196786765416,101.568930148313));
#1114=CARTESIAN_POINT('Ctrl Pts',(-1.64375701611656,-346.260983162702,101.962341920787));
#1115=CARTESIAN_POINT('Ctrl Pts',(-1.68486788553957,-346.279430959642,102.177574535733));
#1116=CARTESIAN_POINT('Ctrl Pts',(-1.68486788553957,-346.279430959642,102.381));
#1117=CARTESIAN_POINT('Ctrl Pts',(-0.084867885539566,-345.949981994099,
103.981));
#1118=CARTESIAN_POINT('Ctrl Pts',(0.118362571740233,-345.949981994099,103.981));
#1119=CARTESIAN_POINT('Ctrl Pts',(0.333674487796145,-345.966748800014,103.939934960277));
#1120=CARTESIAN_POINT('Ctrl Pts',(0.727285683475856,-346.027255689318,103.775941729343));
#1121=CARTESIAN_POINT('Ctrl Pts',(0.905744978650951,-346.070264960835,103.653128835607));
#1122=CARTESIAN_POINT('Ctrl Pts',(1.18739601245435,-346.152206579347,103.371477801803));
#1123=CARTESIAN_POINT('Ctrl Pts',(1.31010634566975,-346.196786765416,103.193069851687));
#1124=CARTESIAN_POINT('Ctrl Pts',(1.47402124503742,-346.260983162702,102.799658079214));
#1125=CARTESIAN_POINT('Ctrl Pts',(1.51513211446044,-346.279430959642,102.584425464268));
#1126=CARTESIAN_POINT('Ctrl Pts',(1.51513211446044,-346.279430959642,102.177574535733));
#1127=CARTESIAN_POINT('Ctrl Pts',(1.47402124503742,-346.260983162702,101.962341920787));
#1128=CARTESIAN_POINT('Ctrl Pts',(1.31010634566975,-346.196786765416,101.568930148313));
#1129=CARTESIAN_POINT('Ctrl Pts',(1.18739601245435,-346.152206579347,101.390522198197));
#1130=CARTESIAN_POINT('Ctrl Pts',(0.905744978650951,-346.070264960835,101.108871164394));
#1131=CARTESIAN_POINT('Ctrl Pts',(0.727285683475856,-346.027255689318,100.986058270657));
#1132=CARTESIAN_POINT('Ctrl Pts',(0.333674487796145,-345.966748800014,100.822065039723));
#1133=CARTESIAN_POINT('Ctrl Pts',(0.118362571740232,-345.949981994099,100.781));
#1134=CARTESIAN_POINT('Ctrl Pts',(-0.084867885539567,-345.949981994099,
100.781));
#1135=CARTESIAN_POINT('Origin',(-0.0848678855395413,-349.999981994099,94.7810000000001));
#1136=CARTESIAN_POINT('',(-25.0848678855395,-361.049981994099,94.7810000000001));
#1137=CARTESIAN_POINT('',(-25.0848678855396,-338.949981994099,94.7810000000001));
#1138=CARTESIAN_POINT('Origin',(-25.0848678855395,-349.999981994099,94.7810000000001));
#1139=CARTESIAN_POINT('',(24.9151321144604,-338.949981994099,94.7810000000001));
#1140=CARTESIAN_POINT('',(24.9151321144604,-338.949981994099,94.7810000000001));
#1141=CARTESIAN_POINT('',(24.9151321144605,-361.049981994099,94.7810000000001));
#1142=CARTESIAN_POINT('Origin',(24.9151321144605,-349.999981994099,94.7810000000001));
#1143=CARTESIAN_POINT('',(-25.0848678855395,-361.049981994099,94.7810000000001));
#1144=CARTESIAN_POINT('',(-12.5848678855396,-347.399981994099,94.7810000000001));
#1145=CARTESIAN_POINT('Origin',(-12.5848678855395,-349.999981994099,94.7810000000001));
#1146=CARTESIAN_POINT('',(12.4151321144604,-347.399981994099,94.7810000000001));
#1147=CARTESIAN_POINT('Origin',(12.4151321144605,-349.999981994099,94.7810000000001));
#1148=CARTESIAN_POINT('Origin',(-12.5848678855395,-349.999981994099,116.781));
#1149=CARTESIAN_POINT('',(-12.5848678855396,-344.999981994099,116.781));
#1150=CARTESIAN_POINT('Origin',(-12.5848678855395,-349.999981994099,116.781));
#1151=CARTESIAN_POINT('',(-12.5848678855396,-344.999981994099,111.281));
#1152=CARTESIAN_POINT('',(-12.5848678855396,-344.999981994099,116.781));
#1153=CARTESIAN_POINT('Origin',(-12.5848678855395,-349.999981994099,111.281));
#1154=CARTESIAN_POINT('Origin',(-12.5848678855395,-349.999981994099,111.281));
#1155=CARTESIAN_POINT('',(-12.5848678855396,-347.399981994099,111.281));
#1156=CARTESIAN_POINT('Origin',(-12.5848678855395,-349.999981994099,111.281));
#1157=CARTESIAN_POINT('Origin',(12.4151321144605,-349.999981994099,116.781));
#1158=CARTESIAN_POINT('',(12.4151321144604,-344.999981994099,116.781));
#1159=CARTESIAN_POINT('Origin',(12.4151321144605,-349.999981994099,116.781));
#1160=CARTESIAN_POINT('',(12.4151321144604,-344.999981994099,111.281));
#1161=CARTESIAN_POINT('',(12.4151321144604,-344.999981994099,116.781));
#1162=CARTESIAN_POINT('Origin',(12.4151321144605,-349.999981994099,111.281));
#1163=CARTESIAN_POINT('Origin',(12.4151321144605,-349.999981994099,111.281));
#1164=CARTESIAN_POINT('',(12.4151321144604,-347.399981994099,111.281));
#1165=CARTESIAN_POINT('Origin',(12.4151321144605,-349.999981994099,111.281));
#1166=CARTESIAN_POINT('Origin',(-12.5848678855395,-349.999981994099,116.781));
#1167=CARTESIAN_POINT('',(-12.5848678855395,-347.399981994099,116.781));
#1168=CARTESIAN_POINT('Origin',(12.4151321144605,-349.999981994099,116.781));
#1169=CARTESIAN_POINT('',(12.4151321144605,-347.399981994099,116.781));
#1170=CARTESIAN_POINT('Origin',(24.9151321144605,-349.999981994099,96.7810000000001));
#1171=CARTESIAN_POINT('',(24.9151321144604,-346.949981994099,116.781));
#1172=CARTESIAN_POINT('Origin',(24.9151321144605,-349.999981994099,116.781));
#1173=CARTESIAN_POINT('',(24.9151321144604,-346.949981994099,96.7810000000001));
#1174=CARTESIAN_POINT('Origin',(-25.0848678855395,-349.999981994099,96.7810000000001));
#1175=CARTESIAN_POINT('',(-25.0848678855396,-346.949981994099,116.781));
#1176=CARTESIAN_POINT('Origin',(-25.0848678855395,-349.999981994099,116.781));
#1177=CARTESIAN_POINT('',(-25.0848678855396,-346.949981994099,96.7810000000001));
#1178=CARTESIAN_POINT('Origin',(-0.0848678855395413,-349.999981994099,96.7810000000001));
#1179=CARTESIAN_POINT('',(-0.084867885539559,-345.949981994099,116.781));
#1180=CARTESIAN_POINT('Origin',(-0.0848678855395413,-349.999981994099,116.781));
#1181=CARTESIAN_POINT('',(-0.0848678855395543,-345.949981994099,96.7810000000001));
#1182=CARTESIAN_POINT('',(-0.0848678855395543,-345.949981994099,96.7810000000001));
#1183=CARTESIAN_POINT('',(-0.0848678855395543,-345.949981994099,96.7810000000001));
#1184=CARTESIAN_POINT('Origin',(24.9151321144604,-338.949981994099,96.7810000000001));
#1185=CARTESIAN_POINT('',(-25.0848678855396,-338.949981994099,116.781));
#1186=CARTESIAN_POINT('',(-25.0848678855396,-338.949981994099,96.7810000000001));
#1187=CARTESIAN_POINT('',(24.9151321144604,-338.949981994099,116.781));
#1188=CARTESIAN_POINT('',(24.9151321144604,-338.949981994099,116.781));
#1189=CARTESIAN_POINT('',(24.9151321144604,-338.949981994099,96.7810000000001));
#1190=CARTESIAN_POINT('Origin',(24.9151321144605,-349.999981994099,96.7810000000001));
#1191=CARTESIAN_POINT('',(24.9151321144605,-361.049981994099,116.781));
#1192=CARTESIAN_POINT('Origin',(24.9151321144605,-349.999981994099,116.781));
#1193=CARTESIAN_POINT('',(24.9151321144605,-361.049981994099,96.7810000000001));
#1194=CARTESIAN_POINT('Origin',(-25.0848678855395,-361.049981994099,96.7810000000001));
#1195=CARTESIAN_POINT('',(-25.0848678855395,-361.049981994099,116.781));
#1196=CARTESIAN_POINT('',(-25.0848678855395,-361.049981994099,116.781));
#1197=CARTESIAN_POINT('',(-25.0848678855395,-361.049981994099,96.7810000000001));
#1198=CARTESIAN_POINT('Origin',(-25.0848678855395,-349.999981994099,96.7810000000001));
#1199=CARTESIAN_POINT('Origin',(-25.0848678855395,-349.999981994099,116.781));
#1200=CARTESIAN_POINT('Origin',(-0.0848678855395413,-349.999981994099,116.781));
#1201=UNCERTAINTY_MEASURE_WITH_UNIT(LENGTH_MEASURE(0.01),#1205,
'DISTANCE_ACCURACY_VALUE',
'Maximum model space distance between geometric entities at asserted c
onnectivities');
#1202=UNCERTAINTY_MEASURE_WITH_UNIT(LENGTH_MEASURE(0.01),#1205,
'DISTANCE_ACCURACY_VALUE',
'Maximum model space distance between geometric entities at asserted c
onnectivities');
#1203=(
GEOMETRIC_REPRESENTATION_CONTEXT(3)
GLOBAL_UNCERTAINTY_ASSIGNED_CONTEXT((#1201))
GLOBAL_UNIT_ASSIGNED_CONTEXT((#1205,#1207,#1208))
REPRESENTATION_CONTEXT('','3D')
);
#1204=(
GEOMETRIC_REPRESENTATION_CONTEXT(3)
GLOBAL_UNCERTAINTY_ASSIGNED_CONTEXT((#1202))
GLOBAL_UNIT_ASSIGNED_CONTEXT((#1205,#1207,#1208))
REPRESENTATION_CONTEXT('','3D')
);
#1205=(
LENGTH_UNIT()
NAMED_UNIT(*)
SI_UNIT(.MILLI.,.METRE.)
);
#1206=(
LENGTH_UNIT()
NAMED_UNIT(*)
SI_UNIT($,.METRE.)
);
#1207=(
NAMED_UNIT(*)
PLANE_ANGLE_UNIT()
SI_UNIT($,.RADIAN.)
);
#1208=(
NAMED_UNIT(*)
SI_UNIT($,.STERADIAN.)
SOLID_ANGLE_UNIT()
);
#1209=SHAPE_DEFINITION_REPRESENTATION(#1210,#1211);
#1210=PRODUCT_DEFINITION_SHAPE('',$,#1213);
#1211=SHAPE_REPRESENTATION('',(#497),#1203);
#1212=PRODUCT_DEFINITION_CONTEXT('part definition',#1217,'design');
#1213=PRODUCT_DEFINITION('mocowanie chwytaka','mocowanie chwytaka',#1214,
#1212);
#1214=PRODUCT_DEFINITION_FORMATION('',$,#1219);
#1215=PRODUCT_RELATED_PRODUCT_CATEGORY('mocowanie chwytaka',
'mocowanie chwytaka',(#1219));
#1216=APPLICATION_PROTOCOL_DEFINITION('international standard',
'automotive_design',2009,#1217);
#1217=APPLICATION_CONTEXT(
'Core Data for Automotive Mechanical Design Process');
#1218=PRODUCT_CONTEXT('part definition',#1217,'mechanical');
#1219=PRODUCT('mocowanie chwytaka','mocowanie chwytaka',$,(#1218));
#1220=PRESENTATION_STYLE_ASSIGNMENT((#1221));
#1221=SURFACE_STYLE_USAGE(.BOTH.,#1222);
#1222=SURFACE_SIDE_STYLE('',(#1223));
#1223=SURFACE_STYLE_FILL_AREA(#1224);
#1224=FILL_AREA_STYLE('Stal \X2\2014\X0\ satynowa',(#1225));
#1225=FILL_AREA_STYLE_COLOUR('Stal \X2\2014\X0\ satynowa',#1226);
#1226=COLOUR_RGB('Stal \X2\2014\X0\ satynowa',0.627450980392157,0.627450980392157,
0.627450980392157);
ENDSEC;
END-ISO-10303-21;
