ISO-10303-21;
HEADER;
/* Generated by software containing ST-Developer
 * from STEP Tools, Inc. (www.steptools.com) 
 */

FILE_DESCRIPTION(
/* description */ (''),
/* implementation_level */ '2;1');

FILE_NAME(
/* name */ 'zaslepka.step',
/* time_stamp */ '2026-03-04T15:16:07+01:00',
/* author */ (''),
/* organization */ (''),
/* preprocessor_version */ 'ST-DEVELOPER v20.1',
/* originating_system */ 'Autodesk Translation Framework v14.24.0.0',
/* authorisation */ '');

FILE_SCHEMA (('AUTOMOTIVE_DESIGN { 1 0 10303 214 3 1 1 }'));
ENDSEC;

DATA;
#10=MECHANICAL_DESIGN_GEOMETRIC_PRESENTATION_REPRESENTATION('',(#13),#1036);
#11=SHAPE_REPRESENTATION_RELATIONSHIP('SRR','None',#1043,#12);
#12=ADVANCED_BREP_SHAPE_REPRESENTATION('',(#14),#1035);
#13=STYLED_ITEM('',(#1052),#14);
#14=MANIFOLD_SOLID_BREP('Bry\X2\0142\X0\a1',#388);
#15=FACE_BOUND('',#136,.T.);
#16=FACE_BOUND('',#137,.T.);
#17=FACE_BOUND('',#139,.T.);
#18=FACE_BOUND('',#140,.T.);
#19=FACE_BOUND('',#142,.T.);
#20=FACE_BOUND('',#143,.T.);
#21=FACE_BOUND('',#145,.T.);
#22=FACE_BOUND('',#146,.T.);
#23=FACE_BOUND('',#148,.T.);
#24=FACE_BOUND('',#149,.T.);
#25=FACE_BOUND('',#151,.T.);
#26=FACE_BOUND('',#152,.T.);
#27=FACE_BOUND('',#154,.T.);
#28=FACE_BOUND('',#155,.T.);
#29=FACE_BOUND('',#157,.T.);
#30=FACE_BOUND('',#158,.T.);
#31=FACE_BOUND('',#159,.T.);
#32=LINE('',#574,#53);
#33=LINE('',#646,#54);
#34=LINE('',#718,#55);
#35=LINE('',#790,#56);
#36=LINE('',#829,#57);
#37=LINE('',#907,#58);
#38=LINE('',#913,#59);
#39=LINE('',#991,#60);
#40=LINE('',#998,#61);
#41=LINE('',#1001,#62);
#42=LINE('',#1005,#63);
#43=LINE('',#1009,#64);
#44=LINE('',#1013,#65);
#45=LINE('',#1014,#66);
#46=LINE('',#1015,#67);
#47=LINE('',#1018,#68);
#48=LINE('',#1020,#69);
#49=LINE('',#1021,#70);
#50=LINE('',#1024,#71);
#51=LINE('',#1028,#72);
#52=LINE('',#1029,#73);
#53=VECTOR('',#452,1.6);
#54=VECTOR('',#455,1.6);
#55=VECTOR('',#458,1.6);
#56=VECTOR('',#461,1.6);
#57=VECTOR('',#466,1.6);
#58=VECTOR('',#469,1.6);
#59=VECTOR('',#476,1.6);
#60=VECTOR('',#479,1.6);
#61=VECTOR('',#486,10.);
#62=VECTOR('',#489,10.);
#63=VECTOR('',#494,3.05);
#64=VECTOR('',#499,3.05);
#65=VECTOR('',#504,4.05000000000001);
#66=VECTOR('',#505,4.05000000000001);
#67=VECTOR('',#506,4.05000000000001);
#68=VECTOR('',#509,10.);
#69=VECTOR('',#510,10.);
#70=VECTOR('',#511,10.);
#71=VECTOR('',#514,10.);
#72=VECTOR('',#519,10.);
#73=VECTOR('',#520,10.);
#74=B_SPLINE_CURVE_WITH_KNOTS('',3,(#539,#540,#541,#542,#543,#544,#545,
#546,#547,#548,#549,#550,#551,#552,#553,#554,#555,#556,#557,#558,#559,#560,
#561,#562,#563,#564,#565,#566,#567,#568,#569,#570,#571,#572),
 .UNSPECIFIED.,.T.,.F.,(4,2,2,2,2,2,2,2,2,2,2,2,2,2,2,2,4),(0.,0.0603615483394658,
0.120723096678932,0.181083732497299,0.241444368315666,0.301805004134033,
0.362165639952401,0.422527188291866,0.482888736631332,0.543250284970798,
0.603611833310264,0.663972469128631,0.724333104946998,0.784693740765366,
0.845054376583733,0.905415924923199,0.965777473262664),.UNSPECIFIED.);
#75=B_SPLINE_CURVE_WITH_KNOTS('',3,(#575,#576,#577,#578,#579,#580,#581,
#582,#583,#584,#585,#586,#587,#588,#589,#590,#591,#592,#593,#594,#595,#596,
#597,#598,#599,#600,#601,#602,#603,#604,#605,#606,#607,#608),
 .UNSPECIFIED.,.T.,.F.,(4,2,2,2,2,2,2,2,2,2,2,2,2,2,2,2,4),(0.,0.0617531404837544,
0.123506280967509,0.185049420229838,0.246592559492167,0.308135698754496,
0.369678838016825,0.43143197850058,0.493185118984334,0.554938259468088,
0.616691399951843,0.678234539214172,0.739777678476501,0.80132081773883,
0.862863957001159,0.924617097484913,0.986370237968668),.UNSPECIFIED.);
#76=B_SPLINE_CURVE_WITH_KNOTS('',3,(#611,#612,#613,#614,#615,#616,#617,
#618,#619,#620,#621,#622,#623,#624,#625,#626,#627,#628,#629,#630,#631,#632,
#633,#634,#635,#636,#637,#638,#639,#640,#641,#642,#643,#644),
 .UNSPECIFIED.,.T.,.F.,(4,2,2,2,2,2,2,2,2,2,2,2,2,2,2,2,4),(0.,0.0603615483394658,
0.120723096678932,0.181083732497299,0.241444368315666,0.301805004134033,
0.362165639952401,0.422527188291866,0.482888736631332,0.543250284970798,
0.603611833310264,0.663972469128631,0.724333104946998,0.784693740765366,
0.845054376583733,0.905415924923199,0.965777473262664),.UNSPECIFIED.);
#77=B_SPLINE_CURVE_WITH_KNOTS('',3,(#647,#648,#649,#650,#651,#652,#653,
#654,#655,#656,#657,#658,#659,#660,#661,#662,#663,#664,#665,#666,#667,#668,
#669,#670,#671,#672,#673,#674,#675,#676,#677,#678,#679,#680),
 .UNSPECIFIED.,.T.,.F.,(4,2,2,2,2,2,2,2,2,2,2,2,2,2,2,2,4),(0.,0.0617531404837544,
0.123506280967509,0.185049420229838,0.246592559492167,0.308135698754496,
0.369678838016825,0.43143197850058,0.493185118984334,0.554938259468088,
0.616691399951843,0.678234539214172,0.739777678476501,0.80132081773883,
0.862863957001159,0.924617097484913,0.986370237968668),.UNSPECIFIED.);
#78=B_SPLINE_CURVE_WITH_KNOTS('',3,(#683,#684,#685,#686,#687,#688,#689,
#690,#691,#692,#693,#694,#695,#696,#697,#698,#699,#700,#701,#702,#703,#704,
#705,#706,#707,#708,#709,#710,#711,#712,#713,#714,#715,#716),
 .UNSPECIFIED.,.T.,.F.,(4,2,2,2,2,2,2,2,2,2,2,2,2,2,2,2,4),(0.,0.0603615483394658,
0.120723096678932,0.181083732497299,0.241444368315666,0.301805004134033,
0.362165639952401,0.422527188291866,0.482888736631332,0.543250284970798,
0.603611833310264,0.663972469128631,0.724333104946998,0.784693740765366,
0.845054376583733,0.905415924923199,0.965777473262664),.UNSPECIFIED.);
#79=B_SPLINE_CURVE_WITH_KNOTS('',3,(#719,#720,#721,#722,#723,#724,#725,
#726,#727,#728,#729,#730,#731,#732,#733,#734,#735,#736,#737,#738,#739,#740,
#741,#742,#743,#744,#745,#746,#747,#748,#749,#750,#751,#752),
 .UNSPECIFIED.,.T.,.F.,(4,2,2,2,2,2,2,2,2,2,2,2,2,2,2,2,4),(0.,0.0617531404837544,
0.123506280967509,0.185049420229838,0.246592559492167,0.308135698754496,
0.369678838016825,0.43143197850058,0.493185118984334,0.554938259468088,
0.616691399951843,0.678234539214172,0.739777678476501,0.80132081773883,
0.862863957001159,0.924617097484913,0.986370237968668),.UNSPECIFIED.);
#80=B_SPLINE_CURVE_WITH_KNOTS('',3,(#755,#756,#757,#758,#759,#760,#761,
#762,#763,#764,#765,#766,#767,#768,#769,#770,#771,#772,#773,#774,#775,#776,
#777,#778,#779,#780,#781,#782,#783,#784,#785,#786,#787,#788),
 .UNSPECIFIED.,.T.,.F.,(4,2,2,2,2,2,2,2,2,2,2,2,2,2,2,2,4),(0.,0.0603615483394658,
0.120723096678932,0.181083732497299,0.241444368315666,0.301805004134033,
0.362165639952401,0.422527188291866,0.482888736631332,0.543250284970798,
0.603611833310264,0.663972469128631,0.724333104946998,0.784693740765366,
0.845054376583733,0.905415924923199,0.965777473262664),.UNSPECIFIED.);
#81=B_SPLINE_CURVE_WITH_KNOTS('',3,(#791,#792,#793,#794,#795,#796,#797,
#798,#799,#800,#801,#802,#803,#804,#805,#806,#807,#808,#809,#810,#811,#812,
#813,#814,#815,#816,#817,#818,#819,#820,#821,#822,#823,#824),
 .UNSPECIFIED.,.T.,.F.,(4,2,2,2,2,2,2,2,2,2,2,2,2,2,2,2,4),(0.,0.0617531404837544,
0.123506280967509,0.185049420229838,0.246592559492167,0.308135698754496,
0.369678838016825,0.43143197850058,0.493185118984334,0.554938259468088,
0.616691399951843,0.678234539214172,0.739777678476501,0.80132081773883,
0.862863957001159,0.924617097484913,0.986370237968668),.UNSPECIFIED.);
#82=B_SPLINE_CURVE_WITH_KNOTS('',3,(#830,#831,#832,#833,#834,#835,#836,
#837,#838,#839,#840,#841,#842,#843,#844,#845,#846,#847,#848,#849,#850,#851,
#852,#853,#854,#855,#856,#857,#858,#859,#860,#861,#862,#863),
 .UNSPECIFIED.,.T.,.F.,(4,2,2,2,2,2,2,2,2,2,2,2,2,2,2,2,4),(0.,0.0610276392802098,
0.12205527856042,0.183024415744358,0.243993552928297,0.304962690112235,
0.365931827296174,0.426959466576384,0.487987105856594,0.549014745136803,
0.610042384417013,0.671011521600952,0.73198065878489,0.792949795968829,
0.853918933152768,0.914946572432977,0.975974211713187),.UNSPECIFIED.);
#83=B_SPLINE_CURVE_WITH_KNOTS('',3,(#867,#868,#869,#870,#871,#872,#873,
#874,#875,#876),.UNSPECIFIED.,.F.,.F.,(4,2,2,2,4),(0.,0.0610276392802098,
0.12205527856042,0.183024415744358,0.243993552928297),.UNSPECIFIED.);
#84=B_SPLINE_CURVE_WITH_KNOTS('',3,(#878,#879,#880,#881,#882,#883,#884,
#885,#886,#887,#888,#889,#890,#891,#892,#893,#894,#895),.UNSPECIFIED.,.F.,
 .F.,(4,2,2,2,2,2,2,2,4),(0.243993552928297,0.304962690112235,0.365931827296174,
0.426959466576384,0.487987105856594,0.549014745136803,0.610042384417013,
0.671011521600952,0.73198065878489),.UNSPECIFIED.);
#85=B_SPLINE_CURVE_WITH_KNOTS('',3,(#896,#897,#898,#899,#900,#901,#902,
#903,#904,#905),.UNSPECIFIED.,.F.,.F.,(4,2,2,2,4),(0.73198065878489,0.792949795968829,
0.853918933152768,0.914946572432977,0.975974211713187),.UNSPECIFIED.);
#86=B_SPLINE_CURVE_WITH_KNOTS('',3,(#914,#915,#916,#917,#918,#919,#920,
#921,#922,#923,#924,#925,#926,#927,#928,#929,#930,#931,#932,#933,#934,#935,
#936,#937,#938,#939,#940,#941,#942,#943,#944,#945,#946,#947),
 .UNSPECIFIED.,.T.,.F.,(4,2,2,2,2,2,2,2,2,2,2,2,2,2,2,2,4),(0.,0.0610276392802098,
0.12205527856042,0.183024415744358,0.243993552928297,0.304962690112235,
0.365931827296174,0.426959466576384,0.487987105856593,0.549014745136803,
0.610042384417013,0.671011521600952,0.73198065878489,0.792949795968829,
0.853918933152767,0.914946572432977,0.975974211713187),.UNSPECIFIED.);
#87=B_SPLINE_CURVE_WITH_KNOTS('',3,(#951,#952,#953,#954,#955,#956,#957,
#958,#959,#960),.UNSPECIFIED.,.F.,.F.,(4,2,2,2,4),(0.,0.0610276392802098,
0.12205527856042,0.183024415744358,0.243993552928297),.UNSPECIFIED.);
#88=B_SPLINE_CURVE_WITH_KNOTS('',3,(#962,#963,#964,#965,#966,#967,#968,
#969,#970,#971,#972,#973,#974,#975,#976,#977,#978,#979),.UNSPECIFIED.,.F.,
 .F.,(4,2,2,2,2,2,2,2,4),(0.243993552928297,0.304962690112235,0.365931827296174,
0.426959466576384,0.487987105856593,0.549014745136803,0.610042384417013,
0.671011521600952,0.73198065878489),.UNSPECIFIED.);
#89=B_SPLINE_CURVE_WITH_KNOTS('',3,(#980,#981,#982,#983,#984,#985,#986,
#987,#988,#989),.UNSPECIFIED.,.F.,.F.,(4,2,2,2,4),(0.73198065878489,0.792949795968829,
0.853918933152767,0.914946572432977,0.975974211713187),.UNSPECIFIED.);
#90=CYLINDRICAL_SURFACE('',#408,1.6);
#91=CYLINDRICAL_SURFACE('',#409,1.6);
#92=CYLINDRICAL_SURFACE('',#410,1.6);
#93=CYLINDRICAL_SURFACE('',#411,1.6);
#94=CYLINDRICAL_SURFACE('',#412,1.6);
#95=CYLINDRICAL_SURFACE('',#414,1.6);
#96=CYLINDRICAL_SURFACE('',#416,1.6);
#97=CYLINDRICAL_SURFACE('',#418,1.6);
#98=CYLINDRICAL_SURFACE('',#423,3.05);
#99=CYLINDRICAL_SURFACE('',#425,3.05);
#100=CYLINDRICAL_SURFACE('',#427,4.05000000000001);
#101=CYLINDRICAL_SURFACE('',#430,11.05);
#102=CYLINDRICAL_SURFACE('',#433,11.05);
#103=FACE_OUTER_BOUND('',#123,.T.);
#104=FACE_OUTER_BOUND('',#124,.T.);
#105=FACE_OUTER_BOUND('',#125,.T.);
#106=FACE_OUTER_BOUND('',#126,.T.);
#107=FACE_OUTER_BOUND('',#127,.T.);
#108=FACE_OUTER_BOUND('',#128,.T.);
#109=FACE_OUTER_BOUND('',#129,.T.);
#110=FACE_OUTER_BOUND('',#130,.T.);
#111=FACE_OUTER_BOUND('',#131,.T.);
#112=FACE_OUTER_BOUND('',#132,.T.);
#113=FACE_OUTER_BOUND('',#133,.T.);
#114=FACE_OUTER_BOUND('',#134,.T.);
#115=FACE_OUTER_BOUND('',#135,.T.);
#116=FACE_OUTER_BOUND('',#138,.T.);
#117=FACE_OUTER_BOUND('',#141,.T.);
#118=FACE_OUTER_BOUND('',#144,.T.);
#119=FACE_OUTER_BOUND('',#147,.T.);
#120=FACE_OUTER_BOUND('',#150,.T.);
#121=FACE_OUTER_BOUND('',#153,.T.);
#122=FACE_OUTER_BOUND('',#156,.T.);
#123=EDGE_LOOP('',(#259));
#124=EDGE_LOOP('',(#260));
#125=EDGE_LOOP('',(#261));
#126=EDGE_LOOP('',(#262,#263,#264,#265));
#127=EDGE_LOOP('',(#266,#267,#268,#269));
#128=EDGE_LOOP('',(#270,#271,#272,#273));
#129=EDGE_LOOP('',(#274,#275,#276,#277));
#130=EDGE_LOOP('',(#278,#279,#280,#281));
#131=EDGE_LOOP('',(#282,#283,#284,#285,#286,#287));
#132=EDGE_LOOP('',(#288,#289,#290,#291));
#133=EDGE_LOOP('',(#292,#293,#294,#295,#296,#297));
#134=EDGE_LOOP('',(#298,#299,#300,#301));
#135=EDGE_LOOP('',(#302,#303,#304,#305));
#136=EDGE_LOOP('',(#306));
#137=EDGE_LOOP('',(#307));
#138=EDGE_LOOP('',(#308,#309,#310,#311));
#139=EDGE_LOOP('',(#312));
#140=EDGE_LOOP('',(#313));
#141=EDGE_LOOP('',(#314,#315,#316,#317,#318,#319,#320,#321,#322,#323,#324,
#325,#326,#327));
#142=EDGE_LOOP('',(#328));
#143=EDGE_LOOP('',(#329));
#144=EDGE_LOOP('',(#330,#331,#332,#333));
#145=EDGE_LOOP('',(#334));
#146=EDGE_LOOP('',(#335));
#147=EDGE_LOOP('',(#336,#337,#338,#339));
#148=EDGE_LOOP('',(#340));
#149=EDGE_LOOP('',(#341));
#150=EDGE_LOOP('',(#342,#343,#344,#345));
#151=EDGE_LOOP('',(#346));
#152=EDGE_LOOP('',(#347));
#153=EDGE_LOOP('',(#348,#349,#350,#351));
#154=EDGE_LOOP('',(#352));
#155=EDGE_LOOP('',(#353));
#156=EDGE_LOOP('',(#354,#355,#356,#357));
#157=EDGE_LOOP('',(#358));
#158=EDGE_LOOP('',(#359));
#159=EDGE_LOOP('',(#360));
#160=CIRCLE('',#403,3.05);
#161=CIRCLE('',#405,4.05000000000001);
#162=CIRCLE('',#407,3.05);
#163=CIRCLE('',#413,1.6);
#164=CIRCLE('',#415,1.6);
#165=CIRCLE('',#417,1.6);
#166=CIRCLE('',#419,1.6);
#167=CIRCLE('',#421,11.05);
#168=CIRCLE('',#422,11.05);
#169=CIRCLE('',#424,3.05);
#170=CIRCLE('',#426,3.05);
#171=CIRCLE('',#428,4.05000000000001);
#172=CIRCLE('',#431,11.05);
#173=CIRCLE('',#434,11.05);
#174=VERTEX_POINT('',#529);
#175=VERTEX_POINT('',#532);
#176=VERTEX_POINT('',#535);
#177=VERTEX_POINT('',#538);
#178=VERTEX_POINT('',#573);
#179=VERTEX_POINT('',#610);
#180=VERTEX_POINT('',#645);
#181=VERTEX_POINT('',#682);
#182=VERTEX_POINT('',#717);
#183=VERTEX_POINT('',#754);
#184=VERTEX_POINT('',#789);
#185=VERTEX_POINT('',#826);
#186=VERTEX_POINT('',#828);
#187=VERTEX_POINT('',#865);
#188=VERTEX_POINT('',#866);
#189=VERTEX_POINT('',#877);
#190=VERTEX_POINT('',#906);
#191=VERTEX_POINT('',#910);
#192=VERTEX_POINT('',#912);
#193=VERTEX_POINT('',#949);
#194=VERTEX_POINT('',#950);
#195=VERTEX_POINT('',#961);
#196=VERTEX_POINT('',#990);
#197=VERTEX_POINT('',#994);
#198=VERTEX_POINT('',#995);
#199=VERTEX_POINT('',#997);
#200=VERTEX_POINT('',#999);
#201=VERTEX_POINT('',#1003);
#202=VERTEX_POINT('',#1007);
#203=VERTEX_POINT('',#1011);
#204=VERTEX_POINT('',#1017);
#205=VERTEX_POINT('',#1019);
#206=VERTEX_POINT('',#1023);
#207=VERTEX_POINT('',#1027);
#208=EDGE_CURVE('',#174,#174,#160,.T.);
#209=EDGE_CURVE('',#175,#175,#161,.T.);
#210=EDGE_CURVE('',#176,#176,#162,.T.);
#211=EDGE_CURVE('',#177,#177,#74,.T.);
#212=EDGE_CURVE('',#177,#178,#32,.T.);
#213=EDGE_CURVE('',#178,#178,#75,.T.);
#214=EDGE_CURVE('',#179,#179,#76,.T.);
#215=EDGE_CURVE('',#179,#180,#33,.T.);
#216=EDGE_CURVE('',#180,#180,#77,.T.);
#217=EDGE_CURVE('',#181,#181,#78,.T.);
#218=EDGE_CURVE('',#181,#182,#34,.T.);
#219=EDGE_CURVE('',#182,#182,#79,.T.);
#220=EDGE_CURVE('',#183,#183,#80,.T.);
#221=EDGE_CURVE('',#183,#184,#35,.T.);
#222=EDGE_CURVE('',#184,#184,#81,.T.);
#223=EDGE_CURVE('',#185,#185,#163,.T.);
#224=EDGE_CURVE('',#185,#186,#36,.T.);
#225=EDGE_CURVE('',#186,#186,#82,.T.);
#226=EDGE_CURVE('',#187,#188,#83,.T.);
#227=EDGE_CURVE('',#188,#189,#84,.T.);
#228=EDGE_CURVE('',#189,#187,#85,.T.);
#229=EDGE_CURVE('',#187,#190,#37,.T.);
#230=EDGE_CURVE('',#190,#190,#164,.T.);
#231=EDGE_CURVE('',#191,#191,#165,.T.);
#232=EDGE_CURVE('',#191,#192,#38,.T.);
#233=EDGE_CURVE('',#192,#192,#86,.T.);
#234=EDGE_CURVE('',#193,#194,#87,.T.);
#235=EDGE_CURVE('',#194,#195,#88,.T.);
#236=EDGE_CURVE('',#195,#193,#89,.T.);
#237=EDGE_CURVE('',#193,#196,#39,.T.);
#238=EDGE_CURVE('',#196,#196,#166,.T.);
#239=EDGE_CURVE('',#197,#198,#167,.T.);
#240=EDGE_CURVE('',#199,#197,#40,.T.);
#241=EDGE_CURVE('',#200,#199,#168,.T.);
#242=EDGE_CURVE('',#198,#200,#41,.T.);
#243=EDGE_CURVE('',#201,#201,#169,.T.);
#244=EDGE_CURVE('',#201,#174,#42,.T.);
#245=EDGE_CURVE('',#202,#202,#170,.T.);
#246=EDGE_CURVE('',#202,#176,#43,.T.);
#247=EDGE_CURVE('',#203,#203,#171,.T.);
#248=EDGE_CURVE('',#203,#188,#44,.T.);
#249=EDGE_CURVE('',#189,#194,#45,.T.);
#250=EDGE_CURVE('',#195,#175,#46,.T.);
#251=EDGE_CURVE('',#204,#198,#47,.T.);
#252=EDGE_CURVE('',#200,#205,#48,.T.);
#253=EDGE_CURVE('',#205,#204,#49,.T.);
#254=EDGE_CURVE('',#199,#206,#50,.T.);
#255=EDGE_CURVE('',#206,#205,#172,.T.);
#256=EDGE_CURVE('',#197,#207,#51,.T.);
#257=EDGE_CURVE('',#207,#206,#52,.T.);
#258=EDGE_CURVE('',#204,#207,#173,.T.);
#259=ORIENTED_EDGE('',*,*,#208,.T.);
#260=ORIENTED_EDGE('',*,*,#209,.T.);
#261=ORIENTED_EDGE('',*,*,#210,.T.);
#262=ORIENTED_EDGE('',*,*,#211,.T.);
#263=ORIENTED_EDGE('',*,*,#212,.T.);
#264=ORIENTED_EDGE('',*,*,#213,.T.);
#265=ORIENTED_EDGE('',*,*,#212,.F.);
#266=ORIENTED_EDGE('',*,*,#214,.T.);
#267=ORIENTED_EDGE('',*,*,#215,.T.);
#268=ORIENTED_EDGE('',*,*,#216,.T.);
#269=ORIENTED_EDGE('',*,*,#215,.F.);
#270=ORIENTED_EDGE('',*,*,#217,.T.);
#271=ORIENTED_EDGE('',*,*,#218,.T.);
#272=ORIENTED_EDGE('',*,*,#219,.T.);
#273=ORIENTED_EDGE('',*,*,#218,.F.);
#274=ORIENTED_EDGE('',*,*,#220,.T.);
#275=ORIENTED_EDGE('',*,*,#221,.T.);
#276=ORIENTED_EDGE('',*,*,#222,.T.);
#277=ORIENTED_EDGE('',*,*,#221,.F.);
#278=ORIENTED_EDGE('',*,*,#223,.T.);
#279=ORIENTED_EDGE('',*,*,#224,.T.);
#280=ORIENTED_EDGE('',*,*,#225,.T.);
#281=ORIENTED_EDGE('',*,*,#224,.F.);
#282=ORIENTED_EDGE('',*,*,#226,.T.);
#283=ORIENTED_EDGE('',*,*,#227,.T.);
#284=ORIENTED_EDGE('',*,*,#228,.T.);
#285=ORIENTED_EDGE('',*,*,#229,.T.);
#286=ORIENTED_EDGE('',*,*,#230,.T.);
#287=ORIENTED_EDGE('',*,*,#229,.F.);
#288=ORIENTED_EDGE('',*,*,#231,.T.);
#289=ORIENTED_EDGE('',*,*,#232,.T.);
#290=ORIENTED_EDGE('',*,*,#233,.T.);
#291=ORIENTED_EDGE('',*,*,#232,.F.);
#292=ORIENTED_EDGE('',*,*,#234,.T.);
#293=ORIENTED_EDGE('',*,*,#235,.T.);
#294=ORIENTED_EDGE('',*,*,#236,.T.);
#295=ORIENTED_EDGE('',*,*,#237,.T.);
#296=ORIENTED_EDGE('',*,*,#238,.T.);
#297=ORIENTED_EDGE('',*,*,#237,.F.);
#298=ORIENTED_EDGE('',*,*,#239,.F.);
#299=ORIENTED_EDGE('',*,*,#240,.F.);
#300=ORIENTED_EDGE('',*,*,#241,.F.);
#301=ORIENTED_EDGE('',*,*,#242,.F.);
#302=ORIENTED_EDGE('',*,*,#243,.T.);
#303=ORIENTED_EDGE('',*,*,#244,.T.);
#304=ORIENTED_EDGE('',*,*,#208,.F.);
#305=ORIENTED_EDGE('',*,*,#244,.F.);
#306=ORIENTED_EDGE('',*,*,#219,.F.);
#307=ORIENTED_EDGE('',*,*,#222,.F.);
#308=ORIENTED_EDGE('',*,*,#245,.T.);
#309=ORIENTED_EDGE('',*,*,#246,.T.);
#310=ORIENTED_EDGE('',*,*,#210,.F.);
#311=ORIENTED_EDGE('',*,*,#246,.F.);
#312=ORIENTED_EDGE('',*,*,#213,.F.);
#313=ORIENTED_EDGE('',*,*,#216,.F.);
#314=ORIENTED_EDGE('',*,*,#247,.T.);
#315=ORIENTED_EDGE('',*,*,#248,.T.);
#316=ORIENTED_EDGE('',*,*,#226,.F.);
#317=ORIENTED_EDGE('',*,*,#228,.F.);
#318=ORIENTED_EDGE('',*,*,#249,.T.);
#319=ORIENTED_EDGE('',*,*,#234,.F.);
#320=ORIENTED_EDGE('',*,*,#236,.F.);
#321=ORIENTED_EDGE('',*,*,#250,.T.);
#322=ORIENTED_EDGE('',*,*,#209,.F.);
#323=ORIENTED_EDGE('',*,*,#250,.F.);
#324=ORIENTED_EDGE('',*,*,#235,.F.);
#325=ORIENTED_EDGE('',*,*,#249,.F.);
#326=ORIENTED_EDGE('',*,*,#227,.F.);
#327=ORIENTED_EDGE('',*,*,#248,.F.);
#328=ORIENTED_EDGE('',*,*,#225,.F.);
#329=ORIENTED_EDGE('',*,*,#233,.F.);
#330=ORIENTED_EDGE('',*,*,#251,.T.);
#331=ORIENTED_EDGE('',*,*,#242,.T.);
#332=ORIENTED_EDGE('',*,*,#252,.T.);
#333=ORIENTED_EDGE('',*,*,#253,.T.);
#334=ORIENTED_EDGE('',*,*,#230,.F.);
#335=ORIENTED_EDGE('',*,*,#238,.F.);
#336=ORIENTED_EDGE('',*,*,#252,.F.);
#337=ORIENTED_EDGE('',*,*,#241,.T.);
#338=ORIENTED_EDGE('',*,*,#254,.T.);
#339=ORIENTED_EDGE('',*,*,#255,.T.);
#340=ORIENTED_EDGE('',*,*,#217,.F.);
#341=ORIENTED_EDGE('',*,*,#220,.F.);
#342=ORIENTED_EDGE('',*,*,#254,.F.);
#343=ORIENTED_EDGE('',*,*,#240,.T.);
#344=ORIENTED_EDGE('',*,*,#256,.T.);
#345=ORIENTED_EDGE('',*,*,#257,.T.);
#346=ORIENTED_EDGE('',*,*,#223,.F.);
#347=ORIENTED_EDGE('',*,*,#231,.F.);
#348=ORIENTED_EDGE('',*,*,#256,.F.);
#349=ORIENTED_EDGE('',*,*,#239,.T.);
#350=ORIENTED_EDGE('',*,*,#251,.F.);
#351=ORIENTED_EDGE('',*,*,#258,.T.);
#352=ORIENTED_EDGE('',*,*,#211,.F.);
#353=ORIENTED_EDGE('',*,*,#214,.F.);
#354=ORIENTED_EDGE('',*,*,#258,.F.);
#355=ORIENTED_EDGE('',*,*,#253,.F.);
#356=ORIENTED_EDGE('',*,*,#255,.F.);
#357=ORIENTED_EDGE('',*,*,#257,.F.);
#358=ORIENTED_EDGE('',*,*,#247,.F.);
#359=ORIENTED_EDGE('',*,*,#245,.F.);
#360=ORIENTED_EDGE('',*,*,#243,.F.);
#361=PLANE('',#402);
#362=PLANE('',#404);
#363=PLANE('',#406);
#364=PLANE('',#420);
#365=PLANE('',#429);
#366=PLANE('',#432);
#367=PLANE('',#435);
#368=ADVANCED_FACE('',(#103),#361,.T.);
#369=ADVANCED_FACE('',(#104),#362,.T.);
#370=ADVANCED_FACE('',(#105),#363,.T.);
#371=ADVANCED_FACE('',(#106),#90,.F.);
#372=ADVANCED_FACE('',(#107),#91,.F.);
#373=ADVANCED_FACE('',(#108),#92,.F.);
#374=ADVANCED_FACE('',(#109),#93,.F.);
#375=ADVANCED_FACE('',(#110),#94,.F.);
#376=ADVANCED_FACE('',(#111),#95,.F.);
#377=ADVANCED_FACE('',(#112),#96,.F.);
#378=ADVANCED_FACE('',(#113),#97,.F.);
#379=ADVANCED_FACE('',(#114),#364,.T.);
#380=ADVANCED_FACE('',(#115,#15,#16),#98,.F.);
#381=ADVANCED_FACE('',(#116,#17,#18),#99,.F.);
#382=ADVANCED_FACE('',(#117,#19,#20),#100,.F.);
#383=ADVANCED_FACE('',(#118,#21,#22),#365,.F.);
#384=ADVANCED_FACE('',(#119,#23,#24),#101,.T.);
#385=ADVANCED_FACE('',(#120,#25,#26),#366,.F.);
#386=ADVANCED_FACE('',(#121,#27,#28),#102,.T.);
#387=ADVANCED_FACE('',(#122,#29,#30,#31),#367,.F.);
#388=CLOSED_SHELL('',(#368,#369,#370,#371,#372,#373,#374,#375,#376,#377,
#378,#379,#380,#381,#382,#383,#384,#385,#386,#387));
#389=DERIVED_UNIT_ELEMENT(#391,1.);
#390=DERIVED_UNIT_ELEMENT(#1038,-3.);
#391=(
MASS_UNIT()
NAMED_UNIT(*)
SI_UNIT(.KILO.,.GRAM.)
);
#392=DERIVED_UNIT((#389,#390));
#393=MEASURE_REPRESENTATION_ITEM('density measure',
POSITIVE_RATIO_MEASURE(7850.),#392);
#394=PROPERTY_DEFINITION_REPRESENTATION(#399,#396);
#395=PROPERTY_DEFINITION_REPRESENTATION(#400,#397);
#396=REPRESENTATION('material name',(#398),#1035);
#397=REPRESENTATION('density',(#393),#1035);
#398=DESCRIPTIVE_REPRESENTATION_ITEM('Stal','Stal');
#399=PROPERTY_DEFINITION('material property','material name',#1045);
#400=PROPERTY_DEFINITION('material property','density of part',#1045);
#401=AXIS2_PLACEMENT_3D('',#527,#436,#437);
#402=AXIS2_PLACEMENT_3D('',#528,#438,#439);
#403=AXIS2_PLACEMENT_3D('',#530,#440,#441);
#404=AXIS2_PLACEMENT_3D('',#531,#442,#443);
#405=AXIS2_PLACEMENT_3D('',#533,#444,#445);
#406=AXIS2_PLACEMENT_3D('',#534,#446,#447);
#407=AXIS2_PLACEMENT_3D('',#536,#448,#449);
#408=AXIS2_PLACEMENT_3D('',#537,#450,#451);
#409=AXIS2_PLACEMENT_3D('',#609,#453,#454);
#410=AXIS2_PLACEMENT_3D('',#681,#456,#457);
#411=AXIS2_PLACEMENT_3D('',#753,#459,#460);
#412=AXIS2_PLACEMENT_3D('',#825,#462,#463);
#413=AXIS2_PLACEMENT_3D('',#827,#464,#465);
#414=AXIS2_PLACEMENT_3D('',#864,#467,#468);
#415=AXIS2_PLACEMENT_3D('',#908,#470,#471);
#416=AXIS2_PLACEMENT_3D('',#909,#472,#473);
#417=AXIS2_PLACEMENT_3D('',#911,#474,#475);
#418=AXIS2_PLACEMENT_3D('',#948,#477,#478);
#419=AXIS2_PLACEMENT_3D('',#992,#480,#481);
#420=AXIS2_PLACEMENT_3D('',#993,#482,#483);
#421=AXIS2_PLACEMENT_3D('',#996,#484,#485);
#422=AXIS2_PLACEMENT_3D('',#1000,#487,#488);
#423=AXIS2_PLACEMENT_3D('',#1002,#490,#491);
#424=AXIS2_PLACEMENT_3D('',#1004,#492,#493);
#425=AXIS2_PLACEMENT_3D('',#1006,#495,#496);
#426=AXIS2_PLACEMENT_3D('',#1008,#497,#498);
#427=AXIS2_PLACEMENT_3D('',#1010,#500,#501);
#428=AXIS2_PLACEMENT_3D('',#1012,#502,#503);
#429=AXIS2_PLACEMENT_3D('',#1016,#507,#508);
#430=AXIS2_PLACEMENT_3D('',#1022,#512,#513);
#431=AXIS2_PLACEMENT_3D('',#1025,#515,#516);
#432=AXIS2_PLACEMENT_3D('',#1026,#517,#518);
#433=AXIS2_PLACEMENT_3D('',#1030,#521,#522);
#434=AXIS2_PLACEMENT_3D('',#1031,#523,#524);
#435=AXIS2_PLACEMENT_3D('',#1032,#525,#526);
#436=DIRECTION('axis',(0.,0.,1.));
#437=DIRECTION('refdir',(1.,0.,0.));
#438=DIRECTION('center_axis',(0.,2.22044604925031E-16,-1.));
#439=DIRECTION('ref_axis',(-3.10862446895044E-15,1.,2.22044604925031E-16));
#440=DIRECTION('center_axis',(0.,2.22044604925031E-16,-1.));
#441=DIRECTION('ref_axis',(3.10862446895044E-15,-1.,-2.22044604925031E-16));
#442=DIRECTION('center_axis',(0.,2.22044604925031E-16,-1.));
#443=DIRECTION('ref_axis',(-3.10862446895044E-15,1.,2.22044604925031E-16));
#444=DIRECTION('center_axis',(0.,2.22044604925031E-16,-1.));
#445=DIRECTION('ref_axis',(3.10862446895044E-15,-1.,-2.22044604925031E-16));
#446=DIRECTION('center_axis',(0.,2.22044604925031E-16,-1.));
#447=DIRECTION('ref_axis',(-3.10862446895044E-15,1.,2.22044604925031E-16));
#448=DIRECTION('center_axis',(0.,2.22044604925031E-16,-1.));
#449=DIRECTION('ref_axis',(3.10862446895044E-15,-1.,-2.22044604925031E-16));
#450=DIRECTION('center_axis',(-1.,-3.10862446895044E-15,-6.90253292068385E-31));
#451=DIRECTION('ref_axis',(3.10862446895044E-15,-1.,-2.22044604925031E-16));
#452=DIRECTION('',(1.,3.10862446895044E-15,6.90253292068385E-31));
#453=DIRECTION('center_axis',(-1.,-3.10862446895044E-15,-6.90253292068385E-31));
#454=DIRECTION('ref_axis',(3.10862446895044E-15,-1.,-2.22044604925031E-16));
#455=DIRECTION('',(1.,3.10862446895044E-15,6.90253292068385E-31));
#456=DIRECTION('center_axis',(1.,3.10862446895044E-15,6.90253292068385E-31));
#457=DIRECTION('ref_axis',(-3.10862446895044E-15,1.,2.22044604925031E-16));
#458=DIRECTION('',(-1.,-3.10862446895044E-15,-6.90253292068385E-31));
#459=DIRECTION('center_axis',(1.,3.10862446895044E-15,6.90253292068385E-31));
#460=DIRECTION('ref_axis',(-3.10862446895044E-15,1.,2.22044604925031E-16));
#461=DIRECTION('',(-1.,-3.10862446895044E-15,-6.90253292068385E-31));
#462=DIRECTION('center_axis',(3.10862446895044E-15,-1.,-2.22044604925031E-16));
#463=DIRECTION('ref_axis',(1.,3.10862446895044E-15,6.90253292068385E-31));
#464=DIRECTION('center_axis',(3.10862446895044E-15,-1.,-2.22044604925031E-16));
#465=DIRECTION('ref_axis',(1.,3.10862446895044E-15,6.90253292068385E-31));
#466=DIRECTION('',(-3.10862446895044E-15,1.,2.22044604925031E-16));
#467=DIRECTION('center_axis',(3.10862446895044E-15,-1.,-2.22044604925031E-16));
#468=DIRECTION('ref_axis',(1.,3.10862446895044E-15,6.90253292068385E-31));
#469=DIRECTION('',(-3.10862446895044E-15,1.,2.22044604925031E-16));
#470=DIRECTION('center_axis',(-3.10862446895044E-15,1.,2.22044604925031E-16));
#471=DIRECTION('ref_axis',(1.,3.10862446895044E-15,6.90253292068385E-31));
#472=DIRECTION('center_axis',(3.10862446895044E-15,-1.,-2.22044604925031E-16));
#473=DIRECTION('ref_axis',(1.,3.10862446895044E-15,6.90253292068385E-31));
#474=DIRECTION('center_axis',(3.10862446895044E-15,-1.,-2.22044604925031E-16));
#475=DIRECTION('ref_axis',(1.,3.10862446895044E-15,6.90253292068385E-31));
#476=DIRECTION('',(-3.10862446895044E-15,1.,2.22044604925031E-16));
#477=DIRECTION('center_axis',(3.10862446895044E-15,-1.,-2.22044604925031E-16));
#478=DIRECTION('ref_axis',(1.,3.10862446895044E-15,6.90253292068385E-31));
#479=DIRECTION('',(-3.10862446895044E-15,1.,2.22044604925031E-16));
#480=DIRECTION('center_axis',(-3.10862446895044E-15,1.,2.22044604925031E-16));
#481=DIRECTION('ref_axis',(1.,3.10862446895044E-15,6.90253292068385E-31));
#482=DIRECTION('center_axis',(0.,-2.22044604925031E-16,1.));
#483=DIRECTION('ref_axis',(3.10862446895044E-15,-1.,-2.22044604925031E-16));
#484=DIRECTION('center_axis',(0.,2.22044604925031E-16,-1.));
#485=DIRECTION('ref_axis',(-3.10862446895044E-15,1.,2.22044604925031E-16));
#486=DIRECTION('',(-1.,-3.10862446895044E-15,-6.90253292068385E-31));
#487=DIRECTION('center_axis',(0.,2.22044604925031E-16,-1.));
#488=DIRECTION('ref_axis',(3.10862446895044E-15,-1.,-2.22044604925031E-16));
#489=DIRECTION('',(1.,3.10862446895044E-15,6.90253292068385E-31));
#490=DIRECTION('center_axis',(0.,-2.22044604925031E-16,1.));
#491=DIRECTION('ref_axis',(3.10862446895044E-15,-1.,-2.22044604925031E-16));
#492=DIRECTION('center_axis',(0.,2.22044604925031E-16,-1.));
#493=DIRECTION('ref_axis',(3.10862446895044E-15,-1.,-2.22044604925031E-16));
#494=DIRECTION('',(0.,-2.22044604925031E-16,1.));
#495=DIRECTION('center_axis',(0.,-2.22044604925031E-16,1.));
#496=DIRECTION('ref_axis',(3.10862446895044E-15,-1.,-2.22044604925031E-16));
#497=DIRECTION('center_axis',(0.,2.22044604925031E-16,-1.));
#498=DIRECTION('ref_axis',(3.10862446895044E-15,-1.,-2.22044604925031E-16));
#499=DIRECTION('',(0.,-2.22044604925031E-16,1.));
#500=DIRECTION('center_axis',(0.,-2.22044604925031E-16,1.));
#501=DIRECTION('ref_axis',(3.10862446895044E-15,-1.,-2.22044604925031E-16));
#502=DIRECTION('center_axis',(0.,2.22044604925031E-16,-1.));
#503=DIRECTION('ref_axis',(3.10862446895044E-15,-1.,-2.22044604925031E-16));
#504=DIRECTION('',(0.,-2.22044604925031E-16,1.));
#505=DIRECTION('',(0.,-2.22044604925031E-16,1.));
#506=DIRECTION('',(0.,-2.22044604925031E-16,1.));
#507=DIRECTION('center_axis',(3.10862446895044E-15,-1.,-2.22044604925031E-16));
#508=DIRECTION('ref_axis',(-1.,-3.10862446895044E-15,-6.90253292068385E-31));
#509=DIRECTION('',(0.,-2.22044604925031E-16,1.));
#510=DIRECTION('',(0.,2.22044604925031E-16,-1.));
#511=DIRECTION('',(-1.,-3.10862446895044E-15,-6.90253292068385E-31));
#512=DIRECTION('center_axis',(0.,-2.22044604925031E-16,1.));
#513=DIRECTION('ref_axis',(3.10862446895044E-15,-1.,-2.22044604925031E-16));
#514=DIRECTION('',(0.,2.22044604925031E-16,-1.));
#515=DIRECTION('center_axis',(0.,-2.22044604925031E-16,1.));
#516=DIRECTION('ref_axis',(3.10862446895044E-15,-1.,-2.22044604925031E-16));
#517=DIRECTION('center_axis',(-3.10862446895044E-15,1.,2.22044604925031E-16));
#518=DIRECTION('ref_axis',(1.,3.10862446895044E-15,6.90253292068385E-31));
#519=DIRECTION('',(0.,2.22044604925031E-16,-1.));
#520=DIRECTION('',(1.,3.10862446895044E-15,6.90253292068385E-31));
#521=DIRECTION('center_axis',(0.,-2.22044604925031E-16,1.));
#522=DIRECTION('ref_axis',(-3.10862446895044E-15,1.,2.22044604925031E-16));
#523=DIRECTION('center_axis',(0.,-2.22044604925031E-16,1.));
#524=DIRECTION('ref_axis',(-3.10862446895044E-15,1.,2.22044604925031E-16));
#525=DIRECTION('center_axis',(0.,-2.22044604925031E-16,1.));
#526=DIRECTION('ref_axis',(3.10862446895044E-15,-1.,-2.22044604925031E-16));
#527=CARTESIAN_POINT('',(0.,0.,0.));
#528=CARTESIAN_POINT('Origin',(24.9151321144605,-349.999981994099,296.781));
#529=CARTESIAN_POINT('',(24.9151321144604,-346.949981994099,296.781));
#530=CARTESIAN_POINT('Origin',(24.9151321144605,-349.999981994099,296.781));
#531=CARTESIAN_POINT('Origin',(-0.0848678855395413,-349.999981994099,296.781));
#532=CARTESIAN_POINT('',(-0.0848678855395543,-345.949981994099,296.781));
#533=CARTESIAN_POINT('Origin',(-0.0848678855395413,-349.999981994099,296.781));
#534=CARTESIAN_POINT('Origin',(-25.0848678855395,-349.999981994099,296.781));
#535=CARTESIAN_POINT('',(-25.0848678855396,-346.949981994099,296.781));
#536=CARTESIAN_POINT('Origin',(-25.0848678855395,-349.999981994099,296.781));
#537=CARTESIAN_POINT('Origin',(-50.0848678855397,-349.999981994099,282.381));
#538=CARTESIAN_POINT('',(-36.0184171720247,-348.399981994099,282.381));
#539=CARTESIAN_POINT('Ctrl Pts',(-36.0184171720247,-348.399981994099,282.381));
#540=CARTESIAN_POINT('Ctrl Pts',(-36.0184171720247,-348.399981994099,282.179794838869));
#541=CARTESIAN_POINT('Ctrl Pts',(-36.0245448992388,-348.440250889389,281.965374607986));
#542=CARTESIAN_POINT('Ctrl Pts',(-36.0465957839292,-348.603623980273,281.571253153357));
#543=CARTESIAN_POINT('Ctrl Pts',(-36.0621915262722,-348.726712933288,281.391527361014));
#544=CARTESIAN_POINT('Ctrl Pts',(-36.0914017382524,-349.010507209954,281.107733084348));
#545=CARTESIAN_POINT('Ctrl Pts',(-36.106925832268,-349.190233929345,280.984642448831));
#546=CARTESIAN_POINT('Ctrl Pts',(-36.1288124008244,-349.584358545219,280.821268132093));
#547=CARTESIAN_POINT('Ctrl Pts',(-36.1348678855395,-349.798779874704,280.781));
#548=CARTESIAN_POINT('Ctrl Pts',(-36.1348678855395,-350.201184113494,280.781));
#549=CARTESIAN_POINT('Ctrl Pts',(-36.1288124008244,-350.415605442979,280.821268132093));
#550=CARTESIAN_POINT('Ctrl Pts',(-36.106925832268,-350.809730058852,280.984642448831));
#551=CARTESIAN_POINT('Ctrl Pts',(-36.0914017382524,-350.989456778244,281.107733084348));
#552=CARTESIAN_POINT('Ctrl Pts',(-36.0621915262722,-351.27325105491,281.391527361014));
#553=CARTESIAN_POINT('Ctrl Pts',(-36.0465957839292,-351.396340007925,281.571253153357));
#554=CARTESIAN_POINT('Ctrl Pts',(-36.0245448992388,-351.559713098809,281.965374607986));
#555=CARTESIAN_POINT('Ctrl Pts',(-36.0184171720247,-351.599981994099,282.179794838869));
#556=CARTESIAN_POINT('Ctrl Pts',(-36.0184171720247,-351.599981994099,282.582205161132));
#557=CARTESIAN_POINT('Ctrl Pts',(-36.0245448992388,-351.559713098809,282.796625392014));
#558=CARTESIAN_POINT('Ctrl Pts',(-36.0465957839292,-351.396340007925,283.190746846643));
#559=CARTESIAN_POINT('Ctrl Pts',(-36.0621915262722,-351.27325105491,283.370472638986));
#560=CARTESIAN_POINT('Ctrl Pts',(-36.0914017382524,-350.989456778244,283.654266915652));
#561=CARTESIAN_POINT('Ctrl Pts',(-36.106925832268,-350.809730058852,283.777357551169));
#562=CARTESIAN_POINT('Ctrl Pts',(-36.1288124008244,-350.415605442979,283.940731867907));
#563=CARTESIAN_POINT('Ctrl Pts',(-36.1348678855395,-350.201184113494,283.981));
#564=CARTESIAN_POINT('Ctrl Pts',(-36.1348678855395,-349.798779874704,283.981));
#565=CARTESIAN_POINT('Ctrl Pts',(-36.1288124008244,-349.584358545219,283.940731867907));
#566=CARTESIAN_POINT('Ctrl Pts',(-36.106925832268,-349.190233929345,283.777357551169));
#567=CARTESIAN_POINT('Ctrl Pts',(-36.0914017382524,-349.010507209954,283.654266915652));
#568=CARTESIAN_POINT('Ctrl Pts',(-36.0621915262722,-348.726712933288,283.370472638986));
#569=CARTESIAN_POINT('Ctrl Pts',(-36.0465957839292,-348.603623980273,283.190746846643));
#570=CARTESIAN_POINT('Ctrl Pts',(-36.0245448992388,-348.440250889389,282.796625392014));
#571=CARTESIAN_POINT('Ctrl Pts',(-36.0184171720247,-348.399981994099,282.582205161132));
#572=CARTESIAN_POINT('Ctrl Pts',(-36.0184171720247,-348.399981994099,282.381));
#573=CARTESIAN_POINT('',(-27.6815003200593,-348.399981994099,282.381));
#574=CARTESIAN_POINT('',(-50.0848678855397,-348.399981994099,282.381));
#575=CARTESIAN_POINT('Ctrl Pts',(-27.6815003200592,-348.399981994099,282.381));
#576=CARTESIAN_POINT('Ctrl Pts',(-27.6815003200592,-348.399981994099,282.586843801613));
#577=CARTESIAN_POINT('Ctrl Pts',(-27.7085828867478,-348.441959090604,282.802694509736));
#578=CARTESIAN_POINT('Ctrl Pts',(-27.7994469229162,-348.606290690961,283.195178963712));
#579=CARTESIAN_POINT('Ctrl Pts',(-27.8613189116644,-348.728537626524,283.372297332222));
#580=CARTESIAN_POINT('Ctrl Pts',(-27.9730302053307,-349.008208319952,283.65196802565));
#581=CARTESIAN_POINT('Ctrl Pts',(-28.0309485193331,-349.185481083359,283.774560733586));
#582=CARTESIAN_POINT('Ctrl Pts',(-28.112291871394,-349.578666349259,283.939177303733));
#583=CARTESIAN_POINT('Ctrl Pts',(-28.1348678855395,-349.794838196558,283.981));
#584=CARTESIAN_POINT('Ctrl Pts',(-28.1348678855395,-350.20512579164,283.981));
#585=CARTESIAN_POINT('Ctrl Pts',(-28.112291871394,-350.421297638939,283.939177303733));
#586=CARTESIAN_POINT('Ctrl Pts',(-28.0309485193331,-350.814482904839,283.774560733586));
#587=CARTESIAN_POINT('Ctrl Pts',(-27.9730302053307,-350.991755668246,283.65196802565));
#588=CARTESIAN_POINT('Ctrl Pts',(-27.8613189116644,-351.271426361674,283.372297332222));
#589=CARTESIAN_POINT('Ctrl Pts',(-27.7994469229162,-351.393673297237,283.195178963712));
#590=CARTESIAN_POINT('Ctrl Pts',(-27.7085828867478,-351.558004897594,282.802694509736));
#591=CARTESIAN_POINT('Ctrl Pts',(-27.6815003200593,-351.599981994099,282.586843801613));
#592=CARTESIAN_POINT('Ctrl Pts',(-27.6815003200593,-351.599981994099,282.175156198388));
#593=CARTESIAN_POINT('Ctrl Pts',(-27.7085828867478,-351.558004897594,281.959305490265));
#594=CARTESIAN_POINT('Ctrl Pts',(-27.7994469229162,-351.393673297237,281.566821036288));
#595=CARTESIAN_POINT('Ctrl Pts',(-27.8613189116644,-351.271426361674,281.389702667778));
#596=CARTESIAN_POINT('Ctrl Pts',(-27.9730302053307,-350.991755668246,281.11003197435));
#597=CARTESIAN_POINT('Ctrl Pts',(-28.0309485193331,-350.814482904839,280.987439266414));
#598=CARTESIAN_POINT('Ctrl Pts',(-28.112291871394,-350.421297638939,280.822822696267));
#599=CARTESIAN_POINT('Ctrl Pts',(-28.1348678855395,-350.20512579164,280.781));
#600=CARTESIAN_POINT('Ctrl Pts',(-28.1348678855395,-349.794838196558,280.781));
#601=CARTESIAN_POINT('Ctrl Pts',(-28.112291871394,-349.578666349259,280.822822696267));
#602=CARTESIAN_POINT('Ctrl Pts',(-28.0309485193331,-349.185481083359,280.987439266414));
#603=CARTESIAN_POINT('Ctrl Pts',(-27.9730302053307,-349.008208319952,281.11003197435));
#604=CARTESIAN_POINT('Ctrl Pts',(-27.8613189116644,-348.728537626524,281.389702667778));
#605=CARTESIAN_POINT('Ctrl Pts',(-27.7994469229162,-348.606290690961,281.566821036288));
#606=CARTESIAN_POINT('Ctrl Pts',(-27.7085828867478,-348.441959090604,281.959305490265));
#607=CARTESIAN_POINT('Ctrl Pts',(-27.6815003200592,-348.399981994099,282.175156198388));
#608=CARTESIAN_POINT('Ctrl Pts',(-27.6815003200592,-348.399981994099,282.381));
#609=CARTESIAN_POINT('Origin',(-50.0848678855397,-349.999981994099,291.181));
#610=CARTESIAN_POINT('',(-36.0184171720247,-348.399981994099,291.181));
#611=CARTESIAN_POINT('Ctrl Pts',(-36.0184171720247,-348.399981994099,291.181));
#612=CARTESIAN_POINT('Ctrl Pts',(-36.0184171720247,-348.399981994099,290.979794838869));
#613=CARTESIAN_POINT('Ctrl Pts',(-36.0245448992388,-348.440250889389,290.765374607986));
#614=CARTESIAN_POINT('Ctrl Pts',(-36.0465957839292,-348.603623980273,290.371253153357));
#615=CARTESIAN_POINT('Ctrl Pts',(-36.0621915262722,-348.726712933288,290.191527361014));
#616=CARTESIAN_POINT('Ctrl Pts',(-36.0914017382524,-349.010507209954,289.907733084348));
#617=CARTESIAN_POINT('Ctrl Pts',(-36.106925832268,-349.190233929345,289.784642448831));
#618=CARTESIAN_POINT('Ctrl Pts',(-36.1288124008244,-349.584358545219,289.621268132093));
#619=CARTESIAN_POINT('Ctrl Pts',(-36.1348678855395,-349.798779874704,289.581));
#620=CARTESIAN_POINT('Ctrl Pts',(-36.1348678855395,-350.201184113494,289.581));
#621=CARTESIAN_POINT('Ctrl Pts',(-36.1288124008244,-350.415605442979,289.621268132093));
#622=CARTESIAN_POINT('Ctrl Pts',(-36.106925832268,-350.809730058852,289.784642448831));
#623=CARTESIAN_POINT('Ctrl Pts',(-36.0914017382524,-350.989456778244,289.907733084348));
#624=CARTESIAN_POINT('Ctrl Pts',(-36.0621915262722,-351.27325105491,290.191527361014));
#625=CARTESIAN_POINT('Ctrl Pts',(-36.0465957839292,-351.396340007925,290.371253153357));
#626=CARTESIAN_POINT('Ctrl Pts',(-36.0245448992388,-351.559713098809,290.765374607986));
#627=CARTESIAN_POINT('Ctrl Pts',(-36.0184171720247,-351.599981994099,290.979794838869));
#628=CARTESIAN_POINT('Ctrl Pts',(-36.0184171720247,-351.599981994099,291.382205161132));
#629=CARTESIAN_POINT('Ctrl Pts',(-36.0245448992388,-351.559713098809,291.596625392014));
#630=CARTESIAN_POINT('Ctrl Pts',(-36.0465957839292,-351.396340007925,291.990746846643));
#631=CARTESIAN_POINT('Ctrl Pts',(-36.0621915262722,-351.27325105491,292.170472638986));
#632=CARTESIAN_POINT('Ctrl Pts',(-36.0914017382524,-350.989456778244,292.454266915652));
#633=CARTESIAN_POINT('Ctrl Pts',(-36.106925832268,-350.809730058852,292.577357551169));
#634=CARTESIAN_POINT('Ctrl Pts',(-36.1288124008244,-350.415605442979,292.740731867907));
#635=CARTESIAN_POINT('Ctrl Pts',(-36.1348678855395,-350.201184113494,292.781));
#636=CARTESIAN_POINT('Ctrl Pts',(-36.1348678855395,-349.798779874704,292.781));
#637=CARTESIAN_POINT('Ctrl Pts',(-36.1288124008244,-349.584358545219,292.740731867907));
#638=CARTESIAN_POINT('Ctrl Pts',(-36.106925832268,-349.190233929345,292.577357551169));
#639=CARTESIAN_POINT('Ctrl Pts',(-36.0914017382524,-349.010507209954,292.454266915652));
#640=CARTESIAN_POINT('Ctrl Pts',(-36.0621915262722,-348.726712933288,292.170472638986));
#641=CARTESIAN_POINT('Ctrl Pts',(-36.0465957839292,-348.603623980273,291.990746846643));
#642=CARTESIAN_POINT('Ctrl Pts',(-36.0245448992388,-348.440250889389,291.596625392014));
#643=CARTESIAN_POINT('Ctrl Pts',(-36.0184171720247,-348.399981994099,291.382205161132));
#644=CARTESIAN_POINT('Ctrl Pts',(-36.0184171720247,-348.399981994099,291.181));
#645=CARTESIAN_POINT('',(-27.6815003200593,-348.399981994099,291.181));
#646=CARTESIAN_POINT('',(-50.0848678855397,-348.399981994099,291.181));
#647=CARTESIAN_POINT('Ctrl Pts',(-27.6815003200592,-348.399981994099,291.181));
#648=CARTESIAN_POINT('Ctrl Pts',(-27.6815003200592,-348.399981994099,291.386843801613));
#649=CARTESIAN_POINT('Ctrl Pts',(-27.7085828867478,-348.441959090604,291.602694509736));
#650=CARTESIAN_POINT('Ctrl Pts',(-27.7994469229162,-348.606290690961,291.995178963712));
#651=CARTESIAN_POINT('Ctrl Pts',(-27.8613189116644,-348.728537626524,292.172297332222));
#652=CARTESIAN_POINT('Ctrl Pts',(-27.9730302053307,-349.008208319952,292.45196802565));
#653=CARTESIAN_POINT('Ctrl Pts',(-28.0309485193331,-349.185481083359,292.574560733586));
#654=CARTESIAN_POINT('Ctrl Pts',(-28.112291871394,-349.578666349259,292.739177303733));
#655=CARTESIAN_POINT('Ctrl Pts',(-28.1348678855395,-349.794838196558,292.781));
#656=CARTESIAN_POINT('Ctrl Pts',(-28.1348678855395,-350.20512579164,292.781));
#657=CARTESIAN_POINT('Ctrl Pts',(-28.112291871394,-350.421297638939,292.739177303733));
#658=CARTESIAN_POINT('Ctrl Pts',(-28.0309485193331,-350.814482904839,292.574560733586));
#659=CARTESIAN_POINT('Ctrl Pts',(-27.9730302053307,-350.991755668246,292.45196802565));
#660=CARTESIAN_POINT('Ctrl Pts',(-27.8613189116644,-351.271426361674,292.172297332222));
#661=CARTESIAN_POINT('Ctrl Pts',(-27.7994469229162,-351.393673297237,291.995178963712));
#662=CARTESIAN_POINT('Ctrl Pts',(-27.7085828867478,-351.558004897594,291.602694509736));
#663=CARTESIAN_POINT('Ctrl Pts',(-27.6815003200593,-351.599981994099,291.386843801613));
#664=CARTESIAN_POINT('Ctrl Pts',(-27.6815003200593,-351.599981994099,290.975156198388));
#665=CARTESIAN_POINT('Ctrl Pts',(-27.7085828867478,-351.558004897594,290.759305490264));
#666=CARTESIAN_POINT('Ctrl Pts',(-27.7994469229162,-351.393673297237,290.366821036288));
#667=CARTESIAN_POINT('Ctrl Pts',(-27.8613189116644,-351.271426361674,290.189702667778));
#668=CARTESIAN_POINT('Ctrl Pts',(-27.9730302053307,-350.991755668246,289.91003197435));
#669=CARTESIAN_POINT('Ctrl Pts',(-28.0309485193331,-350.814482904839,289.787439266414));
#670=CARTESIAN_POINT('Ctrl Pts',(-28.112291871394,-350.421297638939,289.622822696267));
#671=CARTESIAN_POINT('Ctrl Pts',(-28.1348678855395,-350.20512579164,289.581));
#672=CARTESIAN_POINT('Ctrl Pts',(-28.1348678855395,-349.794838196558,289.581));
#673=CARTESIAN_POINT('Ctrl Pts',(-28.112291871394,-349.578666349259,289.622822696267));
#674=CARTESIAN_POINT('Ctrl Pts',(-28.0309485193331,-349.185481083359,289.787439266414));
#675=CARTESIAN_POINT('Ctrl Pts',(-27.9730302053307,-349.008208319952,289.91003197435));
#676=CARTESIAN_POINT('Ctrl Pts',(-27.8613189116644,-348.728537626524,290.189702667778));
#677=CARTESIAN_POINT('Ctrl Pts',(-27.7994469229162,-348.606290690961,290.366821036288));
#678=CARTESIAN_POINT('Ctrl Pts',(-27.7085828867478,-348.441959090604,290.759305490264));
#679=CARTESIAN_POINT('Ctrl Pts',(-27.6815003200592,-348.399981994099,290.975156198388));
#680=CARTESIAN_POINT('Ctrl Pts',(-27.6815003200592,-348.399981994099,291.181));
#681=CARTESIAN_POINT('Origin',(49.9151321144606,-349.999981994099,282.381));
#682=CARTESIAN_POINT('',(35.8486814009456,-351.599981994099,282.381));
#683=CARTESIAN_POINT('Ctrl Pts',(35.8486814009456,-351.599981994099,282.381));
#684=CARTESIAN_POINT('Ctrl Pts',(35.8486814009456,-351.599981994099,282.179794838869));
#685=CARTESIAN_POINT('Ctrl Pts',(35.8548091281597,-351.559713098809,281.965374607986));
#686=CARTESIAN_POINT('Ctrl Pts',(35.8768600128501,-351.396340007925,281.571253153357));
#687=CARTESIAN_POINT('Ctrl Pts',(35.8924557551931,-351.27325105491,281.391527361014));
#688=CARTESIAN_POINT('Ctrl Pts',(35.9216659671733,-350.989456778244,281.107733084348));
#689=CARTESIAN_POINT('Ctrl Pts',(35.9371900611889,-350.809730058852,280.984642448831));
#690=CARTESIAN_POINT('Ctrl Pts',(35.9590766297453,-350.415605442979,280.821268132093));
#691=CARTESIAN_POINT('Ctrl Pts',(35.9651321144604,-350.201184113493,280.781));
#692=CARTESIAN_POINT('Ctrl Pts',(35.9651321144604,-349.798779874704,280.781));
#693=CARTESIAN_POINT('Ctrl Pts',(35.9590766297453,-349.584358545219,280.821268132093));
#694=CARTESIAN_POINT('Ctrl Pts',(35.9371900611889,-349.190233929345,280.984642448831));
#695=CARTESIAN_POINT('Ctrl Pts',(35.9216659671733,-349.010507209954,281.107733084348));
#696=CARTESIAN_POINT('Ctrl Pts',(35.8924557551931,-348.726712933288,281.391527361014));
#697=CARTESIAN_POINT('Ctrl Pts',(35.8768600128501,-348.603623980273,281.571253153357));
#698=CARTESIAN_POINT('Ctrl Pts',(35.8548091281597,-348.440250889388,281.965374607986));
#699=CARTESIAN_POINT('Ctrl Pts',(35.8486814009456,-348.399981994099,282.179794838869));
#700=CARTESIAN_POINT('Ctrl Pts',(35.8486814009456,-348.399981994099,282.582205161132));
#701=CARTESIAN_POINT('Ctrl Pts',(35.8548091281597,-348.440250889388,282.796625392014));
#702=CARTESIAN_POINT('Ctrl Pts',(35.8768600128501,-348.603623980273,283.190746846643));
#703=CARTESIAN_POINT('Ctrl Pts',(35.8924557551931,-348.726712933288,283.370472638986));
#704=CARTESIAN_POINT('Ctrl Pts',(35.9216659671733,-349.010507209954,283.654266915652));
#705=CARTESIAN_POINT('Ctrl Pts',(35.9371900611889,-349.190233929345,283.777357551169));
#706=CARTESIAN_POINT('Ctrl Pts',(35.9590766297453,-349.584358545219,283.940731867907));
#707=CARTESIAN_POINT('Ctrl Pts',(35.9651321144604,-349.798779874704,283.981));
#708=CARTESIAN_POINT('Ctrl Pts',(35.9651321144604,-350.201184113493,283.981));
#709=CARTESIAN_POINT('Ctrl Pts',(35.9590766297453,-350.415605442979,283.940731867907));
#710=CARTESIAN_POINT('Ctrl Pts',(35.9371900611889,-350.809730058852,283.777357551169));
#711=CARTESIAN_POINT('Ctrl Pts',(35.9216659671733,-350.989456778244,283.654266915652));
#712=CARTESIAN_POINT('Ctrl Pts',(35.8924557551931,-351.27325105491,283.370472638986));
#713=CARTESIAN_POINT('Ctrl Pts',(35.8768600128501,-351.396340007925,283.190746846643));
#714=CARTESIAN_POINT('Ctrl Pts',(35.8548091281597,-351.559713098809,282.796625392014));
#715=CARTESIAN_POINT('Ctrl Pts',(35.8486814009456,-351.599981994099,282.582205161132));
#716=CARTESIAN_POINT('Ctrl Pts',(35.8486814009456,-351.599981994099,282.381));
#717=CARTESIAN_POINT('',(27.5117645489802,-351.599981994099,282.381));
#718=CARTESIAN_POINT('',(49.9151321144606,-351.599981994099,282.381));
#719=CARTESIAN_POINT('Ctrl Pts',(27.5117645489803,-351.599981994099,282.381));
#720=CARTESIAN_POINT('Ctrl Pts',(27.5117645489803,-351.599981994099,282.586843801613));
#721=CARTESIAN_POINT('Ctrl Pts',(27.5388471156687,-351.558004897594,282.802694509736));
#722=CARTESIAN_POINT('Ctrl Pts',(27.6297111518371,-351.393673297237,283.195178963712));
#723=CARTESIAN_POINT('Ctrl Pts',(27.6915831405853,-351.271426361674,283.372297332222));
#724=CARTESIAN_POINT('Ctrl Pts',(27.8032944342516,-350.991755668246,283.65196802565));
#725=CARTESIAN_POINT('Ctrl Pts',(27.861212748254,-350.814482904839,283.774560733586));
#726=CARTESIAN_POINT('Ctrl Pts',(27.9425561003149,-350.421297638939,283.939177303733));
#727=CARTESIAN_POINT('Ctrl Pts',(27.9651321144605,-350.20512579164,283.981));
#728=CARTESIAN_POINT('Ctrl Pts',(27.9651321144605,-349.794838196558,283.981));
#729=CARTESIAN_POINT('Ctrl Pts',(27.9425561003149,-349.578666349259,283.939177303733));
#730=CARTESIAN_POINT('Ctrl Pts',(27.861212748254,-349.185481083359,283.774560733586));
#731=CARTESIAN_POINT('Ctrl Pts',(27.8032944342516,-349.008208319952,283.65196802565));
#732=CARTESIAN_POINT('Ctrl Pts',(27.6915831405853,-348.728537626524,283.372297332222));
#733=CARTESIAN_POINT('Ctrl Pts',(27.6297111518371,-348.606290690961,283.195178963712));
#734=CARTESIAN_POINT('Ctrl Pts',(27.5388471156687,-348.441959090604,282.802694509736));
#735=CARTESIAN_POINT('Ctrl Pts',(27.5117645489802,-348.399981994099,282.586843801613));
#736=CARTESIAN_POINT('Ctrl Pts',(27.5117645489802,-348.399981994099,282.175156198388));
#737=CARTESIAN_POINT('Ctrl Pts',(27.5388471156687,-348.441959090604,281.959305490265));
#738=CARTESIAN_POINT('Ctrl Pts',(27.6297111518371,-348.606290690961,281.566821036288));
#739=CARTESIAN_POINT('Ctrl Pts',(27.6915831405853,-348.728537626524,281.389702667778));
#740=CARTESIAN_POINT('Ctrl Pts',(27.8032944342516,-349.008208319952,281.11003197435));
#741=CARTESIAN_POINT('Ctrl Pts',(27.861212748254,-349.185481083359,280.987439266414));
#742=CARTESIAN_POINT('Ctrl Pts',(27.9425561003149,-349.578666349259,280.822822696267));
#743=CARTESIAN_POINT('Ctrl Pts',(27.9651321144605,-349.794838196558,280.781));
#744=CARTESIAN_POINT('Ctrl Pts',(27.9651321144605,-350.20512579164,280.781));
#745=CARTESIAN_POINT('Ctrl Pts',(27.9425561003149,-350.421297638939,280.822822696267));
#746=CARTESIAN_POINT('Ctrl Pts',(27.861212748254,-350.814482904839,280.987439266414));
#747=CARTESIAN_POINT('Ctrl Pts',(27.8032944342516,-350.991755668246,281.11003197435));
#748=CARTESIAN_POINT('Ctrl Pts',(27.6915831405853,-351.271426361674,281.389702667778));
#749=CARTESIAN_POINT('Ctrl Pts',(27.6297111518371,-351.393673297237,281.566821036288));
#750=CARTESIAN_POINT('Ctrl Pts',(27.5388471156687,-351.558004897594,281.959305490265));
#751=CARTESIAN_POINT('Ctrl Pts',(27.5117645489803,-351.599981994099,282.175156198388));
#752=CARTESIAN_POINT('Ctrl Pts',(27.5117645489803,-351.599981994099,282.381));
#753=CARTESIAN_POINT('Origin',(49.9151321144606,-349.999981994099,291.181));
#754=CARTESIAN_POINT('',(35.8486814009456,-351.599981994099,291.181));
#755=CARTESIAN_POINT('Ctrl Pts',(35.8486814009456,-351.599981994099,291.181));
#756=CARTESIAN_POINT('Ctrl Pts',(35.8486814009456,-351.599981994099,290.979794838869));
#757=CARTESIAN_POINT('Ctrl Pts',(35.8548091281597,-351.559713098809,290.765374607986));
#758=CARTESIAN_POINT('Ctrl Pts',(35.8768600128501,-351.396340007925,290.371253153357));
#759=CARTESIAN_POINT('Ctrl Pts',(35.8924557551931,-351.27325105491,290.191527361014));
#760=CARTESIAN_POINT('Ctrl Pts',(35.9216659671733,-350.989456778244,289.907733084348));
#761=CARTESIAN_POINT('Ctrl Pts',(35.9371900611889,-350.809730058852,289.784642448831));
#762=CARTESIAN_POINT('Ctrl Pts',(35.9590766297453,-350.415605442979,289.621268132093));
#763=CARTESIAN_POINT('Ctrl Pts',(35.9651321144604,-350.201184113493,289.581));
#764=CARTESIAN_POINT('Ctrl Pts',(35.9651321144604,-349.798779874704,289.581));
#765=CARTESIAN_POINT('Ctrl Pts',(35.9590766297453,-349.584358545219,289.621268132093));
#766=CARTESIAN_POINT('Ctrl Pts',(35.9371900611889,-349.190233929345,289.784642448831));
#767=CARTESIAN_POINT('Ctrl Pts',(35.9216659671733,-349.010507209954,289.907733084348));
#768=CARTESIAN_POINT('Ctrl Pts',(35.8924557551931,-348.726712933288,290.191527361014));
#769=CARTESIAN_POINT('Ctrl Pts',(35.8768600128501,-348.603623980273,290.371253153357));
#770=CARTESIAN_POINT('Ctrl Pts',(35.8548091281597,-348.440250889388,290.765374607986));
#771=CARTESIAN_POINT('Ctrl Pts',(35.8486814009456,-348.399981994099,290.979794838869));
#772=CARTESIAN_POINT('Ctrl Pts',(35.8486814009456,-348.399981994099,291.382205161132));
#773=CARTESIAN_POINT('Ctrl Pts',(35.8548091281597,-348.440250889388,291.596625392014));
#774=CARTESIAN_POINT('Ctrl Pts',(35.8768600128501,-348.603623980273,291.990746846643));
#775=CARTESIAN_POINT('Ctrl Pts',(35.8924557551931,-348.726712933288,292.170472638986));
#776=CARTESIAN_POINT('Ctrl Pts',(35.9216659671733,-349.010507209954,292.454266915652));
#777=CARTESIAN_POINT('Ctrl Pts',(35.9371900611889,-349.190233929345,292.577357551169));
#778=CARTESIAN_POINT('Ctrl Pts',(35.9590766297453,-349.584358545219,292.740731867907));
#779=CARTESIAN_POINT('Ctrl Pts',(35.9651321144604,-349.798779874704,292.781));
#780=CARTESIAN_POINT('Ctrl Pts',(35.9651321144604,-350.201184113493,292.781));
#781=CARTESIAN_POINT('Ctrl Pts',(35.9590766297453,-350.415605442979,292.740731867907));
#782=CARTESIAN_POINT('Ctrl Pts',(35.9371900611889,-350.809730058852,292.577357551169));
#783=CARTESIAN_POINT('Ctrl Pts',(35.9216659671733,-350.989456778244,292.454266915652));
#784=CARTESIAN_POINT('Ctrl Pts',(35.8924557551931,-351.27325105491,292.170472638986));
#785=CARTESIAN_POINT('Ctrl Pts',(35.8768600128501,-351.396340007925,291.990746846643));
#786=CARTESIAN_POINT('Ctrl Pts',(35.8548091281597,-351.559713098809,291.596625392014));
#787=CARTESIAN_POINT('Ctrl Pts',(35.8486814009456,-351.599981994099,291.382205161132));
#788=CARTESIAN_POINT('Ctrl Pts',(35.8486814009456,-351.599981994099,291.181));
#789=CARTESIAN_POINT('',(27.5117645489802,-351.599981994099,291.181));
#790=CARTESIAN_POINT('',(49.9151321144606,-351.599981994099,291.181));
#791=CARTESIAN_POINT('Ctrl Pts',(27.5117645489803,-351.599981994099,291.181));
#792=CARTESIAN_POINT('Ctrl Pts',(27.5117645489803,-351.599981994099,291.386843801613));
#793=CARTESIAN_POINT('Ctrl Pts',(27.5388471156687,-351.558004897594,291.602694509736));
#794=CARTESIAN_POINT('Ctrl Pts',(27.6297111518371,-351.393673297237,291.995178963712));
#795=CARTESIAN_POINT('Ctrl Pts',(27.6915831405853,-351.271426361674,292.172297332222));
#796=CARTESIAN_POINT('Ctrl Pts',(27.8032944342516,-350.991755668246,292.45196802565));
#797=CARTESIAN_POINT('Ctrl Pts',(27.861212748254,-350.814482904839,292.574560733586));
#798=CARTESIAN_POINT('Ctrl Pts',(27.9425561003149,-350.421297638939,292.739177303733));
#799=CARTESIAN_POINT('Ctrl Pts',(27.9651321144605,-350.20512579164,292.781));
#800=CARTESIAN_POINT('Ctrl Pts',(27.9651321144605,-349.794838196558,292.781));
#801=CARTESIAN_POINT('Ctrl Pts',(27.9425561003149,-349.578666349259,292.739177303733));
#802=CARTESIAN_POINT('Ctrl Pts',(27.861212748254,-349.185481083359,292.574560733586));
#803=CARTESIAN_POINT('Ctrl Pts',(27.8032944342516,-349.008208319952,292.45196802565));
#804=CARTESIAN_POINT('Ctrl Pts',(27.6915831405853,-348.728537626524,292.172297332222));
#805=CARTESIAN_POINT('Ctrl Pts',(27.6297111518371,-348.606290690961,291.995178963712));
#806=CARTESIAN_POINT('Ctrl Pts',(27.5388471156687,-348.441959090604,291.602694509736));
#807=CARTESIAN_POINT('Ctrl Pts',(27.5117645489802,-348.399981994099,291.386843801613));
#808=CARTESIAN_POINT('Ctrl Pts',(27.5117645489802,-348.399981994099,290.975156198388));
#809=CARTESIAN_POINT('Ctrl Pts',(27.5388471156687,-348.441959090604,290.759305490264));
#810=CARTESIAN_POINT('Ctrl Pts',(27.6297111518371,-348.606290690961,290.366821036288));
#811=CARTESIAN_POINT('Ctrl Pts',(27.6915831405853,-348.728537626524,290.189702667778));
#812=CARTESIAN_POINT('Ctrl Pts',(27.8032944342516,-349.008208319952,289.91003197435));
#813=CARTESIAN_POINT('Ctrl Pts',(27.861212748254,-349.185481083359,289.787439266414));
#814=CARTESIAN_POINT('Ctrl Pts',(27.9425561003149,-349.578666349259,289.622822696267));
#815=CARTESIAN_POINT('Ctrl Pts',(27.9651321144605,-349.794838196558,289.581));
#816=CARTESIAN_POINT('Ctrl Pts',(27.9651321144605,-350.20512579164,289.581));
#817=CARTESIAN_POINT('Ctrl Pts',(27.9425561003149,-350.421297638939,289.622822696267));
#818=CARTESIAN_POINT('Ctrl Pts',(27.861212748254,-350.814482904839,289.787439266414));
#819=CARTESIAN_POINT('Ctrl Pts',(27.8032944342516,-350.991755668246,289.91003197435));
#820=CARTESIAN_POINT('Ctrl Pts',(27.6915831405853,-351.271426361674,290.189702667778));
#821=CARTESIAN_POINT('Ctrl Pts',(27.6297111518371,-351.393673297237,290.366821036288));
#822=CARTESIAN_POINT('Ctrl Pts',(27.5388471156687,-351.558004897594,290.759305490264));
#823=CARTESIAN_POINT('Ctrl Pts',(27.5117645489803,-351.599981994099,290.975156198388));
#824=CARTESIAN_POINT('Ctrl Pts',(27.5117645489803,-351.599981994099,291.181));
#825=CARTESIAN_POINT('Origin',(-0.0848678855395235,-361.049981994099,282.381));
#826=CARTESIAN_POINT('',(-1.68486788553951,-361.049981994099,282.381));
#827=CARTESIAN_POINT('Origin',(-0.0848678855395235,-361.049981994099,282.381));
#828=CARTESIAN_POINT('',(-1.68486788553954,-353.720533028556,282.381));
#829=CARTESIAN_POINT('',(-1.68486788553952,-361.049981994099,282.381));
#830=CARTESIAN_POINT('Ctrl Pts',(-1.68486788553955,-353.720533028556,282.381));
#831=CARTESIAN_POINT('Ctrl Pts',(-1.68486788553955,-353.720533028556,282.584425464267));
#832=CARTESIAN_POINT('Ctrl Pts',(-1.64375701611654,-353.738980825496,282.799658079214));
#833=CARTESIAN_POINT('Ctrl Pts',(-1.47984211674885,-353.803177222782,283.193069851687));
#834=CARTESIAN_POINT('Ctrl Pts',(-1.35713178353345,-353.847757408851,283.371477801803));
#835=CARTESIAN_POINT('Ctrl Pts',(-1.07548074973005,-353.929699027363,283.653128835607));
#836=CARTESIAN_POINT('Ctrl Pts',(-0.897021454554956,-353.97270829888,283.775941729343));
#837=CARTESIAN_POINT('Ctrl Pts',(-0.503410258875245,-354.033215188184,283.939934960277));
#838=CARTESIAN_POINT('Ctrl Pts',(-0.288098342819332,-354.049981994099,283.981));
#839=CARTESIAN_POINT('Ctrl Pts',(0.118362571740267,-354.049981994099,283.981));
#840=CARTESIAN_POINT('Ctrl Pts',(0.333674487796163,-354.033215188184,283.939934960277));
#841=CARTESIAN_POINT('Ctrl Pts',(0.727285683475891,-353.97270829888,283.775941729343));
#842=CARTESIAN_POINT('Ctrl Pts',(0.905744978650986,-353.929699027363,283.653128835607));
#843=CARTESIAN_POINT('Ctrl Pts',(1.18739601245437,-353.847757408851,283.371477801803));
#844=CARTESIAN_POINT('Ctrl Pts',(1.31010634566977,-353.803177222782,283.193069851687));
#845=CARTESIAN_POINT('Ctrl Pts',(1.47402124503746,-353.738980825496,282.799658079214));
#846=CARTESIAN_POINT('Ctrl Pts',(1.51513211446046,-353.720533028556,282.584425464267));
#847=CARTESIAN_POINT('Ctrl Pts',(1.51513211446046,-353.720533028556,282.177574535733));
#848=CARTESIAN_POINT('Ctrl Pts',(1.47402124503746,-353.738980825496,281.962341920787));
#849=CARTESIAN_POINT('Ctrl Pts',(1.31010634566977,-353.803177222782,281.568930148313));
#850=CARTESIAN_POINT('Ctrl Pts',(1.18739601245437,-353.847757408851,281.390522198197));
#851=CARTESIAN_POINT('Ctrl Pts',(0.905744978650986,-353.929699027363,281.108871164394));
#852=CARTESIAN_POINT('Ctrl Pts',(0.727285683475891,-353.97270829888,280.986058270657));
#853=CARTESIAN_POINT('Ctrl Pts',(0.333674487796163,-354.033215188184,280.822065039723));
#854=CARTESIAN_POINT('Ctrl Pts',(0.118362571740267,-354.049981994099,280.781));
#855=CARTESIAN_POINT('Ctrl Pts',(-0.288098342819332,-354.049981994099,280.781));
#856=CARTESIAN_POINT('Ctrl Pts',(-0.503410258875245,-354.033215188184,280.822065039723));
#857=CARTESIAN_POINT('Ctrl Pts',(-0.897021454554956,-353.97270829888,280.986058270657));
#858=CARTESIAN_POINT('Ctrl Pts',(-1.07548074973005,-353.929699027363,281.108871164394));
#859=CARTESIAN_POINT('Ctrl Pts',(-1.35713178353345,-353.847757408851,281.390522198197));
#860=CARTESIAN_POINT('Ctrl Pts',(-1.47984211674885,-353.803177222782,281.568930148313));
#861=CARTESIAN_POINT('Ctrl Pts',(-1.64375701611652,-353.738980825496,281.962341920787));
#862=CARTESIAN_POINT('Ctrl Pts',(-1.68486788553955,-353.720533028556,282.177574535733));
#863=CARTESIAN_POINT('Ctrl Pts',(-1.68486788553955,-353.720533028556,282.381));
#864=CARTESIAN_POINT('Origin',(-0.0848678855395235,-361.049981994099,282.381));
#865=CARTESIAN_POINT('',(-1.68486788553956,-346.279430959642,282.381));
#866=CARTESIAN_POINT('',(-0.0848678855395548,-345.949981994099,280.781));
#867=CARTESIAN_POINT('Ctrl Pts',(-1.68486788553957,-346.279430959642,282.381));
#868=CARTESIAN_POINT('Ctrl Pts',(-1.68486788553957,-346.279430959642,282.177574535733));
#869=CARTESIAN_POINT('Ctrl Pts',(-1.64375701611656,-346.260983162702,281.962341920787));
#870=CARTESIAN_POINT('Ctrl Pts',(-1.47984211674887,-346.196786765416,281.568930148313));
#871=CARTESIAN_POINT('Ctrl Pts',(-1.35713178353347,-346.152206579347,281.390522198197));
#872=CARTESIAN_POINT('Ctrl Pts',(-1.07548074973009,-346.070264960835,281.108871164394));
#873=CARTESIAN_POINT('Ctrl Pts',(-0.897021454554991,-346.027255689318,280.986058270657));
#874=CARTESIAN_POINT('Ctrl Pts',(-0.503410258875263,-345.966748800014,280.822065039723));
#875=CARTESIAN_POINT('Ctrl Pts',(-0.288098342819349,-345.949981994099,280.781));
#876=CARTESIAN_POINT('Ctrl Pts',(-0.0848678855395589,-345.949981994099,
280.781));
#877=CARTESIAN_POINT('',(-0.0848678855395567,-345.949981994099,283.981));
#878=CARTESIAN_POINT('Ctrl Pts',(-0.0848678855395553,-345.949981994099,
280.781));
#879=CARTESIAN_POINT('Ctrl Pts',(0.118362571740235,-345.949981994099,280.781));
#880=CARTESIAN_POINT('Ctrl Pts',(0.333674487796145,-345.966748800014,280.822065039723));
#881=CARTESIAN_POINT('Ctrl Pts',(0.727285683475873,-346.027255689318,280.986058270657));
#882=CARTESIAN_POINT('Ctrl Pts',(0.905744978650951,-346.070264960835,281.108871164394));
#883=CARTESIAN_POINT('Ctrl Pts',(1.18739601245435,-346.152206579347,281.390522198197));
#884=CARTESIAN_POINT('Ctrl Pts',(1.31010634566975,-346.196786765416,281.568930148313));
#885=CARTESIAN_POINT('Ctrl Pts',(1.47402124503744,-346.260983162702,281.962341920787));
#886=CARTESIAN_POINT('Ctrl Pts',(1.51513211446044,-346.279430959642,282.177574535733));
#887=CARTESIAN_POINT('Ctrl Pts',(1.51513211446044,-346.279430959642,282.584425464267));
#888=CARTESIAN_POINT('Ctrl Pts',(1.47402124503744,-346.260983162702,282.799658079214));
#889=CARTESIAN_POINT('Ctrl Pts',(1.31010634566975,-346.196786765416,283.193069851687));
#890=CARTESIAN_POINT('Ctrl Pts',(1.18739601245435,-346.152206579347,283.371477801803));
#891=CARTESIAN_POINT('Ctrl Pts',(0.905744978650951,-346.070264960835,283.653128835607));
#892=CARTESIAN_POINT('Ctrl Pts',(0.727285683475873,-346.027255689318,283.775941729343));
#893=CARTESIAN_POINT('Ctrl Pts',(0.333674487796145,-345.966748800014,283.939934960277));
#894=CARTESIAN_POINT('Ctrl Pts',(0.118362571740231,-345.949981994099,283.981));
#895=CARTESIAN_POINT('Ctrl Pts',(-0.0848678855395595,-345.949981994099,
283.981));
#896=CARTESIAN_POINT('Ctrl Pts',(-0.084867885539559,-345.949981994099,283.981));
#897=CARTESIAN_POINT('Ctrl Pts',(-0.288098342819349,-345.949981994099,283.981));
#898=CARTESIAN_POINT('Ctrl Pts',(-0.503410258875263,-345.966748800014,283.939934960277));
#899=CARTESIAN_POINT('Ctrl Pts',(-0.897021454554991,-346.027255689318,283.775941729343));
#900=CARTESIAN_POINT('Ctrl Pts',(-1.07548074973009,-346.070264960835,283.653128835607));
#901=CARTESIAN_POINT('Ctrl Pts',(-1.35713178353347,-346.152206579347,283.371477801803));
#902=CARTESIAN_POINT('Ctrl Pts',(-1.47984211674887,-346.196786765416,283.193069851687));
#903=CARTESIAN_POINT('Ctrl Pts',(-1.64375701611656,-346.260983162702,282.799658079214));
#904=CARTESIAN_POINT('Ctrl Pts',(-1.68486788553957,-346.279430959642,282.584425464267));
#905=CARTESIAN_POINT('Ctrl Pts',(-1.68486788553957,-346.279430959642,282.381));
#906=CARTESIAN_POINT('',(-1.68486788553958,-338.949981994099,282.381));
#907=CARTESIAN_POINT('',(-1.68486788553952,-361.049981994099,282.381));
#908=CARTESIAN_POINT('Origin',(-0.0848678855395768,-338.949981994099,282.381));
#909=CARTESIAN_POINT('Origin',(-0.0848678855395235,-361.049981994099,291.181));
#910=CARTESIAN_POINT('',(-1.68486788553952,-361.049981994099,291.181));
#911=CARTESIAN_POINT('Origin',(-0.0848678855395235,-361.049981994099,291.181));
#912=CARTESIAN_POINT('',(-1.68486788553954,-353.720533028556,291.181));
#913=CARTESIAN_POINT('',(-1.68486788553952,-361.049981994099,291.181));
#914=CARTESIAN_POINT('Ctrl Pts',(-1.68486788553955,-353.720533028556,291.181));
#915=CARTESIAN_POINT('Ctrl Pts',(-1.68486788553954,-353.720533028556,291.384425464267));
#916=CARTESIAN_POINT('Ctrl Pts',(-1.64375701611654,-353.738980825496,291.599658079214));
#917=CARTESIAN_POINT('Ctrl Pts',(-1.47984211674885,-353.803177222782,291.993069851687));
#918=CARTESIAN_POINT('Ctrl Pts',(-1.35713178353345,-353.847757408851,292.171477801803));
#919=CARTESIAN_POINT('Ctrl Pts',(-1.07548074973007,-353.929699027363,292.453128835606));
#920=CARTESIAN_POINT('Ctrl Pts',(-0.897021454554974,-353.97270829888,292.575941729343));
#921=CARTESIAN_POINT('Ctrl Pts',(-0.503410258875245,-354.033215188184,292.739934960277));
#922=CARTESIAN_POINT('Ctrl Pts',(-0.288098342819332,-354.049981994099,292.781));
#923=CARTESIAN_POINT('Ctrl Pts',(0.118362571740249,-354.049981994099,292.781));
#924=CARTESIAN_POINT('Ctrl Pts',(0.333674487796163,-354.033215188184,292.739934960277));
#925=CARTESIAN_POINT('Ctrl Pts',(0.727285683475891,-353.97270829888,292.575941729343));
#926=CARTESIAN_POINT('Ctrl Pts',(0.905744978650986,-353.929699027363,292.453128835606));
#927=CARTESIAN_POINT('Ctrl Pts',(1.18739601245437,-353.847757408851,292.171477801803));
#928=CARTESIAN_POINT('Ctrl Pts',(1.31010634566977,-353.803177222782,291.993069851687));
#929=CARTESIAN_POINT('Ctrl Pts',(1.47402124503746,-353.738980825496,291.599658079214));
#930=CARTESIAN_POINT('Ctrl Pts',(1.51513211446046,-353.720533028556,291.384425464267));
#931=CARTESIAN_POINT('Ctrl Pts',(1.51513211446046,-353.720533028556,290.977574535733));
#932=CARTESIAN_POINT('Ctrl Pts',(1.47402124503746,-353.738980825496,290.762341920787));
#933=CARTESIAN_POINT('Ctrl Pts',(1.31010634566977,-353.803177222782,290.368930148313));
#934=CARTESIAN_POINT('Ctrl Pts',(1.18739601245437,-353.847757408851,290.190522198197));
#935=CARTESIAN_POINT('Ctrl Pts',(0.905744978650986,-353.929699027363,289.908871164394));
#936=CARTESIAN_POINT('Ctrl Pts',(0.727285683475891,-353.97270829888,289.786058270657));
#937=CARTESIAN_POINT('Ctrl Pts',(0.333674487796163,-354.033215188184,289.622065039723));
#938=CARTESIAN_POINT('Ctrl Pts',(0.118362571740249,-354.049981994099,289.581));
#939=CARTESIAN_POINT('Ctrl Pts',(-0.288098342819332,-354.049981994099,289.581));
#940=CARTESIAN_POINT('Ctrl Pts',(-0.503410258875245,-354.033215188184,289.622065039723));
#941=CARTESIAN_POINT('Ctrl Pts',(-0.897021454554974,-353.97270829888,289.786058270657));
#942=CARTESIAN_POINT('Ctrl Pts',(-1.07548074973007,-353.929699027363,289.908871164394));
#943=CARTESIAN_POINT('Ctrl Pts',(-1.35713178353345,-353.847757408851,290.190522198197));
#944=CARTESIAN_POINT('Ctrl Pts',(-1.47984211674885,-353.803177222782,290.368930148313));
#945=CARTESIAN_POINT('Ctrl Pts',(-1.64375701611654,-353.738980825496,290.762341920787));
#946=CARTESIAN_POINT('Ctrl Pts',(-1.68486788553955,-353.720533028556,290.977574535733));
#947=CARTESIAN_POINT('Ctrl Pts',(-1.68486788553955,-353.720533028556,291.181));
#948=CARTESIAN_POINT('Origin',(-0.0848678855395235,-361.049981994099,291.181));
#949=CARTESIAN_POINT('',(-1.68486788553956,-346.279430959642,291.181));
#950=CARTESIAN_POINT('',(-0.08486788553956,-345.949981994099,289.581));
#951=CARTESIAN_POINT('Ctrl Pts',(-1.68486788553957,-346.279430959642,291.181));
#952=CARTESIAN_POINT('Ctrl Pts',(-1.68486788553957,-346.279430959642,290.977574535733));
#953=CARTESIAN_POINT('Ctrl Pts',(-1.64375701611656,-346.260983162702,290.762341920787));
#954=CARTESIAN_POINT('Ctrl Pts',(-1.47984211674887,-346.196786765416,290.368930148313));
#955=CARTESIAN_POINT('Ctrl Pts',(-1.35713178353347,-346.152206579347,290.190522198197));
#956=CARTESIAN_POINT('Ctrl Pts',(-1.07548074973009,-346.070264960835,289.908871164394));
#957=CARTESIAN_POINT('Ctrl Pts',(-0.897021454554991,-346.027255689318,289.786058270657));
#958=CARTESIAN_POINT('Ctrl Pts',(-0.503410258875263,-345.966748800014,289.622065039723));
#959=CARTESIAN_POINT('Ctrl Pts',(-0.288098342819369,-345.949981994099,289.581));
#960=CARTESIAN_POINT('Ctrl Pts',(-0.0848678855395699,-345.949981994099,
289.581));
#961=CARTESIAN_POINT('',(-0.0848678855395611,-345.949981994099,292.781));
#962=CARTESIAN_POINT('Ctrl Pts',(-0.0848678855395649,-345.949981994099,
289.581));
#963=CARTESIAN_POINT('Ctrl Pts',(0.118362571740235,-345.949981994099,289.581));
#964=CARTESIAN_POINT('Ctrl Pts',(0.333674487796145,-345.966748800014,289.622065039723));
#965=CARTESIAN_POINT('Ctrl Pts',(0.727285683475856,-346.027255689318,289.786058270657));
#966=CARTESIAN_POINT('Ctrl Pts',(0.905744978650951,-346.070264960835,289.908871164394));
#967=CARTESIAN_POINT('Ctrl Pts',(1.18739601245435,-346.152206579347,290.190522198197));
#968=CARTESIAN_POINT('Ctrl Pts',(1.31010634566975,-346.196786765416,290.368930148313));
#969=CARTESIAN_POINT('Ctrl Pts',(1.47402124503742,-346.260983162702,290.762341920787));
#970=CARTESIAN_POINT('Ctrl Pts',(1.51513211446044,-346.279430959642,290.977574535733));
#971=CARTESIAN_POINT('Ctrl Pts',(1.51513211446044,-346.279430959642,291.384425464267));
#972=CARTESIAN_POINT('Ctrl Pts',(1.47402124503742,-346.260983162702,291.599658079214));
#973=CARTESIAN_POINT('Ctrl Pts',(1.31010634566975,-346.196786765416,291.993069851687));
#974=CARTESIAN_POINT('Ctrl Pts',(1.18739601245435,-346.152206579347,292.171477801803));
#975=CARTESIAN_POINT('Ctrl Pts',(0.905744978650951,-346.070264960835,292.453128835606));
#976=CARTESIAN_POINT('Ctrl Pts',(0.727285683475856,-346.027255689318,292.575941729343));
#977=CARTESIAN_POINT('Ctrl Pts',(0.333674487796145,-345.966748800014,292.739934960277));
#978=CARTESIAN_POINT('Ctrl Pts',(0.118362571740231,-345.949981994099,292.781));
#979=CARTESIAN_POINT('Ctrl Pts',(-0.0848678855395679,-345.949981994099,
292.781));
#980=CARTESIAN_POINT('Ctrl Pts',(-0.0848678855395679,-345.949981994099,
292.781));
#981=CARTESIAN_POINT('Ctrl Pts',(-0.288098342819367,-345.949981994099,292.781));
#982=CARTESIAN_POINT('Ctrl Pts',(-0.503410258875263,-345.966748800014,292.739934960277));
#983=CARTESIAN_POINT('Ctrl Pts',(-0.897021454554991,-346.027255689318,292.575941729343));
#984=CARTESIAN_POINT('Ctrl Pts',(-1.07548074973009,-346.070264960835,292.453128835606));
#985=CARTESIAN_POINT('Ctrl Pts',(-1.35713178353347,-346.152206579347,292.171477801803));
#986=CARTESIAN_POINT('Ctrl Pts',(-1.47984211674887,-346.196786765416,291.993069851687));
#987=CARTESIAN_POINT('Ctrl Pts',(-1.64375701611656,-346.260983162702,291.599658079214));
#988=CARTESIAN_POINT('Ctrl Pts',(-1.68486788553957,-346.279430959642,291.384425464267));
#989=CARTESIAN_POINT('Ctrl Pts',(-1.68486788553957,-346.279430959642,291.181));
#990=CARTESIAN_POINT('',(-1.6848678855396,-338.949981994099,291.181));
#991=CARTESIAN_POINT('',(-1.68486788553952,-361.049981994099,291.181));
#992=CARTESIAN_POINT('Origin',(-0.0848678855395946,-338.949981994099,291.181));
#993=CARTESIAN_POINT('Origin',(-0.0848678855395413,-349.999981994099,298.781));
#994=CARTESIAN_POINT('',(-25.0848678855395,-361.049981994099,298.781));
#995=CARTESIAN_POINT('',(-25.0848678855396,-338.949981994099,298.781));
#996=CARTESIAN_POINT('Origin',(-25.0848678855395,-349.999981994099,298.781));
#997=CARTESIAN_POINT('',(24.9151321144605,-361.049981994099,298.781));
#998=CARTESIAN_POINT('',(-25.0848678855395,-361.049981994099,298.781));
#999=CARTESIAN_POINT('',(24.9151321144604,-338.949981994099,298.781));
#1000=CARTESIAN_POINT('Origin',(24.9151321144605,-349.999981994099,298.781));
#1001=CARTESIAN_POINT('',(24.9151321144604,-338.949981994099,298.781));
#1002=CARTESIAN_POINT('Origin',(24.9151321144605,-349.999981994099,296.781));
#1003=CARTESIAN_POINT('',(24.9151321144604,-346.949981994099,276.781));
#1004=CARTESIAN_POINT('Origin',(24.9151321144605,-349.999981994099,276.781));
#1005=CARTESIAN_POINT('',(24.9151321144604,-346.949981994099,296.781));
#1006=CARTESIAN_POINT('Origin',(-25.0848678855395,-349.999981994099,296.781));
#1007=CARTESIAN_POINT('',(-25.0848678855396,-346.949981994099,276.781));
#1008=CARTESIAN_POINT('Origin',(-25.0848678855395,-349.999981994099,276.781));
#1009=CARTESIAN_POINT('',(-25.0848678855396,-346.949981994099,296.781));
#1010=CARTESIAN_POINT('Origin',(-0.0848678855395413,-349.999981994099,296.781));
#1011=CARTESIAN_POINT('',(-0.084867885539559,-345.949981994099,276.781));
#1012=CARTESIAN_POINT('Origin',(-0.0848678855395413,-349.999981994099,276.781));
#1013=CARTESIAN_POINT('',(-0.0848678855395543,-345.949981994099,296.781));
#1014=CARTESIAN_POINT('',(-0.0848678855395543,-345.949981994099,296.781));
#1015=CARTESIAN_POINT('',(-0.0848678855395543,-345.949981994099,296.781));
#1016=CARTESIAN_POINT('Origin',(24.9151321144604,-338.949981994099,296.781));
#1017=CARTESIAN_POINT('',(-25.0848678855396,-338.949981994099,276.781));
#1018=CARTESIAN_POINT('',(-25.0848678855396,-338.949981994099,296.781));
#1019=CARTESIAN_POINT('',(24.9151321144604,-338.949981994099,276.781));
#1020=CARTESIAN_POINT('',(24.9151321144604,-338.949981994099,296.781));
#1021=CARTESIAN_POINT('',(24.9151321144604,-338.949981994099,276.781));
#1022=CARTESIAN_POINT('Origin',(24.9151321144605,-349.999981994099,296.781));
#1023=CARTESIAN_POINT('',(24.9151321144605,-361.049981994099,276.781));
#1024=CARTESIAN_POINT('',(24.9151321144605,-361.049981994099,296.781));
#1025=CARTESIAN_POINT('Origin',(24.9151321144605,-349.999981994099,276.781));
#1026=CARTESIAN_POINT('Origin',(-25.0848678855395,-361.049981994099,296.781));
#1027=CARTESIAN_POINT('',(-25.0848678855395,-361.049981994099,276.781));
#1028=CARTESIAN_POINT('',(-25.0848678855395,-361.049981994099,296.781));
#1029=CARTESIAN_POINT('',(-25.0848678855395,-361.049981994099,276.781));
#1030=CARTESIAN_POINT('Origin',(-25.0848678855395,-349.999981994099,296.781));
#1031=CARTESIAN_POINT('Origin',(-25.0848678855395,-349.999981994099,276.781));
#1032=CARTESIAN_POINT('Origin',(-0.0848678855395413,-349.999981994099,276.781));
#1033=UNCERTAINTY_MEASURE_WITH_UNIT(LENGTH_MEASURE(0.01),#1037,
'DISTANCE_ACCURACY_VALUE',
'Maximum model space distance between geometric entities at asserted c
onnectivities');
#1034=UNCERTAINTY_MEASURE_WITH_UNIT(LENGTH_MEASURE(0.01),#1037,
'DISTANCE_ACCURACY_VALUE',
'Maximum model space distance between geometric entities at asserted c
onnectivities');
#1035=(
GEOMETRIC_REPRESENTATION_CONTEXT(3)
GLOBAL_UNCERTAINTY_ASSIGNED_CONTEXT((#1033))
GLOBAL_UNIT_ASSIGNED_CONTEXT((#1037,#1039,#1040))
REPRESENTATION_CONTEXT('','3D')
);
#1036=(
GEOMETRIC_REPRESENTATION_CONTEXT(3)
GLOBAL_UNCERTAINTY_ASSIGNED_CONTEXT((#1034))
GLOBAL_UNIT_ASSIGNED_CONTEXT((#1037,#1039,#1040))
REPRESENTATION_CONTEXT('','3D')
);
#1037=(
LENGTH_UNIT()
NAMED_UNIT(*)
SI_UNIT(.MILLI.,.METRE.)
);
#1038=(
LENGTH_UNIT()
NAMED_UNIT(*)
SI_UNIT($,.METRE.)
);
#1039=(
NAMED_UNIT(*)
PLANE_ANGLE_UNIT()
SI_UNIT($,.RADIAN.)
);
#1040=(
NAMED_UNIT(*)
SI_UNIT($,.STERADIAN.)
SOLID_ANGLE_UNIT()
);
#1041=SHAPE_DEFINITION_REPRESENTATION(#1042,#1043);
#1042=PRODUCT_DEFINITION_SHAPE('',$,#1045);
#1043=SHAPE_REPRESENTATION('',(#401),#1035);
#1044=PRODUCT_DEFINITION_CONTEXT('part definition',#1049,'design');
#1045=PRODUCT_DEFINITION('zaslepka','zaslepka',#1046,#1044);
#1046=PRODUCT_DEFINITION_FORMATION('',$,#1051);
#1047=PRODUCT_RELATED_PRODUCT_CATEGORY('zaslepka','zaslepka',(#1051));
#1048=APPLICATION_PROTOCOL_DEFINITION('international standard',
'automotive_design',2009,#1049);
#1049=APPLICATION_CONTEXT(
'Core Data for Automotive Mechanical Design Process');
#1050=PRODUCT_CONTEXT('part definition',#1049,'mechanical');
#1051=PRODUCT('zaslepka','zaslepka',$,(#1050));
#1052=PRESENTATION_STYLE_ASSIGNMENT((#1053));
#1053=SURFACE_STYLE_USAGE(.BOTH.,#1054);
#1054=SURFACE_SIDE_STYLE('',(#1055));
#1055=SURFACE_STYLE_FILL_AREA(#1056);
#1056=FILL_AREA_STYLE('Stal \X2\2014\X0\ satynowa',(#1057));
#1057=FILL_AREA_STYLE_COLOUR('Stal \X2\2014\X0\ satynowa',#1058);
#1058=COLOUR_RGB('Stal \X2\2014\X0\ satynowa',0.627450980392157,0.627450980392157,
0.627450980392157);
ENDSEC;
END-ISO-10303-21;
