ISO-10303-21;
HEADER;
/* Generated by software containing ST-Developer
 * from STEP Tools, Inc. (www.steptools.com) 
 */

FILE_DESCRIPTION(
/* description */ (''),
/* implementation_level */ '2;1');

FILE_NAME(
/* name */ 'lnik2 II.step',
/* time_stamp */ '2026-03-04T15:16:51+01:00',
/* author */ (''),
/* organization */ (''),
/* preprocessor_version */ 'ST-DEVELOPER v20.1',
/* originating_system */ 'Autodesk Translation Framework v14.24.0.0',
/* authorisation */ '');

FILE_SCHEMA (('AUTOMOTIVE_DESIGN { 1 0 10303 214 3 1 1 }'));
ENDSEC;

DATA;
#10=MECHANICAL_DESIGN_GEOMETRIC_PRESENTATION_REPRESENTATION('',(#13),#265);
#11=SHAPE_REPRESENTATION_RELATIONSHIP('SRR','None',#272,#12);
#12=ADVANCED_BREP_SHAPE_REPRESENTATION('',(#14),#264);
#13=STYLED_ITEM('',(#281),#14);
#14=MANIFOLD_SOLID_BREP('Bry\X2\0142\X0\a1',#149);
#15=CYLINDRICAL_SURFACE('',#168,2.1);
#16=CYLINDRICAL_SURFACE('',#170,2.1);
#17=CYLINDRICAL_SURFACE('',#173,5.50000000000003);
#18=CYLINDRICAL_SURFACE('',#176,5.50000000000004);
#19=FACE_BOUND('',#32,.T.);
#20=FACE_BOUND('',#33,.T.);
#21=FACE_BOUND('',#41,.T.);
#22=FACE_BOUND('',#42,.T.);
#23=FACE_OUTER_BOUND('',#31,.T.);
#24=FACE_OUTER_BOUND('',#34,.T.);
#25=FACE_OUTER_BOUND('',#35,.T.);
#26=FACE_OUTER_BOUND('',#36,.T.);
#27=FACE_OUTER_BOUND('',#37,.T.);
#28=FACE_OUTER_BOUND('',#38,.T.);
#29=FACE_OUTER_BOUND('',#39,.T.);
#30=FACE_OUTER_BOUND('',#40,.T.);
#31=EDGE_LOOP('',(#101,#102,#103,#104));
#32=EDGE_LOOP('',(#105));
#33=EDGE_LOOP('',(#106));
#34=EDGE_LOOP('',(#107,#108,#109,#110));
#35=EDGE_LOOP('',(#111,#112,#113,#114));
#36=EDGE_LOOP('',(#115,#116,#117,#118));
#37=EDGE_LOOP('',(#119,#120,#121,#122));
#38=EDGE_LOOP('',(#123,#124,#125,#126));
#39=EDGE_LOOP('',(#127,#128,#129,#130));
#40=EDGE_LOOP('',(#131,#132,#133,#134));
#41=EDGE_LOOP('',(#135));
#42=EDGE_LOOP('',(#136));
#43=LINE('',#229,#53);
#44=LINE('',#232,#54);
#45=LINE('',#240,#55);
#46=LINE('',#244,#56);
#47=LINE('',#247,#57);
#48=LINE('',#249,#58);
#49=LINE('',#250,#59);
#50=LINE('',#254,#60);
#51=LINE('',#257,#61);
#52=LINE('',#258,#62);
#53=VECTOR('',#185,10.);
#54=VECTOR('',#188,10.);
#55=VECTOR('',#197,2.1);
#56=VECTOR('',#202,2.1);
#57=VECTOR('',#205,10.);
#58=VECTOR('',#206,10.);
#59=VECTOR('',#207,10.);
#60=VECTOR('',#212,10.);
#61=VECTOR('',#215,10.);
#62=VECTOR('',#216,10.);
#63=CIRCLE('',#164,5.50000000000004);
#64=CIRCLE('',#165,5.50000000000003);
#65=CIRCLE('',#166,2.1);
#66=CIRCLE('',#167,2.1);
#67=CIRCLE('',#169,2.1);
#68=CIRCLE('',#171,2.1);
#69=CIRCLE('',#174,5.50000000000003);
#70=CIRCLE('',#177,5.50000000000004);
#71=VERTEX_POINT('',#225);
#72=VERTEX_POINT('',#226);
#73=VERTEX_POINT('',#228);
#74=VERTEX_POINT('',#230);
#75=VERTEX_POINT('',#233);
#76=VERTEX_POINT('',#235);
#77=VERTEX_POINT('',#238);
#78=VERTEX_POINT('',#242);
#79=VERTEX_POINT('',#246);
#80=VERTEX_POINT('',#248);
#81=VERTEX_POINT('',#252);
#82=VERTEX_POINT('',#256);
#83=EDGE_CURVE('',#71,#72,#63,.T.);
#84=EDGE_CURVE('',#72,#73,#43,.T.);
#85=EDGE_CURVE('',#73,#74,#64,.T.);
#86=EDGE_CURVE('',#74,#71,#44,.T.);
#87=EDGE_CURVE('',#75,#75,#65,.T.);
#88=EDGE_CURVE('',#76,#76,#66,.T.);
#89=EDGE_CURVE('',#77,#77,#67,.T.);
#90=EDGE_CURVE('',#77,#76,#45,.T.);
#91=EDGE_CURVE('',#78,#78,#68,.T.);
#92=EDGE_CURVE('',#78,#75,#46,.T.);
#93=EDGE_CURVE('',#79,#72,#47,.T.);
#94=EDGE_CURVE('',#80,#79,#48,.T.);
#95=EDGE_CURVE('',#73,#80,#49,.T.);
#96=EDGE_CURVE('',#81,#80,#69,.T.);
#97=EDGE_CURVE('',#74,#81,#50,.T.);
#98=EDGE_CURVE('',#82,#81,#51,.T.);
#99=EDGE_CURVE('',#71,#82,#52,.T.);
#100=EDGE_CURVE('',#79,#82,#70,.T.);
#101=ORIENTED_EDGE('',*,*,#83,.T.);
#102=ORIENTED_EDGE('',*,*,#84,.T.);
#103=ORIENTED_EDGE('',*,*,#85,.T.);
#104=ORIENTED_EDGE('',*,*,#86,.T.);
#105=ORIENTED_EDGE('',*,*,#87,.T.);
#106=ORIENTED_EDGE('',*,*,#88,.T.);
#107=ORIENTED_EDGE('',*,*,#89,.F.);
#108=ORIENTED_EDGE('',*,*,#90,.T.);
#109=ORIENTED_EDGE('',*,*,#88,.F.);
#110=ORIENTED_EDGE('',*,*,#90,.F.);
#111=ORIENTED_EDGE('',*,*,#91,.F.);
#112=ORIENTED_EDGE('',*,*,#92,.T.);
#113=ORIENTED_EDGE('',*,*,#87,.F.);
#114=ORIENTED_EDGE('',*,*,#92,.F.);
#115=ORIENTED_EDGE('',*,*,#93,.F.);
#116=ORIENTED_EDGE('',*,*,#94,.F.);
#117=ORIENTED_EDGE('',*,*,#95,.F.);
#118=ORIENTED_EDGE('',*,*,#84,.F.);
#119=ORIENTED_EDGE('',*,*,#95,.T.);
#120=ORIENTED_EDGE('',*,*,#96,.F.);
#121=ORIENTED_EDGE('',*,*,#97,.F.);
#122=ORIENTED_EDGE('',*,*,#85,.F.);
#123=ORIENTED_EDGE('',*,*,#97,.T.);
#124=ORIENTED_EDGE('',*,*,#98,.F.);
#125=ORIENTED_EDGE('',*,*,#99,.F.);
#126=ORIENTED_EDGE('',*,*,#86,.F.);
#127=ORIENTED_EDGE('',*,*,#99,.T.);
#128=ORIENTED_EDGE('',*,*,#100,.F.);
#129=ORIENTED_EDGE('',*,*,#93,.T.);
#130=ORIENTED_EDGE('',*,*,#83,.F.);
#131=ORIENTED_EDGE('',*,*,#100,.T.);
#132=ORIENTED_EDGE('',*,*,#98,.T.);
#133=ORIENTED_EDGE('',*,*,#96,.T.);
#134=ORIENTED_EDGE('',*,*,#94,.T.);
#135=ORIENTED_EDGE('',*,*,#91,.T.);
#136=ORIENTED_EDGE('',*,*,#89,.T.);
#137=PLANE('',#163);
#138=PLANE('',#172);
#139=PLANE('',#175);
#140=PLANE('',#178);
#141=ADVANCED_FACE('',(#23,#19,#20),#137,.F.);
#142=ADVANCED_FACE('',(#24),#15,.F.);
#143=ADVANCED_FACE('',(#25),#16,.F.);
#144=ADVANCED_FACE('',(#26),#138,.T.);
#145=ADVANCED_FACE('',(#27),#17,.T.);
#146=ADVANCED_FACE('',(#28),#139,.T.);
#147=ADVANCED_FACE('',(#29),#18,.T.);
#148=ADVANCED_FACE('',(#30,#21,#22),#140,.T.);
#149=CLOSED_SHELL('',(#141,#142,#143,#144,#145,#146,#147,#148));
#150=DERIVED_UNIT_ELEMENT(#152,1.);
#151=DERIVED_UNIT_ELEMENT(#267,-3.);
#152=(
MASS_UNIT()
NAMED_UNIT(*)
SI_UNIT(.KILO.,.GRAM.)
);
#153=DERIVED_UNIT((#150,#151));
#154=MEASURE_REPRESENTATION_ITEM('density measure',
POSITIVE_RATIO_MEASURE(7850.),#153);
#155=PROPERTY_DEFINITION_REPRESENTATION(#160,#157);
#156=PROPERTY_DEFINITION_REPRESENTATION(#161,#158);
#157=REPRESENTATION('material name',(#159),#264);
#158=REPRESENTATION('density',(#154),#264);
#159=DESCRIPTIVE_REPRESENTATION_ITEM('Stal','Stal');
#160=PROPERTY_DEFINITION('material property','material name',#274);
#161=PROPERTY_DEFINITION('material property','density of part',#274);
#162=AXIS2_PLACEMENT_3D('',#223,#179,#180);
#163=AXIS2_PLACEMENT_3D('',#224,#181,#182);
#164=AXIS2_PLACEMENT_3D('',#227,#183,#184);
#165=AXIS2_PLACEMENT_3D('',#231,#186,#187);
#166=AXIS2_PLACEMENT_3D('',#234,#189,#190);
#167=AXIS2_PLACEMENT_3D('',#236,#191,#192);
#168=AXIS2_PLACEMENT_3D('',#237,#193,#194);
#169=AXIS2_PLACEMENT_3D('',#239,#195,#196);
#170=AXIS2_PLACEMENT_3D('',#241,#198,#199);
#171=AXIS2_PLACEMENT_3D('',#243,#200,#201);
#172=AXIS2_PLACEMENT_3D('',#245,#203,#204);
#173=AXIS2_PLACEMENT_3D('',#251,#208,#209);
#174=AXIS2_PLACEMENT_3D('',#253,#210,#211);
#175=AXIS2_PLACEMENT_3D('',#255,#213,#214);
#176=AXIS2_PLACEMENT_3D('',#259,#217,#218);
#177=AXIS2_PLACEMENT_3D('',#260,#219,#220);
#178=AXIS2_PLACEMENT_3D('',#261,#221,#222);
#179=DIRECTION('axis',(0.,0.,1.));
#180=DIRECTION('refdir',(1.,0.,0.));
#181=DIRECTION('center_axis',(4.28825687061925E-15,-1.,9.40369444677142E-17));
#182=DIRECTION('ref_axis',(0.90630778703665,3.926222324666E-15,0.422618261740699));
#183=DIRECTION('center_axis',(-4.28825687061925E-15,1.,-9.40369444677142E-17));
#184=DIRECTION('ref_axis',(-0.984807753012208,-4.23943795713389E-15,-0.173648177666932));
#185=DIRECTION('',(-0.173648177666931,-6.52039678969346E-16,0.984807753012208));
#186=DIRECTION('center_axis',(-4.28825687061925E-15,1.,-9.40369444677142E-17));
#187=DIRECTION('ref_axis',(0.984807753012208,4.23943795713389E-15,0.173648177666931));
#188=DIRECTION('',(0.173648177666931,6.52039678969347E-16,-0.984807753012208));
#189=DIRECTION('center_axis',(4.28825687061925E-15,-1.,9.40369444677142E-17));
#190=DIRECTION('ref_axis',(0.90630778703665,3.926222324666E-15,0.422618261740699));
#191=DIRECTION('center_axis',(4.28825687061925E-15,-1.,9.40369444677142E-17));
#192=DIRECTION('ref_axis',(0.90630778703665,3.926222324666E-15,0.422618261740699));
#193=DIRECTION('center_axis',(4.28825687061925E-15,-1.,9.40369444677142E-17));
#194=DIRECTION('ref_axis',(0.90630778703665,3.926222324666E-15,0.422618261740699));
#195=DIRECTION('center_axis',(-4.28825687061925E-15,1.,-9.40369444677142E-17));
#196=DIRECTION('ref_axis',(0.90630778703665,3.926222324666E-15,0.422618261740699));
#197=DIRECTION('',(-4.28825687061925E-15,1.,-9.40369444677142E-17));
#198=DIRECTION('center_axis',(4.28825687061925E-15,-1.,9.40369444677142E-17));
#199=DIRECTION('ref_axis',(0.90630778703665,3.926222324666E-15,0.422618261740699));
#200=DIRECTION('center_axis',(-4.28825687061925E-15,1.,-9.40369444677142E-17));
#201=DIRECTION('ref_axis',(0.90630778703665,3.926222324666E-15,0.422618261740699));
#202=DIRECTION('',(-4.28825687061925E-15,1.,-9.40369444677142E-17));
#203=DIRECTION('center_axis',(-0.984807753012208,-4.2394379571339E-15,-0.173648177666931));
#204=DIRECTION('ref_axis',(0.173648177666931,6.52039678969346E-16,-0.984807753012208));
#205=DIRECTION('',(-4.28825687061925E-15,1.,-9.40369444677143E-17));
#206=DIRECTION('',(0.173648177666931,6.52039678969346E-16,-0.984807753012208));
#207=DIRECTION('',(4.28825687061925E-15,-1.,9.40369444677143E-17));
#208=DIRECTION('center_axis',(4.28825687061925E-15,-1.,9.40369444677142E-17));
#209=DIRECTION('ref_axis',(0.984807753012208,4.23943795713389E-15,0.173648177666931));
#210=DIRECTION('center_axis',(4.28825687061925E-15,-1.,9.40369444677142E-17));
#211=DIRECTION('ref_axis',(0.984807753012208,4.23943795713389E-15,0.173648177666931));
#212=DIRECTION('',(4.28825687061925E-15,-1.,9.40369444677143E-17));
#213=DIRECTION('center_axis',(0.984807753012208,4.23943795713389E-15,0.173648177666931));
#214=DIRECTION('ref_axis',(-0.173648177666931,-6.52039678969347E-16,0.984807753012208));
#215=DIRECTION('',(-0.173648177666931,-6.52039678969347E-16,0.984807753012208));
#216=DIRECTION('',(4.28825687061925E-15,-1.,9.40369444677143E-17));
#217=DIRECTION('center_axis',(4.28825687061925E-15,-1.,9.40369444677142E-17));
#218=DIRECTION('ref_axis',(-0.984807753012208,-4.23943795713389E-15,-0.173648177666932));
#219=DIRECTION('center_axis',(4.28825687061925E-15,-1.,9.40369444677142E-17));
#220=DIRECTION('ref_axis',(-0.984807753012208,-4.23943795713389E-15,-0.173648177666932));
#221=DIRECTION('center_axis',(4.28825687061925E-15,-1.,9.40369444677142E-17));
#222=DIRECTION('ref_axis',(0.90630778703665,3.926222324666E-15,0.422618261740699));
#223=CARTESIAN_POINT('',(0.,0.,0.));
#224=CARTESIAN_POINT('Origin',(-30.8385465196817,-345.4999819941,62.675734840712));
#225=CARTESIAN_POINT('',(-23.3757825122569,-345.4999819941,52.0255346585965));
#226=CARTESIAN_POINT('',(-34.2086677953913,-345.4999819941,50.1154047042603));
#227=CARTESIAN_POINT('Origin',(-28.7922251538241,-345.4999819941,51.0704696814284));
#228=CARTESIAN_POINT('',(-38.3013105271065,-345.4999819941,73.3259350228274));
#229=CARTESIAN_POINT('',(-38.3013105271065,-345.4999819941,73.3259350228274));
#230=CARTESIAN_POINT('',(-27.4684252439722,-345.4999819941,75.2360649771637));
#231=CARTESIAN_POINT('Origin',(-32.8848678855393,-345.4999819941,74.2809999999955));
#232=CARTESIAN_POINT('',(-23.3757825122569,-345.4999819941,52.0255346585965));
#233=CARTESIAN_POINT('',(-34.7881142383163,-345.4999819941,73.3935016503401));
#234=CARTESIAN_POINT('Origin',(-32.8848678855393,-345.4999819941,74.2809999999955));
#235=CARTESIAN_POINT('',(-30.695471506601,-345.4999819941,50.1829713317729));
#236=CARTESIAN_POINT('Origin',(-28.7922251538241,-345.4999819941,51.0704696814284));
#237=CARTESIAN_POINT('Origin',(-28.7922251538241,-350.4999819941,51.0704696814284));
#238=CARTESIAN_POINT('',(-30.695471506601,-355.4999819941,50.1829713317729));
#239=CARTESIAN_POINT('Origin',(-28.792225153824,-355.4999819941,51.0704696814284));
#240=CARTESIAN_POINT('',(-30.695471506601,-350.4999819941,50.1829713317729));
#241=CARTESIAN_POINT('Origin',(-32.8848678855393,-350.4999819941,74.2809999999956));
#242=CARTESIAN_POINT('',(-34.7881142383162,-355.4999819941,73.3935016503401));
#243=CARTESIAN_POINT('Origin',(-32.8848678855393,-355.4999819941,74.2809999999956));
#244=CARTESIAN_POINT('',(-34.7881142383163,-350.4999819941,73.3935016503401));
#245=CARTESIAN_POINT('Origin',(-38.3013105271065,-350.4999819941,73.3259350228274));
#246=CARTESIAN_POINT('',(-34.2086677953912,-355.4999819941,50.1154047042603));
#247=CARTESIAN_POINT('',(-34.2086677953912,-350.4999819941,50.1154047042603));
#248=CARTESIAN_POINT('',(-38.3013105271065,-355.4999819941,73.3259350228274));
#249=CARTESIAN_POINT('',(-38.3013105271065,-355.4999819941,73.3259350228274));
#250=CARTESIAN_POINT('',(-38.3013105271065,-350.4999819941,73.3259350228274));
#251=CARTESIAN_POINT('Origin',(-32.8848678855393,-350.4999819941,74.2809999999956));
#252=CARTESIAN_POINT('',(-27.4684252439721,-355.4999819941,75.2360649771637));
#253=CARTESIAN_POINT('Origin',(-32.8848678855393,-355.4999819941,74.2809999999956));
#254=CARTESIAN_POINT('',(-27.4684252439721,-350.4999819941,75.2360649771637));
#255=CARTESIAN_POINT('Origin',(-23.3757825122569,-350.4999819941,52.0255346585965));
#256=CARTESIAN_POINT('',(-23.3757825122569,-355.4999819941,52.0255346585965));
#257=CARTESIAN_POINT('',(-23.3757825122569,-355.4999819941,52.0255346585965));
#258=CARTESIAN_POINT('',(-23.3757825122569,-350.4999819941,52.0255346585965));
#259=CARTESIAN_POINT('Origin',(-28.7922251538241,-350.4999819941,51.0704696814284));
#260=CARTESIAN_POINT('Origin',(-28.792225153824,-355.4999819941,51.0704696814284));
#261=CARTESIAN_POINT('Origin',(-30.8385465196817,-355.4999819941,62.675734840712));
#262=UNCERTAINTY_MEASURE_WITH_UNIT(LENGTH_MEASURE(0.01),#266,
'DISTANCE_ACCURACY_VALUE',
'Maximum model space distance between geometric entities at asserted c
onnectivities');
#263=UNCERTAINTY_MEASURE_WITH_UNIT(LENGTH_MEASURE(0.01),#266,
'DISTANCE_ACCURACY_VALUE',
'Maximum model space distance between geometric entities at asserted c
onnectivities');
#264=(
GEOMETRIC_REPRESENTATION_CONTEXT(3)
GLOBAL_UNCERTAINTY_ASSIGNED_CONTEXT((#262))
GLOBAL_UNIT_ASSIGNED_CONTEXT((#266,#268,#269))
REPRESENTATION_CONTEXT('','3D')
);
#265=(
GEOMETRIC_REPRESENTATION_CONTEXT(3)
GLOBAL_UNCERTAINTY_ASSIGNED_CONTEXT((#263))
GLOBAL_UNIT_ASSIGNED_CONTEXT((#266,#268,#269))
REPRESENTATION_CONTEXT('','3D')
);
#266=(
LENGTH_UNIT()
NAMED_UNIT(*)
SI_UNIT(.MILLI.,.METRE.)
);
#267=(
LENGTH_UNIT()
NAMED_UNIT(*)
SI_UNIT($,.METRE.)
);
#268=(
NAMED_UNIT(*)
PLANE_ANGLE_UNIT()
SI_UNIT($,.RADIAN.)
);
#269=(
NAMED_UNIT(*)
SI_UNIT($,.STERADIAN.)
SOLID_ANGLE_UNIT()
);
#270=SHAPE_DEFINITION_REPRESENTATION(#271,#272);
#271=PRODUCT_DEFINITION_SHAPE('',$,#274);
#272=SHAPE_REPRESENTATION('',(#162),#264);
#273=PRODUCT_DEFINITION_CONTEXT('part definition',#278,'design');
#274=PRODUCT_DEFINITION('lnik2 II','lnik2 II',#275,#273);
#275=PRODUCT_DEFINITION_FORMATION('',$,#280);
#276=PRODUCT_RELATED_PRODUCT_CATEGORY('lnik2 II','lnik2 II',(#280));
#277=APPLICATION_PROTOCOL_DEFINITION('international standard',
'automotive_design',2009,#278);
#278=APPLICATION_CONTEXT(
'Core Data for Automotive Mechanical Design Process');
#279=PRODUCT_CONTEXT('part definition',#278,'mechanical');
#280=PRODUCT('lnik2 II','lnik2 II',$,(#279));
#281=PRESENTATION_STYLE_ASSIGNMENT((#282));
#282=SURFACE_STYLE_USAGE(.BOTH.,#283);
#283=SURFACE_SIDE_STYLE('',(#284));
#284=SURFACE_STYLE_FILL_AREA(#285);
#285=FILL_AREA_STYLE('Stal \X2\2014\X0\ satynowa',(#286));
#286=FILL_AREA_STYLE_COLOUR('Stal \X2\2014\X0\ satynowa',#287);
#287=COLOUR_RGB('Stal \X2\2014\X0\ satynowa',0.627450980392157,0.627450980392157,
0.627450980392157);
ENDSEC;
END-ISO-10303-21;
