ISO-10303-21;
HEADER;
/* Generated by software containing ST-Developer
 * from STEP Tools, Inc. (www.steptools.com) 
 */

FILE_DESCRIPTION(
/* description */ (''),
/* implementation_level */ '2;1');

FILE_NAME(
/* name */ 'szczeka I.step',
/* time_stamp */ '2026-03-04T15:16:34+01:00',
/* author */ (''),
/* organization */ (''),
/* preprocessor_version */ 'ST-DEVELOPER v20.1',
/* originating_system */ 'Autodesk Translation Framework v14.24.0.0',
/* authorisation */ '');

FILE_SCHEMA (('AUTOMOTIVE_DESIGN { 1 0 10303 214 3 1 1 }'));
ENDSEC;

DATA;
#10=MECHANICAL_DESIGN_GEOMETRIC_PRESENTATION_REPRESENTATION('',(#13),#739);
#11=SHAPE_REPRESENTATION_RELATIONSHIP('SRR','None',#746,#12);
#12=ADVANCED_BREP_SHAPE_REPRESENTATION('',(#14),#738);
#13=STYLED_ITEM('',(#755),#14);
#14=MANIFOLD_SOLID_BREP('Bry\X2\0142\X0\a1',#447);
#15=CYLINDRICAL_SURFACE('',#474,2.);
#16=CYLINDRICAL_SURFACE('',#481,6.09999999999996);
#17=CYLINDRICAL_SURFACE('',#483,2.1);
#18=CYLINDRICAL_SURFACE('',#484,2.1);
#19=CYLINDRICAL_SURFACE('',#488,2.1);
#20=CYLINDRICAL_SURFACE('',#489,2.1);
#21=FACE_BOUND('',#65,.T.);
#22=FACE_BOUND('',#66,.T.);
#23=FACE_BOUND('',#69,.T.);
#24=FACE_BOUND('',#70,.T.);
#25=FACE_BOUND('',#77,.T.);
#26=FACE_BOUND('',#78,.T.);
#27=FACE_BOUND('',#84,.T.);
#28=FACE_BOUND('',#85,.T.);
#29=CIRCLE('',#463,2.1);
#30=CIRCLE('',#464,2.1);
#31=CIRCLE('',#467,6.09999999999996);
#32=CIRCLE('',#468,2.);
#33=CIRCLE('',#469,2.1);
#34=CIRCLE('',#470,2.1);
#35=CIRCLE('',#475,2.);
#36=CIRCLE('',#478,6.09999999999996);
#37=CIRCLE('',#479,2.1);
#38=CIRCLE('',#480,2.1);
#39=CIRCLE('',#486,2.1);
#40=CIRCLE('',#487,2.1);
#41=FACE_OUTER_BOUND('',#63,.T.);
#42=FACE_OUTER_BOUND('',#64,.T.);
#43=FACE_OUTER_BOUND('',#67,.T.);
#44=FACE_OUTER_BOUND('',#68,.T.);
#45=FACE_OUTER_BOUND('',#71,.T.);
#46=FACE_OUTER_BOUND('',#72,.T.);
#47=FACE_OUTER_BOUND('',#73,.T.);
#48=FACE_OUTER_BOUND('',#74,.T.);
#49=FACE_OUTER_BOUND('',#75,.T.);
#50=FACE_OUTER_BOUND('',#76,.T.);
#51=FACE_OUTER_BOUND('',#79,.T.);
#52=FACE_OUTER_BOUND('',#80,.T.);
#53=FACE_OUTER_BOUND('',#81,.T.);
#54=FACE_OUTER_BOUND('',#82,.T.);
#55=FACE_OUTER_BOUND('',#83,.T.);
#56=FACE_OUTER_BOUND('',#86,.T.);
#57=FACE_OUTER_BOUND('',#87,.T.);
#58=FACE_OUTER_BOUND('',#88,.T.);
#59=FACE_OUTER_BOUND('',#89,.T.);
#60=FACE_OUTER_BOUND('',#90,.T.);
#61=FACE_OUTER_BOUND('',#91,.T.);
#62=FACE_OUTER_BOUND('',#92,.T.);
#63=EDGE_LOOP('',(#289,#290,#291,#292,#293,#294,#295,#296));
#64=EDGE_LOOP('',(#297,#298,#299,#300,#301,#302,#303,#304,#305,#306));
#65=EDGE_LOOP('',(#307));
#66=EDGE_LOOP('',(#308));
#67=EDGE_LOOP('',(#309,#310,#311,#312));
#68=EDGE_LOOP('',(#313,#314,#315,#316,#317,#318));
#69=EDGE_LOOP('',(#319));
#70=EDGE_LOOP('',(#320));
#71=EDGE_LOOP('',(#321,#322,#323,#324));
#72=EDGE_LOOP('',(#325,#326,#327,#328));
#73=EDGE_LOOP('',(#329,#330,#331,#332));
#74=EDGE_LOOP('',(#333,#334,#335,#336));
#75=EDGE_LOOP('',(#337,#338,#339,#340,#341,#342,#343,#344));
#76=EDGE_LOOP('',(#345,#346,#347,#348,#349,#350));
#77=EDGE_LOOP('',(#351));
#78=EDGE_LOOP('',(#352));
#79=EDGE_LOOP('',(#353,#354,#355,#356));
#80=EDGE_LOOP('',(#357,#358,#359,#360));
#81=EDGE_LOOP('',(#361,#362,#363,#364));
#82=EDGE_LOOP('',(#365,#366,#367,#368));
#83=EDGE_LOOP('',(#369,#370,#371,#372,#373,#374,#375,#376,#377,#378));
#84=EDGE_LOOP('',(#379));
#85=EDGE_LOOP('',(#380));
#86=EDGE_LOOP('',(#381,#382,#383,#384));
#87=EDGE_LOOP('',(#385,#386,#387,#388));
#88=EDGE_LOOP('',(#389,#390,#391,#392));
#89=EDGE_LOOP('',(#393,#394,#395,#396));
#90=EDGE_LOOP('',(#397,#398,#399,#400));
#91=EDGE_LOOP('',(#401,#402,#403,#404));
#92=EDGE_LOOP('',(#405,#406,#407,#408));
#93=LINE('',#617,#141);
#94=LINE('',#619,#142);
#95=LINE('',#621,#143);
#96=LINE('',#623,#144);
#97=LINE('',#625,#145);
#98=LINE('',#627,#146);
#99=LINE('',#629,#147);
#100=LINE('',#630,#148);
#101=LINE('',#633,#149);
#102=LINE('',#635,#150);
#103=LINE('',#637,#151);
#104=LINE('',#639,#152);
#105=LINE('',#641,#153);
#106=LINE('',#643,#154);
#107=LINE('',#645,#155);
#108=LINE('',#647,#156);
#109=LINE('',#648,#157);
#110=LINE('',#655,#158);
#111=LINE('',#656,#159);
#112=LINE('',#659,#160);
#113=LINE('',#664,#161);
#114=LINE('',#671,#162);
#115=LINE('',#672,#163);
#116=LINE('',#675,#164);
#117=LINE('',#677,#165);
#118=LINE('',#678,#166);
#119=LINE('',#681,#167);
#120=LINE('',#682,#168);
#121=LINE('',#687,#169);
#122=LINE('',#688,#170);
#123=LINE('',#691,#171);
#124=LINE('',#693,#172);
#125=LINE('',#695,#173);
#126=LINE('',#696,#174);
#127=LINE('',#698,#175);
#128=LINE('',#706,#176);
#129=LINE('',#708,#177);
#130=LINE('',#710,#178);
#131=LINE('',#713,#179);
#132=LINE('',#715,#180);
#133=LINE('',#716,#181);
#134=LINE('',#718,#182);
#135=LINE('',#719,#183);
#136=LINE('',#725,#184);
#137=LINE('',#727,#185);
#138=LINE('',#729,#186);
#139=LINE('',#731,#187);
#140=LINE('',#734,#188);
#141=VECTOR('',#499,10.);
#142=VECTOR('',#500,10.);
#143=VECTOR('',#501,10.);
#144=VECTOR('',#502,10.);
#145=VECTOR('',#503,10.);
#146=VECTOR('',#504,10.);
#147=VECTOR('',#505,10.);
#148=VECTOR('',#506,10.);
#149=VECTOR('',#509,10.);
#150=VECTOR('',#510,10.);
#151=VECTOR('',#511,10.);
#152=VECTOR('',#512,10.);
#153=VECTOR('',#513,10.);
#154=VECTOR('',#514,10.);
#155=VECTOR('',#515,10.);
#156=VECTOR('',#516,10.);
#157=VECTOR('',#517,10.);
#158=VECTOR('',#524,10.);
#159=VECTOR('',#525,10.);
#160=VECTOR('',#528,10.);
#161=VECTOR('',#533,10.);
#162=VECTOR('',#540,10.);
#163=VECTOR('',#541,10.);
#164=VECTOR('',#544,10.);
#165=VECTOR('',#545,10.);
#166=VECTOR('',#546,10.);
#167=VECTOR('',#549,10.);
#168=VECTOR('',#550,10.);
#169=VECTOR('',#555,10.);
#170=VECTOR('',#556,10.);
#171=VECTOR('',#559,10.);
#172=VECTOR('',#560,10.);
#173=VECTOR('',#561,10.);
#174=VECTOR('',#562,10.);
#175=VECTOR('',#565,10.);
#176=VECTOR('',#576,10.);
#177=VECTOR('',#579,2.1);
#178=VECTOR('',#582,2.1);
#179=VECTOR('',#585,10.);
#180=VECTOR('',#586,10.);
#181=VECTOR('',#587,10.);
#182=VECTOR('',#588,10.);
#183=VECTOR('',#589,10.);
#184=VECTOR('',#596,2.1);
#185=VECTOR('',#599,2.1);
#186=VECTOR('',#602,10.);
#187=VECTOR('',#605,10.);
#188=VECTOR('',#610,10.);
#189=VERTEX_POINT('',#615);
#190=VERTEX_POINT('',#616);
#191=VERTEX_POINT('',#618);
#192=VERTEX_POINT('',#620);
#193=VERTEX_POINT('',#622);
#194=VERTEX_POINT('',#624);
#195=VERTEX_POINT('',#626);
#196=VERTEX_POINT('',#628);
#197=VERTEX_POINT('',#632);
#198=VERTEX_POINT('',#634);
#199=VERTEX_POINT('',#636);
#200=VERTEX_POINT('',#638);
#201=VERTEX_POINT('',#640);
#202=VERTEX_POINT('',#642);
#203=VERTEX_POINT('',#644);
#204=VERTEX_POINT('',#646);
#205=VERTEX_POINT('',#649);
#206=VERTEX_POINT('',#651);
#207=VERTEX_POINT('',#654);
#208=VERTEX_POINT('',#658);
#209=VERTEX_POINT('',#660);
#210=VERTEX_POINT('',#662);
#211=VERTEX_POINT('',#665);
#212=VERTEX_POINT('',#667);
#213=VERTEX_POINT('',#670);
#214=VERTEX_POINT('',#674);
#215=VERTEX_POINT('',#676);
#216=VERTEX_POINT('',#680);
#217=VERTEX_POINT('',#684);
#218=VERTEX_POINT('',#685);
#219=VERTEX_POINT('',#690);
#220=VERTEX_POINT('',#692);
#221=VERTEX_POINT('',#694);
#222=VERTEX_POINT('',#700);
#223=VERTEX_POINT('',#702);
#224=VERTEX_POINT('',#712);
#225=VERTEX_POINT('',#714);
#226=VERTEX_POINT('',#717);
#227=VERTEX_POINT('',#720);
#228=VERTEX_POINT('',#722);
#229=EDGE_CURVE('',#189,#190,#93,.T.);
#230=EDGE_CURVE('',#191,#189,#94,.T.);
#231=EDGE_CURVE('',#192,#191,#95,.T.);
#232=EDGE_CURVE('',#193,#192,#96,.T.);
#233=EDGE_CURVE('',#194,#193,#97,.T.);
#234=EDGE_CURVE('',#195,#194,#98,.T.);
#235=EDGE_CURVE('',#196,#195,#99,.T.);
#236=EDGE_CURVE('',#190,#196,#100,.T.);
#237=EDGE_CURVE('',#190,#197,#101,.T.);
#238=EDGE_CURVE('',#197,#198,#102,.T.);
#239=EDGE_CURVE('',#198,#199,#103,.T.);
#240=EDGE_CURVE('',#199,#200,#104,.T.);
#241=EDGE_CURVE('',#200,#201,#105,.T.);
#242=EDGE_CURVE('',#201,#202,#106,.T.);
#243=EDGE_CURVE('',#202,#203,#107,.T.);
#244=EDGE_CURVE('',#203,#204,#108,.T.);
#245=EDGE_CURVE('',#204,#189,#109,.T.);
#246=EDGE_CURVE('',#205,#205,#29,.T.);
#247=EDGE_CURVE('',#206,#206,#30,.T.);
#248=EDGE_CURVE('',#196,#207,#110,.T.);
#249=EDGE_CURVE('',#207,#197,#111,.T.);
#250=EDGE_CURVE('',#208,#195,#112,.T.);
#251=EDGE_CURVE('',#209,#208,#31,.T.);
#252=EDGE_CURVE('',#210,#209,#32,.F.);
#253=EDGE_CURVE('',#207,#210,#113,.T.);
#254=EDGE_CURVE('',#211,#211,#33,.T.);
#255=EDGE_CURVE('',#212,#212,#34,.T.);
#256=EDGE_CURVE('',#194,#213,#114,.T.);
#257=EDGE_CURVE('',#213,#208,#115,.T.);
#258=EDGE_CURVE('',#201,#214,#116,.T.);
#259=EDGE_CURVE('',#215,#200,#117,.T.);
#260=EDGE_CURVE('',#214,#215,#118,.T.);
#261=EDGE_CURVE('',#216,#214,#119,.T.);
#262=EDGE_CURVE('',#216,#202,#120,.T.);
#263=EDGE_CURVE('',#217,#218,#35,.F.);
#264=EDGE_CURVE('',#218,#210,#121,.T.);
#265=EDGE_CURVE('',#209,#217,#122,.T.);
#266=EDGE_CURVE('',#218,#219,#123,.T.);
#267=EDGE_CURVE('',#220,#219,#124,.T.);
#268=EDGE_CURVE('',#221,#220,#125,.T.);
#269=EDGE_CURVE('',#221,#198,#126,.T.);
#270=EDGE_CURVE('',#219,#193,#127,.T.);
#271=EDGE_CURVE('',#213,#217,#36,.T.);
#272=EDGE_CURVE('',#222,#222,#37,.T.);
#273=EDGE_CURVE('',#223,#223,#38,.T.);
#274=EDGE_CURVE('',#220,#192,#128,.T.);
#275=EDGE_CURVE('',#206,#211,#129,.T.);
#276=EDGE_CURVE('',#205,#212,#130,.T.);
#277=EDGE_CURVE('',#191,#224,#131,.T.);
#278=EDGE_CURVE('',#224,#225,#132,.T.);
#279=EDGE_CURVE('',#225,#216,#133,.T.);
#280=EDGE_CURVE('',#215,#226,#134,.T.);
#281=EDGE_CURVE('',#226,#221,#135,.T.);
#282=EDGE_CURVE('',#227,#227,#39,.T.);
#283=EDGE_CURVE('',#228,#228,#40,.T.);
#284=EDGE_CURVE('',#223,#228,#136,.T.);
#285=EDGE_CURVE('',#222,#227,#137,.T.);
#286=EDGE_CURVE('',#224,#204,#138,.T.);
#287=EDGE_CURVE('',#225,#203,#139,.T.);
#288=EDGE_CURVE('',#226,#199,#140,.T.);
#289=ORIENTED_EDGE('',*,*,#229,.F.);
#290=ORIENTED_EDGE('',*,*,#230,.F.);
#291=ORIENTED_EDGE('',*,*,#231,.F.);
#292=ORIENTED_EDGE('',*,*,#232,.F.);
#293=ORIENTED_EDGE('',*,*,#233,.F.);
#294=ORIENTED_EDGE('',*,*,#234,.F.);
#295=ORIENTED_EDGE('',*,*,#235,.F.);
#296=ORIENTED_EDGE('',*,*,#236,.F.);
#297=ORIENTED_EDGE('',*,*,#229,.T.);
#298=ORIENTED_EDGE('',*,*,#237,.T.);
#299=ORIENTED_EDGE('',*,*,#238,.T.);
#300=ORIENTED_EDGE('',*,*,#239,.T.);
#301=ORIENTED_EDGE('',*,*,#240,.T.);
#302=ORIENTED_EDGE('',*,*,#241,.T.);
#303=ORIENTED_EDGE('',*,*,#242,.T.);
#304=ORIENTED_EDGE('',*,*,#243,.T.);
#305=ORIENTED_EDGE('',*,*,#244,.T.);
#306=ORIENTED_EDGE('',*,*,#245,.T.);
#307=ORIENTED_EDGE('',*,*,#246,.T.);
#308=ORIENTED_EDGE('',*,*,#247,.T.);
#309=ORIENTED_EDGE('',*,*,#236,.T.);
#310=ORIENTED_EDGE('',*,*,#248,.T.);
#311=ORIENTED_EDGE('',*,*,#249,.T.);
#312=ORIENTED_EDGE('',*,*,#237,.F.);
#313=ORIENTED_EDGE('',*,*,#235,.T.);
#314=ORIENTED_EDGE('',*,*,#250,.F.);
#315=ORIENTED_EDGE('',*,*,#251,.F.);
#316=ORIENTED_EDGE('',*,*,#252,.F.);
#317=ORIENTED_EDGE('',*,*,#253,.F.);
#318=ORIENTED_EDGE('',*,*,#248,.F.);
#319=ORIENTED_EDGE('',*,*,#254,.F.);
#320=ORIENTED_EDGE('',*,*,#255,.F.);
#321=ORIENTED_EDGE('',*,*,#234,.T.);
#322=ORIENTED_EDGE('',*,*,#256,.T.);
#323=ORIENTED_EDGE('',*,*,#257,.T.);
#324=ORIENTED_EDGE('',*,*,#250,.T.);
#325=ORIENTED_EDGE('',*,*,#258,.F.);
#326=ORIENTED_EDGE('',*,*,#241,.F.);
#327=ORIENTED_EDGE('',*,*,#259,.F.);
#328=ORIENTED_EDGE('',*,*,#260,.F.);
#329=ORIENTED_EDGE('',*,*,#258,.T.);
#330=ORIENTED_EDGE('',*,*,#261,.F.);
#331=ORIENTED_EDGE('',*,*,#262,.T.);
#332=ORIENTED_EDGE('',*,*,#242,.F.);
#333=ORIENTED_EDGE('',*,*,#263,.T.);
#334=ORIENTED_EDGE('',*,*,#264,.T.);
#335=ORIENTED_EDGE('',*,*,#252,.T.);
#336=ORIENTED_EDGE('',*,*,#265,.T.);
#337=ORIENTED_EDGE('',*,*,#253,.T.);
#338=ORIENTED_EDGE('',*,*,#264,.F.);
#339=ORIENTED_EDGE('',*,*,#266,.T.);
#340=ORIENTED_EDGE('',*,*,#267,.F.);
#341=ORIENTED_EDGE('',*,*,#268,.F.);
#342=ORIENTED_EDGE('',*,*,#269,.T.);
#343=ORIENTED_EDGE('',*,*,#238,.F.);
#344=ORIENTED_EDGE('',*,*,#249,.F.);
#345=ORIENTED_EDGE('',*,*,#233,.T.);
#346=ORIENTED_EDGE('',*,*,#270,.F.);
#347=ORIENTED_EDGE('',*,*,#266,.F.);
#348=ORIENTED_EDGE('',*,*,#263,.F.);
#349=ORIENTED_EDGE('',*,*,#271,.F.);
#350=ORIENTED_EDGE('',*,*,#256,.F.);
#351=ORIENTED_EDGE('',*,*,#272,.F.);
#352=ORIENTED_EDGE('',*,*,#273,.F.);
#353=ORIENTED_EDGE('',*,*,#265,.F.);
#354=ORIENTED_EDGE('',*,*,#251,.T.);
#355=ORIENTED_EDGE('',*,*,#257,.F.);
#356=ORIENTED_EDGE('',*,*,#271,.T.);
#357=ORIENTED_EDGE('',*,*,#232,.T.);
#358=ORIENTED_EDGE('',*,*,#274,.F.);
#359=ORIENTED_EDGE('',*,*,#267,.T.);
#360=ORIENTED_EDGE('',*,*,#270,.T.);
#361=ORIENTED_EDGE('',*,*,#247,.F.);
#362=ORIENTED_EDGE('',*,*,#275,.T.);
#363=ORIENTED_EDGE('',*,*,#254,.T.);
#364=ORIENTED_EDGE('',*,*,#275,.F.);
#365=ORIENTED_EDGE('',*,*,#246,.F.);
#366=ORIENTED_EDGE('',*,*,#276,.T.);
#367=ORIENTED_EDGE('',*,*,#255,.T.);
#368=ORIENTED_EDGE('',*,*,#276,.F.);
#369=ORIENTED_EDGE('',*,*,#231,.T.);
#370=ORIENTED_EDGE('',*,*,#277,.T.);
#371=ORIENTED_EDGE('',*,*,#278,.T.);
#372=ORIENTED_EDGE('',*,*,#279,.T.);
#373=ORIENTED_EDGE('',*,*,#261,.T.);
#374=ORIENTED_EDGE('',*,*,#260,.T.);
#375=ORIENTED_EDGE('',*,*,#280,.T.);
#376=ORIENTED_EDGE('',*,*,#281,.T.);
#377=ORIENTED_EDGE('',*,*,#268,.T.);
#378=ORIENTED_EDGE('',*,*,#274,.T.);
#379=ORIENTED_EDGE('',*,*,#282,.T.);
#380=ORIENTED_EDGE('',*,*,#283,.T.);
#381=ORIENTED_EDGE('',*,*,#273,.T.);
#382=ORIENTED_EDGE('',*,*,#284,.T.);
#383=ORIENTED_EDGE('',*,*,#283,.F.);
#384=ORIENTED_EDGE('',*,*,#284,.F.);
#385=ORIENTED_EDGE('',*,*,#272,.T.);
#386=ORIENTED_EDGE('',*,*,#285,.T.);
#387=ORIENTED_EDGE('',*,*,#282,.F.);
#388=ORIENTED_EDGE('',*,*,#285,.F.);
#389=ORIENTED_EDGE('',*,*,#230,.T.);
#390=ORIENTED_EDGE('',*,*,#245,.F.);
#391=ORIENTED_EDGE('',*,*,#286,.F.);
#392=ORIENTED_EDGE('',*,*,#277,.F.);
#393=ORIENTED_EDGE('',*,*,#286,.T.);
#394=ORIENTED_EDGE('',*,*,#244,.F.);
#395=ORIENTED_EDGE('',*,*,#287,.F.);
#396=ORIENTED_EDGE('',*,*,#278,.F.);
#397=ORIENTED_EDGE('',*,*,#287,.T.);
#398=ORIENTED_EDGE('',*,*,#243,.F.);
#399=ORIENTED_EDGE('',*,*,#262,.F.);
#400=ORIENTED_EDGE('',*,*,#279,.F.);
#401=ORIENTED_EDGE('',*,*,#259,.T.);
#402=ORIENTED_EDGE('',*,*,#240,.F.);
#403=ORIENTED_EDGE('',*,*,#288,.F.);
#404=ORIENTED_EDGE('',*,*,#280,.F.);
#405=ORIENTED_EDGE('',*,*,#288,.T.);
#406=ORIENTED_EDGE('',*,*,#239,.F.);
#407=ORIENTED_EDGE('',*,*,#269,.F.);
#408=ORIENTED_EDGE('',*,*,#281,.F.);
#409=PLANE('',#461);
#410=PLANE('',#462);
#411=PLANE('',#465);
#412=PLANE('',#466);
#413=PLANE('',#471);
#414=PLANE('',#472);
#415=PLANE('',#473);
#416=PLANE('',#476);
#417=PLANE('',#477);
#418=PLANE('',#482);
#419=PLANE('',#485);
#420=PLANE('',#490);
#421=PLANE('',#491);
#422=PLANE('',#492);
#423=PLANE('',#493);
#424=PLANE('',#494);
#425=ADVANCED_FACE('',(#41),#409,.F.);
#426=ADVANCED_FACE('',(#42,#21,#22),#410,.T.);
#427=ADVANCED_FACE('',(#43),#411,.T.);
#428=ADVANCED_FACE('',(#44,#23,#24),#412,.F.);
#429=ADVANCED_FACE('',(#45),#413,.F.);
#430=ADVANCED_FACE('',(#46),#414,.F.);
#431=ADVANCED_FACE('',(#47),#415,.T.);
#432=ADVANCED_FACE('',(#48),#15,.T.);
#433=ADVANCED_FACE('',(#49),#416,.T.);
#434=ADVANCED_FACE('',(#50,#25,#26),#417,.T.);
#435=ADVANCED_FACE('',(#51),#16,.F.);
#436=ADVANCED_FACE('',(#52),#418,.T.);
#437=ADVANCED_FACE('',(#53),#17,.F.);
#438=ADVANCED_FACE('',(#54),#18,.F.);
#439=ADVANCED_FACE('',(#55,#27,#28),#419,.F.);
#440=ADVANCED_FACE('',(#56),#19,.F.);
#441=ADVANCED_FACE('',(#57),#20,.F.);
#442=ADVANCED_FACE('',(#58),#420,.T.);
#443=ADVANCED_FACE('',(#59),#421,.T.);
#444=ADVANCED_FACE('',(#60),#422,.T.);
#445=ADVANCED_FACE('',(#61),#423,.T.);
#446=ADVANCED_FACE('',(#62),#424,.T.);
#447=CLOSED_SHELL('',(#425,#426,#427,#428,#429,#430,#431,#432,#433,#434,
#435,#436,#437,#438,#439,#440,#441,#442,#443,#444,#445,#446));
#448=DERIVED_UNIT_ELEMENT(#450,1.);
#449=DERIVED_UNIT_ELEMENT(#741,-3.);
#450=(
MASS_UNIT()
NAMED_UNIT(*)
SI_UNIT(.KILO.,.GRAM.)
);
#451=DERIVED_UNIT((#448,#449));
#452=MEASURE_REPRESENTATION_ITEM('density measure',
POSITIVE_RATIO_MEASURE(7850.),#451);
#453=PROPERTY_DEFINITION_REPRESENTATION(#458,#455);
#454=PROPERTY_DEFINITION_REPRESENTATION(#459,#456);
#455=REPRESENTATION('material name',(#457),#738);
#456=REPRESENTATION('density',(#452),#738);
#457=DESCRIPTIVE_REPRESENTATION_ITEM('Stal','Stal');
#458=PROPERTY_DEFINITION('material property','material name',#748);
#459=PROPERTY_DEFINITION('material property','density of part',#748);
#460=AXIS2_PLACEMENT_3D('',#613,#495,#496);
#461=AXIS2_PLACEMENT_3D('',#614,#497,#498);
#462=AXIS2_PLACEMENT_3D('',#631,#507,#508);
#463=AXIS2_PLACEMENT_3D('',#650,#518,#519);
#464=AXIS2_PLACEMENT_3D('',#652,#520,#521);
#465=AXIS2_PLACEMENT_3D('',#653,#522,#523);
#466=AXIS2_PLACEMENT_3D('',#657,#526,#527);
#467=AXIS2_PLACEMENT_3D('',#661,#529,#530);
#468=AXIS2_PLACEMENT_3D('',#663,#531,#532);
#469=AXIS2_PLACEMENT_3D('',#666,#534,#535);
#470=AXIS2_PLACEMENT_3D('',#668,#536,#537);
#471=AXIS2_PLACEMENT_3D('',#669,#538,#539);
#472=AXIS2_PLACEMENT_3D('',#673,#542,#543);
#473=AXIS2_PLACEMENT_3D('',#679,#547,#548);
#474=AXIS2_PLACEMENT_3D('',#683,#551,#552);
#475=AXIS2_PLACEMENT_3D('',#686,#553,#554);
#476=AXIS2_PLACEMENT_3D('',#689,#557,#558);
#477=AXIS2_PLACEMENT_3D('',#697,#563,#564);
#478=AXIS2_PLACEMENT_3D('',#699,#566,#567);
#479=AXIS2_PLACEMENT_3D('',#701,#568,#569);
#480=AXIS2_PLACEMENT_3D('',#703,#570,#571);
#481=AXIS2_PLACEMENT_3D('',#704,#572,#573);
#482=AXIS2_PLACEMENT_3D('',#705,#574,#575);
#483=AXIS2_PLACEMENT_3D('',#707,#577,#578);
#484=AXIS2_PLACEMENT_3D('',#709,#580,#581);
#485=AXIS2_PLACEMENT_3D('',#711,#583,#584);
#486=AXIS2_PLACEMENT_3D('',#721,#590,#591);
#487=AXIS2_PLACEMENT_3D('',#723,#592,#593);
#488=AXIS2_PLACEMENT_3D('',#724,#594,#595);
#489=AXIS2_PLACEMENT_3D('',#726,#597,#598);
#490=AXIS2_PLACEMENT_3D('',#728,#600,#601);
#491=AXIS2_PLACEMENT_3D('',#730,#603,#604);
#492=AXIS2_PLACEMENT_3D('',#732,#606,#607);
#493=AXIS2_PLACEMENT_3D('',#733,#608,#609);
#494=AXIS2_PLACEMENT_3D('',#735,#611,#612);
#495=DIRECTION('axis',(0.,0.,1.));
#496=DIRECTION('refdir',(1.,0.,0.));
#497=DIRECTION('center_axis',(1.,-2.03032035628326E-15,2.58592319400211E-17));
#498=DIRECTION('ref_axis',(2.58592319400233E-17,1.103327229441E-15,-1.));
#499=DIRECTION('',(-2.58592319400216E-17,-2.22044604925031E-16,1.));
#500=DIRECTION('',(2.03032035628326E-15,1.,-4.91690022030865E-15));
#501=DIRECTION('',(2.58592319400216E-17,2.22044604925031E-16,-1.));
#502=DIRECTION('',(-2.03032035628326E-15,-1.,-2.22044604924387E-16));
#503=DIRECTION('',(-2.58592319400216E-17,-2.22044604925031E-16,1.));
#504=DIRECTION('',(-2.03032035628326E-15,-1.,-2.22044604925331E-16));
#505=DIRECTION('',(2.58592319400216E-17,2.22044604925031E-16,-1.));
#506=DIRECTION('',(-2.03032035628326E-15,-1.,-2.22044604924387E-16));
#507=DIRECTION('center_axis',(-3.10862446895044E-15,1.,2.22044604925031E-16));
#508=DIRECTION('ref_axis',(-1.,-3.10862446895044E-15,0.));
#509=DIRECTION('',(1.,3.10862446895046E-15,-1.25316423904565E-13));
#510=DIRECTION('',(-3.08086889333481E-15,2.22044604925022E-16,-1.));
#511=DIRECTION('',(-0.707106781186546,-2.0411201962889E-15,-0.707106781186549));
#512=DIRECTION('',(-1.,-3.10862446895044E-15,1.16573417585641E-15));
#513=DIRECTION('',(0.,-2.22044604925031E-16,1.));
#514=DIRECTION('',(1.,3.10862446895044E-15,0.));
#515=DIRECTION('',(0.707106844406826,2.04112040685473E-15,0.707106717966263));
#516=DIRECTION('',(1.22124532708767E-15,-2.22044604925028E-16,1.));
#517=DIRECTION('',(-0.707106781186548,-2.35513868802566E-15,0.707106781186547));
#518=DIRECTION('center_axis',(3.10862446895044E-15,-1.,-2.22044604925031E-16));
#519=DIRECTION('ref_axis',(-1.,-3.10862446895044E-15,3.30423519233678E-17));
#520=DIRECTION('center_axis',(3.10862446895044E-15,-1.,-2.22044604925031E-16));
#521=DIRECTION('ref_axis',(-1.,-3.10862446895044E-15,3.30423519233678E-17));
#522=DIRECTION('center_axis',(1.25316423904565E-13,-2.22044604924642E-16,
1.));
#523=DIRECTION('ref_axis',(1.,3.10862446895046E-15,-1.25316423904565E-13));
#524=DIRECTION('',(1.,3.10862446895046E-15,-1.25316423904565E-13));
#525=DIRECTION('',(-3.10862446895044E-15,1.,2.22044604925031E-16));
#526=DIRECTION('center_axis',(-3.10862446895044E-15,1.,2.22044604925031E-16));
#527=DIRECTION('ref_axis',(-1.,-3.10862446895044E-15,0.));
#528=DIRECTION('',(-1.,-3.10862446895042E-15,-5.82034420659738E-14));
#529=DIRECTION('center_axis',(-3.10862446895044E-15,1.,2.22044604925031E-16));
#530=DIRECTION('ref_axis',(1.67443472566418E-14,-2.2204460492498E-16,1.));
#531=DIRECTION('center_axis',(-3.10862446895044E-15,1.,2.22044604925031E-16));
#532=DIRECTION('ref_axis',(0.496903994999949,1.35199638383689E-15,0.867805519545186));
#533=DIRECTION('',(-3.08086889333481E-15,2.22044604925022E-16,-1.));
#534=DIRECTION('center_axis',(3.10862446895044E-15,-1.,-2.22044604925031E-16));
#535=DIRECTION('ref_axis',(-1.,-3.10862446895044E-15,3.30423519233678E-17));
#536=DIRECTION('center_axis',(3.10862446895044E-15,-1.,-2.22044604925031E-16));
#537=DIRECTION('ref_axis',(-1.,-3.10862446895044E-15,3.30423519233678E-17));
#538=DIRECTION('center_axis',(5.82034420659738E-14,2.22044604925213E-16,
-1.));
#539=DIRECTION('ref_axis',(-1.,-3.10862446895042E-15,-5.82034420659738E-14));
#540=DIRECTION('',(1.,3.10862446895042E-15,5.82034420659738E-14));
#541=DIRECTION('',(-3.10862446895044E-15,1.,2.22044604925031E-16));
#542=DIRECTION('center_axis',(1.,0.,0.));
#543=DIRECTION('ref_axis',(0.,0.,-1.));
#544=DIRECTION('',(0.,-1.,-2.22044604925031E-16));
#545=DIRECTION('',(0.,1.,2.22044604925028E-16));
#546=DIRECTION('',(0.,2.22044604925031E-16,-1.));
#547=DIRECTION('center_axis',(0.,-2.22044604925031E-16,1.));
#548=DIRECTION('ref_axis',(1.,3.10862446895044E-15,0.));
#549=DIRECTION('',(-1.,-3.10862446895044E-15,0.));
#550=DIRECTION('',(-3.10862446895044E-15,1.,2.22044604925031E-16));
#551=DIRECTION('center_axis',(-3.10862446895044E-15,1.,2.22044604925031E-16));
#552=DIRECTION('ref_axis',(0.496903994999949,1.35199638383689E-15,0.867805519545186));
#553=DIRECTION('center_axis',(3.10862446895044E-15,-1.,-2.22044604925031E-16));
#554=DIRECTION('ref_axis',(0.496903994999949,1.35199638383689E-15,0.867805519545186));
#555=DIRECTION('',(-3.10862446895044E-15,1.,2.22044604925031E-16));
#556=DIRECTION('',(3.10862446895044E-15,-1.,-2.22044604925031E-16));
#557=DIRECTION('center_axis',(1.,3.10862446895044E-15,-3.08086889333481E-15));
#558=DIRECTION('ref_axis',(-3.08086889333481E-15,2.22044604925022E-16,-1.));
#559=DIRECTION('',(3.08086889333481E-15,-2.22044604925022E-16,1.));
#560=DIRECTION('',(-3.10862446895044E-15,1.,2.22044604925031E-16));
#561=DIRECTION('',(3.08086889333481E-15,-2.22044604925022E-16,1.));
#562=DIRECTION('',(-3.10862446895044E-15,1.,2.22044604925031E-16));
#563=DIRECTION('center_axis',(-3.10862446895044E-15,1.,2.22044604925031E-16));
#564=DIRECTION('ref_axis',(-1.,-3.10862446895044E-15,0.));
#565=DIRECTION('',(-1.,-3.10862446895046E-15,1.25316423904565E-13));
#566=DIRECTION('center_axis',(3.10862446895044E-15,-1.,-2.22044604925031E-16));
#567=DIRECTION('ref_axis',(1.67443472566418E-14,-2.2204460492498E-16,1.));
#568=DIRECTION('center_axis',(-3.10862446895044E-15,1.,2.22044604925031E-16));
#569=DIRECTION('ref_axis',(-1.,-3.10862446895044E-15,3.30423519233678E-17));
#570=DIRECTION('center_axis',(-3.10862446895044E-15,1.,2.22044604925031E-16));
#571=DIRECTION('ref_axis',(-1.,-3.10862446895044E-15,3.30423519233678E-17));
#572=DIRECTION('center_axis',(-3.10862446895044E-15,1.,2.22044604925031E-16));
#573=DIRECTION('ref_axis',(1.67443472566418E-14,-2.2204460492498E-16,1.));
#574=DIRECTION('center_axis',(1.25316423904565E-13,-2.22044604924642E-16,
1.));
#575=DIRECTION('ref_axis',(1.,3.10862446895046E-15,-1.25316423904565E-13));
#576=DIRECTION('',(-1.,-3.10862446895046E-15,1.25316423904565E-13));
#577=DIRECTION('center_axis',(-3.10862446895044E-15,1.,2.22044604925031E-16));
#578=DIRECTION('ref_axis',(-1.,-3.10862446895044E-15,3.30423519233678E-17));
#579=DIRECTION('',(3.10862446895044E-15,-1.,-2.22044604925031E-16));
#580=DIRECTION('center_axis',(-3.10862446895044E-15,1.,2.22044604925031E-16));
#581=DIRECTION('ref_axis',(-1.,-3.10862446895044E-15,3.30423519233678E-17));
#582=DIRECTION('',(3.10862446895044E-15,-1.,-2.22044604925031E-16));
#583=DIRECTION('center_axis',(-3.10862446895044E-15,1.,2.22044604925031E-16));
#584=DIRECTION('ref_axis',(-1.,-3.10862446895044E-15,0.));
#585=DIRECTION('',(0.707106781186548,2.35513868802566E-15,-0.707106781186547));
#586=DIRECTION('',(-1.22124532708767E-15,2.22044604925028E-16,-1.));
#587=DIRECTION('',(-0.707106844406826,-2.04112040685473E-15,-0.707106717966263));
#588=DIRECTION('',(1.,3.10862446895044E-15,-1.16573417585641E-15));
#589=DIRECTION('',(0.707106781186546,2.0411201962889E-15,0.707106781186549));
#590=DIRECTION('center_axis',(-3.10862446895044E-15,1.,2.22044604925031E-16));
#591=DIRECTION('ref_axis',(-1.,-3.10862446895044E-15,3.30423519233678E-17));
#592=DIRECTION('center_axis',(-3.10862446895044E-15,1.,2.22044604925031E-16));
#593=DIRECTION('ref_axis',(-1.,-3.10862446895044E-15,3.30423519233678E-17));
#594=DIRECTION('center_axis',(-3.10862446895044E-15,1.,2.22044604925031E-16));
#595=DIRECTION('ref_axis',(-1.,-3.10862446895044E-15,3.30423519233678E-17));
#596=DIRECTION('',(3.10862446895044E-15,-1.,-2.22044604925031E-16));
#597=DIRECTION('center_axis',(-3.10862446895044E-15,1.,2.22044604925031E-16));
#598=DIRECTION('ref_axis',(-1.,-3.10862446895044E-15,3.30423519233678E-17));
#599=DIRECTION('',(3.10862446895044E-15,-1.,-2.22044604925031E-16));
#600=DIRECTION('center_axis',(-0.707106781186547,-2.0411201962889E-15,-0.707106781186548));
#601=DIRECTION('ref_axis',(-0.707106781186548,-2.35513868802566E-15,0.707106781186547));
#602=DIRECTION('',(-3.10862446895044E-15,1.,2.22044604925031E-16));
#603=DIRECTION('center_axis',(-1.,-3.10862446895044E-15,1.22124532708767E-15));
#604=DIRECTION('ref_axis',(1.22124532708767E-15,-2.22044604925028E-16,1.));
#605=DIRECTION('',(-3.10862446895044E-15,1.,2.22044604925031E-16));
#606=DIRECTION('center_axis',(-0.707106717966263,-2.35513850553526E-15,
0.707106844406826));
#607=DIRECTION('ref_axis',(0.707106844406826,2.04112040685473E-15,0.707106717966263));
#608=DIRECTION('center_axis',(-1.16573417585641E-15,2.22044604925028E-16,
-1.));
#609=DIRECTION('ref_axis',(-1.,-3.10862446895044E-15,1.16573417585641E-15));
#610=DIRECTION('',(-3.10862446895044E-15,1.,2.22044604925031E-16));
#611=DIRECTION('center_axis',(0.707106781186549,2.35513868802566E-15,-0.707106781186546));
#612=DIRECTION('ref_axis',(-0.707106781186546,-2.0411201962889E-15,-0.707106781186549));
#613=CARTESIAN_POINT('',(0.,0.,0.));
#614=CARTESIAN_POINT('Origin',(-0.0845106172560872,-360.499981994099,57.170469681433));
#615=CARTESIAN_POINT('',(-0.0845106172560463,-340.499981994099,44.7774696814288));
#616=CARTESIAN_POINT('',(-0.0845106172560466,-340.499981994099,57.170469681433));
#617=CARTESIAN_POINT('',(-0.0845106172560481,-340.499981994099,42.8704696814318));
#618=CARTESIAN_POINT('',(-0.0845106172560869,-360.499981994099,44.7774696814288));
#619=CARTESIAN_POINT('',(-0.0845106172560761,-355.499981994099,44.7774696814298));
#620=CARTESIAN_POINT('',(-0.0845106172560872,-360.499981994099,57.170469681433));
#621=CARTESIAN_POINT('',(-0.0845106172560883,-360.499981994099,42.8704696814318));
#622=CARTESIAN_POINT('',(-0.0845106172560773,-355.599981994099,57.170469681433));
#623=CARTESIAN_POINT('',(-0.0845106172560771,-355.499981994099,57.1704696814329));
#624=CARTESIAN_POINT('',(-0.0845106172560772,-355.599981994099,44.9704696814285));
#625=CARTESIAN_POINT('',(-0.0845106172560789,-355.599981994099,54.1204696814319));
#626=CARTESIAN_POINT('',(-0.0845106172560561,-345.399981994099,44.9704696814285));
#627=CARTESIAN_POINT('',(-0.0845106172560749,-355.499981994099,44.9704696814285));
#628=CARTESIAN_POINT('',(-0.0845106172560566,-345.399981994099,57.170469681433));
#629=CARTESIAN_POINT('',(-0.0845106172560574,-345.399981994099,54.1204696814319));
#630=CARTESIAN_POINT('',(-0.0845106172560771,-355.499981994099,57.1704696814329));
#631=CARTESIAN_POINT('Origin',(17.222489382745,-340.499981994099,28.5704696814307));
#632=CARTESIAN_POINT('',(34.7224893827451,-340.499981994099,57.1704696814286));
#633=CARTESIAN_POINT('',(-0.277510617254872,-340.499981994099,57.1704696814329));
#634=CARTESIAN_POINT('',(34.722489382745,-340.499981994099,19.6861980763386));
#635=CARTESIAN_POINT('',(34.722489382745,-340.499981994099,-0.0295303185715845));
#636=CARTESIAN_POINT('',(15.0067609878348,-340.499981994099,-0.0295303185715667));
#637=CARTESIAN_POINT('',(34.722489382745,-340.499981994099,19.6861980763386));
#638=CARTESIAN_POINT('',(-0.0845106172550501,-340.499981994099,-0.0295303185715667));
#639=CARTESIAN_POINT('',(-0.27751061725505,-340.499981994099,-0.0295303185715667));
#640=CARTESIAN_POINT('',(-0.0845106172550279,-340.499981994099,24.9704696814284));
#641=CARTESIAN_POINT('',(-0.0845106172549648,-340.499981994099,14.2704696814296));
#642=CARTESIAN_POINT('',(11.722489382745,-340.499981994099,24.9704696814285));
#643=CARTESIAN_POINT('',(11.722489382745,-340.499981994099,24.9704696814285));
#644=CARTESIAN_POINT('',(13.7224897403729,-340.499981994099,26.9704696814284));
#645=CARTESIAN_POINT('',(13.7224897403729,-340.499981994099,26.9704696814284));
#646=CARTESIAN_POINT('',(13.7224897403729,-340.499981994099,30.9704693238007));
#647=CARTESIAN_POINT('',(13.722489740373,-340.499981994099,44.9704696814285));
#648=CARTESIAN_POINT('',(-0.277510617254868,-340.499981994099,44.9704696814285));
#649=CARTESIAN_POINT('',(7.92248938274511,-340.499981994099,51.0704696814331));
#650=CARTESIAN_POINT('Origin',(5.82248938274513,-340.499981994099,51.0704696814331));
#651=CARTESIAN_POINT('',(30.722489382745,-340.499981994099,51.0704696814285));
#652=CARTESIAN_POINT('Origin',(28.622489382745,-340.499981994099,51.0704696814285));
#653=CARTESIAN_POINT('Origin',(-0.277510617254837,-350.499981994099,57.1704696814329));
#654=CARTESIAN_POINT('',(34.7224893827452,-345.399981994099,57.1704696814286));
#655=CARTESIAN_POINT('',(8.47248938274551,-345.399981994099,57.1704696814318));
#656=CARTESIAN_POINT('',(34.7224893827452,-350.499981994099,57.1704696814286));
#657=CARTESIAN_POINT('Origin',(17.2224893827452,-345.399981994099,51.0704696814308));
#658=CARTESIAN_POINT('',(28.6224893827449,-345.399981994099,44.9704696814285));
#659=CARTESIAN_POINT('',(5.82248938274503,-345.399981994099,44.9704696814289));
#660=CARTESIAN_POINT('',(31.7101437037327,-345.399981994099,45.8096341209794));
#661=CARTESIAN_POINT('Origin',(28.622489382745,-345.399981994099,51.0704696814285));
#662=CARTESIAN_POINT('',(34.7224893827451,-345.399981994099,44.0847700027994));
#663=CARTESIAN_POINT('Origin',(32.7224893827451,-345.399981994099,44.0847700027994));
#664=CARTESIAN_POINT('',(34.7224893827452,-345.399981994099,54.1204696814296));
#665=CARTESIAN_POINT('',(30.722489382745,-345.399981994099,51.0704696814285));
#666=CARTESIAN_POINT('Origin',(28.622489382745,-345.399981994099,51.0704696814285));
#667=CARTESIAN_POINT('',(7.92248938274514,-345.399981994099,51.0704696814331));
#668=CARTESIAN_POINT('Origin',(5.82248938274515,-345.399981994099,51.0704696814331));
#669=CARTESIAN_POINT('Origin',(28.6224893827449,-350.499981994099,44.9704696814302));
#670=CARTESIAN_POINT('',(28.6224893827449,-355.599981994099,44.9704696814285));
#671=CARTESIAN_POINT('',(5.82248938274507,-355.599981994099,44.9704696814289));
#672=CARTESIAN_POINT('',(28.6224893827449,-350.499981994099,44.9704696814285));
#673=CARTESIAN_POINT('Origin',(-0.0845106172549657,-350.499981994099,-0.0295303185715667));
#674=CARTESIAN_POINT('',(-0.0845106172549657,-360.499981994099,24.9704696814284));
#675=CARTESIAN_POINT('',(-0.0845106172549657,-350.499981994099,24.9704696814284));
#676=CARTESIAN_POINT('',(-0.0845106172550013,-360.499981994099,-0.0295303185715667));
#677=CARTESIAN_POINT('',(-0.0845106172549648,-350.499981994099,-0.029530318571549));
#678=CARTESIAN_POINT('',(-0.0845106172549648,-360.499981994099,14.2704696814295));
#679=CARTESIAN_POINT('Origin',(-0.277510617255001,-350.499981994099,24.9704696814284));
#680=CARTESIAN_POINT('',(11.722489382745,-360.499981994099,24.9704696814285));
#681=CARTESIAN_POINT('',(11.722489382745,-360.499981994099,24.9704696814285));
#682=CARTESIAN_POINT('',(11.722489382745,-350.499981994099,24.9704696814285));
#683=CARTESIAN_POINT('Origin',(32.7224893827451,-350.499981994099,44.0847700027994));
#684=CARTESIAN_POINT('',(31.7101437037328,-355.599981994099,45.8096341209794));
#685=CARTESIAN_POINT('',(34.7224893827451,-355.599981994099,44.0847700027994));
#686=CARTESIAN_POINT('Origin',(32.7224893827452,-355.599981994099,44.0847700027994));
#687=CARTESIAN_POINT('',(34.7224893827451,-350.499981994099,44.0847700027994));
#688=CARTESIAN_POINT('',(31.7101437037328,-350.499981994099,45.8096341209794));
#689=CARTESIAN_POINT('Origin',(34.7224893827452,-350.499981994099,57.1704696814286));
#690=CARTESIAN_POINT('',(34.7224893827452,-355.599981994099,57.1704696814286));
#691=CARTESIAN_POINT('',(34.7224893827452,-355.599981994099,54.1204696814296));
#692=CARTESIAN_POINT('',(34.7224893827452,-360.499981994099,57.1704696814286));
#693=CARTESIAN_POINT('',(34.7224893827452,-350.499981994099,57.1704696814286));
#694=CARTESIAN_POINT('',(34.7224893827451,-360.499981994099,19.6861980763386));
#695=CARTESIAN_POINT('',(34.722489382745,-360.499981994099,-0.0295303185716378));
#696=CARTESIAN_POINT('',(34.722489382745,-350.499981994099,19.6861980763386));
#697=CARTESIAN_POINT('Origin',(17.2224893827452,-355.599981994099,51.0704696814308));
#698=CARTESIAN_POINT('',(8.47248938274554,-355.599981994099,57.1704696814318));
#699=CARTESIAN_POINT('Origin',(28.6224893827451,-355.599981994099,51.0704696814285));
#700=CARTESIAN_POINT('',(7.92248938274517,-355.599981994099,51.0704696814331));
#701=CARTESIAN_POINT('Origin',(5.82248938274518,-355.599981994099,51.0704696814331));
#702=CARTESIAN_POINT('',(30.722489382745,-355.599981994099,51.0704696814285));
#703=CARTESIAN_POINT('Origin',(28.6224893827451,-355.599981994099,51.0704696814285));
#704=CARTESIAN_POINT('Origin',(28.622489382745,-350.499981994099,51.0704696814285));
#705=CARTESIAN_POINT('Origin',(-0.277510617254837,-350.499981994099,57.1704696814329));
#706=CARTESIAN_POINT('',(-0.277510617254801,-360.499981994099,57.1704696814329));
#707=CARTESIAN_POINT('Origin',(28.622489382745,-350.499981994099,51.0704696814285));
#708=CARTESIAN_POINT('',(30.722489382745,-350.499981994099,51.0704696814285));
#709=CARTESIAN_POINT('Origin',(5.82248938274516,-350.499981994099,51.0704696814331));
#710=CARTESIAN_POINT('',(7.92248938274516,-350.499981994099,51.0704696814331));
#711=CARTESIAN_POINT('Origin',(17.2224893827451,-360.499981994099,28.5704696814307));
#712=CARTESIAN_POINT('',(13.722489740373,-360.499981994099,30.9704693238007));
#713=CARTESIAN_POINT('',(-0.27751061725481,-360.499981994099,44.9704696814285));
#714=CARTESIAN_POINT('',(13.722489740373,-360.499981994099,26.9704696814284));
#715=CARTESIAN_POINT('',(13.722489740373,-360.499981994099,44.9704696814285));
#716=CARTESIAN_POINT('',(13.722489740373,-360.499981994099,26.9704696814284));
#717=CARTESIAN_POINT('',(15.0067609878349,-360.499981994099,-0.0295303185716023));
#718=CARTESIAN_POINT('',(-0.277510617255001,-360.499981994099,-0.0295303185715667));
#719=CARTESIAN_POINT('',(34.7224893827451,-360.499981994099,19.6861980763386));
#720=CARTESIAN_POINT('',(7.92248938274518,-360.499981994099,51.0704696814331));
#721=CARTESIAN_POINT('Origin',(5.82248938274519,-360.499981994099,51.0704696814331));
#722=CARTESIAN_POINT('',(30.7224893827451,-360.499981994099,51.0704696814285));
#723=CARTESIAN_POINT('Origin',(28.6224893827451,-360.499981994099,51.0704696814285));
#724=CARTESIAN_POINT('Origin',(28.622489382745,-350.499981994099,51.0704696814285));
#725=CARTESIAN_POINT('',(30.722489382745,-350.499981994099,51.0704696814285));
#726=CARTESIAN_POINT('Origin',(5.82248938274516,-350.499981994099,51.0704696814331));
#727=CARTESIAN_POINT('',(7.92248938274516,-350.499981994099,51.0704696814331));
#728=CARTESIAN_POINT('Origin',(13.722489740373,-350.499981994099,30.9704693238007));
#729=CARTESIAN_POINT('',(13.722489740373,-350.499981994099,30.9704693238007));
#730=CARTESIAN_POINT('Origin',(13.722489740373,-350.499981994099,26.9704696814284));
#731=CARTESIAN_POINT('',(13.722489740373,-350.499981994099,26.9704696814284));
#732=CARTESIAN_POINT('Origin',(11.722489382745,-350.499981994099,24.9704696814285));
#733=CARTESIAN_POINT('Origin',(15.0067609878349,-350.499981994099,-0.0295303185715667));
#734=CARTESIAN_POINT('',(15.0067609878349,-350.499981994099,-0.0295303185715667));
#735=CARTESIAN_POINT('Origin',(34.722489382745,-350.499981994099,19.6861980763386));
#736=UNCERTAINTY_MEASURE_WITH_UNIT(LENGTH_MEASURE(0.01),#740,
'DISTANCE_ACCURACY_VALUE',
'Maximum model space distance between geometric entities at asserted c
onnectivities');
#737=UNCERTAINTY_MEASURE_WITH_UNIT(LENGTH_MEASURE(0.01),#740,
'DISTANCE_ACCURACY_VALUE',
'Maximum model space distance between geometric entities at asserted c
onnectivities');
#738=(
GEOMETRIC_REPRESENTATION_CONTEXT(3)
GLOBAL_UNCERTAINTY_ASSIGNED_CONTEXT((#736))
GLOBAL_UNIT_ASSIGNED_CONTEXT((#740,#742,#743))
REPRESENTATION_CONTEXT('','3D')
);
#739=(
GEOMETRIC_REPRESENTATION_CONTEXT(3)
GLOBAL_UNCERTAINTY_ASSIGNED_CONTEXT((#737))
GLOBAL_UNIT_ASSIGNED_CONTEXT((#740,#742,#743))
REPRESENTATION_CONTEXT('','3D')
);
#740=(
LENGTH_UNIT()
NAMED_UNIT(*)
SI_UNIT(.MILLI.,.METRE.)
);
#741=(
LENGTH_UNIT()
NAMED_UNIT(*)
SI_UNIT($,.METRE.)
);
#742=(
NAMED_UNIT(*)
PLANE_ANGLE_UNIT()
SI_UNIT($,.RADIAN.)
);
#743=(
NAMED_UNIT(*)
SI_UNIT($,.STERADIAN.)
SOLID_ANGLE_UNIT()
);
#744=SHAPE_DEFINITION_REPRESENTATION(#745,#746);
#745=PRODUCT_DEFINITION_SHAPE('',$,#748);
#746=SHAPE_REPRESENTATION('',(#460),#738);
#747=PRODUCT_DEFINITION_CONTEXT('part definition',#752,'design');
#748=PRODUCT_DEFINITION('szczeka I','szczeka I',#749,#747);
#749=PRODUCT_DEFINITION_FORMATION('',$,#754);
#750=PRODUCT_RELATED_PRODUCT_CATEGORY('szczeka I','szczeka I',(#754));
#751=APPLICATION_PROTOCOL_DEFINITION('international standard',
'automotive_design',2009,#752);
#752=APPLICATION_CONTEXT(
'Core Data for Automotive Mechanical Design Process');
#753=PRODUCT_CONTEXT('part definition',#752,'mechanical');
#754=PRODUCT('szczeka I','szczeka I',$,(#753));
#755=PRESENTATION_STYLE_ASSIGNMENT((#756));
#756=SURFACE_STYLE_USAGE(.BOTH.,#757);
#757=SURFACE_SIDE_STYLE('',(#758));
#758=SURFACE_STYLE_FILL_AREA(#759);
#759=FILL_AREA_STYLE('Stal \X2\2014\X0\ satynowa',(#760));
#760=FILL_AREA_STYLE_COLOUR('Stal \X2\2014\X0\ satynowa',#761);
#761=COLOUR_RGB('Stal \X2\2014\X0\ satynowa',0.627450980392157,0.627450980392157,
0.627450980392157);
ENDSEC;
END-ISO-10303-21;
