ISO-10303-21;
HEADER;
/* Generated by software containing ST-Developer
 * from STEP Tools, Inc. (www.steptools.com) 
 */

FILE_DESCRIPTION(
/* description */ (''),
/* implementation_level */ '2;1');

FILE_NAME(
/* name */ 'szczeka II.step',
/* time_stamp */ '2026-03-04T15:16:38+01:00',
/* author */ (''),
/* organization */ (''),
/* preprocessor_version */ 'ST-DEVELOPER v20.1',
/* originating_system */ 'Autodesk Translation Framework v14.24.0.0',
/* authorisation */ '');

FILE_SCHEMA (('AUTOMOTIVE_DESIGN { 1 0 10303 214 3 1 1 }'));
ENDSEC;

DATA;
#10=MECHANICAL_DESIGN_GEOMETRIC_PRESENTATION_REPRESENTATION('',(#13),#739);
#11=SHAPE_REPRESENTATION_RELATIONSHIP('SRR','None',#746,#12);
#12=ADVANCED_BREP_SHAPE_REPRESENTATION('',(#14),#738);
#13=STYLED_ITEM('',(#755),#14);
#14=MANIFOLD_SOLID_BREP('Bry\X2\0142\X0\a1',#447);
#15=CYLINDRICAL_SURFACE('',#474,2.);
#16=CYLINDRICAL_SURFACE('',#477,6.09999999999996);
#17=CYLINDRICAL_SURFACE('',#483,2.1);
#18=CYLINDRICAL_SURFACE('',#484,2.1);
#19=CYLINDRICAL_SURFACE('',#488,2.1);
#20=CYLINDRICAL_SURFACE('',#489,2.1);
#21=FACE_BOUND('',#67,.T.);
#22=FACE_BOUND('',#68,.T.);
#23=FACE_BOUND('',#71,.T.);
#24=FACE_BOUND('',#72,.T.);
#25=FACE_BOUND('',#78,.T.);
#26=FACE_BOUND('',#79,.T.);
#27=FACE_BOUND('',#84,.T.);
#28=FACE_BOUND('',#85,.T.);
#29=CIRCLE('',#465,2.);
#30=CIRCLE('',#466,6.09999999999996);
#31=CIRCLE('',#467,2.1);
#32=CIRCLE('',#468,2.1);
#33=CIRCLE('',#471,2.1);
#34=CIRCLE('',#472,2.1);
#35=CIRCLE('',#475,2.);
#36=CIRCLE('',#478,6.09999999999996);
#37=CIRCLE('',#480,2.1);
#38=CIRCLE('',#481,2.1);
#39=CIRCLE('',#486,2.1);
#40=CIRCLE('',#487,2.1);
#41=FACE_OUTER_BOUND('',#63,.T.);
#42=FACE_OUTER_BOUND('',#64,.T.);
#43=FACE_OUTER_BOUND('',#65,.T.);
#44=FACE_OUTER_BOUND('',#66,.T.);
#45=FACE_OUTER_BOUND('',#69,.T.);
#46=FACE_OUTER_BOUND('',#70,.T.);
#47=FACE_OUTER_BOUND('',#73,.T.);
#48=FACE_OUTER_BOUND('',#74,.T.);
#49=FACE_OUTER_BOUND('',#75,.T.);
#50=FACE_OUTER_BOUND('',#76,.T.);
#51=FACE_OUTER_BOUND('',#77,.T.);
#52=FACE_OUTER_BOUND('',#80,.T.);
#53=FACE_OUTER_BOUND('',#81,.T.);
#54=FACE_OUTER_BOUND('',#82,.T.);
#55=FACE_OUTER_BOUND('',#83,.T.);
#56=FACE_OUTER_BOUND('',#86,.T.);
#57=FACE_OUTER_BOUND('',#87,.T.);
#58=FACE_OUTER_BOUND('',#88,.T.);
#59=FACE_OUTER_BOUND('',#89,.T.);
#60=FACE_OUTER_BOUND('',#90,.T.);
#61=FACE_OUTER_BOUND('',#91,.T.);
#62=FACE_OUTER_BOUND('',#92,.T.);
#63=EDGE_LOOP('',(#289,#290,#291,#292,#293,#294,#295,#296));
#64=EDGE_LOOP('',(#297,#298,#299,#300));
#65=EDGE_LOOP('',(#301,#302,#303,#304));
#66=EDGE_LOOP('',(#305,#306,#307,#308,#309,#310));
#67=EDGE_LOOP('',(#311));
#68=EDGE_LOOP('',(#312));
#69=EDGE_LOOP('',(#313,#314,#315,#316));
#70=EDGE_LOOP('',(#317,#318,#319,#320,#321,#322,#323,#324,#325,#326));
#71=EDGE_LOOP('',(#327));
#72=EDGE_LOOP('',(#328));
#73=EDGE_LOOP('',(#329,#330,#331,#332));
#74=EDGE_LOOP('',(#333,#334,#335,#336));
#75=EDGE_LOOP('',(#337,#338,#339,#340,#341,#342,#343,#344));
#76=EDGE_LOOP('',(#345,#346,#347,#348));
#77=EDGE_LOOP('',(#349,#350,#351,#352,#353,#354));
#78=EDGE_LOOP('',(#355));
#79=EDGE_LOOP('',(#356));
#80=EDGE_LOOP('',(#357,#358,#359,#360));
#81=EDGE_LOOP('',(#361,#362,#363,#364));
#82=EDGE_LOOP('',(#365,#366,#367,#368));
#83=EDGE_LOOP('',(#369,#370,#371,#372,#373,#374,#375,#376,#377,#378));
#84=EDGE_LOOP('',(#379));
#85=EDGE_LOOP('',(#380));
#86=EDGE_LOOP('',(#381,#382,#383,#384));
#87=EDGE_LOOP('',(#385,#386,#387,#388));
#88=EDGE_LOOP('',(#389,#390,#391,#392));
#89=EDGE_LOOP('',(#393,#394,#395,#396));
#90=EDGE_LOOP('',(#397,#398,#399,#400));
#91=EDGE_LOOP('',(#401,#402,#403,#404));
#92=EDGE_LOOP('',(#405,#406,#407,#408));
#93=LINE('',#617,#141);
#94=LINE('',#619,#142);
#95=LINE('',#621,#143);
#96=LINE('',#623,#144);
#97=LINE('',#625,#145);
#98=LINE('',#627,#146);
#99=LINE('',#629,#147);
#100=LINE('',#630,#148);
#101=LINE('',#633,#149);
#102=LINE('',#635,#150);
#103=LINE('',#636,#151);
#104=LINE('',#639,#152);
#105=LINE('',#641,#153);
#106=LINE('',#642,#154);
#107=LINE('',#645,#155);
#108=LINE('',#647,#156);
#109=LINE('',#658,#157);
#110=LINE('',#660,#158);
#111=LINE('',#662,#159);
#112=LINE('',#663,#160);
#113=LINE('',#666,#161);
#114=LINE('',#668,#162);
#115=LINE('',#669,#163);
#116=LINE('',#671,#164);
#117=LINE('',#673,#165);
#118=LINE('',#675,#166);
#119=LINE('',#676,#167);
#120=LINE('',#683,#168);
#121=LINE('',#684,#169);
#122=LINE('',#687,#170);
#123=LINE('',#690,#171);
#124=LINE('',#692,#172);
#125=LINE('',#694,#173);
#126=LINE('',#696,#174);
#127=LINE('',#697,#175);
#128=LINE('',#706,#176);
#129=LINE('',#708,#177);
#130=LINE('',#710,#178);
#131=LINE('',#713,#179);
#132=LINE('',#715,#180);
#133=LINE('',#716,#181);
#134=LINE('',#718,#182);
#135=LINE('',#719,#183);
#136=LINE('',#725,#184);
#137=LINE('',#727,#185);
#138=LINE('',#729,#186);
#139=LINE('',#731,#187);
#140=LINE('',#734,#188);
#141=VECTOR('',#499,10.);
#142=VECTOR('',#500,10.);
#143=VECTOR('',#501,10.);
#144=VECTOR('',#502,10.);
#145=VECTOR('',#503,10.);
#146=VECTOR('',#504,10.);
#147=VECTOR('',#505,10.);
#148=VECTOR('',#506,10.);
#149=VECTOR('',#509,10.);
#150=VECTOR('',#510,10.);
#151=VECTOR('',#511,10.);
#152=VECTOR('',#514,10.);
#153=VECTOR('',#515,10.);
#154=VECTOR('',#516,10.);
#155=VECTOR('',#519,10.);
#156=VECTOR('',#520,10.);
#157=VECTOR('',#531,10.);
#158=VECTOR('',#532,10.);
#159=VECTOR('',#533,10.);
#160=VECTOR('',#534,10.);
#161=VECTOR('',#537,10.);
#162=VECTOR('',#538,10.);
#163=VECTOR('',#539,10.);
#164=VECTOR('',#540,10.);
#165=VECTOR('',#541,10.);
#166=VECTOR('',#542,10.);
#167=VECTOR('',#543,10.);
#168=VECTOR('',#550,10.);
#169=VECTOR('',#551,10.);
#170=VECTOR('',#554,10.);
#171=VECTOR('',#557,10.);
#172=VECTOR('',#560,10.);
#173=VECTOR('',#561,10.);
#174=VECTOR('',#562,10.);
#175=VECTOR('',#563,10.);
#176=VECTOR('',#576,10.);
#177=VECTOR('',#579,2.1);
#178=VECTOR('',#582,2.1);
#179=VECTOR('',#585,10.);
#180=VECTOR('',#586,10.);
#181=VECTOR('',#587,10.);
#182=VECTOR('',#588,10.);
#183=VECTOR('',#589,10.);
#184=VECTOR('',#596,2.1);
#185=VECTOR('',#599,2.1);
#186=VECTOR('',#602,10.);
#187=VECTOR('',#605,10.);
#188=VECTOR('',#610,10.);
#189=VERTEX_POINT('',#615);
#190=VERTEX_POINT('',#616);
#191=VERTEX_POINT('',#618);
#192=VERTEX_POINT('',#620);
#193=VERTEX_POINT('',#622);
#194=VERTEX_POINT('',#624);
#195=VERTEX_POINT('',#626);
#196=VERTEX_POINT('',#628);
#197=VERTEX_POINT('',#632);
#198=VERTEX_POINT('',#634);
#199=VERTEX_POINT('',#638);
#200=VERTEX_POINT('',#640);
#201=VERTEX_POINT('',#644);
#202=VERTEX_POINT('',#646);
#203=VERTEX_POINT('',#648);
#204=VERTEX_POINT('',#651);
#205=VERTEX_POINT('',#653);
#206=VERTEX_POINT('',#656);
#207=VERTEX_POINT('',#657);
#208=VERTEX_POINT('',#659);
#209=VERTEX_POINT('',#661);
#210=VERTEX_POINT('',#665);
#211=VERTEX_POINT('',#667);
#212=VERTEX_POINT('',#670);
#213=VERTEX_POINT('',#672);
#214=VERTEX_POINT('',#674);
#215=VERTEX_POINT('',#677);
#216=VERTEX_POINT('',#679);
#217=VERTEX_POINT('',#682);
#218=VERTEX_POINT('',#686);
#219=VERTEX_POINT('',#688);
#220=VERTEX_POINT('',#693);
#221=VERTEX_POINT('',#695);
#222=VERTEX_POINT('',#701);
#223=VERTEX_POINT('',#703);
#224=VERTEX_POINT('',#712);
#225=VERTEX_POINT('',#714);
#226=VERTEX_POINT('',#717);
#227=VERTEX_POINT('',#720);
#228=VERTEX_POINT('',#722);
#229=EDGE_CURVE('',#189,#190,#93,.T.);
#230=EDGE_CURVE('',#191,#189,#94,.T.);
#231=EDGE_CURVE('',#192,#191,#95,.T.);
#232=EDGE_CURVE('',#193,#192,#96,.T.);
#233=EDGE_CURVE('',#194,#193,#97,.T.);
#234=EDGE_CURVE('',#195,#194,#98,.T.);
#235=EDGE_CURVE('',#196,#195,#99,.T.);
#236=EDGE_CURVE('',#190,#196,#100,.T.);
#237=EDGE_CURVE('',#189,#197,#101,.T.);
#238=EDGE_CURVE('',#197,#198,#102,.T.);
#239=EDGE_CURVE('',#191,#198,#103,.T.);
#240=EDGE_CURVE('',#196,#199,#104,.T.);
#241=EDGE_CURVE('',#199,#200,#105,.T.);
#242=EDGE_CURVE('',#200,#190,#106,.T.);
#243=EDGE_CURVE('',#201,#195,#107,.T.);
#244=EDGE_CURVE('',#202,#201,#108,.T.);
#245=EDGE_CURVE('',#203,#202,#29,.F.);
#246=EDGE_CURVE('',#199,#203,#30,.T.);
#247=EDGE_CURVE('',#204,#204,#31,.T.);
#248=EDGE_CURVE('',#205,#205,#32,.T.);
#249=EDGE_CURVE('',#206,#207,#109,.T.);
#250=EDGE_CURVE('',#208,#206,#110,.T.);
#251=EDGE_CURVE('',#209,#208,#111,.T.);
#252=EDGE_CURVE('',#207,#209,#112,.T.);
#253=EDGE_CURVE('',#198,#210,#113,.T.);
#254=EDGE_CURVE('',#210,#211,#114,.T.);
#255=EDGE_CURVE('',#211,#208,#115,.T.);
#256=EDGE_CURVE('',#206,#212,#116,.T.);
#257=EDGE_CURVE('',#212,#213,#117,.T.);
#258=EDGE_CURVE('',#213,#214,#118,.T.);
#259=EDGE_CURVE('',#214,#192,#119,.T.);
#260=EDGE_CURVE('',#215,#215,#33,.T.);
#261=EDGE_CURVE('',#216,#216,#34,.T.);
#262=EDGE_CURVE('',#217,#207,#120,.T.);
#263=EDGE_CURVE('',#217,#212,#121,.T.);
#264=EDGE_CURVE('',#202,#218,#122,.T.);
#265=EDGE_CURVE('',#218,#219,#35,.F.);
#266=EDGE_CURVE('',#219,#203,#123,.T.);
#267=EDGE_CURVE('',#197,#218,#124,.T.);
#268=EDGE_CURVE('',#220,#201,#125,.T.);
#269=EDGE_CURVE('',#221,#220,#126,.T.);
#270=EDGE_CURVE('',#221,#210,#127,.T.);
#271=EDGE_CURVE('',#219,#200,#36,.T.);
#272=EDGE_CURVE('',#222,#222,#37,.T.);
#273=EDGE_CURVE('',#223,#223,#38,.T.);
#274=EDGE_CURVE('',#220,#194,#128,.T.);
#275=EDGE_CURVE('',#215,#223,#129,.T.);
#276=EDGE_CURVE('',#216,#222,#130,.T.);
#277=EDGE_CURVE('',#193,#224,#131,.T.);
#278=EDGE_CURVE('',#224,#225,#132,.T.);
#279=EDGE_CURVE('',#225,#217,#133,.T.);
#280=EDGE_CURVE('',#209,#226,#134,.T.);
#281=EDGE_CURVE('',#226,#221,#135,.T.);
#282=EDGE_CURVE('',#227,#227,#39,.T.);
#283=EDGE_CURVE('',#228,#228,#40,.T.);
#284=EDGE_CURVE('',#204,#228,#136,.T.);
#285=EDGE_CURVE('',#205,#227,#137,.T.);
#286=EDGE_CURVE('',#224,#214,#138,.T.);
#287=EDGE_CURVE('',#225,#213,#139,.T.);
#288=EDGE_CURVE('',#226,#211,#140,.T.);
#289=ORIENTED_EDGE('',*,*,#229,.F.);
#290=ORIENTED_EDGE('',*,*,#230,.F.);
#291=ORIENTED_EDGE('',*,*,#231,.F.);
#292=ORIENTED_EDGE('',*,*,#232,.F.);
#293=ORIENTED_EDGE('',*,*,#233,.F.);
#294=ORIENTED_EDGE('',*,*,#234,.F.);
#295=ORIENTED_EDGE('',*,*,#235,.F.);
#296=ORIENTED_EDGE('',*,*,#236,.F.);
#297=ORIENTED_EDGE('',*,*,#230,.T.);
#298=ORIENTED_EDGE('',*,*,#237,.T.);
#299=ORIENTED_EDGE('',*,*,#238,.T.);
#300=ORIENTED_EDGE('',*,*,#239,.F.);
#301=ORIENTED_EDGE('',*,*,#236,.T.);
#302=ORIENTED_EDGE('',*,*,#240,.T.);
#303=ORIENTED_EDGE('',*,*,#241,.T.);
#304=ORIENTED_EDGE('',*,*,#242,.T.);
#305=ORIENTED_EDGE('',*,*,#235,.T.);
#306=ORIENTED_EDGE('',*,*,#243,.F.);
#307=ORIENTED_EDGE('',*,*,#244,.F.);
#308=ORIENTED_EDGE('',*,*,#245,.F.);
#309=ORIENTED_EDGE('',*,*,#246,.F.);
#310=ORIENTED_EDGE('',*,*,#240,.F.);
#311=ORIENTED_EDGE('',*,*,#247,.F.);
#312=ORIENTED_EDGE('',*,*,#248,.F.);
#313=ORIENTED_EDGE('',*,*,#249,.F.);
#314=ORIENTED_EDGE('',*,*,#250,.F.);
#315=ORIENTED_EDGE('',*,*,#251,.F.);
#316=ORIENTED_EDGE('',*,*,#252,.F.);
#317=ORIENTED_EDGE('',*,*,#231,.T.);
#318=ORIENTED_EDGE('',*,*,#239,.T.);
#319=ORIENTED_EDGE('',*,*,#253,.T.);
#320=ORIENTED_EDGE('',*,*,#254,.T.);
#321=ORIENTED_EDGE('',*,*,#255,.T.);
#322=ORIENTED_EDGE('',*,*,#250,.T.);
#323=ORIENTED_EDGE('',*,*,#256,.T.);
#324=ORIENTED_EDGE('',*,*,#257,.T.);
#325=ORIENTED_EDGE('',*,*,#258,.T.);
#326=ORIENTED_EDGE('',*,*,#259,.T.);
#327=ORIENTED_EDGE('',*,*,#260,.T.);
#328=ORIENTED_EDGE('',*,*,#261,.T.);
#329=ORIENTED_EDGE('',*,*,#249,.T.);
#330=ORIENTED_EDGE('',*,*,#262,.F.);
#331=ORIENTED_EDGE('',*,*,#263,.T.);
#332=ORIENTED_EDGE('',*,*,#256,.F.);
#333=ORIENTED_EDGE('',*,*,#245,.T.);
#334=ORIENTED_EDGE('',*,*,#264,.T.);
#335=ORIENTED_EDGE('',*,*,#265,.T.);
#336=ORIENTED_EDGE('',*,*,#266,.T.);
#337=ORIENTED_EDGE('',*,*,#267,.T.);
#338=ORIENTED_EDGE('',*,*,#264,.F.);
#339=ORIENTED_EDGE('',*,*,#244,.T.);
#340=ORIENTED_EDGE('',*,*,#268,.F.);
#341=ORIENTED_EDGE('',*,*,#269,.F.);
#342=ORIENTED_EDGE('',*,*,#270,.T.);
#343=ORIENTED_EDGE('',*,*,#253,.F.);
#344=ORIENTED_EDGE('',*,*,#238,.F.);
#345=ORIENTED_EDGE('',*,*,#266,.F.);
#346=ORIENTED_EDGE('',*,*,#271,.T.);
#347=ORIENTED_EDGE('',*,*,#241,.F.);
#348=ORIENTED_EDGE('',*,*,#246,.T.);
#349=ORIENTED_EDGE('',*,*,#229,.T.);
#350=ORIENTED_EDGE('',*,*,#242,.F.);
#351=ORIENTED_EDGE('',*,*,#271,.F.);
#352=ORIENTED_EDGE('',*,*,#265,.F.);
#353=ORIENTED_EDGE('',*,*,#267,.F.);
#354=ORIENTED_EDGE('',*,*,#237,.F.);
#355=ORIENTED_EDGE('',*,*,#272,.F.);
#356=ORIENTED_EDGE('',*,*,#273,.F.);
#357=ORIENTED_EDGE('',*,*,#234,.T.);
#358=ORIENTED_EDGE('',*,*,#274,.F.);
#359=ORIENTED_EDGE('',*,*,#268,.T.);
#360=ORIENTED_EDGE('',*,*,#243,.T.);
#361=ORIENTED_EDGE('',*,*,#260,.F.);
#362=ORIENTED_EDGE('',*,*,#275,.T.);
#363=ORIENTED_EDGE('',*,*,#273,.T.);
#364=ORIENTED_EDGE('',*,*,#275,.F.);
#365=ORIENTED_EDGE('',*,*,#261,.F.);
#366=ORIENTED_EDGE('',*,*,#276,.T.);
#367=ORIENTED_EDGE('',*,*,#272,.T.);
#368=ORIENTED_EDGE('',*,*,#276,.F.);
#369=ORIENTED_EDGE('',*,*,#233,.T.);
#370=ORIENTED_EDGE('',*,*,#277,.T.);
#371=ORIENTED_EDGE('',*,*,#278,.T.);
#372=ORIENTED_EDGE('',*,*,#279,.T.);
#373=ORIENTED_EDGE('',*,*,#262,.T.);
#374=ORIENTED_EDGE('',*,*,#252,.T.);
#375=ORIENTED_EDGE('',*,*,#280,.T.);
#376=ORIENTED_EDGE('',*,*,#281,.T.);
#377=ORIENTED_EDGE('',*,*,#269,.T.);
#378=ORIENTED_EDGE('',*,*,#274,.T.);
#379=ORIENTED_EDGE('',*,*,#282,.T.);
#380=ORIENTED_EDGE('',*,*,#283,.T.);
#381=ORIENTED_EDGE('',*,*,#247,.T.);
#382=ORIENTED_EDGE('',*,*,#284,.T.);
#383=ORIENTED_EDGE('',*,*,#283,.F.);
#384=ORIENTED_EDGE('',*,*,#284,.F.);
#385=ORIENTED_EDGE('',*,*,#248,.T.);
#386=ORIENTED_EDGE('',*,*,#285,.T.);
#387=ORIENTED_EDGE('',*,*,#282,.F.);
#388=ORIENTED_EDGE('',*,*,#285,.F.);
#389=ORIENTED_EDGE('',*,*,#232,.T.);
#390=ORIENTED_EDGE('',*,*,#259,.F.);
#391=ORIENTED_EDGE('',*,*,#286,.F.);
#392=ORIENTED_EDGE('',*,*,#277,.F.);
#393=ORIENTED_EDGE('',*,*,#286,.T.);
#394=ORIENTED_EDGE('',*,*,#258,.F.);
#395=ORIENTED_EDGE('',*,*,#287,.F.);
#396=ORIENTED_EDGE('',*,*,#278,.F.);
#397=ORIENTED_EDGE('',*,*,#287,.T.);
#398=ORIENTED_EDGE('',*,*,#257,.F.);
#399=ORIENTED_EDGE('',*,*,#263,.F.);
#400=ORIENTED_EDGE('',*,*,#279,.F.);
#401=ORIENTED_EDGE('',*,*,#251,.T.);
#402=ORIENTED_EDGE('',*,*,#255,.F.);
#403=ORIENTED_EDGE('',*,*,#288,.F.);
#404=ORIENTED_EDGE('',*,*,#280,.F.);
#405=ORIENTED_EDGE('',*,*,#288,.T.);
#406=ORIENTED_EDGE('',*,*,#254,.F.);
#407=ORIENTED_EDGE('',*,*,#270,.F.);
#408=ORIENTED_EDGE('',*,*,#281,.F.);
#409=PLANE('',#461);
#410=PLANE('',#462);
#411=PLANE('',#463);
#412=PLANE('',#464);
#413=PLANE('',#469);
#414=PLANE('',#470);
#415=PLANE('',#473);
#416=PLANE('',#476);
#417=PLANE('',#479);
#418=PLANE('',#482);
#419=PLANE('',#485);
#420=PLANE('',#490);
#421=PLANE('',#491);
#422=PLANE('',#492);
#423=PLANE('',#493);
#424=PLANE('',#494);
#425=ADVANCED_FACE('',(#41),#409,.F.);
#426=ADVANCED_FACE('',(#42),#410,.T.);
#427=ADVANCED_FACE('',(#43),#411,.F.);
#428=ADVANCED_FACE('',(#44,#21,#22),#412,.T.);
#429=ADVANCED_FACE('',(#45),#413,.F.);
#430=ADVANCED_FACE('',(#46,#23,#24),#414,.T.);
#431=ADVANCED_FACE('',(#47),#415,.T.);
#432=ADVANCED_FACE('',(#48),#15,.T.);
#433=ADVANCED_FACE('',(#49),#416,.T.);
#434=ADVANCED_FACE('',(#50),#16,.F.);
#435=ADVANCED_FACE('',(#51,#25,#26),#417,.F.);
#436=ADVANCED_FACE('',(#52),#418,.T.);
#437=ADVANCED_FACE('',(#53),#17,.F.);
#438=ADVANCED_FACE('',(#54),#18,.F.);
#439=ADVANCED_FACE('',(#55,#27,#28),#419,.F.);
#440=ADVANCED_FACE('',(#56),#19,.F.);
#441=ADVANCED_FACE('',(#57),#20,.F.);
#442=ADVANCED_FACE('',(#58),#420,.T.);
#443=ADVANCED_FACE('',(#59),#421,.T.);
#444=ADVANCED_FACE('',(#60),#422,.T.);
#445=ADVANCED_FACE('',(#61),#423,.T.);
#446=ADVANCED_FACE('',(#62),#424,.T.);
#447=CLOSED_SHELL('',(#425,#426,#427,#428,#429,#430,#431,#432,#433,#434,
#435,#436,#437,#438,#439,#440,#441,#442,#443,#444,#445,#446));
#448=DERIVED_UNIT_ELEMENT(#450,1.);
#449=DERIVED_UNIT_ELEMENT(#741,-3.);
#450=(
MASS_UNIT()
NAMED_UNIT(*)
SI_UNIT(.KILO.,.GRAM.)
);
#451=DERIVED_UNIT((#448,#449));
#452=MEASURE_REPRESENTATION_ITEM('density measure',
POSITIVE_RATIO_MEASURE(7850.),#451);
#453=PROPERTY_DEFINITION_REPRESENTATION(#458,#455);
#454=PROPERTY_DEFINITION_REPRESENTATION(#459,#456);
#455=REPRESENTATION('material name',(#457),#738);
#456=REPRESENTATION('density',(#452),#738);
#457=DESCRIPTIVE_REPRESENTATION_ITEM('Stal','Stal');
#458=PROPERTY_DEFINITION('material property','material name',#748);
#459=PROPERTY_DEFINITION('material property','density of part',#748);
#460=AXIS2_PLACEMENT_3D('',#613,#495,#496);
#461=AXIS2_PLACEMENT_3D('',#614,#497,#498);
#462=AXIS2_PLACEMENT_3D('',#631,#507,#508);
#463=AXIS2_PLACEMENT_3D('',#637,#512,#513);
#464=AXIS2_PLACEMENT_3D('',#643,#517,#518);
#465=AXIS2_PLACEMENT_3D('',#649,#521,#522);
#466=AXIS2_PLACEMENT_3D('',#650,#523,#524);
#467=AXIS2_PLACEMENT_3D('',#652,#525,#526);
#468=AXIS2_PLACEMENT_3D('',#654,#527,#528);
#469=AXIS2_PLACEMENT_3D('',#655,#529,#530);
#470=AXIS2_PLACEMENT_3D('',#664,#535,#536);
#471=AXIS2_PLACEMENT_3D('',#678,#544,#545);
#472=AXIS2_PLACEMENT_3D('',#680,#546,#547);
#473=AXIS2_PLACEMENT_3D('',#681,#548,#549);
#474=AXIS2_PLACEMENT_3D('',#685,#552,#553);
#475=AXIS2_PLACEMENT_3D('',#689,#555,#556);
#476=AXIS2_PLACEMENT_3D('',#691,#558,#559);
#477=AXIS2_PLACEMENT_3D('',#698,#564,#565);
#478=AXIS2_PLACEMENT_3D('',#699,#566,#567);
#479=AXIS2_PLACEMENT_3D('',#700,#568,#569);
#480=AXIS2_PLACEMENT_3D('',#702,#570,#571);
#481=AXIS2_PLACEMENT_3D('',#704,#572,#573);
#482=AXIS2_PLACEMENT_3D('',#705,#574,#575);
#483=AXIS2_PLACEMENT_3D('',#707,#577,#578);
#484=AXIS2_PLACEMENT_3D('',#709,#580,#581);
#485=AXIS2_PLACEMENT_3D('',#711,#583,#584);
#486=AXIS2_PLACEMENT_3D('',#721,#590,#591);
#487=AXIS2_PLACEMENT_3D('',#723,#592,#593);
#488=AXIS2_PLACEMENT_3D('',#724,#594,#595);
#489=AXIS2_PLACEMENT_3D('',#726,#597,#598);
#490=AXIS2_PLACEMENT_3D('',#728,#600,#601);
#491=AXIS2_PLACEMENT_3D('',#730,#603,#604);
#492=AXIS2_PLACEMENT_3D('',#732,#606,#607);
#493=AXIS2_PLACEMENT_3D('',#733,#608,#609);
#494=AXIS2_PLACEMENT_3D('',#735,#611,#612);
#495=DIRECTION('axis',(0.,0.,1.));
#496=DIRECTION('refdir',(1.,0.,0.));
#497=DIRECTION('center_axis',(-1.,0.,-1.18521479725107E-17));
#498=DIRECTION('ref_axis',(-1.18521479725107E-17,0.,1.));
#499=DIRECTION('',(1.18521479725107E-17,2.28316448942833E-14,-1.));
#500=DIRECTION('',(-2.70604033742796E-31,1.,2.28316448942776E-14));
#501=DIRECTION('',(-1.18521479725107E-17,-2.28316448942833E-14,1.));
#502=DIRECTION('',(-2.70016788560574E-31,-1.,2.27820973199827E-14));
#503=DIRECTION('',(1.18521479725107E-17,2.28316448942833E-14,-1.));
#504=DIRECTION('',(-2.70604033742796E-31,1.,2.28316448942776E-14));
#505=DIRECTION('',(-1.18521479725107E-17,-2.28316448942833E-14,1.));
#506=DIRECTION('',(-2.70604033742895E-31,1.,2.28316448942859E-14));
#507=DIRECTION('center_axis',(-1.25316423904565E-13,-2.28316448942776E-14,
1.));
#508=DIRECTION('ref_axis',(-1.,4.56137422142689E-14,-1.25316423904565E-13));
#509=DIRECTION('',(-1.,4.56137422142689E-14,-1.25316423904565E-13));
#510=DIRECTION('',(-4.56137422142661E-14,-1.,-2.28316448942833E-14));
#511=DIRECTION('',(-1.,4.56137422142689E-14,-1.25316423904565E-13));
#512=DIRECTION('center_axis',(-5.82311976415895E-14,2.28316448942859E-14,
-1.));
#513=DIRECTION('ref_axis',(1.,-4.56137422142647E-14,-5.82311976415895E-14));
#514=DIRECTION('',(-1.,4.56137422142647E-14,5.82311976415895E-14));
#515=DIRECTION('',(-4.56137422142661E-14,-1.,-2.28316448942833E-14));
#516=DIRECTION('',(1.,-4.56137422142647E-14,-5.82311976415895E-14));
#517=DIRECTION('center_axis',(-4.56137422142661E-14,-1.,-2.28316448942833E-14));
#518=DIRECTION('ref_axis',(1.,-4.56137422142661E-14,0.));
#519=DIRECTION('',(1.,-4.56137422142689E-14,1.25316423904565E-13));
#520=DIRECTION('',(-3.08086889333481E-15,-2.28316448942831E-14,1.));
#521=DIRECTION('center_axis',(4.56137422142661E-14,1.,2.28316448942833E-14));
#522=DIRECTION('ref_axis',(-0.496903994999949,2.85222327361194E-15,0.867805519545186));
#523=DIRECTION('center_axis',(4.56137422142661E-14,1.,2.28316448942833E-14));
#524=DIRECTION('ref_axis',(-1.67443472566418E-14,-2.28316448942825E-14,
1.));
#525=DIRECTION('center_axis',(-4.56137422142661E-14,-1.,-2.28316448942833E-14));
#526=DIRECTION('ref_axis',(1.,-4.56137422142661E-14,6.60847038467355E-17));
#527=DIRECTION('center_axis',(-4.56137422142661E-14,-1.,-2.28316448942833E-14));
#528=DIRECTION('ref_axis',(1.,-4.56137422142661E-14,6.60847038467355E-17));
#529=DIRECTION('center_axis',(-1.,0.,0.));
#530=DIRECTION('ref_axis',(0.,0.,1.));
#531=DIRECTION('',(0.,1.,2.28316448942833E-14));
#532=DIRECTION('',(0.,-2.28316448942833E-14,1.));
#533=DIRECTION('',(0.,-1.,-2.28316448942832E-14));
#534=DIRECTION('',(0.,2.28316448942833E-14,-1.));
#535=DIRECTION('center_axis',(-4.56137422142661E-14,-1.,-2.28316448942833E-14));
#536=DIRECTION('ref_axis',(1.,-4.56137422142661E-14,0.));
#537=DIRECTION('',(3.08086889333481E-15,2.28316448942831E-14,-1.));
#538=DIRECTION('',(0.707106781186546,-1.61093755046116E-14,-0.707106781186549));
#539=DIRECTION('',(1.,-4.56137422142661E-14,1.19348975147204E-15));
#540=DIRECTION('',(-1.,4.56137422142661E-14,0.));
#541=DIRECTION('',(-0.707106844406826,1.61093798317483E-14,0.707106717966263));
#542=DIRECTION('',(-1.2490009027033E-15,-2.28316448942832E-14,1.));
#543=DIRECTION('',(0.707106781186548,-4.83981973653936E-14,0.707106781186547));
#544=DIRECTION('center_axis',(4.56137422142661E-14,1.,2.28316448942833E-14));
#545=DIRECTION('ref_axis',(1.,-4.56137422142661E-14,6.60847038467355E-17));
#546=DIRECTION('center_axis',(4.56137422142661E-14,1.,2.28316448942833E-14));
#547=DIRECTION('ref_axis',(1.,-4.56137422142661E-14,6.60847038467355E-17));
#548=DIRECTION('center_axis',(0.,-2.28316448942833E-14,1.));
#549=DIRECTION('ref_axis',(-1.,4.56137422142661E-14,0.));
#550=DIRECTION('',(1.,-4.56137422142661E-14,0.));
#551=DIRECTION('',(-4.56137422142661E-14,-1.,-2.28316448942833E-14));
#552=DIRECTION('center_axis',(-4.56137422142661E-14,-1.,-2.28316448942833E-14));
#553=DIRECTION('ref_axis',(-0.496903994999949,2.85222327361194E-15,0.867805519545186));
#554=DIRECTION('',(-4.56137422142661E-14,-1.,-2.28316448942833E-14));
#555=DIRECTION('center_axis',(-4.56137422142661E-14,-1.,-2.28316448942833E-14));
#556=DIRECTION('ref_axis',(-0.496903994999949,2.85222327361194E-15,0.867805519545186));
#557=DIRECTION('',(4.56137422142661E-14,1.,2.28316448942833E-14));
#558=DIRECTION('center_axis',(-1.,4.56137422142661E-14,-3.08086889333481E-15));
#559=DIRECTION('ref_axis',(3.08086889333481E-15,2.28316448942831E-14,-1.));
#560=DIRECTION('',(3.08086889333481E-15,2.28316448942831E-14,-1.));
#561=DIRECTION('',(-4.56137422142661E-14,-1.,-2.28316448942833E-14));
#562=DIRECTION('',(-3.08086889333481E-15,-2.28316448942831E-14,1.));
#563=DIRECTION('',(-4.56137422142661E-14,-1.,-2.28316448942833E-14));
#564=DIRECTION('center_axis',(-4.56137422142661E-14,-1.,-2.28316448942833E-14));
#565=DIRECTION('ref_axis',(-1.67443472566418E-14,-2.28316448942825E-14,
1.));
#566=DIRECTION('center_axis',(-4.56137422142661E-14,-1.,-2.28316448942833E-14));
#567=DIRECTION('ref_axis',(-1.67443472566418E-14,-2.28316448942825E-14,
1.));
#568=DIRECTION('center_axis',(-4.56137422142661E-14,-1.,-2.28316448942833E-14));
#569=DIRECTION('ref_axis',(1.,-4.56137422142661E-14,0.));
#570=DIRECTION('center_axis',(4.56137422142661E-14,1.,2.28316448942833E-14));
#571=DIRECTION('ref_axis',(1.,-4.56137422142661E-14,6.60847038467355E-17));
#572=DIRECTION('center_axis',(4.56137422142661E-14,1.,2.28316448942833E-14));
#573=DIRECTION('ref_axis',(1.,-4.56137422142661E-14,6.60847038467355E-17));
#574=DIRECTION('center_axis',(-1.25316423904565E-13,-2.28316448942776E-14,
1.));
#575=DIRECTION('ref_axis',(-1.,4.56137422142689E-14,-1.25316423904565E-13));
#576=DIRECTION('',(1.,-4.56137422142689E-14,1.25316423904565E-13));
#577=DIRECTION('center_axis',(-4.56137422142661E-14,-1.,-2.28316448942833E-14));
#578=DIRECTION('ref_axis',(1.,-4.56137422142661E-14,6.60847038467355E-17));
#579=DIRECTION('',(4.56137422142661E-14,1.,2.28316448942833E-14));
#580=DIRECTION('center_axis',(-4.56137422142661E-14,-1.,-2.28316448942833E-14));
#581=DIRECTION('ref_axis',(1.,-4.56137422142661E-14,6.60847038467355E-17));
#582=DIRECTION('',(4.56137422142661E-14,1.,2.28316448942833E-14));
#583=DIRECTION('center_axis',(-4.56137422142661E-14,-1.,-2.28316448942833E-14));
#584=DIRECTION('ref_axis',(1.,-4.56137422142661E-14,0.));
#585=DIRECTION('',(-0.707106781186548,4.83981973653936E-14,-0.707106781186547));
#586=DIRECTION('',(1.2490009027033E-15,2.28316448942832E-14,-1.));
#587=DIRECTION('',(0.707106844406826,-1.61093798317483E-14,-0.707106717966263));
#588=DIRECTION('',(-1.,4.56137422142661E-14,-1.19348975147204E-15));
#589=DIRECTION('',(-0.707106781186546,1.61093755046116E-14,0.707106781186549));
#590=DIRECTION('center_axis',(-4.56137422142661E-14,-1.,-2.28316448942833E-14));
#591=DIRECTION('ref_axis',(1.,-4.56137422142661E-14,6.60847038467355E-17));
#592=DIRECTION('center_axis',(-4.56137422142661E-14,-1.,-2.28316448942833E-14));
#593=DIRECTION('ref_axis',(1.,-4.56137422142661E-14,6.60847038467355E-17));
#594=DIRECTION('center_axis',(-4.56137422142661E-14,-1.,-2.28316448942833E-14));
#595=DIRECTION('ref_axis',(1.,-4.56137422142661E-14,6.60847038467355E-17));
#596=DIRECTION('',(4.56137422142661E-14,1.,2.28316448942833E-14));
#597=DIRECTION('center_axis',(-4.56137422142661E-14,-1.,-2.28316448942833E-14));
#598=DIRECTION('ref_axis',(1.,-4.56137422142661E-14,6.60847038467355E-17));
#599=DIRECTION('',(4.56137422142661E-14,1.,2.28316448942833E-14));
#600=DIRECTION('center_axis',(0.707106781186547,-1.61093755046117E-14,-0.707106781186548));
#601=DIRECTION('ref_axis',(0.707106781186548,-4.83981973653936E-14,0.707106781186547));
#602=DIRECTION('',(-4.56137422142661E-14,-1.,-2.28316448942833E-14));
#603=DIRECTION('center_axis',(1.,-4.56137422142661E-14,1.2490009027033E-15));
#604=DIRECTION('ref_axis',(-1.2490009027033E-15,-2.28316448942832E-14,1.));
#605=DIRECTION('',(-4.56137422142661E-14,-1.,-2.28316448942833E-14));
#606=DIRECTION('center_axis',(0.707106717966263,-4.83981959251027E-14,0.707106844406826));
#607=DIRECTION('ref_axis',(-0.707106844406826,1.61093798317483E-14,0.707106717966263));
#608=DIRECTION('center_axis',(1.19348975147204E-15,2.28316448942832E-14,
-1.));
#609=DIRECTION('ref_axis',(1.,-4.56137422142661E-14,1.19348975147204E-15));
#610=DIRECTION('',(-4.56137422142661E-14,-1.,-2.28316448942833E-14));
#611=DIRECTION('center_axis',(-0.707106781186549,4.83981973653936E-14,-0.707106781186546));
#612=DIRECTION('ref_axis',(0.707106781186546,-1.61093755046116E-14,-0.707106781186549));
#613=CARTESIAN_POINT('',(0.,0.,0.));
#614=CARTESIAN_POINT('Origin',(-0.0852251538250608,-360.499981994097,44.7774696814282));
#615=CARTESIAN_POINT('',(-0.0852251538250609,-355.599981994098,57.1704696814325));
#616=CARTESIAN_POINT('',(-0.0852251538250604,-355.599981994098,44.9704696814282));
#617=CARTESIAN_POINT('',(-0.0852251538250615,-355.599981994098,47.9239696814294));
#618=CARTESIAN_POINT('',(-0.0852251538250609,-360.499981994097,57.1704696814325));
#619=CARTESIAN_POINT('',(-0.0852251538250609,-355.499981994098,57.1704696814325));
#620=CARTESIAN_POINT('',(-0.0852251538250608,-360.499981994097,44.7774696814282));
#621=CARTESIAN_POINT('',(-0.0852251538250615,-360.499981994098,36.6739696814292));
#622=CARTESIAN_POINT('',(-0.0852251538250608,-340.499981994098,44.7774696814282));
#623=CARTESIAN_POINT('',(-0.0852251538250615,-355.499981994097,44.7774696814281));
#624=CARTESIAN_POINT('',(-0.0852251538250609,-340.499981994098,57.1704696814325));
#625=CARTESIAN_POINT('',(-0.0852251538250615,-340.499981994098,36.6739696814297));
#626=CARTESIAN_POINT('',(-0.0852251538250609,-345.399981994098,57.1704696814325));
#627=CARTESIAN_POINT('',(-0.0852251538250609,-355.499981994098,57.1704696814325));
#628=CARTESIAN_POINT('',(-0.0852251538250604,-345.399981994098,44.9704696814284));
#629=CARTESIAN_POINT('',(-0.0852251538250615,-345.399981994098,47.9239696814296));
#630=CARTESIAN_POINT('',(-0.0852251538250615,-355.499981994097,44.9704696814283));
#631=CARTESIAN_POINT('Origin',(0.107774846175237,-350.499981994098,57.1704696814327));
#632=CARTESIAN_POINT('',(-34.892225153825,-355.599981994097,57.1704696814282));
#633=CARTESIAN_POINT('',(-8.64222515382536,-355.599981994098,57.1704696814315));
#634=CARTESIAN_POINT('',(-34.8922251538252,-360.499981994097,57.1704696814282));
#635=CARTESIAN_POINT('',(-34.8922251538248,-350.499981994097,57.1704696814284));
#636=CARTESIAN_POINT('',(0.10777484617476,-360.499981994098,57.1704696814325));
#637=CARTESIAN_POINT('Origin',(-28.7922251538245,-350.499981994097,44.97046968143));
#638=CARTESIAN_POINT('',(-28.7922251538243,-345.399981994097,44.9704696814284));
#639=CARTESIAN_POINT('',(-5.99222515382443,-345.399981994098,44.9704696814288));
#640=CARTESIAN_POINT('',(-28.7922251538247,-355.599981994097,44.9704696814281));
#641=CARTESIAN_POINT('',(-28.7922251538245,-350.499981994097,44.9704696814283));
#642=CARTESIAN_POINT('',(-5.9922251538249,-355.599981994098,44.9704696814286));
#643=CARTESIAN_POINT('Origin',(-17.3922251538245,-345.399981994097,51.0704696814306));
#644=CARTESIAN_POINT('',(-34.8922251538245,-345.399981994097,57.1704696814285));
#645=CARTESIAN_POINT('',(-8.64222515382491,-345.399981994098,57.1704696814318));
#646=CARTESIAN_POINT('',(-34.8922251538245,-345.399981994096,44.0847700027993));
#647=CARTESIAN_POINT('',(-34.8922251538245,-345.399981994097,54.1204696814295));
#648=CARTESIAN_POINT('',(-31.8798794748121,-345.399981994097,45.8096341209793));
#649=CARTESIAN_POINT('Origin',(-32.8922251538245,-345.399981994096,44.0847700027993));
#650=CARTESIAN_POINT('Origin',(-28.7922251538244,-345.399981994097,51.0704696814284));
#651=CARTESIAN_POINT('',(-30.8922251538244,-345.399981994097,51.0704696814284));
#652=CARTESIAN_POINT('Origin',(-28.7922251538244,-345.399981994097,51.0704696814284));
#653=CARTESIAN_POINT('',(-8.09222515382452,-345.399981994098,51.070469681433));
#654=CARTESIAN_POINT('Origin',(-5.99222515382454,-345.399981994098,51.070469681433));
#655=CARTESIAN_POINT('Origin',(-0.0852251538241479,-350.499981994097,-0.0295303185717799));
#656=CARTESIAN_POINT('',(-0.0852251538250605,-360.499981994098,24.970469681428));
#657=CARTESIAN_POINT('',(-0.0852251538241479,-340.499981994098,24.9704696814284));
#658=CARTESIAN_POINT('',(-0.0852251538241479,-350.499981994097,24.9704696814282));
#659=CARTESIAN_POINT('',(-0.0852251538250405,-360.499981994097,-0.0295303185720108));
#660=CARTESIAN_POINT('',(-0.0852251538241489,-360.499981994097,14.2704696814291));
#661=CARTESIAN_POINT('',(-0.0852251538241479,-340.499981994097,-0.0295303185715845));
#662=CARTESIAN_POINT('',(-0.0852251538241489,-350.499981994096,-0.0295303185717799));
#663=CARTESIAN_POINT('',(-0.0852251538241489,-340.499981994097,14.2704696814296));
#664=CARTESIAN_POINT('Origin',(-17.3922251538251,-360.499981994097,28.5704696814303));
#665=CARTESIAN_POINT('',(-34.8922251538251,-360.499981994096,19.6861980763382));
#666=CARTESIAN_POINT('',(-34.892225153825,-360.499981994095,-0.0295303185720464));
#667=CARTESIAN_POINT('',(-15.1764967589149,-360.499981994096,-0.0295303185720641));
#668=CARTESIAN_POINT('',(-34.8922251538251,-360.499981994096,19.6861980763382));
#669=CARTESIAN_POINT('',(0.107774846174959,-360.499981994097,-0.0295303185720108));
#670=CARTESIAN_POINT('',(-11.8922251538251,-360.499981994097,24.970469681428));
#671=CARTESIAN_POINT('',(-11.8922251538251,-360.499981994097,24.970469681428));
#672=CARTESIAN_POINT('',(-13.892225511453,-360.499981994097,26.970469681428));
#673=CARTESIAN_POINT('',(-13.892225511453,-360.499981994097,26.970469681428));
#674=CARTESIAN_POINT('',(-13.892225511453,-360.499981994097,30.9704693238003));
#675=CARTESIAN_POINT('',(-13.892225511453,-360.499981994097,44.970469681428));
#676=CARTESIAN_POINT('',(0.107774846174795,-360.499981994098,44.9704696814281));
#677=CARTESIAN_POINT('',(-30.8922251538251,-360.499981994097,51.070469681428));
#678=CARTESIAN_POINT('Origin',(-28.7922251538251,-360.499981994097,51.070469681428));
#679=CARTESIAN_POINT('',(-8.09222515382522,-360.499981994098,51.0704696814327));
#680=CARTESIAN_POINT('Origin',(-5.9922251538252,-360.499981994098,51.0704696814326));
#681=CARTESIAN_POINT('Origin',(0.107774846175408,-350.499981994098,24.9704696814282));
#682=CARTESIAN_POINT('',(-11.8922251538241,-340.499981994097,24.9704696814284));
#683=CARTESIAN_POINT('',(-11.8922251538241,-340.499981994097,24.9704696814284));
#684=CARTESIAN_POINT('',(-11.8922251538246,-350.499981994097,24.9704696814282));
#685=CARTESIAN_POINT('Origin',(-32.8922251538247,-350.499981994096,44.0847700027992));
#686=CARTESIAN_POINT('',(-34.8922251538249,-355.599981994096,44.084770002799));
#687=CARTESIAN_POINT('',(-34.8922251538247,-350.499981994096,44.0847700027992));
#688=CARTESIAN_POINT('',(-31.8798794748126,-355.599981994097,45.809634120979));
#689=CARTESIAN_POINT('Origin',(-32.892225153825,-355.599981994096,44.0847700027991));
#690=CARTESIAN_POINT('',(-31.8798794748124,-350.499981994097,45.8096341209792));
#691=CARTESIAN_POINT('Origin',(-34.8922251538248,-350.499981994097,57.1704696814284));
#692=CARTESIAN_POINT('',(-34.892225153825,-355.599981994097,54.1204696814293));
#693=CARTESIAN_POINT('',(-34.8922251538243,-340.499981994097,57.1704696814286));
#694=CARTESIAN_POINT('',(-34.8922251538248,-350.499981994097,57.1704696814284));
#695=CARTESIAN_POINT('',(-34.8922251538242,-340.499981994096,19.6861980763387));
#696=CARTESIAN_POINT('',(-34.8922251538241,-340.499981994095,-0.0295303185716023));
#697=CARTESIAN_POINT('',(-34.8922251538246,-350.499981994096,19.6861980763384));
#698=CARTESIAN_POINT('Origin',(-28.7922251538246,-350.499981994097,51.0704696814282));
#699=CARTESIAN_POINT('Origin',(-28.7922251538249,-355.599981994097,51.0704696814281));
#700=CARTESIAN_POINT('Origin',(-17.392225153825,-355.599981994097,51.0704696814304));
#701=CARTESIAN_POINT('',(-8.09222515382499,-355.599981994098,51.0704696814327));
#702=CARTESIAN_POINT('Origin',(-5.99222515382497,-355.599981994098,51.0704696814328));
#703=CARTESIAN_POINT('',(-30.8922251538248,-355.599981994097,51.0704696814281));
#704=CARTESIAN_POINT('Origin',(-28.7922251538249,-355.599981994097,51.0704696814281));
#705=CARTESIAN_POINT('Origin',(0.107774846175237,-350.499981994098,57.1704696814327));
#706=CARTESIAN_POINT('',(0.107774846175688,-340.499981994098,57.170469681433));
#707=CARTESIAN_POINT('Origin',(-28.7922251538246,-350.499981994097,51.0704696814282));
#708=CARTESIAN_POINT('',(-30.8922251538246,-350.499981994097,51.0704696814282));
#709=CARTESIAN_POINT('Origin',(-5.99222515382476,-350.499981994098,51.0704696814328));
#710=CARTESIAN_POINT('',(-8.09222515382476,-350.499981994098,51.0704696814328));
#711=CARTESIAN_POINT('Origin',(-17.3922251538242,-340.499981994097,28.5704696814307));
#712=CARTESIAN_POINT('',(-13.8922255114521,-340.499981994097,30.9704693238008));
#713=CARTESIAN_POINT('',(0.107774846175706,-340.499981994098,44.9704696814285));
#714=CARTESIAN_POINT('',(-13.8922255114521,-340.499981994097,26.9704696814284));
#715=CARTESIAN_POINT('',(-13.8922255114521,-340.499981994097,44.9704696814285));
#716=CARTESIAN_POINT('',(-13.8922255114521,-340.499981994097,26.9704696814284));
#717=CARTESIAN_POINT('',(-15.176496758914,-340.499981994096,-0.0295303185715667));
#718=CARTESIAN_POINT('',(0.107774846175852,-340.499981994097,-0.0295303185715845));
#719=CARTESIAN_POINT('',(-34.8922251538242,-340.499981994096,19.6861980763387));
#720=CARTESIAN_POINT('',(-8.09222515382431,-340.499981994098,51.0704696814331));
#721=CARTESIAN_POINT('Origin',(-5.99222515382431,-340.499981994098,51.0704696814332));
#722=CARTESIAN_POINT('',(-30.8922251538242,-340.499981994097,51.0704696814285));
#723=CARTESIAN_POINT('Origin',(-28.7922251538242,-340.499981994097,51.0704696814285));
#724=CARTESIAN_POINT('Origin',(-28.7922251538246,-350.499981994097,51.0704696814282));
#725=CARTESIAN_POINT('',(-30.8922251538246,-350.499981994097,51.0704696814282));
#726=CARTESIAN_POINT('Origin',(-5.99222515382476,-350.499981994098,51.0704696814328));
#727=CARTESIAN_POINT('',(-8.09222515382476,-350.499981994098,51.0704696814328));
#728=CARTESIAN_POINT('Origin',(-13.8922255114526,-350.499981994097,30.9704693238006));
#729=CARTESIAN_POINT('',(-13.8922255114526,-350.499981994097,30.9704693238006));
#730=CARTESIAN_POINT('Origin',(-13.8922255114525,-350.499981994097,26.9704696814282));
#731=CARTESIAN_POINT('',(-13.8922255114525,-350.499981994097,26.9704696814282));
#732=CARTESIAN_POINT('Origin',(-11.8922251538246,-350.499981994097,24.9704696814282));
#733=CARTESIAN_POINT('Origin',(-15.1764967589145,-350.499981994096,-0.0295303185717977));
#734=CARTESIAN_POINT('',(-15.1764967589145,-350.499981994096,-0.0295303185717977));
#735=CARTESIAN_POINT('Origin',(-34.8922251538246,-350.499981994096,19.6861980763384));
#736=UNCERTAINTY_MEASURE_WITH_UNIT(LENGTH_MEASURE(0.01),#740,
'DISTANCE_ACCURACY_VALUE',
'Maximum model space distance between geometric entities at asserted c
onnectivities');
#737=UNCERTAINTY_MEASURE_WITH_UNIT(LENGTH_MEASURE(0.01),#740,
'DISTANCE_ACCURACY_VALUE',
'Maximum model space distance between geometric entities at asserted c
onnectivities');
#738=(
GEOMETRIC_REPRESENTATION_CONTEXT(3)
GLOBAL_UNCERTAINTY_ASSIGNED_CONTEXT((#736))
GLOBAL_UNIT_ASSIGNED_CONTEXT((#740,#742,#743))
REPRESENTATION_CONTEXT('','3D')
);
#739=(
GEOMETRIC_REPRESENTATION_CONTEXT(3)
GLOBAL_UNCERTAINTY_ASSIGNED_CONTEXT((#737))
GLOBAL_UNIT_ASSIGNED_CONTEXT((#740,#742,#743))
REPRESENTATION_CONTEXT('','3D')
);
#740=(
LENGTH_UNIT()
NAMED_UNIT(*)
SI_UNIT(.MILLI.,.METRE.)
);
#741=(
LENGTH_UNIT()
NAMED_UNIT(*)
SI_UNIT($,.METRE.)
);
#742=(
NAMED_UNIT(*)
PLANE_ANGLE_UNIT()
SI_UNIT($,.RADIAN.)
);
#743=(
NAMED_UNIT(*)
SI_UNIT($,.STERADIAN.)
SOLID_ANGLE_UNIT()
);
#744=SHAPE_DEFINITION_REPRESENTATION(#745,#746);
#745=PRODUCT_DEFINITION_SHAPE('',$,#748);
#746=SHAPE_REPRESENTATION('',(#460),#738);
#747=PRODUCT_DEFINITION_CONTEXT('part definition',#752,'design');
#748=PRODUCT_DEFINITION('szczeka II','szczeka II',#749,#747);
#749=PRODUCT_DEFINITION_FORMATION('',$,#754);
#750=PRODUCT_RELATED_PRODUCT_CATEGORY('szczeka II','szczeka II',(#754));
#751=APPLICATION_PROTOCOL_DEFINITION('international standard',
'automotive_design',2009,#752);
#752=APPLICATION_CONTEXT(
'Core Data for Automotive Mechanical Design Process');
#753=PRODUCT_CONTEXT('part definition',#752,'mechanical');
#754=PRODUCT('szczeka II','szczeka II',$,(#753));
#755=PRESENTATION_STYLE_ASSIGNMENT((#756));
#756=SURFACE_STYLE_USAGE(.BOTH.,#757);
#757=SURFACE_SIDE_STYLE('',(#758));
#758=SURFACE_STYLE_FILL_AREA(#759);
#759=FILL_AREA_STYLE('Stal \X2\2014\X0\ satynowa',(#760));
#760=FILL_AREA_STYLE_COLOUR('Stal \X2\2014\X0\ satynowa',#761);
#761=COLOUR_RGB('Stal \X2\2014\X0\ satynowa',0.627450980392157,0.627450980392157,
0.627450980392157);
ENDSEC;
END-ISO-10303-21;
