ISO-10303-21;
HEADER;
/* Generated by software containing ST-Developer
 * from STEP Tools, Inc. (www.steptools.com) 
 */

FILE_DESCRIPTION(
/* description */ (''),
/* implementation_level */ '2;1');

FILE_NAME(
/* name */ 'czlon2.step',
/* time_stamp */ '2026-03-04T15:15:21+01:00',
/* author */ (''),
/* organization */ (''),
/* preprocessor_version */ 'ST-DEVELOPER v20.1',
/* originating_system */ 'Autodesk Translation Framework v14.24.0.0',
/* authorisation */ '');

FILE_SCHEMA (('AUTOMOTIVE_DESIGN { 1 0 10303 214 3 1 1 }'));
ENDSEC;

DATA;
#10=MECHANICAL_DESIGN_GEOMETRIC_PRESENTATION_REPRESENTATION('',(#13),#271);
#11=SHAPE_REPRESENTATION_RELATIONSHIP('SRR','None',#278,#12);
#12=ADVANCED_BREP_SHAPE_REPRESENTATION('',(#14),#270);
#13=STYLED_ITEM('',(#287),#14);
#14=MANIFOLD_SOLID_BREP('Bry\X2\0142\X0\a1',#151);
#15=CYLINDRICAL_SURFACE('',#170,20.);
#16=CYLINDRICAL_SURFACE('',#173,40.);
#17=CYLINDRICAL_SURFACE('',#176,40.);
#18=CYLINDRICAL_SURFACE('',#179,20.);
#19=FACE_BOUND('',#32,.T.);
#20=FACE_BOUND('',#33,.T.);
#21=FACE_BOUND('',#40,.T.);
#22=FACE_OUTER_BOUND('',#31,.T.);
#23=FACE_OUTER_BOUND('',#34,.T.);
#24=FACE_OUTER_BOUND('',#35,.T.);
#25=FACE_OUTER_BOUND('',#36,.T.);
#26=FACE_OUTER_BOUND('',#37,.T.);
#27=FACE_OUTER_BOUND('',#38,.T.);
#28=FACE_OUTER_BOUND('',#39,.T.);
#29=FACE_OUTER_BOUND('',#41,.T.);
#30=FACE_OUTER_BOUND('',#42,.T.);
#31=EDGE_LOOP('',(#101,#102,#103,#104));
#32=EDGE_LOOP('',(#105));
#33=EDGE_LOOP('',(#106));
#34=EDGE_LOOP('',(#107,#108,#109,#110));
#35=EDGE_LOOP('',(#111,#112,#113,#114));
#36=EDGE_LOOP('',(#115,#116,#117,#118));
#37=EDGE_LOOP('',(#119,#120,#121,#122));
#38=EDGE_LOOP('',(#123,#124,#125,#126));
#39=EDGE_LOOP('',(#127,#128,#129,#130));
#40=EDGE_LOOP('',(#131));
#41=EDGE_LOOP('',(#132,#133,#134,#135));
#42=EDGE_LOOP('',(#136));
#43=LINE('',#234,#53);
#44=LINE('',#237,#54);
#45=LINE('',#245,#55);
#46=LINE('',#248,#56);
#47=LINE('',#250,#57);
#48=LINE('',#251,#58);
#49=LINE('',#255,#59);
#50=LINE('',#258,#60);
#51=LINE('',#259,#61);
#52=LINE('',#265,#62);
#53=VECTOR('',#188,10.);
#54=VECTOR('',#191,10.);
#55=VECTOR('',#200,20.);
#56=VECTOR('',#203,10.);
#57=VECTOR('',#204,10.);
#58=VECTOR('',#205,10.);
#59=VECTOR('',#210,10.);
#60=VECTOR('',#213,10.);
#61=VECTOR('',#214,10.);
#62=VECTOR('',#223,20.);
#63=CIRCLE('',#166,40.);
#64=CIRCLE('',#167,40.);
#65=CIRCLE('',#168,20.);
#66=CIRCLE('',#169,20.);
#67=CIRCLE('',#171,20.);
#68=CIRCLE('',#174,40.);
#69=CIRCLE('',#177,40.);
#70=CIRCLE('',#180,20.);
#71=VERTEX_POINT('',#230);
#72=VERTEX_POINT('',#231);
#73=VERTEX_POINT('',#233);
#74=VERTEX_POINT('',#235);
#75=VERTEX_POINT('',#238);
#76=VERTEX_POINT('',#240);
#77=VERTEX_POINT('',#243);
#78=VERTEX_POINT('',#247);
#79=VERTEX_POINT('',#249);
#80=VERTEX_POINT('',#253);
#81=VERTEX_POINT('',#257);
#82=VERTEX_POINT('',#264);
#83=EDGE_CURVE('',#71,#72,#63,.T.);
#84=EDGE_CURVE('',#73,#71,#43,.T.);
#85=EDGE_CURVE('',#74,#73,#64,.T.);
#86=EDGE_CURVE('',#72,#74,#44,.T.);
#87=EDGE_CURVE('',#75,#75,#65,.T.);
#88=EDGE_CURVE('',#76,#76,#66,.T.);
#89=EDGE_CURVE('',#77,#77,#67,.T.);
#90=EDGE_CURVE('',#77,#75,#45,.T.);
#91=EDGE_CURVE('',#71,#78,#46,.T.);
#92=EDGE_CURVE('',#79,#78,#47,.T.);
#93=EDGE_CURVE('',#73,#79,#48,.T.);
#94=EDGE_CURVE('',#80,#79,#68,.T.);
#95=EDGE_CURVE('',#74,#80,#49,.T.);
#96=EDGE_CURVE('',#81,#80,#50,.T.);
#97=EDGE_CURVE('',#72,#81,#51,.T.);
#98=EDGE_CURVE('',#78,#81,#69,.T.);
#99=EDGE_CURVE('',#76,#82,#52,.T.);
#100=EDGE_CURVE('',#82,#82,#70,.T.);
#101=ORIENTED_EDGE('',*,*,#83,.F.);
#102=ORIENTED_EDGE('',*,*,#84,.F.);
#103=ORIENTED_EDGE('',*,*,#85,.F.);
#104=ORIENTED_EDGE('',*,*,#86,.F.);
#105=ORIENTED_EDGE('',*,*,#87,.T.);
#106=ORIENTED_EDGE('',*,*,#88,.T.);
#107=ORIENTED_EDGE('',*,*,#89,.F.);
#108=ORIENTED_EDGE('',*,*,#90,.T.);
#109=ORIENTED_EDGE('',*,*,#87,.F.);
#110=ORIENTED_EDGE('',*,*,#90,.F.);
#111=ORIENTED_EDGE('',*,*,#84,.T.);
#112=ORIENTED_EDGE('',*,*,#91,.T.);
#113=ORIENTED_EDGE('',*,*,#92,.F.);
#114=ORIENTED_EDGE('',*,*,#93,.F.);
#115=ORIENTED_EDGE('',*,*,#85,.T.);
#116=ORIENTED_EDGE('',*,*,#93,.T.);
#117=ORIENTED_EDGE('',*,*,#94,.F.);
#118=ORIENTED_EDGE('',*,*,#95,.F.);
#119=ORIENTED_EDGE('',*,*,#86,.T.);
#120=ORIENTED_EDGE('',*,*,#95,.T.);
#121=ORIENTED_EDGE('',*,*,#96,.F.);
#122=ORIENTED_EDGE('',*,*,#97,.F.);
#123=ORIENTED_EDGE('',*,*,#83,.T.);
#124=ORIENTED_EDGE('',*,*,#97,.T.);
#125=ORIENTED_EDGE('',*,*,#98,.F.);
#126=ORIENTED_EDGE('',*,*,#91,.F.);
#127=ORIENTED_EDGE('',*,*,#98,.T.);
#128=ORIENTED_EDGE('',*,*,#96,.T.);
#129=ORIENTED_EDGE('',*,*,#94,.T.);
#130=ORIENTED_EDGE('',*,*,#92,.T.);
#131=ORIENTED_EDGE('',*,*,#89,.T.);
#132=ORIENTED_EDGE('',*,*,#88,.F.);
#133=ORIENTED_EDGE('',*,*,#99,.T.);
#134=ORIENTED_EDGE('',*,*,#100,.F.);
#135=ORIENTED_EDGE('',*,*,#99,.F.);
#136=ORIENTED_EDGE('',*,*,#100,.T.);
#137=PLANE('',#165);
#138=PLANE('',#172);
#139=PLANE('',#175);
#140=PLANE('',#178);
#141=PLANE('',#181);
#142=ADVANCED_FACE('',(#22,#19,#20),#137,.F.);
#143=ADVANCED_FACE('',(#23),#15,.F.);
#144=ADVANCED_FACE('',(#24),#138,.T.);
#145=ADVANCED_FACE('',(#25),#16,.T.);
#146=ADVANCED_FACE('',(#26),#139,.T.);
#147=ADVANCED_FACE('',(#27),#17,.T.);
#148=ADVANCED_FACE('',(#28,#21),#140,.T.);
#149=ADVANCED_FACE('',(#29),#18,.T.);
#150=ADVANCED_FACE('',(#30),#141,.F.);
#151=CLOSED_SHELL('',(#142,#143,#144,#145,#146,#147,#148,#149,#150));
#152=DERIVED_UNIT_ELEMENT(#154,1.);
#153=DERIVED_UNIT_ELEMENT(#273,-3.);
#154=(
MASS_UNIT()
NAMED_UNIT(*)
SI_UNIT(.KILO.,.GRAM.)
);
#155=DERIVED_UNIT((#152,#153));
#156=MEASURE_REPRESENTATION_ITEM('density measure',
POSITIVE_RATIO_MEASURE(7850.),#155);
#157=PROPERTY_DEFINITION_REPRESENTATION(#162,#159);
#158=PROPERTY_DEFINITION_REPRESENTATION(#163,#160);
#159=REPRESENTATION('material name',(#161),#270);
#160=REPRESENTATION('density',(#156),#270);
#161=DESCRIPTIVE_REPRESENTATION_ITEM('Stal','Stal');
#162=PROPERTY_DEFINITION('material property','material name',#280);
#163=PROPERTY_DEFINITION('material property','density of part',#280);
#164=AXIS2_PLACEMENT_3D('',#228,#182,#183);
#165=AXIS2_PLACEMENT_3D('',#229,#184,#185);
#166=AXIS2_PLACEMENT_3D('',#232,#186,#187);
#167=AXIS2_PLACEMENT_3D('',#236,#189,#190);
#168=AXIS2_PLACEMENT_3D('',#239,#192,#193);
#169=AXIS2_PLACEMENT_3D('',#241,#194,#195);
#170=AXIS2_PLACEMENT_3D('',#242,#196,#197);
#171=AXIS2_PLACEMENT_3D('',#244,#198,#199);
#172=AXIS2_PLACEMENT_3D('',#246,#201,#202);
#173=AXIS2_PLACEMENT_3D('',#252,#206,#207);
#174=AXIS2_PLACEMENT_3D('',#254,#208,#209);
#175=AXIS2_PLACEMENT_3D('',#256,#211,#212);
#176=AXIS2_PLACEMENT_3D('',#260,#215,#216);
#177=AXIS2_PLACEMENT_3D('',#261,#217,#218);
#178=AXIS2_PLACEMENT_3D('',#262,#219,#220);
#179=AXIS2_PLACEMENT_3D('',#263,#221,#222);
#180=AXIS2_PLACEMENT_3D('',#266,#224,#225);
#181=AXIS2_PLACEMENT_3D('',#267,#226,#227);
#182=DIRECTION('axis',(0.,0.,1.));
#183=DIRECTION('refdir',(1.,0.,0.));
#184=DIRECTION('center_axis',(0.,2.22044604925031E-16,-1.));
#185=DIRECTION('ref_axis',(-0.788010748821916,0.615661481449931,1.36704310416109E-16));
#186=DIRECTION('center_axis',(0.,2.22044604925031E-16,-1.));
#187=DIRECTION('ref_axis',(0.999999909970494,-0.000424333598840532,-9.42209863109626E-20));
#188=DIRECTION('',(-0.000424333598840421,-0.999999909970494,-2.22044584934465E-16));
#189=DIRECTION('center_axis',(0.,2.22044604925031E-16,-1.));
#190=DIRECTION('ref_axis',(-0.999999909970494,0.000424333598840199,9.42209863108886E-20));
#191=DIRECTION('',(0.000424333598840365,0.999999909970494,2.22044584934465E-16));
#192=DIRECTION('center_axis',(0.,2.22044604925031E-16,-1.));
#193=DIRECTION('ref_axis',(-0.788010748821916,0.615661481449931,1.36704310416109E-16));
#194=DIRECTION('center_axis',(0.,2.22044604925031E-16,-1.));
#195=DIRECTION('ref_axis',(-0.788010748821916,0.615661481449931,1.36704310416109E-16));
#196=DIRECTION('center_axis',(0.,-2.22044604925031E-16,1.));
#197=DIRECTION('ref_axis',(-0.788010748821916,0.615661481449931,1.36704310416109E-16));
#198=DIRECTION('center_axis',(0.,-2.22044604925031E-16,1.));
#199=DIRECTION('ref_axis',(-0.788010748821916,0.615661481449931,1.36704310416109E-16));
#200=DIRECTION('',(0.,-2.22044604925031E-16,1.));
#201=DIRECTION('center_axis',(0.999999909970494,-0.000424333598840421,-9.42209863109379E-20));
#202=DIRECTION('ref_axis',(-0.000424333598840421,-0.999999909970494,-2.22044584934465E-16));
#203=DIRECTION('',(0.,2.22044604925031E-16,-1.));
#204=DIRECTION('',(-0.000424333598840421,-0.999999909970494,-2.22044584934465E-16));
#205=DIRECTION('',(0.,2.22044604925031E-16,-1.));
#206=DIRECTION('center_axis',(0.,2.22044604925031E-16,-1.));
#207=DIRECTION('ref_axis',(-0.999999909970494,0.000424333598840199,9.42209863108886E-20));
#208=DIRECTION('center_axis',(0.,2.22044604925031E-16,-1.));
#209=DIRECTION('ref_axis',(-0.999999909970494,0.000424333598840199,9.42209863108886E-20));
#210=DIRECTION('',(0.,2.22044604925031E-16,-1.));
#211=DIRECTION('center_axis',(-0.999999909970494,0.00042433359884031,9.42209863109133E-20));
#212=DIRECTION('ref_axis',(0.00042433359884031,0.999999909970494,2.22044584934465E-16));
#213=DIRECTION('',(0.000424333598840365,0.999999909970494,2.22044584934465E-16));
#214=DIRECTION('',(0.,2.22044604925031E-16,-1.));
#215=DIRECTION('center_axis',(0.,2.22044604925031E-16,-1.));
#216=DIRECTION('ref_axis',(0.999999909970494,-0.000424333598840532,-9.42209863109626E-20));
#217=DIRECTION('center_axis',(0.,2.22044604925031E-16,-1.));
#218=DIRECTION('ref_axis',(0.999999909970494,-0.000424333598840532,-9.42209863109626E-20));
#219=DIRECTION('center_axis',(0.,2.22044604925031E-16,-1.));
#220=DIRECTION('ref_axis',(-0.788010748821916,0.615661481449931,1.36704310416109E-16));
#221=DIRECTION('center_axis',(0.,2.22044604925031E-16,-1.));
#222=DIRECTION('ref_axis',(-0.788010748821916,0.615661481449931,1.36704310416109E-16));
#223=DIRECTION('',(0.,-2.22044604925031E-16,1.));
#224=DIRECTION('center_axis',(0.,-2.22044604925031E-16,1.));
#225=DIRECTION('ref_axis',(-0.788010748821916,0.615661481449931,1.36704310416109E-16));
#226=DIRECTION('center_axis',(0.,2.22044604925031E-16,-1.));
#227=DIRECTION('ref_axis',(-0.788010748821916,0.615661481449931,1.36704310416109E-16));
#228=CARTESIAN_POINT('',(0.,0.,0.));
#229=CARTESIAN_POINT('Origin',(-0.0424333598841642,-99.9999909970495,245.5));
#230=CARTESIAN_POINT('',(39.9151296790516,-200.016955338053,245.5));
#231=CARTESIAN_POINT('',(-40.084863118588,-199.983008650145,245.5));
#232=CARTESIAN_POINT('Origin',(-0.084866719768204,-199.999981994099,245.5));
#233=CARTESIAN_POINT('',(39.9999963988196,-0.0169733439537367,245.5));
#234=CARTESIAN_POINT('',(39.9999963988196,-0.0169733439537367,245.5));
#235=CARTESIAN_POINT('',(-39.9999963988199,0.016973343953488,245.5));
#236=CARTESIAN_POINT('Origin',(-1.4210854715202E-13,-1.06581410364015E-13,
245.5));
#237=CARTESIAN_POINT('',(-40.084863118588,-199.983008650145,245.5));
#238=CARTESIAN_POINT('',(15.7602149764382,-12.3132296289987,245.5));
#239=CARTESIAN_POINT('Origin',(-1.4210854715202E-13,-7.105427357601E-14,
245.5));
#240=CARTESIAN_POINT('',(15.6753482566701,-212.313211623098,245.5));
#241=CARTESIAN_POINT('Origin',(-0.084866719768204,-199.999981994099,245.5));
#242=CARTESIAN_POINT('Origin',(-1.4210854715202E-13,-3.5527136788005E-14,
215.5));
#243=CARTESIAN_POINT('',(15.7602149764382,-12.3132296289987,215.5));
#244=CARTESIAN_POINT('Origin',(-1.4210854715202E-13,-3.5527136788005E-14,
215.5));
#245=CARTESIAN_POINT('',(15.7602149764382,-12.3132296289987,215.5));
#246=CARTESIAN_POINT('Origin',(39.9999963988196,-0.0169733439537367,245.5));
#247=CARTESIAN_POINT('',(39.9151296790516,-200.016955338053,215.5));
#248=CARTESIAN_POINT('',(39.9151296790516,-200.016955338053,245.5));
#249=CARTESIAN_POINT('',(39.9999963988196,-0.0169733439537012,215.5));
#250=CARTESIAN_POINT('',(39.9999963988196,-0.0169733439537012,215.5));
#251=CARTESIAN_POINT('',(39.9999963988196,-0.0169733439537367,245.5));
#252=CARTESIAN_POINT('Origin',(-1.4210854715202E-13,-1.06581410364015E-13,
245.5));
#253=CARTESIAN_POINT('',(-39.9999963988199,0.0169733439535236,215.5));
#254=CARTESIAN_POINT('Origin',(-1.4210854715202E-13,-7.105427357601E-14,
215.5));
#255=CARTESIAN_POINT('',(-39.9999963988199,0.016973343953488,245.5));
#256=CARTESIAN_POINT('Origin',(-40.084863118588,-199.983008650145,245.5));
#257=CARTESIAN_POINT('',(-40.084863118588,-199.983008650145,215.5));
#258=CARTESIAN_POINT('',(-40.084863118588,-199.983008650145,215.5));
#259=CARTESIAN_POINT('',(-40.084863118588,-199.983008650145,245.5));
#260=CARTESIAN_POINT('Origin',(-0.084866719768204,-199.999981994099,245.5));
#261=CARTESIAN_POINT('Origin',(-0.084866719768204,-199.999981994099,215.5));
#262=CARTESIAN_POINT('Origin',(-0.0424333598841642,-99.9999909970495,215.5));
#263=CARTESIAN_POINT('Origin',(-0.084866719768204,-199.999981994099,266.));
#264=CARTESIAN_POINT('',(15.6753482566701,-212.313211623098,266.));
#265=CARTESIAN_POINT('',(15.6753482566701,-212.313211623098,266.));
#266=CARTESIAN_POINT('Origin',(-0.084866719768204,-199.999981994099,266.));
#267=CARTESIAN_POINT('Origin',(-0.084866719768204,-199.999981994099,266.));
#268=UNCERTAINTY_MEASURE_WITH_UNIT(LENGTH_MEASURE(0.01),#272,
'DISTANCE_ACCURACY_VALUE',
'Maximum model space distance between geometric entities at asserted c
onnectivities');
#269=UNCERTAINTY_MEASURE_WITH_UNIT(LENGTH_MEASURE(0.01),#272,
'DISTANCE_ACCURACY_VALUE',
'Maximum model space distance between geometric entities at asserted c
onnectivities');
#270=(
GEOMETRIC_REPRESENTATION_CONTEXT(3)
GLOBAL_UNCERTAINTY_ASSIGNED_CONTEXT((#268))
GLOBAL_UNIT_ASSIGNED_CONTEXT((#272,#274,#275))
REPRESENTATION_CONTEXT('','3D')
);
#271=(
GEOMETRIC_REPRESENTATION_CONTEXT(3)
GLOBAL_UNCERTAINTY_ASSIGNED_CONTEXT((#269))
GLOBAL_UNIT_ASSIGNED_CONTEXT((#272,#274,#275))
REPRESENTATION_CONTEXT('','3D')
);
#272=(
LENGTH_UNIT()
NAMED_UNIT(*)
SI_UNIT(.MILLI.,.METRE.)
);
#273=(
LENGTH_UNIT()
NAMED_UNIT(*)
SI_UNIT($,.METRE.)
);
#274=(
NAMED_UNIT(*)
PLANE_ANGLE_UNIT()
SI_UNIT($,.RADIAN.)
);
#275=(
NAMED_UNIT(*)
SI_UNIT($,.STERADIAN.)
SOLID_ANGLE_UNIT()
);
#276=SHAPE_DEFINITION_REPRESENTATION(#277,#278);
#277=PRODUCT_DEFINITION_SHAPE('',$,#280);
#278=SHAPE_REPRESENTATION('',(#164),#270);
#279=PRODUCT_DEFINITION_CONTEXT('part definition',#284,'design');
#280=PRODUCT_DEFINITION('czlon2','czlon2',#281,#279);
#281=PRODUCT_DEFINITION_FORMATION('',$,#286);
#282=PRODUCT_RELATED_PRODUCT_CATEGORY('czlon2','czlon2',(#286));
#283=APPLICATION_PROTOCOL_DEFINITION('international standard',
'automotive_design',2009,#284);
#284=APPLICATION_CONTEXT(
'Core Data for Automotive Mechanical Design Process');
#285=PRODUCT_CONTEXT('part definition',#284,'mechanical');
#286=PRODUCT('czlon2','czlon2',$,(#285));
#287=PRESENTATION_STYLE_ASSIGNMENT((#288));
#288=SURFACE_STYLE_USAGE(.BOTH.,#289);
#289=SURFACE_SIDE_STYLE('',(#290));
#290=SURFACE_STYLE_FILL_AREA(#291);
#291=FILL_AREA_STYLE('Stal \X2\2014\X0\ satynowa',(#292));
#292=FILL_AREA_STYLE_COLOUR('Stal \X2\2014\X0\ satynowa',#293);
#293=COLOUR_RGB('Stal \X2\2014\X0\ satynowa',0.627450980392157,0.627450980392157,
0.627450980392157);
ENDSEC;
END-ISO-10303-21;
