ISO-10303-21;
HEADER;
/* Generated by software containing ST-Developer
 * from STEP Tools, Inc. (www.steptools.com) 
 */

FILE_DESCRIPTION(
/* description */ (''),
/* implementation_level */ '2;1');

FILE_NAME(
/* name */ 'czlon1.step',
/* time_stamp */ '2026-03-04T15:15:15+01:00',
/* author */ (''),
/* organization */ (''),
/* preprocessor_version */ 'ST-DEVELOPER v20.1',
/* originating_system */ 'Autodesk Translation Framework v14.24.0.0',
/* authorisation */ '');

FILE_SCHEMA (('AUTOMOTIVE_DESIGN { 1 0 10303 214 3 1 1 }'));
ENDSEC;

DATA;
#10=MECHANICAL_DESIGN_GEOMETRIC_PRESENTATION_REPRESENTATION('',(#13),#962);
#11=SHAPE_REPRESENTATION_RELATIONSHIP('SRR','None',#969,#12);
#12=ADVANCED_BREP_SHAPE_REPRESENTATION('',(#14),#961);
#13=STYLED_ITEM('',(#978),#14);
#14=MANIFOLD_SOLID_BREP('Bry\X2\0142\X0\a1',#558);
#15=FACE_BOUND('',#77,.T.);
#16=FACE_BOUND('',#78,.T.);
#17=FACE_BOUND('',#79,.T.);
#18=FACE_BOUND('',#80,.T.);
#19=FACE_BOUND('',#81,.T.);
#20=FACE_BOUND('',#82,.T.);
#21=FACE_BOUND('',#83,.T.);
#22=FACE_BOUND('',#84,.T.);
#23=FACE_BOUND('',#85,.T.);
#24=FACE_BOUND('',#105,.T.);
#25=FACE_BOUND('',#111,.T.);
#26=FACE_BOUND('',#112,.T.);
#27=FACE_BOUND('',#113,.T.);
#28=FACE_BOUND('',#114,.T.);
#29=FACE_BOUND('',#115,.T.);
#30=FACE_BOUND('',#116,.T.);
#31=FACE_BOUND('',#117,.T.);
#32=FACE_BOUND('',#118,.T.);
#33=PLANE('',#575);
#34=PLANE('',#576);
#35=PLANE('',#594);
#36=PLANE('',#597);
#37=PLANE('',#616);
#38=PLANE('',#617);
#39=PLANE('',#620);
#40=PLANE('',#623);
#41=PLANE('',#628);
#42=PLANE('',#630);
#43=PLANE('',#631);
#44=PLANE('',#634);
#45=FACE_OUTER_BOUND('',#74,.T.);
#46=FACE_OUTER_BOUND('',#75,.T.);
#47=FACE_OUTER_BOUND('',#76,.T.);
#48=FACE_OUTER_BOUND('',#86,.T.);
#49=FACE_OUTER_BOUND('',#87,.T.);
#50=FACE_OUTER_BOUND('',#88,.T.);
#51=FACE_OUTER_BOUND('',#89,.T.);
#52=FACE_OUTER_BOUND('',#90,.T.);
#53=FACE_OUTER_BOUND('',#91,.T.);
#54=FACE_OUTER_BOUND('',#92,.T.);
#55=FACE_OUTER_BOUND('',#93,.T.);
#56=FACE_OUTER_BOUND('',#94,.T.);
#57=FACE_OUTER_BOUND('',#95,.T.);
#58=FACE_OUTER_BOUND('',#96,.T.);
#59=FACE_OUTER_BOUND('',#97,.T.);
#60=FACE_OUTER_BOUND('',#98,.T.);
#61=FACE_OUTER_BOUND('',#99,.T.);
#62=FACE_OUTER_BOUND('',#100,.T.);
#63=FACE_OUTER_BOUND('',#101,.T.);
#64=FACE_OUTER_BOUND('',#102,.T.);
#65=FACE_OUTER_BOUND('',#103,.T.);
#66=FACE_OUTER_BOUND('',#104,.T.);
#67=FACE_OUTER_BOUND('',#106,.T.);
#68=FACE_OUTER_BOUND('',#107,.T.);
#69=FACE_OUTER_BOUND('',#108,.T.);
#70=FACE_OUTER_BOUND('',#109,.T.);
#71=FACE_OUTER_BOUND('',#110,.T.);
#72=FACE_OUTER_BOUND('',#119,.T.);
#73=FACE_OUTER_BOUND('',#120,.T.);
#74=EDGE_LOOP('',(#362,#363,#364,#365));
#75=EDGE_LOOP('',(#366,#367,#368,#369));
#76=EDGE_LOOP('',(#370,#371,#372,#373,#374,#375,#376,#377));
#77=EDGE_LOOP('',(#378));
#78=EDGE_LOOP('',(#379));
#79=EDGE_LOOP('',(#380));
#80=EDGE_LOOP('',(#381));
#81=EDGE_LOOP('',(#382));
#82=EDGE_LOOP('',(#383));
#83=EDGE_LOOP('',(#384));
#84=EDGE_LOOP('',(#385));
#85=EDGE_LOOP('',(#386,#387,#388,#389,#390,#391,#392,#393));
#86=EDGE_LOOP('',(#394,#395,#396,#397));
#87=EDGE_LOOP('',(#398,#399,#400,#401));
#88=EDGE_LOOP('',(#402,#403,#404,#405));
#89=EDGE_LOOP('',(#406,#407,#408,#409));
#90=EDGE_LOOP('',(#410,#411,#412,#413));
#91=EDGE_LOOP('',(#414,#415,#416,#417));
#92=EDGE_LOOP('',(#418,#419,#420,#421));
#93=EDGE_LOOP('',(#422,#423,#424,#425));
#94=EDGE_LOOP('',(#426,#427,#428,#429));
#95=EDGE_LOOP('',(#430,#431,#432,#433));
#96=EDGE_LOOP('',(#434,#435,#436,#437));
#97=EDGE_LOOP('',(#438,#439,#440,#441));
#98=EDGE_LOOP('',(#442,#443,#444,#445));
#99=EDGE_LOOP('',(#446,#447,#448,#449));
#100=EDGE_LOOP('',(#450,#451,#452,#453));
#101=EDGE_LOOP('',(#454,#455,#456,#457));
#102=EDGE_LOOP('',(#458,#459,#460,#461));
#103=EDGE_LOOP('',(#462,#463,#464,#465));
#104=EDGE_LOOP('',(#466,#467,#468,#469,#470,#471,#472,#473));
#105=EDGE_LOOP('',(#474));
#106=EDGE_LOOP('',(#475,#476,#477,#478));
#107=EDGE_LOOP('',(#479,#480,#481,#482));
#108=EDGE_LOOP('',(#483,#484,#485,#486));
#109=EDGE_LOOP('',(#487,#488,#489,#490));
#110=EDGE_LOOP('',(#491,#492,#493,#494,#495,#496,#497,#498));
#111=EDGE_LOOP('',(#499));
#112=EDGE_LOOP('',(#500));
#113=EDGE_LOOP('',(#501));
#114=EDGE_LOOP('',(#502));
#115=EDGE_LOOP('',(#503));
#116=EDGE_LOOP('',(#504));
#117=EDGE_LOOP('',(#505));
#118=EDGE_LOOP('',(#506));
#119=EDGE_LOOP('',(#507,#508,#509,#510));
#120=EDGE_LOOP('',(#511));
#121=LINE('',#810,#162);
#122=LINE('',#813,#163);
#123=LINE('',#816,#164);
#124=LINE('',#818,#165);
#125=LINE('',#819,#166);
#126=LINE('',#822,#167);
#127=LINE('',#826,#168);
#128=LINE('',#830,#169);
#129=LINE('',#850,#170);
#130=LINE('',#854,#171);
#131=LINE('',#858,#172);
#132=LINE('',#862,#173);
#133=LINE('',#866,#174);
#134=LINE('',#870,#175);
#135=LINE('',#871,#176);
#136=LINE('',#874,#177);
#137=LINE('',#878,#178);
#138=LINE('',#879,#179);
#139=LINE('',#882,#180);
#140=LINE('',#886,#181);
#141=LINE('',#890,#182);
#142=LINE('',#894,#183);
#143=LINE('',#898,#184);
#144=LINE('',#902,#185);
#145=LINE('',#906,#186);
#146=LINE('',#910,#187);
#147=LINE('',#914,#188);
#148=LINE('',#917,#189);
#149=LINE('',#920,#190);
#150=LINE('',#922,#191);
#151=LINE('',#923,#192);
#152=LINE('',#926,#193);
#153=LINE('',#930,#194);
#154=LINE('',#931,#195);
#155=LINE('',#934,#196);
#156=LINE('',#938,#197);
#157=LINE('',#942,#198);
#158=LINE('',#947,#199);
#159=LINE('',#949,#200);
#160=LINE('',#951,#201);
#161=LINE('',#956,#202);
#162=VECTOR('',#641,10.);
#163=VECTOR('',#644,10.);
#164=VECTOR('',#647,10.);
#165=VECTOR('',#648,10.);
#166=VECTOR('',#649,10.);
#167=VECTOR('',#652,10.);
#168=VECTOR('',#655,10.);
#169=VECTOR('',#658,10.);
#170=VECTOR('',#677,10.);
#171=VECTOR('',#680,10.);
#172=VECTOR('',#683,10.);
#173=VECTOR('',#686,10.);
#174=VECTOR('',#691,10.);
#175=VECTOR('',#696,10.);
#176=VECTOR('',#697,10.);
#177=VECTOR('',#700,10.);
#178=VECTOR('',#705,10.);
#179=VECTOR('',#706,10.);
#180=VECTOR('',#709,10.);
#181=VECTOR('',#714,4.);
#182=VECTOR('',#719,4.);
#183=VECTOR('',#724,4.);
#184=VECTOR('',#729,4.);
#185=VECTOR('',#734,4.);
#186=VECTOR('',#739,4.);
#187=VECTOR('',#744,3.99999999999999);
#188=VECTOR('',#749,4.);
#189=VECTOR('',#754,10.);
#190=VECTOR('',#757,10.);
#191=VECTOR('',#758,10.);
#192=VECTOR('',#759,10.);
#193=VECTOR('',#762,10.);
#194=VECTOR('',#767,10.);
#195=VECTOR('',#768,10.);
#196=VECTOR('',#771,10.);
#197=VECTOR('',#776,10.);
#198=VECTOR('',#779,10.);
#199=VECTOR('',#786,10.);
#200=VECTOR('',#789,10.);
#201=VECTOR('',#792,10.);
#202=VECTOR('',#799,20.);
#203=CIRCLE('',#573,10.);
#204=CIRCLE('',#574,10.);
#205=CIRCLE('',#577,10.);
#206=CIRCLE('',#578,10.);
#207=CIRCLE('',#579,10.);
#208=CIRCLE('',#580,4.);
#209=CIRCLE('',#581,3.99999999999999);
#210=CIRCLE('',#582,4.);
#211=CIRCLE('',#583,4.);
#212=CIRCLE('',#584,4.);
#213=CIRCLE('',#585,4.);
#214=CIRCLE('',#586,4.);
#215=CIRCLE('',#587,4.);
#216=CIRCLE('',#588,50.);
#217=CIRCLE('',#589,50.);
#218=CIRCLE('',#590,50.);
#219=CIRCLE('',#591,50.);
#220=CIRCLE('',#593,10.);
#221=CIRCLE('',#596,10.);
#222=CIRCLE('',#599,10.);
#223=CIRCLE('',#601,4.);
#224=CIRCLE('',#603,4.);
#225=CIRCLE('',#605,4.);
#226=CIRCLE('',#607,4.);
#227=CIRCLE('',#609,4.);
#228=CIRCLE('',#611,4.);
#229=CIRCLE('',#613,3.99999999999999);
#230=CIRCLE('',#615,4.);
#231=CIRCLE('',#619,50.);
#232=CIRCLE('',#622,50.);
#233=CIRCLE('',#624,50.);
#234=CIRCLE('',#625,50.);
#235=CIRCLE('',#626,20.);
#236=CIRCLE('',#633,20.);
#237=VERTEX_POINT('',#806);
#238=VERTEX_POINT('',#807);
#239=VERTEX_POINT('',#809);
#240=VERTEX_POINT('',#811);
#241=VERTEX_POINT('',#815);
#242=VERTEX_POINT('',#817);
#243=VERTEX_POINT('',#821);
#244=VERTEX_POINT('',#823);
#245=VERTEX_POINT('',#825);
#246=VERTEX_POINT('',#827);
#247=VERTEX_POINT('',#829);
#248=VERTEX_POINT('',#832);
#249=VERTEX_POINT('',#834);
#250=VERTEX_POINT('',#836);
#251=VERTEX_POINT('',#838);
#252=VERTEX_POINT('',#840);
#253=VERTEX_POINT('',#842);
#254=VERTEX_POINT('',#844);
#255=VERTEX_POINT('',#846);
#256=VERTEX_POINT('',#848);
#257=VERTEX_POINT('',#849);
#258=VERTEX_POINT('',#851);
#259=VERTEX_POINT('',#853);
#260=VERTEX_POINT('',#855);
#261=VERTEX_POINT('',#857);
#262=VERTEX_POINT('',#859);
#263=VERTEX_POINT('',#861);
#264=VERTEX_POINT('',#865);
#265=VERTEX_POINT('',#869);
#266=VERTEX_POINT('',#873);
#267=VERTEX_POINT('',#877);
#268=VERTEX_POINT('',#881);
#269=VERTEX_POINT('',#885);
#270=VERTEX_POINT('',#889);
#271=VERTEX_POINT('',#893);
#272=VERTEX_POINT('',#897);
#273=VERTEX_POINT('',#901);
#274=VERTEX_POINT('',#905);
#275=VERTEX_POINT('',#909);
#276=VERTEX_POINT('',#913);
#277=VERTEX_POINT('',#919);
#278=VERTEX_POINT('',#921);
#279=VERTEX_POINT('',#925);
#280=VERTEX_POINT('',#929);
#281=VERTEX_POINT('',#933);
#282=VERTEX_POINT('',#937);
#283=VERTEX_POINT('',#939);
#284=VERTEX_POINT('',#941);
#285=VERTEX_POINT('',#944);
#286=VERTEX_POINT('',#955);
#287=EDGE_CURVE('',#237,#238,#203,.T.);
#288=EDGE_CURVE('',#238,#239,#121,.T.);
#289=EDGE_CURVE('',#239,#240,#204,.T.);
#290=EDGE_CURVE('',#240,#237,#122,.T.);
#291=EDGE_CURVE('',#241,#238,#123,.T.);
#292=EDGE_CURVE('',#242,#241,#124,.T.);
#293=EDGE_CURVE('',#239,#242,#125,.T.);
#294=EDGE_CURVE('',#237,#243,#126,.T.);
#295=EDGE_CURVE('',#244,#243,#205,.T.);
#296=EDGE_CURVE('',#244,#245,#127,.T.);
#297=EDGE_CURVE('',#246,#245,#206,.T.);
#298=EDGE_CURVE('',#246,#247,#128,.T.);
#299=EDGE_CURVE('',#241,#247,#207,.T.);
#300=EDGE_CURVE('',#248,#248,#208,.T.);
#301=EDGE_CURVE('',#249,#249,#209,.T.);
#302=EDGE_CURVE('',#250,#250,#210,.T.);
#303=EDGE_CURVE('',#251,#251,#211,.T.);
#304=EDGE_CURVE('',#252,#252,#212,.T.);
#305=EDGE_CURVE('',#253,#253,#213,.T.);
#306=EDGE_CURVE('',#254,#254,#214,.T.);
#307=EDGE_CURVE('',#255,#255,#215,.T.);
#308=EDGE_CURVE('',#256,#257,#129,.T.);
#309=EDGE_CURVE('',#258,#256,#216,.T.);
#310=EDGE_CURVE('',#259,#258,#130,.T.);
#311=EDGE_CURVE('',#260,#259,#217,.T.);
#312=EDGE_CURVE('',#261,#260,#131,.T.);
#313=EDGE_CURVE('',#262,#261,#218,.T.);
#314=EDGE_CURVE('',#263,#262,#132,.T.);
#315=EDGE_CURVE('',#257,#263,#219,.T.);
#316=EDGE_CURVE('',#247,#264,#133,.T.);
#317=EDGE_CURVE('',#264,#242,#220,.T.);
#318=EDGE_CURVE('',#265,#246,#134,.T.);
#319=EDGE_CURVE('',#264,#265,#135,.T.);
#320=EDGE_CURVE('',#245,#266,#136,.T.);
#321=EDGE_CURVE('',#266,#265,#221,.T.);
#322=EDGE_CURVE('',#267,#244,#137,.T.);
#323=EDGE_CURVE('',#266,#267,#138,.T.);
#324=EDGE_CURVE('',#243,#268,#139,.T.);
#325=EDGE_CURVE('',#268,#267,#222,.T.);
#326=EDGE_CURVE('',#255,#269,#140,.T.);
#327=EDGE_CURVE('',#269,#269,#223,.T.);
#328=EDGE_CURVE('',#254,#270,#141,.T.);
#329=EDGE_CURVE('',#270,#270,#224,.T.);
#330=EDGE_CURVE('',#253,#271,#142,.T.);
#331=EDGE_CURVE('',#271,#271,#225,.T.);
#332=EDGE_CURVE('',#252,#272,#143,.T.);
#333=EDGE_CURVE('',#272,#272,#226,.T.);
#334=EDGE_CURVE('',#251,#273,#144,.T.);
#335=EDGE_CURVE('',#273,#273,#227,.T.);
#336=EDGE_CURVE('',#250,#274,#145,.T.);
#337=EDGE_CURVE('',#274,#274,#228,.T.);
#338=EDGE_CURVE('',#249,#275,#146,.T.);
#339=EDGE_CURVE('',#275,#275,#229,.T.);
#340=EDGE_CURVE('',#248,#276,#147,.T.);
#341=EDGE_CURVE('',#276,#276,#230,.T.);
#342=EDGE_CURVE('',#268,#240,#148,.T.);
#343=EDGE_CURVE('',#277,#260,#149,.T.);
#344=EDGE_CURVE('',#277,#278,#150,.T.);
#345=EDGE_CURVE('',#261,#278,#151,.T.);
#346=EDGE_CURVE('',#259,#279,#152,.T.);
#347=EDGE_CURVE('',#279,#277,#231,.T.);
#348=EDGE_CURVE('',#280,#258,#153,.T.);
#349=EDGE_CURVE('',#280,#279,#154,.T.);
#350=EDGE_CURVE('',#256,#281,#155,.T.);
#351=EDGE_CURVE('',#281,#280,#232,.T.);
#352=EDGE_CURVE('',#282,#281,#156,.T.);
#353=EDGE_CURVE('',#283,#282,#233,.T.);
#354=EDGE_CURVE('',#284,#283,#157,.T.);
#355=EDGE_CURVE('',#278,#284,#234,.T.);
#356=EDGE_CURVE('',#285,#285,#235,.T.);
#357=EDGE_CURVE('',#284,#262,#158,.T.);
#358=EDGE_CURVE('',#263,#283,#159,.T.);
#359=EDGE_CURVE('',#282,#257,#160,.T.);
#360=EDGE_CURVE('',#285,#286,#161,.T.);
#361=EDGE_CURVE('',#286,#286,#236,.T.);
#362=ORIENTED_EDGE('',*,*,#287,.T.);
#363=ORIENTED_EDGE('',*,*,#288,.T.);
#364=ORIENTED_EDGE('',*,*,#289,.T.);
#365=ORIENTED_EDGE('',*,*,#290,.T.);
#366=ORIENTED_EDGE('',*,*,#288,.F.);
#367=ORIENTED_EDGE('',*,*,#291,.F.);
#368=ORIENTED_EDGE('',*,*,#292,.F.);
#369=ORIENTED_EDGE('',*,*,#293,.F.);
#370=ORIENTED_EDGE('',*,*,#287,.F.);
#371=ORIENTED_EDGE('',*,*,#294,.T.);
#372=ORIENTED_EDGE('',*,*,#295,.F.);
#373=ORIENTED_EDGE('',*,*,#296,.T.);
#374=ORIENTED_EDGE('',*,*,#297,.F.);
#375=ORIENTED_EDGE('',*,*,#298,.T.);
#376=ORIENTED_EDGE('',*,*,#299,.F.);
#377=ORIENTED_EDGE('',*,*,#291,.T.);
#378=ORIENTED_EDGE('',*,*,#300,.T.);
#379=ORIENTED_EDGE('',*,*,#301,.T.);
#380=ORIENTED_EDGE('',*,*,#302,.T.);
#381=ORIENTED_EDGE('',*,*,#303,.T.);
#382=ORIENTED_EDGE('',*,*,#304,.T.);
#383=ORIENTED_EDGE('',*,*,#305,.T.);
#384=ORIENTED_EDGE('',*,*,#306,.T.);
#385=ORIENTED_EDGE('',*,*,#307,.T.);
#386=ORIENTED_EDGE('',*,*,#308,.F.);
#387=ORIENTED_EDGE('',*,*,#309,.F.);
#388=ORIENTED_EDGE('',*,*,#310,.F.);
#389=ORIENTED_EDGE('',*,*,#311,.F.);
#390=ORIENTED_EDGE('',*,*,#312,.F.);
#391=ORIENTED_EDGE('',*,*,#313,.F.);
#392=ORIENTED_EDGE('',*,*,#314,.F.);
#393=ORIENTED_EDGE('',*,*,#315,.F.);
#394=ORIENTED_EDGE('',*,*,#299,.T.);
#395=ORIENTED_EDGE('',*,*,#316,.T.);
#396=ORIENTED_EDGE('',*,*,#317,.T.);
#397=ORIENTED_EDGE('',*,*,#292,.T.);
#398=ORIENTED_EDGE('',*,*,#316,.F.);
#399=ORIENTED_EDGE('',*,*,#298,.F.);
#400=ORIENTED_EDGE('',*,*,#318,.F.);
#401=ORIENTED_EDGE('',*,*,#319,.F.);
#402=ORIENTED_EDGE('',*,*,#297,.T.);
#403=ORIENTED_EDGE('',*,*,#320,.T.);
#404=ORIENTED_EDGE('',*,*,#321,.T.);
#405=ORIENTED_EDGE('',*,*,#318,.T.);
#406=ORIENTED_EDGE('',*,*,#320,.F.);
#407=ORIENTED_EDGE('',*,*,#296,.F.);
#408=ORIENTED_EDGE('',*,*,#322,.F.);
#409=ORIENTED_EDGE('',*,*,#323,.F.);
#410=ORIENTED_EDGE('',*,*,#295,.T.);
#411=ORIENTED_EDGE('',*,*,#324,.T.);
#412=ORIENTED_EDGE('',*,*,#325,.T.);
#413=ORIENTED_EDGE('',*,*,#322,.T.);
#414=ORIENTED_EDGE('',*,*,#307,.F.);
#415=ORIENTED_EDGE('',*,*,#326,.T.);
#416=ORIENTED_EDGE('',*,*,#327,.F.);
#417=ORIENTED_EDGE('',*,*,#326,.F.);
#418=ORIENTED_EDGE('',*,*,#306,.F.);
#419=ORIENTED_EDGE('',*,*,#328,.T.);
#420=ORIENTED_EDGE('',*,*,#329,.F.);
#421=ORIENTED_EDGE('',*,*,#328,.F.);
#422=ORIENTED_EDGE('',*,*,#305,.F.);
#423=ORIENTED_EDGE('',*,*,#330,.T.);
#424=ORIENTED_EDGE('',*,*,#331,.F.);
#425=ORIENTED_EDGE('',*,*,#330,.F.);
#426=ORIENTED_EDGE('',*,*,#304,.F.);
#427=ORIENTED_EDGE('',*,*,#332,.T.);
#428=ORIENTED_EDGE('',*,*,#333,.F.);
#429=ORIENTED_EDGE('',*,*,#332,.F.);
#430=ORIENTED_EDGE('',*,*,#303,.F.);
#431=ORIENTED_EDGE('',*,*,#334,.T.);
#432=ORIENTED_EDGE('',*,*,#335,.F.);
#433=ORIENTED_EDGE('',*,*,#334,.F.);
#434=ORIENTED_EDGE('',*,*,#302,.F.);
#435=ORIENTED_EDGE('',*,*,#336,.T.);
#436=ORIENTED_EDGE('',*,*,#337,.F.);
#437=ORIENTED_EDGE('',*,*,#336,.F.);
#438=ORIENTED_EDGE('',*,*,#301,.F.);
#439=ORIENTED_EDGE('',*,*,#338,.T.);
#440=ORIENTED_EDGE('',*,*,#339,.F.);
#441=ORIENTED_EDGE('',*,*,#338,.F.);
#442=ORIENTED_EDGE('',*,*,#300,.F.);
#443=ORIENTED_EDGE('',*,*,#340,.T.);
#444=ORIENTED_EDGE('',*,*,#341,.F.);
#445=ORIENTED_EDGE('',*,*,#340,.F.);
#446=ORIENTED_EDGE('',*,*,#290,.F.);
#447=ORIENTED_EDGE('',*,*,#342,.F.);
#448=ORIENTED_EDGE('',*,*,#324,.F.);
#449=ORIENTED_EDGE('',*,*,#294,.F.);
#450=ORIENTED_EDGE('',*,*,#312,.T.);
#451=ORIENTED_EDGE('',*,*,#343,.F.);
#452=ORIENTED_EDGE('',*,*,#344,.T.);
#453=ORIENTED_EDGE('',*,*,#345,.F.);
#454=ORIENTED_EDGE('',*,*,#311,.T.);
#455=ORIENTED_EDGE('',*,*,#346,.T.);
#456=ORIENTED_EDGE('',*,*,#347,.T.);
#457=ORIENTED_EDGE('',*,*,#343,.T.);
#458=ORIENTED_EDGE('',*,*,#310,.T.);
#459=ORIENTED_EDGE('',*,*,#348,.F.);
#460=ORIENTED_EDGE('',*,*,#349,.T.);
#461=ORIENTED_EDGE('',*,*,#346,.F.);
#462=ORIENTED_EDGE('',*,*,#309,.T.);
#463=ORIENTED_EDGE('',*,*,#350,.T.);
#464=ORIENTED_EDGE('',*,*,#351,.T.);
#465=ORIENTED_EDGE('',*,*,#348,.T.);
#466=ORIENTED_EDGE('',*,*,#351,.F.);
#467=ORIENTED_EDGE('',*,*,#352,.F.);
#468=ORIENTED_EDGE('',*,*,#353,.F.);
#469=ORIENTED_EDGE('',*,*,#354,.F.);
#470=ORIENTED_EDGE('',*,*,#355,.F.);
#471=ORIENTED_EDGE('',*,*,#344,.F.);
#472=ORIENTED_EDGE('',*,*,#347,.F.);
#473=ORIENTED_EDGE('',*,*,#349,.F.);
#474=ORIENTED_EDGE('',*,*,#356,.T.);
#475=ORIENTED_EDGE('',*,*,#313,.T.);
#476=ORIENTED_EDGE('',*,*,#345,.T.);
#477=ORIENTED_EDGE('',*,*,#355,.T.);
#478=ORIENTED_EDGE('',*,*,#357,.T.);
#479=ORIENTED_EDGE('',*,*,#314,.T.);
#480=ORIENTED_EDGE('',*,*,#357,.F.);
#481=ORIENTED_EDGE('',*,*,#354,.T.);
#482=ORIENTED_EDGE('',*,*,#358,.F.);
#483=ORIENTED_EDGE('',*,*,#315,.T.);
#484=ORIENTED_EDGE('',*,*,#358,.T.);
#485=ORIENTED_EDGE('',*,*,#353,.T.);
#486=ORIENTED_EDGE('',*,*,#359,.T.);
#487=ORIENTED_EDGE('',*,*,#308,.T.);
#488=ORIENTED_EDGE('',*,*,#359,.F.);
#489=ORIENTED_EDGE('',*,*,#352,.T.);
#490=ORIENTED_EDGE('',*,*,#350,.F.);
#491=ORIENTED_EDGE('',*,*,#289,.F.);
#492=ORIENTED_EDGE('',*,*,#293,.T.);
#493=ORIENTED_EDGE('',*,*,#317,.F.);
#494=ORIENTED_EDGE('',*,*,#319,.T.);
#495=ORIENTED_EDGE('',*,*,#321,.F.);
#496=ORIENTED_EDGE('',*,*,#323,.T.);
#497=ORIENTED_EDGE('',*,*,#325,.F.);
#498=ORIENTED_EDGE('',*,*,#342,.T.);
#499=ORIENTED_EDGE('',*,*,#327,.T.);
#500=ORIENTED_EDGE('',*,*,#329,.T.);
#501=ORIENTED_EDGE('',*,*,#331,.T.);
#502=ORIENTED_EDGE('',*,*,#333,.T.);
#503=ORIENTED_EDGE('',*,*,#335,.T.);
#504=ORIENTED_EDGE('',*,*,#337,.T.);
#505=ORIENTED_EDGE('',*,*,#339,.T.);
#506=ORIENTED_EDGE('',*,*,#341,.T.);
#507=ORIENTED_EDGE('',*,*,#356,.F.);
#508=ORIENTED_EDGE('',*,*,#360,.T.);
#509=ORIENTED_EDGE('',*,*,#361,.F.);
#510=ORIENTED_EDGE('',*,*,#360,.F.);
#511=ORIENTED_EDGE('',*,*,#361,.T.);
#512=CYLINDRICAL_SURFACE('',#572,10.);
#513=CYLINDRICAL_SURFACE('',#592,10.);
#514=CYLINDRICAL_SURFACE('',#595,10.);
#515=CYLINDRICAL_SURFACE('',#598,10.);
#516=CYLINDRICAL_SURFACE('',#600,4.);
#517=CYLINDRICAL_SURFACE('',#602,4.);
#518=CYLINDRICAL_SURFACE('',#604,4.);
#519=CYLINDRICAL_SURFACE('',#606,4.);
#520=CYLINDRICAL_SURFACE('',#608,4.);
#521=CYLINDRICAL_SURFACE('',#610,4.);
#522=CYLINDRICAL_SURFACE('',#612,3.99999999999999);
#523=CYLINDRICAL_SURFACE('',#614,4.);
#524=CYLINDRICAL_SURFACE('',#618,50.);
#525=CYLINDRICAL_SURFACE('',#621,50.);
#526=CYLINDRICAL_SURFACE('',#627,50.);
#527=CYLINDRICAL_SURFACE('',#629,50.);
#528=CYLINDRICAL_SURFACE('',#632,20.);
#529=ADVANCED_FACE('',(#45),#512,.T.);
#530=ADVANCED_FACE('',(#46),#33,.T.);
#531=ADVANCED_FACE('',(#47,#15,#16,#17,#18,#19,#20,#21,#22,#23),#34,.F.);
#532=ADVANCED_FACE('',(#48),#513,.T.);
#533=ADVANCED_FACE('',(#49),#35,.T.);
#534=ADVANCED_FACE('',(#50),#514,.T.);
#535=ADVANCED_FACE('',(#51),#36,.T.);
#536=ADVANCED_FACE('',(#52),#515,.T.);
#537=ADVANCED_FACE('',(#53),#516,.F.);
#538=ADVANCED_FACE('',(#54),#517,.F.);
#539=ADVANCED_FACE('',(#55),#518,.F.);
#540=ADVANCED_FACE('',(#56),#519,.F.);
#541=ADVANCED_FACE('',(#57),#520,.F.);
#542=ADVANCED_FACE('',(#58),#521,.F.);
#543=ADVANCED_FACE('',(#59),#522,.F.);
#544=ADVANCED_FACE('',(#60),#523,.F.);
#545=ADVANCED_FACE('',(#61),#37,.T.);
#546=ADVANCED_FACE('',(#62),#38,.T.);
#547=ADVANCED_FACE('',(#63),#524,.T.);
#548=ADVANCED_FACE('',(#64),#39,.T.);
#549=ADVANCED_FACE('',(#65),#525,.T.);
#550=ADVANCED_FACE('',(#66,#24),#40,.F.);
#551=ADVANCED_FACE('',(#67),#526,.T.);
#552=ADVANCED_FACE('',(#68),#41,.T.);
#553=ADVANCED_FACE('',(#69),#527,.T.);
#554=ADVANCED_FACE('',(#70),#42,.T.);
#555=ADVANCED_FACE('',(#71,#25,#26,#27,#28,#29,#30,#31,#32),#43,.T.);
#556=ADVANCED_FACE('',(#72),#528,.T.);
#557=ADVANCED_FACE('',(#73),#44,.T.);
#558=CLOSED_SHELL('',(#529,#530,#531,#532,#533,#534,#535,#536,#537,#538,
#539,#540,#541,#542,#543,#544,#545,#546,#547,#548,#549,#550,#551,#552,#553,
#554,#555,#556,#557));
#559=DERIVED_UNIT_ELEMENT(#561,1.);
#560=DERIVED_UNIT_ELEMENT(#964,-3.);
#561=(
MASS_UNIT()
NAMED_UNIT(*)
SI_UNIT(.KILO.,.GRAM.)
);
#562=DERIVED_UNIT((#559,#560));
#563=MEASURE_REPRESENTATION_ITEM('density measure',
POSITIVE_RATIO_MEASURE(7850.),#562);
#564=PROPERTY_DEFINITION_REPRESENTATION(#569,#566);
#565=PROPERTY_DEFINITION_REPRESENTATION(#570,#567);
#566=REPRESENTATION('material name',(#568),#961);
#567=REPRESENTATION('density',(#563),#961);
#568=DESCRIPTIVE_REPRESENTATION_ITEM('Stal','Stal');
#569=PROPERTY_DEFINITION('material property','material name',#971);
#570=PROPERTY_DEFINITION('material property','density of part',#971);
#571=AXIS2_PLACEMENT_3D('',#804,#635,#636);
#572=AXIS2_PLACEMENT_3D('',#805,#637,#638);
#573=AXIS2_PLACEMENT_3D('',#808,#639,#640);
#574=AXIS2_PLACEMENT_3D('',#812,#642,#643);
#575=AXIS2_PLACEMENT_3D('',#814,#645,#646);
#576=AXIS2_PLACEMENT_3D('',#820,#650,#651);
#577=AXIS2_PLACEMENT_3D('',#824,#653,#654);
#578=AXIS2_PLACEMENT_3D('',#828,#656,#657);
#579=AXIS2_PLACEMENT_3D('',#831,#659,#660);
#580=AXIS2_PLACEMENT_3D('',#833,#661,#662);
#581=AXIS2_PLACEMENT_3D('',#835,#663,#664);
#582=AXIS2_PLACEMENT_3D('',#837,#665,#666);
#583=AXIS2_PLACEMENT_3D('',#839,#667,#668);
#584=AXIS2_PLACEMENT_3D('',#841,#669,#670);
#585=AXIS2_PLACEMENT_3D('',#843,#671,#672);
#586=AXIS2_PLACEMENT_3D('',#845,#673,#674);
#587=AXIS2_PLACEMENT_3D('',#847,#675,#676);
#588=AXIS2_PLACEMENT_3D('',#852,#678,#679);
#589=AXIS2_PLACEMENT_3D('',#856,#681,#682);
#590=AXIS2_PLACEMENT_3D('',#860,#684,#685);
#591=AXIS2_PLACEMENT_3D('',#863,#687,#688);
#592=AXIS2_PLACEMENT_3D('',#864,#689,#690);
#593=AXIS2_PLACEMENT_3D('',#867,#692,#693);
#594=AXIS2_PLACEMENT_3D('',#868,#694,#695);
#595=AXIS2_PLACEMENT_3D('',#872,#698,#699);
#596=AXIS2_PLACEMENT_3D('',#875,#701,#702);
#597=AXIS2_PLACEMENT_3D('',#876,#703,#704);
#598=AXIS2_PLACEMENT_3D('',#880,#707,#708);
#599=AXIS2_PLACEMENT_3D('',#883,#710,#711);
#600=AXIS2_PLACEMENT_3D('',#884,#712,#713);
#601=AXIS2_PLACEMENT_3D('',#887,#715,#716);
#602=AXIS2_PLACEMENT_3D('',#888,#717,#718);
#603=AXIS2_PLACEMENT_3D('',#891,#720,#721);
#604=AXIS2_PLACEMENT_3D('',#892,#722,#723);
#605=AXIS2_PLACEMENT_3D('',#895,#725,#726);
#606=AXIS2_PLACEMENT_3D('',#896,#727,#728);
#607=AXIS2_PLACEMENT_3D('',#899,#730,#731);
#608=AXIS2_PLACEMENT_3D('',#900,#732,#733);
#609=AXIS2_PLACEMENT_3D('',#903,#735,#736);
#610=AXIS2_PLACEMENT_3D('',#904,#737,#738);
#611=AXIS2_PLACEMENT_3D('',#907,#740,#741);
#612=AXIS2_PLACEMENT_3D('',#908,#742,#743);
#613=AXIS2_PLACEMENT_3D('',#911,#745,#746);
#614=AXIS2_PLACEMENT_3D('',#912,#747,#748);
#615=AXIS2_PLACEMENT_3D('',#915,#750,#751);
#616=AXIS2_PLACEMENT_3D('',#916,#752,#753);
#617=AXIS2_PLACEMENT_3D('',#918,#755,#756);
#618=AXIS2_PLACEMENT_3D('',#924,#760,#761);
#619=AXIS2_PLACEMENT_3D('',#927,#763,#764);
#620=AXIS2_PLACEMENT_3D('',#928,#765,#766);
#621=AXIS2_PLACEMENT_3D('',#932,#769,#770);
#622=AXIS2_PLACEMENT_3D('',#935,#772,#773);
#623=AXIS2_PLACEMENT_3D('',#936,#774,#775);
#624=AXIS2_PLACEMENT_3D('',#940,#777,#778);
#625=AXIS2_PLACEMENT_3D('',#943,#780,#781);
#626=AXIS2_PLACEMENT_3D('',#945,#782,#783);
#627=AXIS2_PLACEMENT_3D('',#946,#784,#785);
#628=AXIS2_PLACEMENT_3D('',#948,#787,#788);
#629=AXIS2_PLACEMENT_3D('',#950,#790,#791);
#630=AXIS2_PLACEMENT_3D('',#952,#793,#794);
#631=AXIS2_PLACEMENT_3D('',#953,#795,#796);
#632=AXIS2_PLACEMENT_3D('',#954,#797,#798);
#633=AXIS2_PLACEMENT_3D('',#957,#800,#801);
#634=AXIS2_PLACEMENT_3D('',#958,#802,#803);
#635=DIRECTION('axis',(0.,0.,1.));
#636=DIRECTION('refdir',(1.,0.,0.));
#637=DIRECTION('center_axis',(0.,-2.22044604925031E-16,1.));
#638=DIRECTION('ref_axis',(-0.707106781186548,0.707106781186547,1.57009245868377E-16));
#639=DIRECTION('center_axis',(0.,2.22044604925031E-16,-1.));
#640=DIRECTION('ref_axis',(-0.707106781186548,0.707106781186547,1.57009245868377E-16));
#641=DIRECTION('',(0.,2.22044604925031E-16,-1.));
#642=DIRECTION('center_axis',(0.,-2.22044604925031E-16,1.));
#643=DIRECTION('ref_axis',(-0.707106781186548,0.707106781186547,1.57009245868377E-16));
#644=DIRECTION('',(0.,-2.22044604925031E-16,1.));
#645=DIRECTION('center_axis',(2.22044604925031E-16,1.,2.22044604925031E-16));
#646=DIRECTION('ref_axis',(-1.,2.22044604925031E-16,4.93038065763132E-32));
#647=DIRECTION('',(-1.,1.66533453693773E-16,3.69778549322349E-32));
#648=DIRECTION('',(0.,-2.22044604925031E-16,1.));
#649=DIRECTION('',(1.,-1.66533453693773E-16,-3.69778549322349E-32));
#650=DIRECTION('center_axis',(0.,2.22044604925031E-16,-1.));
#651=DIRECTION('ref_axis',(0.866025407670345,0.499999993269413,1.11022300968025E-16));
#652=DIRECTION('',(5.55111512312578E-17,-1.,-2.22044604925031E-16));
#653=DIRECTION('center_axis',(0.,2.22044604925031E-16,-1.));
#654=DIRECTION('ref_axis',(-0.707106781186547,-0.707106781186548,-1.57009245868378E-16));
#655=DIRECTION('',(1.,-1.11022302462516E-16,-2.46519032881566E-32));
#656=DIRECTION('center_axis',(0.,2.22044604925031E-16,-1.));
#657=DIRECTION('ref_axis',(0.707106781186545,-0.70710678118655,-1.57009245868378E-16));
#658=DIRECTION('',(4.44089209850063E-16,1.,2.22044604925031E-16));
#659=DIRECTION('center_axis',(0.,2.22044604925031E-16,-1.));
#660=DIRECTION('ref_axis',(0.707106781186546,0.707106781186549,1.57009245868378E-16));
#661=DIRECTION('center_axis',(0.,2.22044604925031E-16,-1.));
#662=DIRECTION('ref_axis',(0.866025407670345,0.499999993269413,1.11022300968025E-16));
#663=DIRECTION('center_axis',(0.,2.22044604925031E-16,-1.));
#664=DIRECTION('ref_axis',(0.866025407670345,0.499999993269413,1.11022300968025E-16));
#665=DIRECTION('center_axis',(0.,2.22044604925031E-16,-1.));
#666=DIRECTION('ref_axis',(0.866025407670345,0.499999993269413,1.11022300968025E-16));
#667=DIRECTION('center_axis',(0.,2.22044604925031E-16,-1.));
#668=DIRECTION('ref_axis',(0.866025407670345,0.499999993269413,1.11022300968025E-16));
#669=DIRECTION('center_axis',(0.,2.22044604925031E-16,-1.));
#670=DIRECTION('ref_axis',(0.866025407670345,0.499999993269413,1.11022300968025E-16));
#671=DIRECTION('center_axis',(0.,2.22044604925031E-16,-1.));
#672=DIRECTION('ref_axis',(0.866025407670345,0.499999993269413,1.11022300968025E-16));
#673=DIRECTION('center_axis',(0.,2.22044604925031E-16,-1.));
#674=DIRECTION('ref_axis',(0.866025407670345,0.499999993269413,1.11022300968025E-16));
#675=DIRECTION('center_axis',(0.,2.22044604925031E-16,-1.));
#676=DIRECTION('ref_axis',(0.866025407670345,0.499999993269413,1.11022300968025E-16));
#677=DIRECTION('',(6.10622663543836E-16,-1.,-2.22044604925031E-16));
#678=DIRECTION('center_axis',(0.,-2.22044604925031E-16,1.));
#679=DIRECTION('ref_axis',(-0.707106781186548,0.707106781186547,1.57009245868377E-16));
#680=DIRECTION('',(-1.,-2.22044604925031E-16,-4.93038065763132E-32));
#681=DIRECTION('center_axis',(0.,-2.22044604925031E-16,1.));
#682=DIRECTION('ref_axis',(0.707106781186548,0.707106781186548,1.57009245868377E-16));
#683=DIRECTION('',(-1.66533453693773E-16,1.,2.22044604925031E-16));
#684=DIRECTION('center_axis',(0.,-2.22044604925031E-16,1.));
#685=DIRECTION('ref_axis',(0.707106781186548,-0.707106781186547,-1.57009245868377E-16));
#686=DIRECTION('',(1.,4.9960036108132E-16,1.10933564796705E-31));
#687=DIRECTION('center_axis',(0.,-2.22044604925031E-16,1.));
#688=DIRECTION('ref_axis',(-0.707106781186547,-0.707106781186548,-1.57009245868377E-16));
#689=DIRECTION('center_axis',(0.,-2.22044604925031E-16,1.));
#690=DIRECTION('ref_axis',(0.707106781186546,0.707106781186549,1.57009245868378E-16));
#691=DIRECTION('',(0.,2.22044604925031E-16,-1.));
#692=DIRECTION('center_axis',(0.,-2.22044604925031E-16,1.));
#693=DIRECTION('ref_axis',(0.707106781186546,0.707106781186549,1.57009245868378E-16));
#694=DIRECTION('center_axis',(1.,-4.9960036108132E-16,-1.10933564796705E-31));
#695=DIRECTION('ref_axis',(4.9960036108132E-16,1.,2.22044604925031E-16));
#696=DIRECTION('',(0.,-2.22044604925031E-16,1.));
#697=DIRECTION('',(-4.44089209850063E-16,-1.,-2.22044604925031E-16));
#698=DIRECTION('center_axis',(0.,-2.22044604925031E-16,1.));
#699=DIRECTION('ref_axis',(0.707106781186545,-0.70710678118655,-1.57009245868378E-16));
#700=DIRECTION('',(0.,2.22044604925031E-16,-1.));
#701=DIRECTION('center_axis',(0.,-2.22044604925031E-16,1.));
#702=DIRECTION('ref_axis',(0.707106781186545,-0.70710678118655,-1.57009245868378E-16));
#703=DIRECTION('center_axis',(-1.11022302462516E-16,-1.,-2.22044604925031E-16));
#704=DIRECTION('ref_axis',(1.,-1.11022302462516E-16,-2.46519032881566E-32));
#705=DIRECTION('',(0.,-2.22044604925031E-16,1.));
#706=DIRECTION('',(-1.,1.11022302462516E-16,2.46519032881566E-32));
#707=DIRECTION('center_axis',(0.,-2.22044604925031E-16,1.));
#708=DIRECTION('ref_axis',(-0.707106781186547,-0.707106781186548,-1.57009245868378E-16));
#709=DIRECTION('',(0.,2.22044604925031E-16,-1.));
#710=DIRECTION('center_axis',(0.,-2.22044604925031E-16,1.));
#711=DIRECTION('ref_axis',(-0.707106781186547,-0.707106781186548,-1.57009245868378E-16));
#712=DIRECTION('center_axis',(0.,-2.22044604925031E-16,1.));
#713=DIRECTION('ref_axis',(0.866025407670345,0.499999993269413,1.11022300968025E-16));
#714=DIRECTION('',(0.,2.22044604925031E-16,-1.));
#715=DIRECTION('center_axis',(0.,-2.22044604925031E-16,1.));
#716=DIRECTION('ref_axis',(0.866025407670345,0.499999993269413,1.11022300968025E-16));
#717=DIRECTION('center_axis',(0.,-2.22044604925031E-16,1.));
#718=DIRECTION('ref_axis',(0.866025407670345,0.499999993269413,1.11022300968025E-16));
#719=DIRECTION('',(0.,2.22044604925031E-16,-1.));
#720=DIRECTION('center_axis',(0.,-2.22044604925031E-16,1.));
#721=DIRECTION('ref_axis',(0.866025407670345,0.499999993269413,1.11022300968025E-16));
#722=DIRECTION('center_axis',(0.,-2.22044604925031E-16,1.));
#723=DIRECTION('ref_axis',(0.866025407670345,0.499999993269413,1.11022300968025E-16));
#724=DIRECTION('',(0.,2.22044604925031E-16,-1.));
#725=DIRECTION('center_axis',(0.,-2.22044604925031E-16,1.));
#726=DIRECTION('ref_axis',(0.866025407670345,0.499999993269413,1.11022300968025E-16));
#727=DIRECTION('center_axis',(0.,-2.22044604925031E-16,1.));
#728=DIRECTION('ref_axis',(0.866025407670345,0.499999993269413,1.11022300968025E-16));
#729=DIRECTION('',(0.,2.22044604925031E-16,-1.));
#730=DIRECTION('center_axis',(0.,-2.22044604925031E-16,1.));
#731=DIRECTION('ref_axis',(0.866025407670345,0.499999993269413,1.11022300968025E-16));
#732=DIRECTION('center_axis',(0.,-2.22044604925031E-16,1.));
#733=DIRECTION('ref_axis',(0.866025407670345,0.499999993269413,1.11022300968025E-16));
#734=DIRECTION('',(0.,2.22044604925031E-16,-1.));
#735=DIRECTION('center_axis',(0.,-2.22044604925031E-16,1.));
#736=DIRECTION('ref_axis',(0.866025407670345,0.499999993269413,1.11022300968025E-16));
#737=DIRECTION('center_axis',(0.,-2.22044604925031E-16,1.));
#738=DIRECTION('ref_axis',(0.866025407670345,0.499999993269413,1.11022300968025E-16));
#739=DIRECTION('',(0.,2.22044604925031E-16,-1.));
#740=DIRECTION('center_axis',(0.,-2.22044604925031E-16,1.));
#741=DIRECTION('ref_axis',(0.866025407670345,0.499999993269413,1.11022300968025E-16));
#742=DIRECTION('center_axis',(0.,-2.22044604925031E-16,1.));
#743=DIRECTION('ref_axis',(0.866025407670345,0.499999993269413,1.11022300968025E-16));
#744=DIRECTION('',(0.,2.22044604925031E-16,-1.));
#745=DIRECTION('center_axis',(0.,-2.22044604925031E-16,1.));
#746=DIRECTION('ref_axis',(0.866025407670345,0.499999993269413,1.11022300968025E-16));
#747=DIRECTION('center_axis',(0.,-2.22044604925031E-16,1.));
#748=DIRECTION('ref_axis',(0.866025407670345,0.499999993269413,1.11022300968025E-16));
#749=DIRECTION('',(0.,2.22044604925031E-16,-1.));
#750=DIRECTION('center_axis',(0.,-2.22044604925031E-16,1.));
#751=DIRECTION('ref_axis',(0.866025407670345,0.499999993269413,1.11022300968025E-16));
#752=DIRECTION('center_axis',(-1.,-1.11022302462516E-16,-2.46519032881566E-32));
#753=DIRECTION('ref_axis',(1.11022302462516E-16,-1.,-2.22044604925031E-16));
#754=DIRECTION('',(-5.55111512312578E-17,1.,2.22044604925031E-16));
#755=DIRECTION('center_axis',(1.,1.66533453693773E-16,3.69778549322349E-32));
#756=DIRECTION('ref_axis',(1.66533453693773E-16,-1.,-2.22044604925031E-16));
#757=DIRECTION('',(0.,2.22044604925031E-16,-1.));
#758=DIRECTION('',(1.66533453693774E-16,-1.,-2.22044604925031E-16));
#759=DIRECTION('',(0.,-2.22044604925031E-16,1.));
#760=DIRECTION('center_axis',(0.,2.22044604925031E-16,-1.));
#761=DIRECTION('ref_axis',(0.707106781186548,0.707106781186548,1.57009245868377E-16));
#762=DIRECTION('',(0.,-2.22044604925031E-16,1.));
#763=DIRECTION('center_axis',(0.,2.22044604925031E-16,-1.));
#764=DIRECTION('ref_axis',(0.707106781186548,0.707106781186548,1.57009245868377E-16));
#765=DIRECTION('center_axis',(-2.22044604925031E-16,1.,2.22044604925031E-16));
#766=DIRECTION('ref_axis',(1.,2.22044604925031E-16,4.93038065763132E-32));
#767=DIRECTION('',(0.,2.22044604925031E-16,-1.));
#768=DIRECTION('',(1.,2.22044604925031E-16,4.93038065763132E-32));
#769=DIRECTION('center_axis',(0.,2.22044604925031E-16,-1.));
#770=DIRECTION('ref_axis',(-0.707106781186548,0.707106781186547,1.57009245868377E-16));
#771=DIRECTION('',(0.,-2.22044604925031E-16,1.));
#772=DIRECTION('center_axis',(0.,2.22044604925031E-16,-1.));
#773=DIRECTION('ref_axis',(-0.707106781186548,0.707106781186547,1.57009245868377E-16));
#774=DIRECTION('center_axis',(0.,2.22044604925031E-16,-1.));
#775=DIRECTION('ref_axis',(0.866025407670345,0.499999993269413,1.11022300968025E-16));
#776=DIRECTION('',(-6.10622663543836E-16,1.,2.22044604925031E-16));
#777=DIRECTION('center_axis',(0.,2.22044604925031E-16,-1.));
#778=DIRECTION('ref_axis',(-0.707106781186547,-0.707106781186548,-1.57009245868377E-16));
#779=DIRECTION('',(-1.,-4.9960036108132E-16,-1.10933564796705E-31));
#780=DIRECTION('center_axis',(0.,2.22044604925031E-16,-1.));
#781=DIRECTION('ref_axis',(0.707106781186548,-0.707106781186547,-1.57009245868377E-16));
#782=DIRECTION('center_axis',(0.,2.22044604925031E-16,-1.));
#783=DIRECTION('ref_axis',(-0.866025407670345,-0.499999993269413,-1.11022300968025E-16));
#784=DIRECTION('center_axis',(0.,2.22044604925031E-16,-1.));
#785=DIRECTION('ref_axis',(0.707106781186548,-0.707106781186547,-1.57009245868377E-16));
#786=DIRECTION('',(0.,2.22044604925031E-16,-1.));
#787=DIRECTION('center_axis',(4.9960036108132E-16,-1.,-2.22044604925031E-16));
#788=DIRECTION('ref_axis',(-1.,-4.9960036108132E-16,-1.10933564796705E-31));
#789=DIRECTION('',(0.,-2.22044604925031E-16,1.));
#790=DIRECTION('center_axis',(0.,2.22044604925031E-16,-1.));
#791=DIRECTION('ref_axis',(-0.707106781186547,-0.707106781186548,-1.57009245868377E-16));
#792=DIRECTION('',(0.,2.22044604925031E-16,-1.));
#793=DIRECTION('center_axis',(-1.,-6.10622663543836E-16,-1.35585468084861E-31));
#794=DIRECTION('ref_axis',(-6.10622663543836E-16,1.,2.22044604925031E-16));
#795=DIRECTION('center_axis',(0.,2.22044604925031E-16,-1.));
#796=DIRECTION('ref_axis',(-0.5,0.866025403784439,1.92296268638356E-16));
#797=DIRECTION('center_axis',(0.,2.22044604925031E-16,-1.));
#798=DIRECTION('ref_axis',(-0.866025407670345,-0.499999993269413,-1.11022300968025E-16));
#799=DIRECTION('',(0.,-2.22044604925031E-16,1.));
#800=DIRECTION('center_axis',(0.,-2.22044604925031E-16,1.));
#801=DIRECTION('ref_axis',(-0.866025407670345,-0.499999993269413,-1.11022300968025E-16));
#802=DIRECTION('center_axis',(0.,-2.22044604925031E-16,1.));
#803=DIRECTION('ref_axis',(-0.866025407670345,-0.499999993269413,-1.11022300968025E-16));
#804=CARTESIAN_POINT('',(0.,0.,0.));
#805=CARTESIAN_POINT('Origin',(-75.0000000000001,75.0000000000002,0.));
#806=CARTESIAN_POINT('',(-85.0000000000001,75.0000000000001,20.));
#807=CARTESIAN_POINT('',(-75.0000000000001,85.0000000000002,20.));
#808=CARTESIAN_POINT('Origin',(-75.0000000000001,75.0000000000001,20.));
#809=CARTESIAN_POINT('',(-75.0000000000001,85.0000000000002,3.5527136788005E-14));
#810=CARTESIAN_POINT('',(-75.0000000000001,85.0000000000002,3.5527136788005E-14));
#811=CARTESIAN_POINT('',(-85.0000000000001,75.0000000000001,0.));
#812=CARTESIAN_POINT('Origin',(-75.0000000000001,75.0000000000002,0.));
#813=CARTESIAN_POINT('',(-85.0000000000001,75.0000000000002,0.));
#814=CARTESIAN_POINT('Origin',(85.0000000000001,85.0000000000001,3.5527136788005E-14));
#815=CARTESIAN_POINT('',(75.0000000000001,85.0000000000001,20.));
#816=CARTESIAN_POINT('',(-85.0000000000001,85.0000000000002,20.));
#817=CARTESIAN_POINT('',(75.0000000000001,85.0000000000001,3.5527136788005E-14));
#818=CARTESIAN_POINT('',(75.0000000000001,85.0000000000001,3.5527136788005E-14));
#819=CARTESIAN_POINT('',(-85.0000000000001,85.0000000000002,3.5527136788005E-14));
#820=CARTESIAN_POINT('Origin',(3.5527136788005E-14,1.06581410364015E-13,
20.));
#821=CARTESIAN_POINT('',(-85.0000000000001,-75.,20.));
#822=CARTESIAN_POINT('',(-85.0000000000001,-85.,20.));
#823=CARTESIAN_POINT('',(-75.0000000000001,-85.,20.));
#824=CARTESIAN_POINT('Origin',(-75.0000000000001,-75.,20.));
#825=CARTESIAN_POINT('',(75.0000000000001,-85.,20.));
#826=CARTESIAN_POINT('',(85.,-85.,20.));
#827=CARTESIAN_POINT('',(85.,-75.,20.));
#828=CARTESIAN_POINT('Origin',(75.0000000000001,-75.,20.));
#829=CARTESIAN_POINT('',(85.0000000000001,75.0000000000001,20.));
#830=CARTESIAN_POINT('',(85.0000000000001,85.0000000000002,20.));
#831=CARTESIAN_POINT('Origin',(75.0000000000001,75.0000000000001,20.));
#832=CARTESIAN_POINT('',(66.5358983693187,-1.99999997307753,20.));
#833=CARTESIAN_POINT('Origin',(70.0000000000001,1.06581410364015E-13,20.));
#834=CARTESIAN_POINT('',(66.5358983693191,68.0000000269221,20.));
#835=CARTESIAN_POINT('Origin',(70.0000000000005,69.9999999999997,20.));
#836=CARTESIAN_POINT('',(-73.4641016306815,-1.99999997307767,20.));
#837=CARTESIAN_POINT('Origin',(-70.0000000000001,-3.5527136788005E-14,20.));
#838=CARTESIAN_POINT('',(-73.464101630681,68.0000000269229,20.));
#839=CARTESIAN_POINT('Origin',(-69.9999999999996,70.0000000000006,20.));
#840=CARTESIAN_POINT('',(-3.46410163068146,68.0000000269225,20.));
#841=CARTESIAN_POINT('Origin',(-8.88178419700125E-14,70.0000000000001,20.));
#842=CARTESIAN_POINT('',(66.5358983693183,-71.9999999730781,20.));
#843=CARTESIAN_POINT('Origin',(69.9999999999996,-70.0000000000005,20.));
#844=CARTESIAN_POINT('',(-73.4641016306819,-71.9999999730773,20.));
#845=CARTESIAN_POINT('Origin',(-70.0000000000005,-69.9999999999996,20.));
#846=CARTESIAN_POINT('',(-3.4641016306813,-71.9999999730777,20.));
#847=CARTESIAN_POINT('Origin',(7.105427357601E-14,-70.,20.));
#848=CARTESIAN_POINT('',(-54.9999999999999,5.,20.));
#849=CARTESIAN_POINT('',(-54.9999999999999,-5.00000000000007,20.));
#850=CARTESIAN_POINT('',(-54.9999999999999,-27.5,20.));
#851=CARTESIAN_POINT('',(-4.99999999999989,55.,20.));
#852=CARTESIAN_POINT('Origin',(-4.99999999999989,5.,20.));
#853=CARTESIAN_POINT('',(5.00000000000007,55.,20.));
#854=CARTESIAN_POINT('',(-27.5,55.,20.));
#855=CARTESIAN_POINT('',(55.0000000000001,5.00000000000004,20.));
#856=CARTESIAN_POINT('Origin',(5.00000000000007,5.,20.));
#857=CARTESIAN_POINT('',(55.0000000000001,-5.00000000000004,20.));
#858=CARTESIAN_POINT('',(55.0000000000001,27.5000000000001,20.));
#859=CARTESIAN_POINT('',(5.00000000000018,-55.0000000000001,20.));
#860=CARTESIAN_POINT('Origin',(5.00000000000012,-5.00000000000004,20.));
#861=CARTESIAN_POINT('',(-4.99999999999986,-55.,20.));
#862=CARTESIAN_POINT('',(27.5000000000001,-55.,20.));
#863=CARTESIAN_POINT('Origin',(-4.99999999999989,-5.00000000000004,20.));
#864=CARTESIAN_POINT('Origin',(75.0000000000001,75.0000000000001,0.));
#865=CARTESIAN_POINT('',(85.0000000000001,75.0000000000001,0.));
#866=CARTESIAN_POINT('',(85.0000000000001,75.0000000000001,0.));
#867=CARTESIAN_POINT('Origin',(75.0000000000001,75.0000000000001,0.));
#868=CARTESIAN_POINT('Origin',(85.,-85.,0.));
#869=CARTESIAN_POINT('',(85.,-75.,0.));
#870=CARTESIAN_POINT('',(85.,-75.,0.));
#871=CARTESIAN_POINT('',(85.0000000000001,85.0000000000002,3.5527136788005E-14));
#872=CARTESIAN_POINT('Origin',(75.0000000000001,-75.,0.));
#873=CARTESIAN_POINT('',(75.0000000000001,-85.,0.));
#874=CARTESIAN_POINT('',(75.0000000000001,-85.,-3.5527136788005E-14));
#875=CARTESIAN_POINT('Origin',(75.0000000000001,-75.,0.));
#876=CARTESIAN_POINT('Origin',(-85.0000000000001,-85.,-3.5527136788005E-14));
#877=CARTESIAN_POINT('',(-75.0000000000001,-85.,0.));
#878=CARTESIAN_POINT('',(-75.0000000000001,-85.,0.));
#879=CARTESIAN_POINT('',(85.,-85.,0.));
#880=CARTESIAN_POINT('Origin',(-75.0000000000001,-75.,0.));
#881=CARTESIAN_POINT('',(-85.0000000000001,-75.,0.));
#882=CARTESIAN_POINT('',(-85.0000000000001,-75.,0.));
#883=CARTESIAN_POINT('Origin',(-75.0000000000001,-75.,0.));
#884=CARTESIAN_POINT('Origin',(7.105427357601E-14,-70.,0.));
#885=CARTESIAN_POINT('',(-3.4641016306813,-71.9999999730777,0.));
#886=CARTESIAN_POINT('',(-3.46410163068131,-71.9999999730777,-4.44089203872101E-16));
#887=CARTESIAN_POINT('Origin',(7.105427357601E-14,-70.,0.));
#888=CARTESIAN_POINT('Origin',(-70.0000000000005,-69.9999999999996,0.));
#889=CARTESIAN_POINT('',(-73.4641016306819,-71.9999999730773,0.));
#890=CARTESIAN_POINT('',(-73.4641016306819,-71.9999999730773,-4.440892038721E-16));
#891=CARTESIAN_POINT('Origin',(-70.0000000000005,-69.9999999999996,0.));
#892=CARTESIAN_POINT('Origin',(69.9999999999996,-70.0000000000005,0.));
#893=CARTESIAN_POINT('',(66.5358983693183,-71.9999999730781,0.));
#894=CARTESIAN_POINT('',(66.5358983693183,-71.9999999730781,-4.44089203872101E-16));
#895=CARTESIAN_POINT('Origin',(69.9999999999996,-70.0000000000005,0.));
#896=CARTESIAN_POINT('Origin',(-8.88178419700125E-14,70.0000000000002,0.));
#897=CARTESIAN_POINT('',(-3.46410163068146,68.0000000269225,0.));
#898=CARTESIAN_POINT('',(-3.46410163068147,68.0000000269225,-4.44089203872101E-16));
#899=CARTESIAN_POINT('Origin',(-8.88178419700125E-14,70.0000000000002,0.));
#900=CARTESIAN_POINT('Origin',(-69.9999999999996,70.0000000000006,0.));
#901=CARTESIAN_POINT('',(-73.464101630681,68.0000000269229,0.));
#902=CARTESIAN_POINT('',(-73.464101630681,68.0000000269229,-4.44089203872101E-16));
#903=CARTESIAN_POINT('Origin',(-69.9999999999996,70.0000000000006,0.));
#904=CARTESIAN_POINT('Origin',(-70.0000000000001,-3.5527136788005E-14,0.));
#905=CARTESIAN_POINT('',(-73.4641016306815,-1.99999997307767,0.));
#906=CARTESIAN_POINT('',(-73.4641016306815,-1.99999997307769,-4.440892038721E-16));
#907=CARTESIAN_POINT('Origin',(-70.0000000000001,-3.5527136788005E-14,0.));
#908=CARTESIAN_POINT('Origin',(70.0000000000005,69.9999999999997,0.));
#909=CARTESIAN_POINT('',(66.5358983693191,68.0000000269221,0.));
#910=CARTESIAN_POINT('',(66.5358983693192,68.0000000269221,-4.44089203872099E-16));
#911=CARTESIAN_POINT('Origin',(70.0000000000005,69.9999999999997,0.));
#912=CARTESIAN_POINT('Origin',(70.0000000000001,1.06581410364015E-13,0.));
#913=CARTESIAN_POINT('',(66.5358983693187,-1.99999997307753,0.));
#914=CARTESIAN_POINT('',(66.5358983693187,-1.99999997307755,-4.44089203872101E-16));
#915=CARTESIAN_POINT('Origin',(70.0000000000001,1.06581410364015E-13,0.));
#916=CARTESIAN_POINT('Origin',(-85.0000000000001,85.0000000000001,3.5527136788005E-14));
#917=CARTESIAN_POINT('',(-85.0000000000001,-85.,-3.5527136788005E-14));
#918=CARTESIAN_POINT('Origin',(55.0000000000001,55.,215.));
#919=CARTESIAN_POINT('',(55.0000000000001,4.99999999999996,215.));
#920=CARTESIAN_POINT('',(55.0000000000001,4.99999999999996,215.));
#921=CARTESIAN_POINT('',(55.0000000000001,-5.00000000000004,215.));
#922=CARTESIAN_POINT('',(55.0000000000001,55.,215.));
#923=CARTESIAN_POINT('',(55.0000000000001,-5.00000000000004,215.));
#924=CARTESIAN_POINT('Origin',(5.00000000000007,4.99999999999996,215.));
#925=CARTESIAN_POINT('',(5.00000000000007,55.,215.));
#926=CARTESIAN_POINT('',(5.00000000000007,55.,215.));
#927=CARTESIAN_POINT('Origin',(5.00000000000007,4.99999999999996,215.));
#928=CARTESIAN_POINT('Origin',(-54.9999999999999,55.,215.));
#929=CARTESIAN_POINT('',(-4.99999999999991,55.,215.));
#930=CARTESIAN_POINT('',(-4.99999999999991,55.,215.));
#931=CARTESIAN_POINT('',(-54.9999999999999,55.,215.));
#932=CARTESIAN_POINT('Origin',(-4.99999999999989,4.99999999999996,215.));
#933=CARTESIAN_POINT('',(-54.9999999999999,4.99999999999993,215.));
#934=CARTESIAN_POINT('',(-54.9999999999999,4.99999999999993,215.));
#935=CARTESIAN_POINT('Origin',(-4.99999999999989,4.99999999999996,215.));
#936=CARTESIAN_POINT('Origin',(1.06581410364015E-13,0.,215.));
#937=CARTESIAN_POINT('',(-54.9999999999999,-5.00000000000011,215.));
#938=CARTESIAN_POINT('',(-54.9999999999999,-55.0000000000001,215.));
#939=CARTESIAN_POINT('',(-4.99999999999988,-55.,215.));
#940=CARTESIAN_POINT('Origin',(-4.99999999999989,-5.00000000000007,215.));
#941=CARTESIAN_POINT('',(5.00000000000018,-55.,215.));
#942=CARTESIAN_POINT('',(55.0000000000001,-55.,215.));
#943=CARTESIAN_POINT('Origin',(5.00000000000012,-5.00000000000007,215.));
#944=CARTESIAN_POINT('',(17.3205081534069,9.99999986538828,215.));
#945=CARTESIAN_POINT('Origin',(-1.77635683940025E-14,0.,215.));
#946=CARTESIAN_POINT('Origin',(5.00000000000012,-5.00000000000007,215.));
#947=CARTESIAN_POINT('',(5.00000000000016,-55.,215.));
#948=CARTESIAN_POINT('Origin',(55.0000000000001,-55.,215.));
#949=CARTESIAN_POINT('',(-4.99999999999988,-55.,215.));
#950=CARTESIAN_POINT('Origin',(-4.99999999999989,-5.00000000000007,215.));
#951=CARTESIAN_POINT('',(-54.9999999999999,-5.00000000000011,215.));
#952=CARTESIAN_POINT('Origin',(-54.9999999999999,-55.0000000000001,215.));
#953=CARTESIAN_POINT('Origin',(1.06581410364015E-13,3.5527136788005E-14,
0.));
#954=CARTESIAN_POINT('Origin',(-1.77635683940025E-14,-3.5527136788005E-14,
245.5));
#955=CARTESIAN_POINT('',(17.3205081534069,9.99999986538825,245.5));
#956=CARTESIAN_POINT('',(17.3205081534069,9.99999986538822,245.5));
#957=CARTESIAN_POINT('Origin',(-1.77635683940025E-14,-3.5527136788005E-14,
245.5));
#958=CARTESIAN_POINT('Origin',(-1.77635683940025E-14,-3.5527136788005E-14,
245.5));
#959=UNCERTAINTY_MEASURE_WITH_UNIT(LENGTH_MEASURE(0.01),#963,
'DISTANCE_ACCURACY_VALUE',
'Maximum model space distance between geometric entities at asserted c
onnectivities');
#960=UNCERTAINTY_MEASURE_WITH_UNIT(LENGTH_MEASURE(0.01),#963,
'DISTANCE_ACCURACY_VALUE',
'Maximum model space distance between geometric entities at asserted c
onnectivities');
#961=(
GEOMETRIC_REPRESENTATION_CONTEXT(3)
GLOBAL_UNCERTAINTY_ASSIGNED_CONTEXT((#959))
GLOBAL_UNIT_ASSIGNED_CONTEXT((#963,#965,#966))
REPRESENTATION_CONTEXT('','3D')
);
#962=(
GEOMETRIC_REPRESENTATION_CONTEXT(3)
GLOBAL_UNCERTAINTY_ASSIGNED_CONTEXT((#960))
GLOBAL_UNIT_ASSIGNED_CONTEXT((#963,#965,#966))
REPRESENTATION_CONTEXT('','3D')
);
#963=(
LENGTH_UNIT()
NAMED_UNIT(*)
SI_UNIT(.MILLI.,.METRE.)
);
#964=(
LENGTH_UNIT()
NAMED_UNIT(*)
SI_UNIT($,.METRE.)
);
#965=(
NAMED_UNIT(*)
PLANE_ANGLE_UNIT()
SI_UNIT($,.RADIAN.)
);
#966=(
NAMED_UNIT(*)
SI_UNIT($,.STERADIAN.)
SOLID_ANGLE_UNIT()
);
#967=SHAPE_DEFINITION_REPRESENTATION(#968,#969);
#968=PRODUCT_DEFINITION_SHAPE('',$,#971);
#969=SHAPE_REPRESENTATION('',(#571),#961);
#970=PRODUCT_DEFINITION_CONTEXT('part definition',#975,'design');
#971=PRODUCT_DEFINITION('czlon1','czlon1',#972,#970);
#972=PRODUCT_DEFINITION_FORMATION('',$,#977);
#973=PRODUCT_RELATED_PRODUCT_CATEGORY('czlon1','czlon1',(#977));
#974=APPLICATION_PROTOCOL_DEFINITION('international standard',
'automotive_design',2009,#975);
#975=APPLICATION_CONTEXT(
'Core Data for Automotive Mechanical Design Process');
#976=PRODUCT_CONTEXT('part definition',#975,'mechanical');
#977=PRODUCT('czlon1','czlon1',$,(#976));
#978=PRESENTATION_STYLE_ASSIGNMENT((#979));
#979=SURFACE_STYLE_USAGE(.BOTH.,#980);
#980=SURFACE_SIDE_STYLE('',(#981));
#981=SURFACE_STYLE_FILL_AREA(#982);
#982=FILL_AREA_STYLE('Stal \X2\2014\X0\ satynowa',(#983));
#983=FILL_AREA_STYLE_COLOUR('Stal \X2\2014\X0\ satynowa',#984);
#984=COLOUR_RGB('Stal \X2\2014\X0\ satynowa',0.627450980392157,0.627450980392157,
0.627450980392157);
ENDSEC;
END-ISO-10303-21;
